<svg width="53" height="66" viewBox="0 0 53 66" fill="none" xmlns="http://www.w3.org/2000/svg">
<path d="M45.8095 0H13.9974C10.0526 0 6.87143 3.18122 6.80781 7.12593C2.99034 7.3168 0 10.498 0 14.3155V58.4071C0 62.3519 3.24484 65.5967 7.18955 65.5967H39.0017C42.9464 65.5967 46.1277 62.4155 46.1913 58.4708C50.0087 58.2799 52.9991 55.0987 52.9991 51.2812V7.25317C53.0627 3.24484 49.8179 0 45.8095 0ZM43.8372 58.4071C43.8372 61.0794 41.6739 63.2426 39.0017 63.2426H7.18955C4.51733 63.2426 2.41773 61.0794 2.41773 58.4708V14.3155C2.41773 11.6433 4.58095 9.54365 7.18955 9.54365H32.8938V20.6143C32.8938 21.2505 33.4028 21.8231 34.1026 21.8231H43.8372V58.4071ZM35.3115 19.4054V11.4524L42.3738 19.4054H35.3115ZM46.2549 56.1167V20.6143C46.2549 20.487 46.1913 20.2962 46.1913 20.1689C46.1913 20.1053 46.1277 20.0417 46.1277 20.0417C46.064 19.978 46.064 19.9144 46.0004 19.8508L34.9934 7.50767C34.9298 7.44405 34.8025 7.38042 34.6753 7.3168C34.6116 7.3168 34.6116 7.25317 34.548 7.25317C34.4208 7.18955 34.2299 7.12593 34.039 7.12593H9.22553C9.28916 4.51733 11.3888 2.41772 13.9974 2.41772H45.8095C48.4818 2.41772 50.5814 4.58095 50.5814 7.18955V51.3448H50.645C50.645 53.8262 48.6726 55.9258 46.2549 56.1167Z" fill="#11D170"/>
<path d="M8.65222 21.823H19.2775C19.9137 21.823 20.4864 21.314 20.4864 20.6141C20.4864 19.9779 19.9774 19.4053 19.2775 19.4053H8.65222C8.01598 19.4053 7.44336 19.9143 7.44336 20.6141C7.44336 21.314 7.95235 21.823 8.65222 21.823Z" fill="#11D170"/>
<path d="M19.2139 51.0259H8.65222C8.01598 51.0259 7.44336 51.5349 7.44336 52.2347C7.44336 52.871 7.95235 53.4436 8.65222 53.4436H19.2775C19.9137 53.4436 20.4864 52.9346 20.4864 52.2347C20.4227 51.5985 19.9137 51.0259 19.2139 51.0259Z" fill="#11D170"/>
<path d="M7.44336 28.6312C7.44336 29.2675 7.95235 29.8401 8.65222 29.8401H37.0287C37.6649 29.8401 38.2375 29.3311 38.2375 28.6312C38.2375 27.995 37.6649 27.4224 37.0287 27.4224H8.65222C8.01598 27.4224 7.44336 27.9314 7.44336 28.6312Z" fill="#11D170"/>
<path d="M37.0287 33.3394H8.65222C8.01598 33.3394 7.44336 33.8483 7.44336 34.5482C7.44336 35.1845 7.95235 35.7571 8.65222 35.7571H37.0287C37.6649 35.7571 38.2375 35.2481 38.2375 34.5482C38.2375 33.912 37.6649 33.3394 37.0287 33.3394Z" fill="#11D170"/>
<path d="M37.0287 39.3198H8.65222C8.01598 39.3198 7.44336 39.8288 7.44336 40.5287C7.44336 41.1649 7.95235 41.7375 8.65222 41.7375H37.0287C37.6649 41.7375 38.2375 41.2286 38.2375 40.5287C38.2375 39.8288 37.6649 39.3198 37.0287 39.3198Z" fill="#11D170"/>
<path d="M37.0287 45.2368H8.65222C8.01598 45.2368 7.44336 45.7458 7.44336 46.4457C7.44336 47.0819 7.95235 47.6545 8.65222 47.6545H37.0287C37.6649 47.6545 38.2375 47.1455 38.2375 46.4457C38.2375 45.7458 37.6649 45.2368 37.0287 45.2368Z" fill="#11D170"/>
</svg>
