<svg width="67" height="67" viewBox="0 0 67 67" fill="none" xmlns="http://www.w3.org/2000/svg">
<path d="M64.9668 10.8609H59.8129C59.272 10.8609 58.8341 11.2988 58.8341 11.8393C58.8341 12.3803 59.272 12.8182 59.8129 12.8182H64.9668C65.0023 12.8182 65.0314 12.8472 65.0314 12.8836V64.9345H55.1763V31.7736C55.1763 30.8741 54.4448 30.1422 53.5453 30.1422H53.2856V12.8182H55.35C55.8906 12.8182 56.3289 12.3803 56.3289 11.8393C56.3289 11.2992 55.8906 10.8609 55.35 10.8609H53.2856V8.34102C53.2856 7.9853 53.0951 7.67456 52.8113 7.50324L46.4149 0.528674C46.1079 0.193806 45.6708 0.00122665 45.2165 0C44.7631 0.00531533 44.3244 0.190126 44.0148 0.523767C42.7841 1.75529 41.6426 3.09149 40.4609 4.37004C39.662 5.23481 38.8626 6.09876 38.0637 6.96353C37.8654 7.17819 37.6499 7.38589 37.4643 7.61241C37.0873 8.07321 37.1449 8.66853 37.1449 9.23891V30.1426H36.8845C35.985 30.1426 35.2539 30.8741 35.2539 31.7736V65.9137C35.2539 66.4538 35.6918 66.8917 36.2327 66.8917H66.0102C66.5511 66.8917 66.989 66.4538 66.989 65.9137V12.8836C66.989 11.7678 66.0818 10.8609 64.9668 10.8609ZM45.212 2.11306L50.0257 7.36218H40.3599L45.212 2.11306ZM39.1018 9.31987H51.3284V30.1426H39.1018V9.31987ZM47.8354 64.9345H43.2126V59.061H47.8354V64.9345ZM53.219 64.9345H49.7926V58.7347C49.7926 57.8352 49.0608 57.1033 48.1612 57.1033H42.8859C41.9864 57.1033 41.2549 57.8352 41.2549 58.7347V64.9345H37.2108V32.0999H53.219V64.9345Z" fill="#11D170"/>
<path d="M61.184 16.7229H58.4437C57.9032 16.7229 57.4648 16.285 57.4648 15.7445C57.4648 15.2035 57.9032 14.7656 58.4437 14.7656H61.184C61.7241 14.7656 62.1628 15.2035 62.1628 15.7445C62.1628 16.285 61.7241 16.7229 61.184 16.7229Z" fill="#11D170"/>
<path d="M61.184 22.9758H58.4437C57.9032 22.9758 57.4648 22.5374 57.4648 21.9969C57.4648 21.456 57.9032 21.0181 58.4437 21.0181H61.184C61.7241 21.0181 62.1628 21.456 62.1628 21.9969C62.1628 22.5374 61.7241 22.9758 61.184 22.9758Z" fill="#11D170"/>
<path d="M61.184 29.2282H58.4437C57.9032 29.2282 57.4648 28.7903 57.4648 28.2494C57.4648 27.7092 57.9032 27.2705 58.4437 27.2705H61.184C61.7241 27.2705 62.1628 27.7088 62.1628 28.2494C62.1628 28.7903 61.7241 29.2282 61.184 29.2282Z" fill="#11D170"/>
<path d="M61.184 35.4802H58.4437C57.9032 35.4802 57.4648 35.0423 57.4648 34.5014C57.4648 33.9609 57.9032 33.5229 58.4437 33.5229H61.184C61.7241 33.5229 62.1628 33.9609 62.1628 34.5014C62.1628 35.0423 61.7241 35.4802 61.184 35.4802Z" fill="#11D170"/>
<path d="M61.184 41.7322H58.4437C57.9032 41.7322 57.4648 41.2943 57.4648 40.7537C57.4648 40.2132 57.9032 39.7749 58.4437 39.7749H61.184C61.7241 39.7749 62.1628 40.2128 62.1628 40.7537C62.1628 41.2943 61.7241 41.7322 61.184 41.7322Z" fill="#11D170"/>
<path d="M61.184 47.9845H58.4437C57.9032 47.9845 57.4648 47.5462 57.4648 47.0057C57.4648 46.4656 57.9032 46.0269 58.4437 46.0269H61.184C61.7241 46.0269 62.1628 46.4656 62.1628 47.0057C62.1628 47.5462 61.7241 47.9845 61.184 47.9845Z" fill="#11D170"/>
<path d="M61.184 54.2371H58.4437C57.9032 54.2371 57.4648 53.7992 57.4648 53.2587C57.4648 52.7182 57.9032 52.2803 58.4437 52.2803H61.184C61.7241 52.2803 62.1628 52.7182 62.1628 53.2587C62.1628 53.7992 61.7241 54.2371 61.184 54.2371Z" fill="#11D170"/>
<path d="M30.291 9.89625H20.57C18.928 9.89625 17.5918 8.56005 17.5918 6.9176C17.5918 5.27516 18.928 3.93978 20.57 3.93978C20.7965 3.93978 21.0202 3.96594 21.2373 4.01664C21.7014 1.80791 23.6644 0.14502 26.0089 0.14502C28.3239 0.14502 30.2877 1.79319 30.7702 3.97821C32.1853 4.208 33.2688 5.43871 33.2688 6.9176C33.2688 8.55964 31.933 9.89625 30.291 9.89625ZM20.57 5.89665C20.0066 5.89665 19.5487 6.35458 19.5487 6.9176C19.5487 7.48062 20.0066 7.93856 20.57 7.93856H30.291C30.854 7.93856 31.312 7.48062 31.312 6.9176C31.312 6.35458 30.854 5.89665 30.291 5.89665C30.2264 5.89665 30.1598 5.9036 30.0919 5.91668C29.8073 5.97188 29.5137 5.89951 29.288 5.71674C29.0632 5.53438 28.9303 5.26207 28.9258 4.97218C28.9004 3.38943 27.592 2.1023 26.0089 2.1023C24.4 2.1023 23.0911 3.41151 23.0911 5.02043C23.0911 5.19665 23.1079 5.37697 23.141 5.55605C23.224 6.00418 22.9865 6.45026 22.5682 6.6318C22.1499 6.81334 21.6617 6.68127 21.3911 6.31492C21.1948 6.04915 20.8959 5.89665 20.57 5.89665Z" fill="#11D170"/>
<path d="M30.4218 39.3798L21.3694 37.7484V33.0758C21.3694 32.5353 20.9307 32.0974 20.3905 32.0974C19.85 32.0974 19.4117 32.5353 19.4117 33.0758V37.3956L11.0191 35.8836C10.4753 35.7854 9.92009 35.9326 9.49609 36.2867C9.20947 36.5263 9.0079 36.8432 8.90568 37.1932H5.17716C4.63663 37.1932 4.19872 37.6315 4.19872 38.1716C4.19872 38.7122 4.63663 39.1505 5.17716 39.1505H8.82922V42.1549H5.17716C4.63663 42.1549 4.19872 42.5932 4.19872 43.1337C4.19872 43.6747 4.63663 44.1126 5.17716 44.1126H8.82922V47.1166H5.17716C4.63663 47.1166 4.19872 47.5549 4.19872 48.0954C4.19872 48.6363 4.63663 49.0738 5.17716 49.0738H8.82922V52.0782H5.17716C4.63663 52.0782 4.19872 52.5165 4.19872 53.0567C4.19872 53.5972 4.63663 54.0355 5.17716 54.0355H8.82922V64.934H1.95769V20.3488H19.4117V28.487C19.4117 29.0276 19.85 29.4655 20.3905 29.4655C20.9307 29.4655 21.3686 29.0276 21.3686 28.487V20.0221C21.3686 19.123 20.6375 18.3911 19.738 18.3911H19.343V13.9671C19.343 13.0676 18.6111 12.3357 17.7116 12.3357H16.9703V7.89003C16.9703 6.99092 16.2384 6.25903 15.3389 6.25903H11.6631V2.80078C11.6631 2.26066 11.2252 1.82275 10.6843 1.82275C10.1442 1.82275 9.70584 2.26066 9.70584 2.80078V6.25903H6.03007C5.13055 6.25903 4.39907 6.99092 4.39907 7.89003V12.3357H3.65737C2.75785 12.3357 2.02638 13.0676 2.02638 13.9671V18.3911H1.631C0.731884 18.3911 0 19.123 0 20.0225V65.9125C0 66.4534 0.437904 66.8913 0.978843 66.8913H9.7361C9.73528 66.8905 9.73446 66.8889 9.73324 66.8876C9.75818 66.8893 9.78271 66.8913 9.80806 66.8913H30.973C31.5135 66.8913 31.9514 66.4534 31.9514 65.9125V41.2104C31.9514 40.3096 31.3079 39.5393 30.4218 39.3798ZM6.35594 8.21631H15.013V12.3145H6.35594V8.21631ZM3.98325 14.2934H17.3853V18.3911H3.98325V14.2934ZM24.4543 64.934H16.3263V55.936C16.3263 53.829 18.0403 52.115 20.1477 52.115H20.6334C22.7407 52.115 24.4543 53.8294 24.4543 55.936V64.934ZM29.9946 64.934H26.4116V55.936C26.4116 52.75 23.8193 50.1578 20.6334 50.1578H20.1477C16.9617 50.1578 14.3695 52.75 14.3695 55.936V64.934H10.7865V37.8302L29.9946 41.2917V64.934Z" fill="#11D170"/>
<path d="M32.3373 25.0962C32.2503 25.0962 32.1644 25.1007 32.0789 25.1101C31.6284 23.5543 30.1908 22.4136 28.4915 22.4136C26.7848 22.4136 25.3264 23.5842 24.8909 25.1653C23.8479 25.4229 23.0723 26.3666 23.0723 27.4881C23.0723 28.8071 24.1452 29.88 25.4646 29.88H32.3373C33.6556 29.88 34.7293 28.8071 34.7293 27.4881C34.7293 26.1691 33.6564 25.0962 32.3373 25.0962ZM32.3373 27.9231H25.4646C25.2246 27.9231 25.0295 27.7277 25.0295 27.4881C25.0295 27.2485 25.2246 27.0531 25.4646 27.0531C25.4916 27.0531 25.5198 27.0563 25.55 27.0616C25.8346 27.1177 26.1282 27.0445 26.3539 26.8621C26.5792 26.6794 26.7117 26.407 26.7166 26.1172C26.7321 25.1538 27.5282 24.3704 28.4915 24.3704C29.4711 24.3704 30.2684 25.1673 30.2684 26.147C30.2684 26.2537 30.2578 26.3637 30.2374 26.4725C30.1544 26.9214 30.3919 27.3675 30.8106 27.549C31.2285 27.731 31.7167 27.5989 31.9873 27.2322C32.027 27.1782 32.1403 27.0531 32.3373 27.0531C32.5769 27.0531 32.772 27.2485 32.772 27.4881C32.772 27.7277 32.5769 27.9231 32.3373 27.9231Z" fill="#11D170"/>
<path d="M49.1527 15.5896C48.6117 15.5896 48.1738 15.1517 48.1738 14.6112V12.9544C48.1738 12.4135 48.6117 11.9756 49.1527 11.9756C49.6932 11.9756 50.1315 12.4135 50.1315 12.9544V14.6112C50.1307 15.1517 49.6928 15.5896 49.1527 15.5896Z" fill="#11D170"/>
<path d="M49.1527 21.1779C48.6117 21.1779 48.1738 20.74 48.1738 20.1991V18.5423C48.1738 18.0022 48.6117 17.5635 49.1527 17.5635C49.6932 17.5635 50.1315 18.0014 50.1315 18.5423V20.1991C50.1307 20.74 49.6928 21.1779 49.1527 21.1779Z" fill="#11D170"/>
<path d="M49.1527 26.7648C48.6117 26.7648 48.1738 26.3269 48.1738 25.786V24.1292C48.1738 23.5883 48.6117 23.1504 49.1527 23.1504C49.6932 23.1504 50.1315 23.5883 50.1315 24.1292V25.786C50.1307 26.3269 49.6928 26.7648 49.1527 26.7648Z" fill="#11D170"/>
<path d="M45.2171 15.5896C44.6766 15.5896 44.2383 15.1517 44.2383 14.6112V12.9544C44.2383 12.4135 44.6766 11.9756 45.2171 11.9756C45.7581 11.9756 46.196 12.4135 46.196 12.9544V14.6112C46.196 15.1517 45.7581 15.5896 45.2171 15.5896Z" fill="#11D170"/>
<path d="M45.2171 21.1779C44.6766 21.1779 44.2383 20.74 44.2383 20.1991V18.5423C44.2383 18.0022 44.6766 17.5635 45.2171 17.5635C45.7581 17.5635 46.196 18.0014 46.196 18.5423V20.1991C46.196 20.74 45.7581 21.1779 45.2171 21.1779Z" fill="#11D170"/>
<path d="M45.2171 26.7648C44.6766 26.7648 44.2383 26.3269 44.2383 25.786V24.1292C44.2383 23.5883 44.6766 23.1504 45.2171 23.1504C45.7581 23.1504 46.196 23.5883 46.196 24.1292V25.786C46.196 26.3269 45.7581 26.7648 45.2171 26.7648Z" fill="#11D170"/>
<path d="M41.2792 15.5896C40.7391 15.5896 40.3008 15.1517 40.3008 14.6112V12.9544C40.3008 12.4135 40.7391 11.9756 41.2792 11.9756C41.8197 11.9756 42.2577 12.4135 42.2577 12.9544V14.6112C42.2577 15.1517 41.8197 15.5896 41.2792 15.5896Z" fill="#11D170"/>
<path d="M41.2792 21.1779C40.7391 21.1779 40.3008 20.74 40.3008 20.1991V18.5423C40.3008 18.0022 40.7391 17.5635 41.2792 17.5635C41.8197 17.5635 42.2577 18.0014 42.2577 18.5423V20.1991C42.2577 20.74 41.8197 21.1779 41.2792 21.1779Z" fill="#11D170"/>
<path d="M41.2792 26.7648C40.7391 26.7648 40.3008 26.3269 40.3008 25.786V24.1292C40.3008 23.5883 40.7391 23.1504 41.2792 23.1504C41.8197 23.1504 42.2577 23.5883 42.2577 24.1292V25.786C42.2577 26.3269 41.8197 26.7648 41.2792 26.7648Z" fill="#11D170"/>
<path d="M49.1312 37.6053C48.5907 37.6053 48.1523 37.1674 48.1523 36.6265V34.4325C48.1523 33.8923 48.5907 33.4536 49.1312 33.4536C49.6717 33.4536 50.11 33.8915 50.11 34.4325V36.6265C50.11 37.1674 49.6717 37.6053 49.1312 37.6053Z" fill="#11D170"/>
<path d="M49.1312 43.7264C48.5907 43.7264 48.1523 43.2885 48.1523 42.7476V40.5536C48.1523 40.0126 48.5907 39.5747 49.1312 39.5747C49.6717 39.5747 50.11 40.0126 50.11 40.5536V42.7476C50.11 43.2885 49.6717 43.7264 49.1312 43.7264Z" fill="#11D170"/>
<path d="M49.1312 49.7211C48.5907 49.7211 48.1523 49.2832 48.1523 48.7423V46.5487C48.1523 46.0081 48.5907 45.5698 49.1312 45.5698C49.6717 45.5698 50.11 46.0081 50.11 46.5487V48.7427C50.11 49.2832 49.6717 49.7211 49.1312 49.7211Z" fill="#11D170"/>
<path d="M49.1312 55.8094C48.5907 55.8094 48.1523 55.3711 48.1523 54.8306V52.6366C48.1523 52.096 48.5907 51.6577 49.1312 51.6577C49.6717 51.6577 50.11 52.096 50.11 52.6366V54.8306C50.11 55.3711 49.6717 55.8094 49.1312 55.8094Z" fill="#11D170"/>
<path d="M45.1929 37.6053C44.6527 37.6053 44.2148 37.1674 44.2148 36.6265V34.4325C44.2148 33.8923 44.6527 33.4536 45.1929 33.4536C45.7334 33.4536 46.1717 33.8915 46.1717 34.4325V36.6265C46.1717 37.1674 45.7334 37.6053 45.1929 37.6053Z" fill="#11D170"/>
<path d="M45.1929 43.7264C44.6527 43.7264 44.2148 43.2885 44.2148 42.7476V40.5536C44.2148 40.0126 44.6527 39.5747 45.1929 39.5747C45.7334 39.5747 46.1717 40.0126 46.1717 40.5536V42.7476C46.1717 43.2885 45.7334 43.7264 45.1929 43.7264Z" fill="#11D170"/>
<path d="M45.1929 49.7211C44.6527 49.7211 44.2148 49.2832 44.2148 48.7423V46.5487C44.2148 46.0081 44.6527 45.5698 45.1929 45.5698C45.7334 45.5698 46.1717 46.0081 46.1717 46.5487V48.7427C46.1717 49.2832 45.7334 49.7211 45.1929 49.7211Z" fill="#11D170"/>
<path d="M45.1929 55.8094C44.6527 55.8094 44.2148 55.3711 44.2148 54.8306V52.6366C44.2148 52.096 44.6527 51.6577 45.1929 51.6577C45.7334 51.6577 46.1717 52.096 46.1717 52.6366V54.8306C46.1717 55.3711 45.7334 55.8094 45.1929 55.8094Z" fill="#11D170"/>
<path d="M41.3027 37.6053C40.7621 37.6053 40.3242 37.1674 40.3242 36.6265V34.4325C40.3242 33.8923 40.7621 33.4536 41.3027 33.4536C41.8432 33.4536 42.2815 33.8915 42.2815 34.4325V36.6265C42.2815 37.1674 41.8436 37.6053 41.3027 37.6053Z" fill="#11D170"/>
<path d="M41.3027 43.7264C40.7621 43.7264 40.3242 43.2885 40.3242 42.7476V40.5536C40.3242 40.0126 40.7621 39.5747 41.3027 39.5747C41.8432 39.5747 42.2815 40.0126 42.2815 40.5536V42.7476C42.2815 43.2885 41.8436 43.7264 41.3027 43.7264Z" fill="#11D170"/>
<path d="M41.3027 49.7211C40.7621 49.7211 40.3242 49.2832 40.3242 48.7423V46.5487C40.3242 46.0081 40.7621 45.5698 41.3027 45.5698C41.8432 45.5698 42.2815 46.0081 42.2815 46.5487V48.7427C42.2815 49.2832 41.8436 49.7211 41.3027 49.7211Z" fill="#11D170"/>
<path d="M41.3027 55.8094C40.7621 55.8094 40.3242 55.3711 40.3242 54.8306V52.6366C40.3242 52.096 40.7621 51.6577 41.3027 51.6577C41.8432 51.6577 42.2815 52.096 42.2815 52.6366V54.8306C42.2815 55.3711 41.8436 55.8094 41.3027 55.8094Z" fill="#11D170"/>
<path d="M15.8124 44.3411C15.2719 44.3411 14.834 43.9027 14.834 43.3622V41.9823C14.834 41.4421 15.2719 41.0034 15.8124 41.0034C16.3529 41.0034 16.7909 41.4413 16.7909 41.9823V43.3622C16.7909 43.9027 16.3529 44.3411 15.8124 44.3411Z" fill="#11D170"/>
<path d="M20.391 44.3411C19.8504 44.3411 19.4121 43.9027 19.4121 43.3622V41.9823C19.4121 41.4421 19.8504 41.0034 20.391 41.0034C20.9311 41.0034 21.3698 41.4413 21.3698 41.9823V43.3622C21.3698 43.9027 20.9311 44.3411 20.391 44.3411Z" fill="#11D170"/>
<path d="M24.9691 44.3411C24.4285 44.3411 23.9902 43.9027 23.9902 43.3622V41.9823C23.9902 41.4421 24.4285 41.0034 24.9691 41.0034C25.5096 41.0034 25.9475 41.4413 25.9475 41.9823V43.3622C25.9475 43.9027 25.5096 44.3411 24.9691 44.3411Z" fill="#11D170"/>
<path d="M15.8124 49.6267C15.2719 49.6267 14.834 49.1884 14.834 48.6479V47.2679C14.834 46.7278 15.2719 46.2891 15.8124 46.2891C16.3529 46.2891 16.7909 46.727 16.7909 47.2679V48.6479C16.7909 49.188 16.3529 49.6267 15.8124 49.6267Z" fill="#11D170"/>
<path d="M20.391 49.6267C19.8504 49.6267 19.4121 49.1884 19.4121 48.6479V47.2679C19.4121 46.7278 19.8504 46.2891 20.391 46.2891C20.9311 46.2891 21.3698 46.727 21.3698 47.2679V48.6479C21.3698 49.188 20.9311 49.6267 20.391 49.6267Z" fill="#11D170"/>
<path d="M24.9691 49.6267C24.4285 49.6267 23.9902 49.1884 23.9902 48.6479V47.2679C23.9902 46.7278 24.4285 46.2891 24.9691 46.2891C25.5096 46.2891 25.9475 46.727 25.9475 47.2679V48.6479C25.9475 49.188 25.5096 49.6267 24.9691 49.6267Z" fill="#11D170"/>
<path d="M10.92 22.3096H5.1757C4.63558 22.3096 4.19727 22.7475 4.19727 23.2876C4.19727 23.8285 4.63558 24.2664 5.1757 24.2664H10.92C11.4601 24.2664 11.8984 23.8285 11.8984 23.2876C11.8984 22.7471 11.4601 22.3096 10.92 22.3096Z" fill="#11D170"/>
<path d="M16.191 22.3096H14.7104C14.1703 22.3096 13.7324 22.7475 13.7324 23.2876C13.7324 23.8285 14.1703 24.2664 14.7104 24.2664H16.191C16.7311 24.2664 17.1694 23.8285 17.1694 23.2876C17.1694 22.7471 16.7311 22.3096 16.191 22.3096Z" fill="#11D170"/>
<path d="M10.92 27.271H5.1757C4.63558 27.271 4.19727 27.7089 4.19727 28.249C4.19727 28.79 4.63558 29.2279 5.1757 29.2279H10.92C11.4601 29.2279 11.8984 28.79 11.8984 28.249C11.8984 27.7089 11.4601 27.271 10.92 27.271Z" fill="#11D170"/>
<path d="M16.191 27.271H14.7104C14.1703 27.271 13.7324 27.7089 13.7324 28.249C13.7324 28.79 14.1703 29.2279 14.7104 29.2279H16.191C16.7311 29.2279 17.1694 28.79 17.1694 28.249C17.1694 27.7089 16.7311 27.271 16.191 27.271Z" fill="#11D170"/>
<path d="M10.92 32.2319H5.1757C4.63558 32.2319 4.19727 32.6702 4.19727 33.2108C4.19727 33.7517 4.63558 34.1896 5.1757 34.1896H10.92C11.4601 34.1896 11.8984 33.7517 11.8984 33.2108C11.8984 32.6707 11.4601 32.2319 10.92 32.2319Z" fill="#11D170"/>
<path d="M16.191 32.2319H14.7104C14.1703 32.2319 13.7324 32.6702 13.7324 33.2108C13.7324 33.7517 14.1703 34.1896 14.7104 34.1896H16.191C16.7311 34.1896 17.1694 33.7517 17.1694 33.2108C17.1694 32.6707 16.7311 32.2319 16.191 32.2319Z" fill="#11D170"/>
</svg>
