<svg width="67" height="67" viewBox="0 0 67 67" fill="none" xmlns="http://www.w3.org/2000/svg">
<path d="M65.2175 66.1624H0.945181C0.694503 66.1624 0.454093 66.0629 0.276837 65.8856C0.0995812 65.7083 0 65.4679 0 65.2173V0.944979C3.99096e-05 0.758069 0.0554954 0.575368 0.159356 0.419971C0.263216 0.264573 0.410818 0.143459 0.583503 0.0719367C0.756187 0.000414888 0.9462 -0.0183025 1.12952 0.0181508C1.31284 0.0546041 1.48124 0.144591 1.61342 0.276736L65.8857 64.549C66.0178 64.6812 66.1078 64.8496 66.1443 65.0329C66.1807 65.2162 66.162 65.4062 66.0905 65.5789C66.019 65.7516 65.8979 65.8992 65.7425 66.0031C65.5871 66.1069 65.4044 66.1624 65.2175 66.1624ZM1.89036 64.2721H62.9358L1.89036 3.22664V64.2721Z" fill="#11D170"/>
<path d="M40.1158 55.7653H11.3417C11.091 55.7653 10.8506 55.6658 10.6733 55.4885C10.4961 55.3112 10.3965 55.0708 10.3965 54.8202V26.0451C10.3965 25.8582 10.452 25.6755 10.5558 25.5201C10.6597 25.3647 10.8073 25.2436 10.98 25.172C11.1527 25.1005 11.3427 25.0818 11.526 25.1182C11.7093 25.1547 11.8777 25.2447 12.0099 25.3768L40.784 54.1519C40.9162 54.2841 41.0062 54.4525 41.0426 54.6358C41.0791 54.8191 41.0604 55.0091 40.9888 55.1818C40.9173 55.3545 40.7962 55.5021 40.6408 55.606C40.4854 55.7098 40.3027 55.7653 40.1158 55.7653ZM12.2868 53.875H37.8341L12.2868 28.3267V53.875Z" fill="#11D170"/>
<path d="M49.6522 66.1626C49.4015 66.1626 49.1611 66.0631 48.9839 65.8858C48.8066 65.7085 48.707 65.4681 48.707 65.2175V62.4764C48.707 62.2258 48.8066 61.9853 48.9839 61.8081C49.1611 61.6308 49.4015 61.5312 49.6522 61.5312C49.9029 61.5312 50.1433 61.6308 50.3206 61.8081C50.4978 61.9853 50.5974 62.2258 50.5974 62.4764V65.2175C50.5974 65.4681 50.4978 65.7085 50.3206 65.8858C50.1433 66.0631 49.9029 66.1626 49.6522 66.1626Z" fill="#11D170"/>
<path d="M43.035 66.1623C42.7843 66.1623 42.5439 66.0627 42.3667 65.8855C42.1894 65.7082 42.0898 65.4678 42.0898 65.2171V61.4364C42.0898 61.1857 42.1894 60.9453 42.3667 60.768C42.5439 60.5908 42.7843 60.4912 43.035 60.4912C43.2857 60.4912 43.5261 60.5908 43.7034 60.768C43.8806 60.9453 43.9802 61.1857 43.9802 61.4364V65.2171C43.9802 65.4678 43.8806 65.7082 43.7034 65.8855C43.5261 66.0627 43.2857 66.1623 43.035 66.1623Z" fill="#11D170"/>
<path d="M36.4178 66.1626C36.1672 66.1626 35.9268 66.0631 35.7495 65.8858C35.5722 65.7085 35.4727 65.4681 35.4727 65.2175V62.4764C35.4727 62.2258 35.5722 61.9853 35.7495 61.8081C35.9268 61.6308 36.1672 61.5312 36.4178 61.5312C36.6685 61.5312 36.9089 61.6308 37.0862 61.8081C37.2634 61.9853 37.363 62.2258 37.363 62.4764V65.2175C37.363 65.4681 37.2634 65.7085 37.0862 65.8858C36.9089 66.0631 36.6685 66.1626 36.4178 66.1626Z" fill="#11D170"/>
<path d="M29.8046 66.1623C29.5539 66.1623 29.3135 66.0627 29.1362 65.8855C28.959 65.7082 28.8594 65.4678 28.8594 65.2171V61.4364C28.8594 61.1857 28.959 60.9453 29.1362 60.768C29.3135 60.5908 29.5539 60.4912 29.8046 60.4912C30.0552 60.4912 30.2956 60.5908 30.4729 60.768C30.6502 60.9453 30.7497 61.1857 30.7497 61.4364V65.2171C30.7497 65.4678 30.6502 65.7082 30.4729 65.8855C30.2956 66.0627 30.0552 66.1623 29.8046 66.1623Z" fill="#11D170"/>
<path d="M23.1835 66.1626C22.9328 66.1626 22.6924 66.0631 22.5151 65.8858C22.3379 65.7085 22.2383 65.4681 22.2383 65.2175V62.4764C22.2383 62.2258 22.3379 61.9853 22.5151 61.8081C22.6924 61.6308 22.9328 61.5312 23.1835 61.5312C23.4341 61.5312 23.6746 61.6308 23.8518 61.8081C24.0291 61.9853 24.1286 62.2258 24.1286 62.4764V65.2175C24.1286 65.4681 24.0291 65.7085 23.8518 65.8858C23.6746 66.0631 23.4341 66.1626 23.1835 66.1626Z" fill="#11D170"/>
<path d="M16.5702 66.1623C16.3195 66.1623 16.0791 66.0627 15.9018 65.8855C15.7246 65.7082 15.625 65.4678 15.625 65.2171V61.4364C15.625 61.1857 15.7246 60.9453 15.9018 60.768C16.0791 60.5908 16.3195 60.4912 16.5702 60.4912C16.8209 60.4912 17.0613 60.5908 17.2385 60.768C17.4158 60.9453 17.5154 61.1857 17.5154 61.4364V65.2171C17.5154 65.4678 17.4158 65.7082 17.2385 65.8855C17.0613 66.0627 16.8209 66.1623 16.5702 66.1623Z" fill="#11D170"/>
<path d="M9.95299 66.1626C9.70232 66.1626 9.46191 66.0631 9.28465 65.8858C9.10739 65.7085 9.00781 65.4681 9.00781 65.2175V62.4764C9.00781 62.2258 9.10739 61.9853 9.28465 61.8081C9.46191 61.6308 9.70232 61.5312 9.95299 61.5312C10.2037 61.5312 10.4441 61.6308 10.6213 61.8081C10.7986 61.9853 10.8982 62.2258 10.8982 62.4764V65.2175C10.8982 65.4681 10.7986 65.7085 10.6213 65.8858C10.4441 66.0631 10.2037 66.1626 9.95299 66.1626Z" fill="#11D170"/>
<path d="M3.6862 55.7654H0.94518C0.694503 55.7654 0.454093 55.6658 0.276837 55.4885C0.0995812 55.3113 0 55.0709 0 54.8202C0 54.5695 0.0995812 54.3291 0.276837 54.1518C0.454093 53.9746 0.694503 53.875 0.94518 53.875H3.6862C3.93688 53.875 4.17729 53.9746 4.35455 54.1518C4.5318 54.3291 4.63138 54.5695 4.63138 54.8202C4.63138 55.0709 4.5318 55.3113 4.35455 55.4885C4.17729 55.6658 3.93688 55.7654 3.6862 55.7654Z" fill="#11D170"/>
<path d="M4.7259 49.1496H0.945181C0.694503 49.1496 0.454093 49.0501 0.276837 48.8728C0.0995812 48.6955 0 48.4551 0 48.2045C0 47.9538 0.0995812 47.7134 0.276837 47.5361C0.454093 47.3589 0.694503 47.2593 0.945181 47.2593H4.7259C4.97658 47.2593 5.21699 47.3589 5.39425 47.5361C5.5715 47.7134 5.67108 47.9538 5.67108 48.2045C5.67108 48.4551 5.5715 48.6955 5.39425 48.8728C5.21699 49.0501 4.97658 49.1496 4.7259 49.1496Z" fill="#11D170"/>
<path d="M3.6862 42.5329H0.94518C0.694503 42.5329 0.454093 42.4334 0.276837 42.2561C0.0995812 42.0788 0 41.8384 0 41.5878C0 41.3371 0.0995812 41.0967 0.276837 40.9194C0.454093 40.7422 0.694503 40.6426 0.94518 40.6426H3.6862C3.93688 40.6426 4.17729 40.7422 4.35455 40.9194C4.5318 41.0967 4.63138 41.3371 4.63138 41.5878C4.63138 41.8384 4.5318 42.0788 4.35455 42.2561C4.17729 42.4334 3.93688 42.5329 3.6862 42.5329Z" fill="#11D170"/>
<path d="M4.7259 35.9167H0.945181C0.694503 35.9167 0.454093 35.8171 0.276837 35.6399C0.0995812 35.4626 0 35.2222 0 34.9715C0 34.7209 0.0995812 34.4805 0.276837 34.3032C0.454093 34.1259 0.694503 34.0264 0.945181 34.0264H4.7259C4.97658 34.0264 5.21699 34.1259 5.39425 34.3032C5.5715 34.4805 5.67108 34.7209 5.67108 34.9715C5.67108 35.2222 5.5715 35.4626 5.39425 35.6399C5.21699 35.8171 4.97658 35.9167 4.7259 35.9167Z" fill="#11D170"/>
<path d="M3.6862 29.3005H0.94518C0.694503 29.3005 0.454093 29.2009 0.276837 29.0237C0.0995812 28.8464 0 28.606 0 28.3553C0 28.1047 0.0995812 27.8642 0.276837 27.687C0.454093 27.5097 0.694503 27.4102 0.94518 27.4102H3.6862C3.93688 27.4102 4.17729 27.5097 4.35455 27.687C4.5318 27.8642 4.63138 28.1047 4.63138 28.3553C4.63138 28.606 4.5318 28.8464 4.35455 29.0237C4.17729 29.2009 3.93688 29.3005 3.6862 29.3005Z" fill="#11D170"/>
<path d="M4.7259 22.6843H0.945181C0.694503 22.6843 0.454093 22.5847 0.276837 22.4075C0.0995812 22.2302 0 21.9898 0 21.7391C0 21.4884 0.0995812 21.248 0.276837 21.0708C0.454093 20.8935 0.694503 20.7939 0.945181 20.7939H4.7259C4.97658 20.7939 5.21699 20.8935 5.39425 21.0708C5.5715 21.248 5.67108 21.4884 5.67108 21.7391C5.67108 21.9898 5.5715 22.2302 5.39425 22.4075C5.21699 22.5847 4.97658 22.6843 4.7259 22.6843Z" fill="#11D170"/>
<path d="M3.6862 16.0676H0.94518C0.694503 16.0676 0.454093 15.968 0.276837 15.7908C0.0995812 15.6135 0 15.3731 0 15.1224C0 14.8717 0.0995812 14.6313 0.276837 14.4541C0.454093 14.2768 0.694503 14.1772 0.94518 14.1772H3.6862C3.93688 14.1772 4.17729 14.2768 4.35455 14.4541C4.5318 14.6313 4.63138 14.8717 4.63138 15.1224C4.63138 15.3731 4.5318 15.6135 4.35455 15.7908C4.17729 15.968 3.93688 16.0676 3.6862 16.0676Z" fill="#11D170"/>
</svg>
