<svg width="77" height="49" viewBox="0 0 77 49" fill="none" xmlns="http://www.w3.org/2000/svg">
<path d="M6.4611 26.092C6.37462 26.1124 6.28813 26.1223 6.203 26.1223C5.69085 26.1223 5.22729 25.7661 5.10561 25.2383L5.10553 25.2379C4.92064 24.4362 4.53615 22.7691 5.49352 21.499C6.15066 20.6274 7.28249 20.1571 8.85803 20.1009C11.0506 20.023 11.5408 19.2734 12.4309 17.9125L12.431 17.9123L12.4315 17.9117C13.0053 17.0343 13.7195 15.9425 15.0149 14.9238C15.5962 14.4667 17.3658 13.0761 18.9328 13.9208C20.5613 14.7989 20.5888 17.3881 20.4679 19.2593C20.4095 20.1612 20.5822 20.4591 20.659 20.5453C20.8624 20.7733 21.5334 20.7967 22.1254 20.8171L22.126 20.8172C22.6831 20.8365 23.2591 20.8566 23.8226 21.0158C24.3735 21.1715 24.9058 21.1173 25.4696 21.0599L25.4697 21.0599L25.4707 21.0598C26.3044 20.9752 27.3311 20.8709 28.1645 21.6693C28.4559 21.3971 28.9122 20.8327 29.295 20.3592L29.2971 20.3567C29.3984 20.2313 29.5037 20.1011 29.6132 19.9666C31.0017 18.261 32.6121 19.2543 33.3863 19.7318L33.3864 19.7319C34.1691 20.2148 34.5334 20.3917 34.9899 20.1931C36.2163 19.6598 36.3804 19.4295 37.0707 18.4606L37.071 18.4602C37.3984 18.0004 37.806 17.4283 38.4384 16.6632C39.9853 14.7916 42.5275 13.9501 44.2251 14.7475C45.4506 15.3232 46.0219 16.621 45.7528 18.2194C45.706 18.4971 45.7108 18.6612 45.7212 18.7461C46.132 18.8114 47.2136 18.475 47.6383 18.3427C48.0555 18.2127 48.4162 18.1005 48.7288 18.0529C49.2633 17.9719 49.7689 18.0984 50.2578 18.2208C51.3155 18.4859 51.6348 18.5658 52.0864 17.2564C53.2995 13.7397 55.0312 13.4816 56.8643 13.2085L56.8646 13.2084C57.0312 13.1837 57.2039 13.1581 57.3829 13.1289C59.6375 12.763 59.9731 11.5697 60.4809 9.76347L60.481 9.7631L60.4815 9.76144C60.651 9.15869 60.8263 8.53539 61.0906 7.91667C61.6999 6.49009 62.7541 5.80411 63.6843 5.19886L63.6843 5.19883C64.5872 4.61143 65.2393 4.18687 65.5307 3.18178C66.0288 1.46369 67.5025 0.309959 68.7009 0.0586093C69.5599 -0.121471 70.3339 0.117822 70.8243 0.715902C71.4868 1.52397 71.4888 2.76607 70.8295 4.40755C70.2578 5.83155 70.1734 6.43986 70.17 6.66557C70.2315 6.68846 70.3058 6.71349 70.3672 6.73409L70.3676 6.73424C70.6512 6.8296 71.0043 6.94833 71.3555 7.19498C71.5017 7.29784 71.6405 7.42389 71.7688 7.57025C72.1831 8.04242 72.1415 8.76595 71.6762 9.18608C71.2105 9.60637 70.4974 9.56425 70.0835 9.09192C70.0709 9.07773 70.0639 9.07163 70.0639 9.07163C69.9868 9.01773 69.8275 8.96413 69.6587 8.90736L69.6575 8.90696C69.2188 8.75954 68.4846 8.51262 68.1178 7.70531C67.7172 6.82368 67.8917 5.65697 68.7403 3.54377C68.9816 2.9431 69.0545 2.54509 69.066 2.32182C68.6755 2.45093 67.949 2.95256 67.6953 3.82763C67.1665 5.65227 65.9114 6.46907 64.9028 7.1254L64.9023 7.12569L64.9022 7.12578C64.117 7.63668 63.4966 8.04033 63.1609 8.82669C62.9552 9.3081 62.8073 9.83392 62.6508 10.3907L62.6507 10.3909C62.0993 12.3521 61.413 14.7927 57.7394 15.3891C57.5525 15.4194 57.3723 15.4463 57.1983 15.4723L57.1925 15.4732C55.536 15.7199 54.9781 15.8031 54.216 18.0125C53.0867 21.2866 50.8111 20.7172 49.7174 20.4431C49.4992 20.3884 49.1702 20.3071 49.0607 20.317C48.9176 20.3388 48.5902 20.4408 48.3013 20.5308L48.3007 20.531C47.0367 20.9249 45.3056 21.4642 44.1953 20.4742C43.5545 19.9028 43.3303 19.0145 43.529 17.8342C43.6679 17.0084 43.374 16.8705 43.2775 16.8251C42.6673 16.5389 41.1887 16.8983 40.167 18.1344C39.5875 18.8352 39.2066 19.3699 38.9005 19.7995L38.8994 19.8012C38.0532 20.9893 37.6063 21.5462 35.8785 22.2973C34.3089 22.9797 33.0485 22.2025 32.2145 21.6882L32.2142 21.6881C31.9801 21.5436 31.6341 21.3302 31.4783 21.2948C31.4542 21.3137 31.4115 21.3522 31.3524 21.4248C31.2447 21.5573 31.1411 21.6853 31.0412 21.8088L31.0409 21.8091C29.9493 23.1594 29.2281 24.0514 28.1637 24.0812C27.5991 24.094 27.0845 23.8519 26.6339 23.3532C26.5424 23.2517 26.1115 23.2955 25.6947 23.3379C25.0185 23.4068 24.1767 23.4924 23.2172 23.2214C22.9128 23.1353 22.4928 23.1206 22.0482 23.1052L22.0477 23.1052C21.0597 23.0709 19.8303 23.0281 18.9862 22.0817C18.3827 21.4051 18.1309 20.4329 18.2165 19.1097C18.3794 16.5872 17.9384 16.0137 17.8761 15.9466C17.8076 15.9426 17.3843 15.9571 16.3969 16.7334C15.3941 17.5219 14.8435 18.3639 14.3109 19.1782L14.3108 19.1783C13.3169 20.6981 12.289 22.2697 8.93715 22.389C8.09305 22.4191 7.50645 22.5969 7.28565 22.8899C6.9758 23.301 7.1963 24.2571 7.30234 24.7166C7.44433 25.3321 7.0677 25.9479 6.4611 26.092Z" fill="#11D170"/>
<path d="M73.8404 17.8575C74.1392 18.2029 74.4482 18.5601 74.7632 18.9559C76.0307 20.5482 77.719 24.5246 76.6731 26.2432C76.2751 26.8976 75.5673 27.185 74.7799 27.0108C70.2223 26.0057 68.9267 23.587 68.6423 21.7349L68.5786 21.314C68.4609 20.5285 68.2853 19.358 68.0602 19.0484C67.8326 19.024 67.3333 19.1106 67.0097 19.3918C66.8241 19.5531 66.7545 19.7283 66.7767 19.9775C66.8008 20.2435 66.8389 20.5462 66.8795 20.8669C67.1133 22.7184 67.4334 25.2538 65.6381 26.5002C64.9126 27.0038 64.7982 27.8537 64.6271 29.5751L64.6253 29.5931C64.584 30.007 64.5414 30.435 64.481 30.8943C64.4782 30.9152 64.4759 30.9349 64.474 30.9535C64.8426 30.898 65.4249 30.7026 65.7413 30.5964L65.7476 30.5943C66.0395 30.4965 66.3152 30.4041 66.5708 30.3393C68.9268 29.7422 70.1924 32.3085 70.9481 33.8423C71.1336 34.2187 71.3456 34.5512 71.5699 34.9031L71.5713 34.9054C72.5091 36.3753 73.4787 37.8955 72.5896 42.1286C72.0369 44.7602 70.9359 45.6046 70.1094 45.8494C69.3122 46.0854 68.4691 45.8474 67.8525 45.2128C67.1057 44.4441 66.8336 43.2542 67.1589 42.1814C67.5016 41.0511 67.4459 40.4759 67.3766 40.2873C66.9407 40.5919 66.2371 40.922 64.5586 41.2127C61.9695 41.661 60.9983 41.0478 59.8111 40.0607C59.4665 39.7741 59.1104 39.478 58.6215 39.1919C58.5365 39.1421 58.4701 39.1101 58.4204 39.0895C58.0585 39.755 57.9149 42.1843 57.8355 43.5283C57.7663 44.6993 57.388 45.5747 56.7113 46.1297C55.5786 47.0588 54.0304 46.8198 52.5328 46.5886C51.5977 46.4441 50.6312 46.2948 49.9205 46.4595C47.7409 46.9646 46.1629 46.3884 45.1188 46.0069C45.0483 45.9811 44.9706 45.9527 44.8926 45.9249C44.7271 46.4973 44.4343 47.3314 43.6003 47.7695C42.9275 48.1229 42.1077 48.119 41.0943 47.7579C39.8372 47.3097 39.3023 47.6501 38.4927 48.1655L38.4926 48.1655L38.4923 48.1658C37.9082 48.5375 37.1813 49 36.2073 49C35.0095 49 31.017 48.6842 29.9348 44.6215C29.7032 43.752 29.3134 43.6795 28.3759 43.5868C27.6666 43.5166 26.1908 43.3704 26.0329 41.7678C26.0082 41.5172 25.998 41.4136 25.563 41.272C24.8947 41.0543 23.6576 40.9808 22.2287 40.9133C21.7492 40.8907 21.4782 40.9164 21.3363 40.9416L21.3351 40.9484L21.3351 40.9487C21.2392 41.4782 21.0399 42.5796 19.3826 42.9998C16.6119 43.7024 14.1261 41.0343 13.626 39.4663C13.5492 39.225 12.8182 38.9523 11.1841 39.2483C10.9817 39.285 10.8853 39.4809 10.8122 40.5999L10.8121 40.5999C10.7601 41.397 10.7011 42.3003 10.0443 42.867C9.80426 43.0743 9.39379 43.3079 8.78899 43.2705C8.58301 43.469 8.29315 44.1744 8.13255 44.5652L8.132 44.5665L8.1319 44.5668C7.72219 45.5648 7.10308 47.073 5.65837 46.7798C4.49894 46.5444 4.22575 45.4465 4.04496 44.7199L4.04492 44.7197L4.04488 44.7196C3.81732 43.8049 3.58202 42.8591 2.2394 42.1063C-0.469776 40.587 -0.0477268 38.4104 0.146151 37.7795C0.46502 36.7422 1.375 35.698 2.43313 35.805C3.10862 35.8732 4.60384 35.6933 4.92151 35.2051C5.04123 35.0209 4.94332 34.5988 4.65949 34.0759C3.96235 32.7917 3.71763 31.4104 3.93211 29.9704C4.02522 29.3455 4.60038 28.9159 5.21601 29.0097C5.83194 29.1042 6.25594 29.6875 6.16284 30.3125C6.02221 31.2567 6.17683 32.1265 6.63558 32.9715C7.55383 34.663 7.23406 35.8056 6.80419 36.4664C5.7796 38.0412 3.3204 38.1181 2.48893 38.0967C2.38019 38.2294 2.23865 38.4992 2.25339 38.814C2.28092 39.3953 2.85443 39.8356 3.33063 40.1027C5.17585 41.1375 5.78245 42.5481 6.08508 43.5993C6.51359 42.5583 7.14727 41.1038 8.5181 40.9828C8.5371 40.8137 8.55045 40.6096 8.5608 40.4512L8.56097 40.4486C8.63136 39.3698 8.76252 37.3618 10.7875 36.9949C14.4247 36.3358 15.472 37.819 15.7725 38.7615C15.9491 39.3152 17.4124 41.14 18.8355 40.7792C18.9695 40.7453 19.0463 40.7125 19.0854 40.6923C19.0947 40.6528 19.1048 40.5976 19.1134 40.5505L19.1161 40.5355C19.3787 39.0843 20.3107 38.5314 22.3337 38.6269C25.3968 38.7714 27.8391 38.887 28.2419 41.2694C28.3528 41.2848 28.4853 41.2979 28.5952 41.3087L28.5956 41.3088C29.5986 41.4083 31.4651 41.5935 32.1127 44.0246C32.7586 46.4494 35.1915 46.7111 36.2073 46.7111C36.5173 46.7111 36.8076 46.5361 37.2937 46.2266L37.294 46.2264C38.1964 45.6523 39.5599 44.7847 41.8423 45.5983C42.2921 45.7589 42.4987 45.7454 42.5543 45.7367C42.6282 45.6366 42.7162 45.3228 42.7646 45.1501C42.9037 44.6541 43.2295 43.4927 44.4081 43.4927C44.8966 43.4927 45.3539 43.6597 45.8833 43.8532L45.8834 43.8532C46.7744 44.1789 47.8829 44.5841 49.4178 44.228C50.5462 43.9663 51.7819 44.1571 52.8723 44.3257L52.8747 44.3261C53.793 44.4678 54.9344 44.6439 55.293 44.3497C55.4515 44.2196 55.5547 43.8793 55.5835 43.3913C55.7886 39.924 55.9848 37.7602 57.3773 36.9998C57.8529 36.7402 58.6501 36.5659 59.7491 37.209C60.397 37.5881 60.8643 37.9766 61.2398 38.2888L61.2412 38.29L61.2417 38.2904C62.0686 38.9779 62.4109 39.2625 64.179 38.9561C65.7539 38.6833 66.0669 38.4304 66.1846 38.3352L66.1847 38.3351C66.6498 37.9586 67.072 37.8646 67.7422 37.9879C68.4061 38.1102 68.9377 38.4761 69.2795 39.0463C69.8043 39.9218 69.8164 41.203 69.3155 42.8544C69.197 43.2452 69.3922 43.571 69.4996 43.642C69.6407 43.5649 70.0806 43.0932 70.3836 41.6512C71.0781 38.344 70.4603 37.3754 69.6778 36.1488L69.6759 36.1458C69.4395 35.7751 69.1717 35.3551 68.9306 34.8657C68.1038 33.1882 67.5271 32.4561 67.1185 32.5597C66.9449 32.6038 66.7104 32.6824 66.4614 32.7659L66.4503 32.7696C65.313 33.1514 63.8971 33.6262 62.9097 32.796C62.5177 32.4663 62.0844 31.8164 62.2452 30.5917C62.3017 30.1621 62.343 29.747 62.3828 29.3455L62.3829 29.3449C62.5674 27.4898 62.7417 25.7376 64.3646 24.6109C65.0209 24.1555 64.793 22.3516 64.6421 21.1579C64.599 20.8159 64.5582 20.4928 64.5307 20.1849C64.4421 19.1967 64.8016 18.2975 65.5428 17.6534C66.3864 16.9205 67.6705 16.5852 68.666 16.8375C70.2506 17.2393 70.535 19.1358 70.81 20.9699L70.8724 21.3827C71.1111 22.937 72.4139 24.0349 74.7475 24.6504C74.6603 23.679 74.0003 21.6406 73.0079 20.3941C72.7213 20.034 72.4272 19.694 72.1429 19.3653L72.1378 19.3594C70.7966 17.8092 69.4097 16.206 70.3652 13.8267C70.4207 13.6884 70.4705 13.5376 70.5132 13.3781C70.6764 12.768 71.2967 12.4083 71.8974 12.5736C72.4986 12.7393 72.8536 13.3682 72.6904 13.9782C72.6238 14.2273 72.5443 14.4672 72.4543 14.6909C72.0585 15.6766 72.4669 16.27 73.8334 17.8493L73.8404 17.8575Z" fill="#11D170"/>
</svg>
