<svg width="67" height="61" viewBox="0 0 67 61" fill="none" xmlns="http://www.w3.org/2000/svg">
<path d="M43.4817 40.4241C40.9259 40.5881 38.3602 40.3603 35.8571 39.7479L33.111 39.076C33.0435 39.0596 32.9747 39.0511 32.9057 39.0511L24.0413 39.0508C23.8479 39.0508 23.6587 39.1163 23.4974 39.2387L17.6667 43.6708C16.269 44.7332 14.414 44.3374 13.4433 42.7693C12.561 41.3442 12.7095 39.4208 13.7966 38.1958L19.7041 31.5382L27.9908 26.1653C28.0492 26.1274 28.1042 26.0829 28.1547 26.0322L28.8282 25.3562C28.8787 25.3055 28.9245 25.2489 28.9649 25.1876L35.9975 14.5211L38.9562 16.3975C39.1071 16.4934 39.2706 16.5386 39.4316 16.5386C39.7781 16.5386 40.1141 16.3286 40.2936 15.9563C40.5566 15.411 40.3843 14.7244 39.9087 14.4229L37.1965 12.7027L40.8778 7.11913C41.357 6.39232 41.5608 5.4949 41.4514 4.59252C41.3421 3.68998 40.9327 2.89051 40.2988 2.34092L38.395 0.690665C37.7611 0.141232 36.9791 -0.0922624 36.1913 0.0330603C35.4043 0.158533 34.7069 0.627929 34.2277 1.35474L29.8273 8.02904L28.938 7.46516C28.5869 7.2425 28.1895 7.1247 27.7882 7.1247H20.7888C19.6855 7.1247 18.6141 7.57469 17.7721 8.39192L12.0128 13.9803C11.5979 14.3829 11.5462 15.0946 11.8972 15.5704C12.0919 15.8341 12.3695 15.9698 12.6489 15.9698C12.8734 15.9698 13.0994 15.8821 13.2841 15.7028L19.0435 10.1144C19.5307 9.64168 20.1505 9.38141 20.7888 9.38141H27.7882C27.857 9.38141 27.9252 9.40157 27.9854 9.43993L28.6283 9.84749L22.3061 19.4364L13.6545 24.9771C13.3745 25.1563 13.1883 25.4808 13.1555 25.8464L12.1618 36.8969C11.3309 37.9784 10.9024 39.3326 10.8988 40.6988L10.8039 40.965C10.4621 41.9236 9.65762 42.543 8.75435 42.543C7.5334 42.543 6.54011 41.4041 6.54011 40.0042V25.3267C6.54011 23.3691 7.28751 21.5212 8.59085 20.2566L10.0749 18.8169C10.4898 18.4143 10.5416 17.7024 10.1905 17.2266C9.83948 16.7512 9.21871 16.6918 8.80355 17.0941L7.31952 18.534C5.57333 20.2284 4.57204 22.7043 4.57204 25.3267V40.0042C4.57204 41.5607 5.2226 42.9459 6.22782 43.8226L1.77325 50.5789C1.5759 50.8781 1.43485 51.23 1.36504 51.5966L0.0321716 58.603C-0.0810659 59.1986 0.109325 59.8011 0.52921 60.1751C0.77576 60.3948 1.06929 60.507 1.36596 60.507C1.39561 60.507 36.0044 60.506 36.0044 60.506C36.548 60.506 36.9885 60.0009 36.9885 59.3776C36.9885 58.7543 36.548 58.2493 36.0044 58.2493H5.61571L7.63877 57.0865C7.94948 56.9077 8.22464 56.6452 8.43419 56.3272L14.9711 46.4127C15.2943 46.4865 15.6234 46.5263 15.9543 46.5263C16.9155 46.5263 17.8885 46.2099 18.7544 45.5517L24.338 41.3075L32.802 41.3078L35.4464 41.9549C38.1205 42.6092 40.8607 42.8523 43.5917 42.6774C44.1343 42.6426 44.5497 42.11 44.5193 41.4878C44.489 40.8655 44.0238 40.3904 43.4817 40.4241ZM27.456 23.7344L26.9343 24.2579L18.6224 29.647C18.5475 29.6956 18.4783 29.7553 18.4169 29.8245L16.5003 31.9845L29.1454 12.8054L32.6755 15.8177L27.456 23.7344ZM32.2152 8.14939L35.7453 11.1617L33.8624 14.0176L30.3322 11.0053L32.2152 8.14939ZM35.7978 2.71584C35.96 2.46971 36.196 2.31098 36.4624 2.26841C36.5093 2.26088 36.5564 2.25727 36.603 2.25727C36.8207 2.25727 37.0314 2.33776 37.2081 2.49092L39.1118 4.14118C39.5547 4.52512 39.6427 5.25042 39.3079 5.75833L36.9322 9.36155L33.4022 6.34929L35.7978 2.71584ZM19.3564 23.9106L14.6689 31.0201L15.0609 26.6615L19.3564 23.9106ZM3.05573 53.299L5.47164 55.8078L2.22331 57.675L3.05573 53.299ZM7.16049 54.517L3.88618 51.1166L8.09093 44.7391C8.30717 44.7788 8.52853 44.8 8.75435 44.8C9.81665 44.8 10.8046 44.344 11.5556 43.564C11.6416 43.738 11.735 43.9091 11.8381 44.0755C12.1945 44.6511 12.6244 45.1286 13.1015 45.5061L7.16049 54.517Z" fill="#11D170"/>
<path d="M66.0162 41.8701H56.9889C56.4986 41.8701 56.0841 41.2154 56.0841 40.4404V19.7615C56.0841 18.9867 56.4984 18.3319 56.9889 18.3319H66.0162C66.5598 18.3319 67.0003 17.8269 67.0003 17.2036C67.0003 16.5802 66.5598 16.0752 66.0162 16.0752H56.9889C55.7136 16.0752 54.6303 17.1471 54.2561 18.6254H46.5368L43.5992 16.7624C43.1237 16.4611 42.5248 16.6588 42.2617 17.2039C41.9988 17.7492 42.1711 18.4357 42.6467 18.7374L45.8066 20.7412C45.9524 20.8335 46.1163 20.8821 46.2829 20.8821H54.116V38.4928H51.9094C51.8048 38.4928 51.7007 38.5119 51.6014 38.5495L50.8955 38.8161C49.7973 39.2309 48.6608 39.5737 47.5175 39.8352C46.9845 39.9572 46.6386 40.5515 46.7449 41.1626C46.8383 41.6991 47.2494 42.0702 47.7091 42.0702C47.7728 42.0702 47.8377 42.0632 47.9027 42.0483C49.1238 41.7689 50.3379 41.4024 51.5114 40.9592L52.0673 40.7492H54.1269C54.2498 42.6376 55.486 44.1264 56.989 44.1264H66.0163C66.5599 44.1264 67.0004 43.6214 67.0004 42.9981C67.0004 42.3747 66.5598 41.8701 66.0162 41.8701Z" fill="#11D170"/>
</svg>
