<svg width="67" height="67" viewBox="0 0 67 67" fill="none" xmlns="http://www.w3.org/2000/svg">
<path d="M33.0435 3.53225e-07C19.8266 -0.0019261 7.88153 7.8763 2.67942 20.0263L2.26771 20.1628L2.42733 20.6417C-4.42204 37.5347 3.71984 56.7818 20.6129 63.6312C24.5584 65.231 28.7761 66.0522 33.0337 66.0498C51.2728 66.0526 66.0608 51.269 66.0636 33.0299C66.0664 14.7908 51.2827 0.00261483 33.0435 3.53225e-07ZM58.9478 49.6755L57.252 47.9808V44.0332C57.2539 43.8629 57.2162 43.6944 57.1419 43.5412L52.8487 34.9668V30.8233C52.8487 30.4553 52.665 30.1116 52.3588 29.9074L49.0563 27.7057C48.7975 27.5329 48.4776 27.4777 48.1756 27.5538L44.1312 28.5644L37.338 25.6494L36.4034 19.1016L38.9936 16.5125H44.5539L46.4253 19.3251C46.5943 19.578 46.8606 19.7499 47.1607 19.7995L53.7657 20.9004C53.9426 20.9301 54.124 20.9156 54.2941 20.8585L60.3773 18.8308C65.4795 28.622 64.9337 40.3983 58.9478 49.6755ZM54.4075 10.8476L52.6175 12.0409L47.6274 11.0424L44.3899 9.96472C44.1917 9.89743 43.9785 9.8889 43.7756 9.9405L39.6827 10.9632L37.8884 10.3654L39.2182 7.70581H42.9412C43.112 7.70595 43.2804 7.66646 43.4333 7.59023L47.2421 5.68579C49.8652 7.05495 52.2782 8.79316 54.4075 10.8476ZM20.9763 4.65982L23.6183 6.42114C23.7482 6.50756 23.8949 6.56535 24.0487 6.59067L29.3834 7.48014L28.8627 9.03782L26.0831 9.96582C25.8342 10.0487 25.6229 10.2176 25.4875 10.4425L22.3259 15.7111L17.2478 18.7582L9.76216 19.8271C9.21959 19.9037 8.81614 20.3678 8.81545 20.9158V24.2183C8.81545 24.5103 8.93159 24.7902 9.13799 24.9966L11.0171 26.8757V28.7669L6.43766 25.7132L4.7765 20.7297C7.93699 13.5083 13.7297 7.76196 20.9763 4.65982ZM17.8423 40.7527L12.8665 39.7565L11.0171 36.0676V33.4807L15.1188 29.379L16.6369 32.4162C16.8233 32.7893 17.2049 33.0251 17.6221 33.0249H24.7048L27.687 37.9952C27.886 38.3264 28.244 38.5289 28.6304 38.5291H31.6907L30.9201 42.3897L26.7524 46.5574C26.5456 46.7637 26.4292 47.0436 26.4287 47.3357V50.0878L22.4658 53.06C22.1886 53.268 22.0254 53.5942 22.0254 53.9407V57.9169L20.656 57.4634L18.7229 52.6285V41.8316C18.7231 41.3084 18.3548 40.8573 17.8423 40.7527ZM14.5332 57.6754C4.15384 49.8885 -0.23558 36.4342 3.55458 24.0245L4.46937 26.7678C4.54643 26.9999 4.69862 27.1999 4.902 27.3358L10.3896 30.9939L9.13799 32.2466C8.93159 32.453 8.81545 32.7329 8.81545 33.0249V36.3274C8.81531 36.4982 8.8548 36.6666 8.93104 36.8195L11.1327 41.2228C11.2852 41.5269 11.5696 41.7435 11.9033 41.8095L16.5268 42.7331V52.8399C16.5266 52.9797 16.5532 53.1184 16.6049 53.2483L18.8066 58.7524C18.9271 59.0531 19.174 59.2855 19.4814 59.3876L22.7839 60.4884C22.8942 60.5259 23.0098 60.5451 23.1262 60.5457C23.7342 60.5457 24.2271 60.0528 24.2271 59.4449V54.4911L28.1901 51.5189C28.4672 51.311 28.6304 50.9847 28.6304 50.6382V47.7915L32.7112 43.7107C32.8646 43.557 32.9692 43.3612 33.0117 43.1482L34.1125 37.644C34.2317 37.0478 33.845 36.4679 33.2488 36.3487C33.1779 36.3346 33.106 36.3274 33.0337 36.3274H29.2535L26.2713 31.3572C26.0723 31.0259 25.7143 30.8234 25.3279 30.8233H18.3024L16.4112 27.0287C16.2528 26.7119 15.9517 26.4907 15.6021 26.4342C15.2526 26.3738 14.8958 26.4891 14.6477 26.7425L13.2188 28.1659V26.4199C13.2188 26.1279 13.1026 25.8481 12.8962 25.6416L11.0171 23.7625V21.8702L17.7784 20.9048C17.9236 20.8837 18.0633 20.8339 18.189 20.7584L23.6932 17.4559C23.8476 17.3631 23.9769 17.2338 24.0697 17.0794L27.163 11.9242L30.0791 10.9511C30.4084 10.843 30.6668 10.5848 30.7748 10.2553L31.8757 6.95285C32.0664 6.3756 31.753 5.75294 31.1758 5.56222C31.1225 5.54461 31.0679 5.53112 31.0126 5.52177L24.641 4.45946L23.5214 3.7131C30.4488 1.45833 37.9518 1.73739 44.6926 4.5002L42.6814 5.50415H38.5379C38.1186 5.50181 37.7345 5.73794 37.5471 6.11291L35.3455 10.5162C35.0743 11.0603 35.2954 11.7214 35.8395 11.9926C35.8858 12.0157 35.9337 12.0355 35.9828 12.0519L39.2853 13.1527C39.4835 13.22 39.6968 13.2285 39.8996 13.1769L43.9925 12.1543L46.9912 13.1527C47.0341 13.1681 47.0783 13.18 47.1233 13.188L52.6274 14.2888C52.9136 14.3471 53.2114 14.2885 53.4541 14.1259L55.9596 12.4548C57.1927 13.8282 58.3008 15.3088 59.2709 16.879L53.8548 18.6844L47.9907 17.7069L46.0532 14.8007C45.8501 14.4962 45.5089 14.3126 45.1429 14.3108H38.5379C38.2459 14.3108 37.966 14.4269 37.7596 14.6333L34.4571 17.9358C34.2119 18.1809 34.0964 18.5273 34.1456 18.8704L35.2464 26.5763C35.3018 26.9573 35.5523 27.2816 35.9069 27.4316L43.6127 30.7341C43.8334 30.8297 44.0797 30.8494 44.3128 30.7902L48.2439 29.8072L50.647 31.4122V35.2266C50.6451 35.3969 50.6828 35.5654 50.7571 35.7187L55.0503 44.293V48.4365C55.0503 48.7285 55.1665 49.0084 55.3729 49.2148L57.6758 51.5189C47.4624 65.1324 28.1467 67.8889 14.5332 57.6754Z" fill="#11D170"/>
</svg>
