<svg width="67" height="67" viewBox="0 0 67 67" fill="none" xmlns="http://www.w3.org/2000/svg">
<path d="M66.8768 15.8782C66.6462 15.0206 66.0835 14.2895 65.3138 13.8463C64.5434 13.4009 63.6275 13.2804 62.7683 13.511C61.9102 13.7422 61.1792 14.3043 60.7359 15.074L60.1777 16.0455C59.6472 15.7408 58.9696 15.9202 58.6594 16.4479L55.8234 21.2819L54.8519 20.7237C54.5946 20.5748 54.2882 20.5345 54.0014 20.6119C53.7141 20.6899 53.4699 20.8785 53.3221 21.1369C53.0195 21.6706 53.2038 22.3488 53.7354 22.6552L54.7069 23.2135L45.2165 39.6597L42.8717 45.9238L41.7552 48.0112C41.1015 49.1485 41.1713 50.5621 41.934 51.629L39.4218 54.7103L38.7186 52.9467C38.4013 52.1606 37.6669 51.6219 36.8224 51.556C35.9774 51.4895 35.1678 51.9071 34.7322 52.6338L34.3305 53.3147L33.951 48.8486C33.8638 47.7921 33.0455 46.9427 31.9933 46.8151C30.9406 46.6881 29.944 47.3189 29.6076 48.3242L26.861 56.5639C26.6691 57.1467 26.9831 57.7748 27.5643 57.971C27.6733 58.0217 27.7906 58.0523 27.9105 58.0599C28.3902 58.0615 28.8177 57.7557 28.9714 57.301L31.7065 49.0613L32.0974 53.5938C32.1781 54.561 32.8732 55.3651 33.8185 55.5843C34.7639 55.8034 35.7419 55.3869 36.2396 54.5544L36.6529 53.873L37.3453 55.6262C37.6391 56.3649 38.3037 56.8921 39.0904 57.0093C39.877 57.1265 40.6665 56.8163 41.1637 56.1954L43.7652 52.902C44.0531 52.9772 44.3497 53.0149 44.6473 53.0138C45.844 53.023 46.955 52.3928 47.5613 51.3608L48.6778 49.4963L52.9318 44.327L62.5225 27.6795L63.494 28.2378C63.7529 28.3861 63.9416 28.6309 64.0184 28.9193C64.0958 29.2055 64.0555 29.5108 63.9072 29.7676L59.4411 37.5052C59.2727 37.7593 59.2154 38.0711 59.283 38.3688C59.3506 38.6659 59.5366 38.9227 59.7982 39.0791C60.0556 39.2285 60.3619 39.2688 60.6487 39.1914C60.936 39.1135 61.1802 38.9248 61.328 38.6664L65.7941 30.9288C66.2395 30.1585 66.3599 29.2426 66.1288 28.3834C65.8976 27.5253 65.3356 26.7942 64.5658 26.351L63.5943 25.7927L66.3856 20.9581C66.6903 20.4276 66.511 19.7505 65.9838 19.4398L66.542 18.4683C66.9994 17.686 67.1205 16.7515 66.8768 15.8782ZM62.6675 16.1906C62.8152 15.9321 63.0606 15.743 63.3489 15.6661C63.6357 15.5952 63.9388 15.635 64.1972 15.7779C64.4562 15.9256 64.6448 16.1709 64.7222 16.4588C64.7931 16.7455 64.7533 17.0487 64.6105 17.3071L64.0522 18.2786L62.1092 17.1621L62.6675 16.1906ZM47.4495 47.3641L46.8913 47.0403L45.2388 46.0797L46.8242 41.8372L50.3411 43.869L47.4495 47.3641ZM44.1 50.5905C43.6284 50.2617 43.4834 49.6293 43.7652 49.1278L44.3235 48.1568L46.2659 49.2733L45.7077 50.2334C45.5512 50.5049 45.2884 50.6979 44.9826 50.766C44.6768 50.8336 44.3567 50.7704 44.1 50.5905ZM51.6141 42.0383L47.751 39.8053L56.6831 24.33L60.5462 26.563L51.6141 42.0383ZM61.6627 24.6315L57.7996 22.3985L60.0327 18.5354L63.8958 20.7684L61.6627 24.6315Z" fill="#11D170"/>
<path d="M17.6185 50.0302L13.6665 53.9718L11.2994 51.6046C10.8638 51.1718 10.1605 51.1718 9.72491 51.6046C9.51338 51.8145 9.39453 52.0997 9.39453 52.3973C9.39453 52.695 9.51338 52.9807 9.72491 53.19L12.092 55.5571C12.5107 55.9726 13.0766 56.2054 13.6665 56.2048C14.2597 56.2081 14.8305 55.9753 15.2519 55.5571L19.1929 51.6046C19.5724 51.1614 19.5468 50.5012 19.1346 50.0891C18.7219 49.6764 18.0617 49.6507 17.6185 50.0302Z" fill="#11D170"/>
<path d="M4.4668 53.035C4.4668 58.2768 8.71588 62.5254 13.9572 62.5254C19.1985 62.5254 23.4476 58.2768 23.4476 53.035C23.4476 52.4184 22.9476 51.9185 22.331 51.9185C21.7145 51.9185 21.2145 52.4184 21.2145 53.035C21.2145 57.0431 17.9653 60.2923 13.9572 60.2923C9.94906 60.2923 6.69983 57.0431 6.69983 53.035C6.69983 49.0269 9.94906 45.7776 13.9572 45.7776C15.5284 45.7733 17.0576 46.283 18.3115 47.2294C18.8049 47.5996 19.5049 47.4993 19.8745 47.0059C20.2447 46.5125 20.1449 45.8131 19.6515 45.4429C16.7757 43.2862 12.9279 42.9395 9.713 44.5466C6.49757 46.1544 4.4668 49.4407 4.4668 53.035Z" fill="#11D170"/>
<path d="M40.1947 8.93176C40.8113 8.93176 41.3113 8.43238 41.3113 7.81525C41.3113 7.19865 40.8113 6.69873 40.1947 6.69873H11.1653C10.5488 6.69873 10.0488 7.19865 10.0488 7.81525V12.2813C10.0488 12.8984 10.5488 13.3978 11.1653 13.3978H40.1947C40.8113 13.3978 41.3113 12.8984 41.3113 12.2813C41.3113 11.6647 40.8113 11.1648 40.1947 11.1648H12.2819V8.93176H40.1947Z" fill="#11D170"/>
<path d="M14.515 15.6318C13.8984 15.6318 13.3984 16.1318 13.3984 16.7484C13.3984 17.3655 13.8984 17.8649 14.515 17.8649H36.8453C37.4619 17.8649 37.9618 17.3655 37.9618 16.7484C37.9618 16.1318 37.4619 15.6318 36.8453 15.6318H14.515Z" fill="#11D170"/>
<path d="M43.5431 23.4468H18.9798C18.3632 23.4468 17.8633 23.9467 17.8633 24.5633C17.8633 25.1804 18.3632 25.6798 18.9798 25.6798H43.5431C44.1597 25.6798 44.6597 25.1804 44.6597 24.5633C44.6597 23.9467 44.1597 23.4468 43.5431 23.4468Z" fill="#11D170"/>
<path d="M32.3797 31.2625C32.3797 30.6459 31.8798 30.146 31.2632 30.146H8.93292C8.31633 30.146 7.81641 30.6459 7.81641 31.2625C7.81641 31.8796 8.31633 32.379 8.93292 32.379H31.2632C31.8798 32.379 32.3797 31.8796 32.3797 31.2625Z" fill="#11D170"/>
<path d="M43.5435 30.146H35.7278C35.1113 30.146 34.6113 30.6459 34.6113 31.2625C34.6113 31.8796 35.1113 32.379 35.7278 32.379H43.5435C44.16 32.379 44.66 31.8796 44.66 31.2625C44.66 30.6459 44.16 30.146 43.5435 30.146Z" fill="#11D170"/>
<path d="M20.0981 37.962C20.7147 37.962 21.2146 37.4627 21.2146 36.8455C21.2146 36.2289 20.7147 35.729 20.0981 35.729H8.93292C8.31633 35.729 7.81641 36.2289 7.81641 36.8455C7.81641 37.4627 8.31633 37.962 8.93292 37.962H20.0981Z" fill="#11D170"/>
<path d="M24.5638 37.962H32.3794C32.996 37.962 33.4959 37.4627 33.4959 36.8455C33.4959 36.2289 32.996 35.729 32.3794 35.729H24.5638C23.9472 35.729 23.4473 36.2289 23.4473 36.8455C23.4473 37.4627 23.9472 37.962 24.5638 37.962Z" fill="#11D170"/>
<path d="M50.2432 51.3597C49.6266 51.3597 49.1267 51.8596 49.1267 52.4762V63.6414C49.1267 64.2585 48.6268 64.7579 48.0102 64.7579H3.34955C2.73295 64.7579 2.23303 64.2585 2.23303 63.6414V3.34955C2.23303 2.73296 2.73295 2.23303 3.34955 2.23303H48.0102C48.6268 2.23303 49.1267 2.73296 49.1267 3.34955V24.318C49.1267 24.9346 49.6266 25.4345 50.2432 25.4345C50.8598 25.4345 51.3597 24.9346 51.3597 24.318V3.34955C51.3597 1.49977 49.8599 0 48.0102 0H3.34955C1.49977 0 0 1.49977 0 3.34955V63.6414C0 65.4917 1.49977 66.9909 3.34955 66.9909H48.0102C49.8599 66.9909 51.3597 65.4917 51.3597 63.6414V52.4762C51.3597 51.8596 50.8598 51.3597 50.2432 51.3597Z" fill="#11D170"/>
</svg>
