<svg width="60" height="69" viewBox="0 0 60 69" fill="none" xmlns="http://www.w3.org/2000/svg">
<path d="M59.9193 19.7319C59.7581 19.1293 59.3715 18.6254 58.831 18.3134L56.8658 17.1787C56.3253 16.8668 55.6956 16.7838 55.0926 16.9455C54.49 17.1067 53.9861 17.4933 53.6741 18.0338L52.5013 20.0647C52.0036 19.831 51.4449 19.7794 50.9071 19.9233C50.3045 20.0851 49.8005 20.4716 49.4886 21.0121L49.4145 21.1399V12.4872C49.4145 9.72535 47.1681 7.47895 44.4063 7.47895H37.101C36.9378 6.34845 35.9653 5.47566 34.7905 5.47566H31.3849V3.00494C31.3849 1.34805 30.0368 0 28.3799 0H21.0345C19.3777 0 18.0296 1.34805 18.0296 3.00494V5.47566H14.624C13.4492 5.47566 12.4762 6.34845 12.3135 7.47895H5.00823C2.2464 7.47895 0 9.72535 0 12.4872V63.3708C0 66.1326 2.2464 68.379 5.00823 68.379H36.2658C36.8188 68.379 37.2675 67.9308 37.2675 67.3773C37.2675 66.8238 36.8188 66.3757 36.2658 66.3757H5.00823C3.35134 66.3757 2.00329 65.0276 2.00329 63.3708V12.4872C2.00329 10.8303 3.35134 9.48224 5.00823 9.48224H12.2868V14.3569C12.2868 15.6455 13.3354 16.6941 14.624 16.6941H34.7905C36.0791 16.6941 37.1277 15.6455 37.1277 14.3569V13.422H43.4714V31.4339L33.2791 49.0874C32.9108 49.7249 32.7439 50.4501 32.7966 51.1846L33.2431 57.4417C33.2823 57.989 33.588 58.482 34.0606 58.7606C34.3215 58.914 34.6141 58.9917 34.9084 58.9917C35.1473 58.9917 35.3868 58.94 35.6101 58.8367L41.3685 56.1662C42.0581 55.8464 42.6237 55.3294 43.0034 54.6716L43.4714 53.8614V62.4359H5.9431V13.422H8.61415C9.16714 13.422 9.61579 12.9739 9.61579 12.4204C9.61579 11.8669 9.16714 11.4188 8.61415 11.4188H5.60921C4.68843 11.4188 3.9398 12.1674 3.9398 13.0882V62.7698C3.9398 63.6906 4.68843 64.4392 5.60921 64.4392H43.8053C44.7255 64.4392 45.4747 63.6906 45.4747 62.7698V50.3911L47.4112 47.0372V63.3708C47.4112 65.0276 46.0632 66.3757 44.4063 66.3757H40.9396C40.3867 66.3757 39.938 66.8238 39.938 67.3773C39.938 67.9303 40.3867 68.379 40.9396 68.379H44.4063C47.1676 68.379 49.4145 66.1321 49.4145 63.3708V43.5674L57.8648 28.9309L59.1998 26.6187C59.5118 26.0783 59.5948 25.4486 59.433 24.846C59.2891 24.3082 58.9651 23.8506 58.5133 23.5361L59.6861 21.5051C59.998 20.9646 60.081 20.335 59.9193 19.7319ZM55.4087 19.0354C55.5005 18.8763 55.7045 18.8215 55.8642 18.9134L57.8294 20.048C57.9332 20.108 57.9713 20.2009 57.9848 20.2505C57.9979 20.3005 58.0114 20.3991 57.9514 20.5035L56.7834 22.5261L54.2412 21.0585L55.4087 19.0354ZM51.2232 22.0138C51.2832 21.9099 51.3761 21.8719 51.4256 21.8588C51.4757 21.8447 51.5743 21.8317 51.6781 21.8917L57.3426 25.1622C57.447 25.2222 57.485 25.3145 57.4981 25.3646C57.5117 25.4141 57.5247 25.5133 57.4647 25.6171L56.6305 27.0616L50.3895 23.4583L51.2232 22.0138ZM20.0329 3.00494C20.0329 2.45247 20.4821 2.00329 21.0345 2.00329H28.3799C28.9324 2.00329 29.3816 2.45247 29.3816 3.00494V5.47566H20.0329V3.00494ZM35.1244 14.3569C35.1244 14.5411 34.9746 14.6908 34.7905 14.6908H14.624C14.4399 14.6908 14.2901 14.5411 14.2901 14.3569V7.81283C14.2901 7.62868 14.4399 7.47895 14.624 7.47895H34.7905C34.9746 7.47895 35.1244 7.62868 35.1244 7.81283V14.3569ZM43.8053 11.4188H37.1277V9.48224H44.4063C46.0632 9.48224 47.4112 10.8303 47.4112 12.4872V24.6102L45.4747 27.9642V13.0882C45.4747 12.1674 44.7261 11.4188 43.8053 11.4188ZM49.3879 25.1935L55.6289 28.7968L43.3493 50.0661L37.1078 46.4628L49.3879 25.1935ZM41.2688 53.6699C41.0961 53.9689 40.839 54.2036 40.5259 54.3486V54.3492L35.2068 56.8157L34.7947 51.0422C34.7707 50.7083 34.8468 50.3791 35.0143 50.0896L36.1062 48.1974L42.3477 51.8007L41.2688 53.6699Z" fill="#11D170"/>
<path d="M10.3463 55.8836C10.5367 56.0532 10.7746 56.1361 11.0109 56.1361C11.2874 56.1361 11.5624 56.0224 11.7601 55.7996L13.7462 53.5637L15.2836 55.3974C15.5919 55.7657 16.0442 55.9828 16.5242 55.9942C17.0046 56.0026 17.4658 55.8096 17.7908 55.4564L19.6397 53.4489L21.6889 55.7683C22.0557 56.1831 22.6885 56.2222 23.1027 55.856C23.5174 55.4898 23.5566 54.8569 23.1903 54.4422L20.8959 51.8452C20.5834 51.4915 20.1337 51.286 19.6621 51.2813C19.6564 51.2808 19.6507 51.2808 19.6449 51.2808C19.1791 51.2808 18.7325 51.4764 18.4169 51.8191L16.5748 53.8193L15.0327 51.9803C14.7207 51.6084 14.2632 51.3908 13.777 51.3835C13.2907 51.3726 12.828 51.5813 12.5056 51.9444L10.2628 54.4693C9.89505 54.883 9.93262 55.5164 10.3463 55.8836Z" fill="#11D170"/>
<path d="M39.8992 22.1032C39.8992 21.5497 39.4506 21.1016 38.8976 21.1016H10.4509C9.89787 21.1016 9.44922 21.5497 9.44922 22.1032C9.44922 22.6567 9.89787 23.1049 10.4509 23.1049H38.8976C39.4506 23.1049 39.8992 22.6567 39.8992 22.1032Z" fill="#11D170"/>
<path d="M10.5856 28.4466H22.4718C23.0248 28.4466 23.4735 27.9985 23.4735 27.445C23.4735 26.8915 23.0248 26.4434 22.4718 26.4434H10.5856C10.0326 26.4434 9.58398 26.8915 9.58398 27.445C9.58398 27.9985 10.0326 28.4466 10.5856 28.4466Z" fill="#11D170"/>
<path d="M32.8222 27.445C32.8222 26.8915 32.3735 26.4434 31.8205 26.4434H27.1462C26.5932 26.4434 26.1445 26.8915 26.1445 27.445C26.1445 27.9985 26.5932 28.4466 27.1462 28.4466H31.8205C32.3735 28.4466 32.8222 27.9985 32.8222 27.445Z" fill="#11D170"/>
<path d="M10.5856 33.7889H20.2014C20.7544 33.7889 21.2031 33.3408 21.2031 32.7873C21.2031 32.2338 20.7544 31.7856 20.2014 31.7856H10.5856C10.0326 31.7856 9.58398 32.2338 9.58398 32.7873C9.58398 33.3408 10.0326 33.7889 10.5856 33.7889Z" fill="#11D170"/>
<path d="M29.0151 31.7856H24.4743C23.9213 31.7856 23.4727 32.2338 23.4727 32.7873C23.4727 33.3408 23.9213 33.7889 24.4743 33.7889H29.0151C29.5681 33.7889 30.0167 33.3408 30.0167 32.7873C30.0167 32.2338 29.5681 31.7856 29.0151 31.7856Z" fill="#11D170"/>
<path d="M10.5856 39.1307H17.5304C18.0834 39.1307 18.532 38.6826 18.532 38.1291C18.532 37.5756 18.0834 37.1274 17.5304 37.1274H10.5856C10.0326 37.1274 9.58398 37.5756 9.58398 38.1291C9.58398 38.6826 10.0326 39.1307 10.5856 39.1307Z" fill="#11D170"/>
<path d="M30.0159 38.1291C30.0159 37.5756 29.5673 37.1274 29.0143 37.1274H21.8024C21.2494 37.1274 20.8008 37.5756 20.8008 38.1291C20.8008 38.6826 21.2494 39.1307 21.8024 39.1307H29.0143C29.5673 39.1307 30.0159 38.6826 30.0159 38.1291Z" fill="#11D170"/>
<path d="M10.5856 44.473H17.5304C18.0834 44.473 18.532 44.0249 18.532 43.4714C18.532 42.9179 18.0834 42.4697 17.5304 42.4697H10.5856C10.0326 42.4697 9.58398 42.9179 9.58398 43.4714C9.58398 44.0249 10.0326 44.473 10.5856 44.473Z" fill="#11D170"/>
</svg>
