<svg width="66" height="66" viewBox="0 0 66 66" fill="none" xmlns="http://www.w3.org/2000/svg">
<path d="M33 66C31.4008 66 30.0996 64.6988 30.0996 63.0996C30.0996 63.0482 30.101 62.9971 30.1036 62.9463L13.8713 56.2229C13.3401 56.8127 12.5708 57.1841 11.7163 57.1841C10.1171 57.1841 8.8159 55.8829 8.8159 54.2837C8.8159 52.6845 10.1171 51.3833 11.7163 51.3833C13.3155 51.3833 14.6167 52.6845 14.6167 54.2837C14.6167 54.3351 14.6153 54.3862 14.6127 54.437L30.8449 61.1605C31.3762 60.5706 32.1455 60.1992 33 60.1992C33.8545 60.1992 34.6238 60.5706 35.1551 61.1605L51.3873 54.437C51.3846 54.3861 51.3833 54.3351 51.3833 54.2837C51.3833 52.6845 52.6845 51.3833 54.2837 51.3833C55.8829 51.3833 57.1841 52.6845 57.1841 54.2837C57.1841 55.8829 55.8829 57.1841 54.2837 57.1841C53.4292 57.1841 52.6599 56.8127 52.1287 56.2229L35.8964 62.9463C35.8991 62.9973 35.9004 63.0482 35.9004 63.0996C35.9004 64.6988 34.5992 66 33 66ZM33 62.1328C32.4668 62.1328 32.0332 62.5665 32.0332 63.0996C32.0332 63.6328 32.4668 64.0664 33 64.0664C33.5332 64.0664 33.9668 63.6328 33.9668 63.0996C33.9668 62.5665 33.5332 62.1328 33 62.1328ZM54.2836 53.3168C53.7504 53.3168 53.3168 53.7504 53.3168 54.2836C53.3168 54.8167 53.7504 55.2504 54.2836 55.2504C54.8167 55.2504 55.2504 54.8167 55.2504 54.2836C55.2504 53.7504 54.8167 53.3168 54.2836 53.3168ZM11.7164 53.3168C11.1833 53.3168 10.7496 53.7504 10.7496 54.2836C10.7496 54.8167 11.1833 55.2504 11.7164 55.2504C12.2496 55.2504 12.6832 54.8167 12.6832 54.2836C12.6832 53.7504 12.2494 53.3168 11.7164 53.3168ZM33 54.3984C21.2008 54.3984 11.6016 44.7992 11.6016 33C11.6016 21.2008 21.2008 11.6016 33 11.6016C37.1829 11.6016 41.2349 12.8086 44.7181 15.0925C45.1646 15.3852 45.2893 15.9846 44.9965 16.4312C44.7038 16.8778 44.1041 17.0022 43.6578 16.7096C42.5655 15.9934 41.4116 15.3937 40.2126 14.9152C41.0798 15.7963 41.888 16.8446 42.6217 18.0498C43.0785 18.8001 43.4971 19.5965 43.8756 20.4316H47.8679C47.3883 19.8675 46.8735 19.3265 46.3245 18.8106C45.9352 18.4451 45.9161 17.8333 46.2819 17.4441C46.6474 17.0547 47.2593 17.0357 47.6484 17.4014C51.9381 21.4312 54.3984 27.1166 54.3984 33C54.3984 44.7992 44.7992 54.3984 33 54.3984ZM33.9668 45.5684V52.3954C36.5819 52.0182 39.0394 50.116 40.9703 46.9446C41.2393 46.5028 41.4938 46.0439 41.7334 45.5684H33.9668ZM24.2666 45.5684C24.5062 46.0438 24.7607 46.5028 25.0297 46.9446C26.9606 50.1162 29.4181 52.0182 32.0332 52.3954V45.5684H24.2666ZM43.8757 45.5684C43.4972 46.4035 43.0787 47.1998 42.6218 47.9502C41.8903 49.1516 41.0849 50.1973 40.2207 51.0765C43.1956 49.8838 45.8113 47.9761 47.8521 45.5685H43.8757V45.5684ZM18.1478 45.5684C20.1885 47.9761 22.8043 49.8838 25.7792 51.0764C24.915 50.1971 24.1096 49.1514 23.378 47.95C22.9212 47.1998 22.5026 46.4034 22.1242 45.5682H18.1478V45.5684ZM44.6556 43.6348H49.2962C51.1335 40.8287 52.2663 37.5213 52.4411 33.9668H46.3931C46.2986 37.4089 45.7 40.7081 44.6556 43.6348ZM33.9668 43.6348H42.5933C43.7138 40.7616 44.3581 37.4495 44.4589 33.9668H33.9668V43.6348ZM23.4067 43.6348H32.0332V33.9668H21.5411C21.6419 37.4495 22.2862 40.7616 23.4067 43.6348ZM16.7038 43.6348H21.3444C20.2999 40.7081 19.7014 37.4089 19.6069 33.9668H13.5589C13.7337 37.5213 14.8665 40.8287 16.7038 43.6348ZM46.3931 32.0332H52.4416C52.2735 28.5371 51.1951 25.2297 49.3162 22.3652H44.6556C45.7 25.2919 46.2986 28.5911 46.3931 32.0332ZM33.9668 32.0332H44.4589C44.3582 28.5505 43.7139 25.2384 42.5933 22.3652H33.9668V24.6211C33.9668 25.1552 33.5341 25.5879 33 25.5879C32.4659 25.5879 32.0332 25.1552 32.0332 24.6211V22.3652H23.4067C22.2862 25.2384 21.6419 28.5505 21.5411 32.0332H32.0332V28.4883C32.0332 27.9542 32.4659 27.5215 33 27.5215C33.5341 27.5215 33.9668 27.9542 33.9668 28.4883V32.0332ZM13.5589 32.0332H19.6069C19.7014 28.5911 20.3 25.2919 21.3444 22.3652H16.7038C14.8665 25.1713 13.7337 28.4787 13.5589 32.0332ZM33.9668 20.4316H41.7334C41.4938 19.9562 41.2393 19.4972 40.9703 19.0554C39.0394 15.8838 36.5819 13.9818 33.9668 13.6046V20.4316ZM24.2666 20.4316H32.0332V13.6046C29.4181 13.9818 26.9606 15.884 25.0297 19.0554C24.7607 19.4972 24.5062 19.9562 24.2666 20.4316ZM18.1478 20.4316H22.1243C22.5028 19.5965 22.9213 18.8002 23.3782 18.0498C24.1097 16.8484 24.9151 15.8027 25.7793 14.9235C22.8043 16.1162 20.1885 18.0239 18.1478 20.4316ZM56.3677 50.2183C56.2444 50.2183 56.1191 50.1945 55.9982 50.1444C55.5048 49.9401 55.2705 49.3746 55.4749 48.8813L61.1603 35.1551C60.5706 34.6238 60.1992 33.8545 60.1992 33C60.1992 32.1455 60.5706 31.3762 61.1605 30.8449L54.437 14.6127C54.3861 14.6154 54.3351 14.6167 54.2837 14.6167C52.6845 14.6167 51.3833 13.3155 51.3833 11.7163C51.3833 10.1171 52.6845 8.8159 54.2837 8.8159C55.8829 8.8159 57.1841 10.1171 57.1841 11.7163C57.1841 12.5708 56.8127 13.3401 56.2229 13.8713L62.9463 30.1036C62.9973 30.1009 63.0482 30.0996 63.0996 30.0996C64.6988 30.0996 66 31.4008 66 33C66 34.5992 64.6988 35.9004 63.0996 35.9004C63.0482 35.9004 62.9971 35.899 62.9463 35.8964L57.2613 49.6212C57.1071 49.9935 56.7471 50.2183 56.3677 50.2183ZM63.0996 32.0332C62.5665 32.0332 62.1328 32.4668 62.1328 33C62.1328 33.5332 62.5665 33.9668 63.0996 33.9668C63.6328 33.9668 64.0664 33.5332 64.0664 33C64.0664 32.4668 63.6328 32.0332 63.0996 32.0332ZM54.2836 10.7496C53.7504 10.7496 53.3168 11.1833 53.3168 11.7164C53.3168 12.2496 53.7504 12.6832 54.2836 12.6832C54.8167 12.6832 55.2504 12.2496 55.2504 11.7164C55.2504 11.1833 54.8167 10.7496 54.2836 10.7496ZM9.63226 50.2183C9.25289 50.2183 8.89298 49.9936 8.73868 49.6212L3.05366 35.8964C3.00274 35.8991 2.95182 35.9004 2.90039 35.9004C1.30118 35.9004 0 34.5992 0 33C0 31.4008 1.30118 30.0996 2.90039 30.0996C2.95182 30.0996 3.00287 30.101 3.05366 30.1036L9.77715 13.8713C9.18728 13.3401 8.8159 12.5708 8.8159 11.7163C8.8159 10.1171 10.1171 8.8159 11.7163 8.8159C12.5708 8.8159 13.3401 9.18728 13.8713 9.77715L30.1036 3.05366C30.1009 3.00274 30.0996 2.95182 30.0996 2.90039C30.0996 1.30118 31.4008 0 33 0C34.5992 0 35.9004 1.30118 35.9004 2.90039C35.9004 2.95182 35.899 3.00287 35.8964 3.05366L49.6403 8.74655C50.1336 8.95086 50.3679 9.51638 50.1635 10.0097C49.9592 10.503 49.3935 10.7376 48.9003 10.5329L35.1551 4.83953C34.6238 5.42927 33.8544 5.80078 33 5.80078C32.1455 5.80078 31.3762 5.4294 30.8449 4.83953L14.6127 11.563C14.6154 11.6139 14.6167 11.6649 14.6167 11.7163C14.6167 13.3155 13.3155 14.6167 11.7163 14.6167C11.6649 14.6167 11.6138 14.6153 11.563 14.6127L4.83953 30.8449C5.4294 31.3762 5.80078 32.1455 5.80078 33C5.80078 33.8545 5.4294 34.6238 4.83953 35.1551L10.5249 48.8813C10.7294 49.3746 10.4952 49.9401 10.0017 50.1444C9.88079 50.1945 9.7555 50.2183 9.63226 50.2183ZM2.90039 32.0332C2.36723 32.0332 1.93359 32.4668 1.93359 33C1.93359 33.5332 2.36723 33.9668 2.90039 33.9668C3.43355 33.9668 3.86719 33.5332 3.86719 33C3.86719 32.4668 3.43355 32.0332 2.90039 32.0332ZM11.7164 10.7496C11.1833 10.7496 10.7496 11.1833 10.7496 11.7164C10.7496 12.2496 11.1833 12.6832 11.7164 12.6832C12.2496 12.6832 12.6832 12.2496 12.6832 11.7164C12.6832 11.1833 12.2494 10.7496 11.7164 10.7496ZM33 1.93359C32.4668 1.93359 32.0332 2.36723 32.0332 2.90039C32.0332 3.43355 32.4668 3.86719 33 3.86719C33.5332 3.86719 33.9668 3.43355 33.9668 2.90039C33.9668 2.36723 33.5332 1.93359 33 1.93359Z" fill="#11D170"/>
</svg>
