<svg width="62" height="68" viewBox="0 0 62 68" fill="none" xmlns="http://www.w3.org/2000/svg">
<path d="M27.6895 9.45215C28.0388 9.45215 28.3814 9.31004 28.6284 9.06301C28.8755 8.81598 29.0176 8.47332 29.0176 8.12402C29.0176 7.77327 28.8756 7.43207 28.6284 7.18504C28.3814 6.93668 28.0388 6.7959 27.6895 6.7959C27.3388 6.7959 26.9975 6.93668 26.7506 7.18504C26.5022 7.43207 26.3613 7.7734 26.3613 8.12402C26.3613 8.47332 26.5022 8.81598 26.7506 9.06301C26.9975 9.31004 27.3388 9.45215 27.6895 9.45215Z" fill="#11D170"/>
<path d="M61.5672 47.7629C61.263 47.0956 60.4756 46.8012 59.8078 47.1052L58.3934 47.7499L57.586 45.7755C57.3819 45.2762 56.8955 44.95 56.356 44.95C56.166 44.95 55.978 44.9908 55.8052 45.0696L50.9907 47.2639L41.2116 23.3496C44.4926 20.4545 46.8468 16.4977 47.7083 11.9446C47.9481 10.6786 47.6103 9.3881 46.782 8.40383C45.9713 7.44067 44.7911 6.89203 43.5349 6.89203C43.5128 6.89203 43.4905 6.89229 43.4683 6.89256C41.4548 6.92364 39.7279 8.36956 39.3622 10.3305C39.0698 11.8989 38.4728 13.3459 37.6397 14.6152L35.6507 9.75107C35.7582 9.22514 35.8147 8.68074 35.8147 8.12359C35.815 3.64424 32.1708 0 27.6913 0C23.2118 0 19.5677 3.64424 19.5677 8.12373C19.5677 8.68101 19.6243 9.22527 19.7317 9.75134L15.1541 20.946L1.0538 55.4275C1.00346 55.5504 0.971984 55.6802 0.960164 55.8125L0.0052437 66.5541C-0.0462875 67.1341 0.286009 67.6802 0.824828 67.9008C0.988054 67.9677 1.15885 68 1.32779 68C1.7164 68 2.09558 67.8292 2.35363 67.5158L9.20926 59.1871C9.294 59.0842 9.36266 58.969 9.41313 58.8458L12.6502 50.9298C12.9279 50.2508 12.6026 49.4753 11.9235 49.1978C11.2446 48.9201 10.4691 49.2456 10.1915 49.9244L7.03061 57.6542L3.03124 62.5129L3.58825 56.2473L16.4366 24.827C16.6574 25.042 16.9043 25.2365 17.1764 25.4049C17.982 25.9036 18.8189 26.3425 19.6799 26.7206L14.7159 38.8599C14.4382 39.5389 14.7636 40.3144 15.4425 40.5919C15.6071 40.6593 15.7774 40.6912 15.9447 40.6912C16.4681 40.6912 16.9642 40.3797 17.1745 39.8653L22.1796 27.6257C23.9982 28.1523 25.8913 28.4246 27.8075 28.4246C29.6768 28.4246 31.4957 28.1675 33.2278 27.6859L45.9698 58.8457C46.0203 58.969 46.089 59.0841 46.1737 59.187L53.0292 67.5156C53.2871 67.8289 53.6664 67.9999 54.055 67.9999C54.2238 67.9999 54.3948 67.9676 54.558 67.9007C55.0968 67.6801 55.4291 67.1341 55.3776 66.5539L54.5059 56.7487L59.7229 54.3709C60.3719 54.075 60.6713 53.3197 60.4013 52.6597L59.3997 50.2103L60.9096 49.5221C61.577 49.218 61.8714 48.4303 61.5672 47.7629ZM27.6913 16.2473C27.9752 16.2473 28.2559 16.2324 28.5324 16.2038L29.9717 19.7232C29.2682 19.8546 28.5449 19.9246 27.8074 19.9246C27.0036 19.9246 26.2068 19.8419 25.4283 19.681L26.8502 16.2038C27.1268 16.2324 27.4073 16.2473 27.6913 16.2473ZM37.6648 21.8645C37.6648 22.7433 36.9499 23.4582 36.0711 23.4582C35.1922 23.4582 34.4773 22.7433 34.4773 21.8645C34.4773 20.9857 35.1922 20.2707 36.0711 20.2707C36.9499 20.2707 37.6648 20.9857 37.6648 21.8645ZM41.9738 10.8176C42.1087 10.094 42.7546 9.56036 43.5095 9.54867C43.9869 9.54229 44.4413 9.74749 44.75 10.1143C45.0622 10.4853 45.1893 10.9724 45.0987 11.4508C44.4133 15.0726 42.641 18.2606 40.1585 20.7037C39.852 19.6261 39.1305 18.7221 38.178 18.1759C40.0847 16.2024 41.4412 13.6745 41.9738 10.8176ZM35.6979 16.8835C34.7606 17.7315 33.6871 18.4256 32.5199 18.937L31.1104 15.4902C32.3042 14.9338 33.341 14.0962 34.1353 13.0622L35.6979 16.8835ZM27.6913 2.65624C30.706 2.65624 33.1588 5.10902 33.1588 8.12373C33.1588 11.1384 30.706 13.5911 27.6913 13.5911C24.6766 13.5911 22.2239 11.1384 22.2239 8.12373C22.2239 5.10902 24.6766 2.65624 27.6913 2.65624ZM24.2723 15.4902L22.8993 18.8477C22.4741 18.6516 22.0591 18.4312 21.6579 18.1837C20.9736 17.7616 20.1972 17.5454 19.415 17.5436L21.2475 13.0622C22.0417 14.0963 23.0784 14.9339 24.2723 15.4902ZM18.5744 23.1463C17.9051 22.732 17.635 21.9059 17.9318 21.182C18.1109 20.7451 18.4562 20.4244 18.9044 20.2784C19.0673 20.2256 19.2355 20.1993 19.4034 20.1993C19.7028 20.1993 20.0007 20.2824 20.2638 20.4447C22.5299 21.8422 25.1385 22.5809 27.8075 22.5809C29.1959 22.5809 30.5446 22.3818 31.8249 22.0102C31.864 23.1609 32.3623 24.1963 33.1423 24.9396C33.1411 24.9405 33.1399 24.9413 33.1388 24.9423C31.4497 25.4799 29.6569 25.7684 27.8075 25.7684C24.5386 25.7684 21.3459 24.8617 18.5744 23.1463ZM48.3522 57.6543L35.7377 26.8063C36.8913 26.3144 37.9927 25.7188 39.0287 25.0289L51.7946 56.2474L52.3515 62.513L48.3522 57.6543ZM53.806 54.1486L51.997 49.7246L55.6504 48.0594L57.4594 52.4835L53.806 54.1486Z" fill="#11D170"/>
<path d="M13.6836 43.5659C13.3343 43.5659 12.9916 43.708 12.7446 43.9552C12.4976 44.2021 12.3555 44.5447 12.3555 44.894C12.3555 45.2435 12.4974 45.5861 12.7446 45.833C12.9916 46.0801 13.3343 46.2222 13.6836 46.2222C14.0329 46.2222 14.3755 46.0802 14.6224 45.833C14.8695 45.5861 15.0117 45.2435 15.0117 44.894C15.0117 44.5447 14.8696 44.2021 14.6224 43.9552C14.3754 43.7082 14.0328 43.5659 13.6836 43.5659Z" fill="#11D170"/>
</svg>
