<svg width="63" height="64" viewBox="0 0 63 64" fill="none" xmlns="http://www.w3.org/2000/svg">
<path d="M38.3096 32.0462C37.6215 33.381 37.7888 35.0619 38.8374 36.1879C39.2568 36.6383 39.7859 36.9756 40.3673 37.1635C41.0753 37.3922 41.6345 37.9515 41.8633 38.6594C42.0513 39.2407 42.3886 39.7698 42.8388 40.1892C43.5149 40.8189 44.391 41.1311 45.2723 41.1311C46.2208 41.1311 47.1752 40.7694 47.8918 40.0528L58.1064 29.8384C59.4889 28.4559 59.5502 26.1891 58.2429 24.7855C57.8235 24.3351 57.2945 23.9978 56.713 23.8099C56.0051 23.5811 55.4458 23.0218 55.217 22.3139C55.0291 21.7326 54.6917 21.2035 54.2415 20.7841C53.1156 19.7355 51.4347 19.5684 50.0999 20.2563L38.9283 9.08467C39.6164 7.74984 39.4491 6.06901 38.4005 4.94309C37.9811 4.49284 37.452 4.15536 36.8707 3.96754C36.1627 3.73878 35.6035 3.17953 35.3747 2.47159C35.1868 1.89026 34.8494 1.36119 34.3992 0.941818C32.9956 -0.365482 30.7288 -0.304274 29.3462 1.07835L19.1316 11.2926C17.7492 12.6751 17.6878 14.9419 18.9951 16.3455C19.4146 16.7959 19.9437 17.1333 20.525 17.3211C21.233 17.5499 21.7922 18.1093 22.0211 18.8171C22.2089 19.3986 22.5464 19.9275 22.9968 20.347C23.6727 20.9766 24.5491 21.2887 25.4303 21.2887C26.0168 21.2887 26.6054 21.1501 27.1388 20.8751L30.2811 24.0175L1.12375 53.1748C-0.374582 54.6732 -0.374582 57.1111 1.12375 58.6096C1.87291 59.3588 2.85698 59.7334 3.8412 59.7334C4.82527 59.7334 5.80934 59.3589 6.55851 58.6096L35.7157 29.4523L38.3096 32.0462ZM56.9134 26.0235C57.5618 26.7197 57.5207 27.8549 56.8217 28.5537L46.6072 38.7681C45.9083 39.467 44.7732 39.5082 44.077 38.8598C43.8493 38.6477 43.6861 38.3924 43.5918 38.1007C43.4839 37.7669 43.3338 37.4523 43.1494 37.1616L55.2151 25.0959C55.5057 25.2802 55.8203 25.4303 56.154 25.5382C56.4459 25.6327 56.7014 25.7959 56.9134 26.0235ZM53.0031 22.1132C53.2307 22.3254 53.3939 22.5807 53.4883 22.8723C53.5962 23.2062 53.7462 23.5207 53.9306 23.8114L41.8648 35.8771C41.5742 35.6928 41.2596 35.5427 40.9259 35.4348C40.6341 35.3405 40.3787 35.1773 40.1667 34.9498C39.5184 34.2537 39.5593 33.1191 40.2576 32.4201L45.3655 27.3122L50.4727 22.205C50.8394 21.8384 51.3262 21.6526 51.8066 21.6526C52.242 21.6526 52.6722 21.8051 53.0031 22.1132ZM20.3245 15.1075C19.6761 14.4113 19.7172 13.2763 20.4162 12.5773L30.6306 2.36287C30.9974 1.99604 31.484 1.81046 31.9644 1.81046C32.3997 1.81046 32.8299 1.96292 33.1609 2.27106C33.3885 2.48319 33.5518 2.7385 33.6461 3.03028C33.754 3.36413 33.9041 3.67855 34.0884 3.96922L22.0227 16.0349C21.732 15.8506 21.4174 15.7004 21.0836 15.5925C20.7919 15.4983 20.5366 15.3351 20.3245 15.1075ZM24.2347 19.0176C24.007 18.8056 23.8438 18.5503 23.7496 18.2585C23.6417 17.9247 23.4915 17.6103 23.3072 17.3196L35.3729 5.25388C35.6636 5.4382 35.9781 5.58829 36.3118 5.69617C36.6036 5.7905 36.8591 5.95372 37.0709 6.18122C37.7193 6.87742 37.6783 8.01242 36.9793 8.71141L26.7649 18.9258C26.066 19.625 24.9309 19.666 24.2347 19.0176ZM37.7673 10.4929L48.6916 21.4172L44.0812 26.0276L39.4707 30.638L28.5464 19.7137L37.7673 10.4929ZM5.27399 57.3249C4.48388 58.1149 3.19838 58.1151 2.40841 57.3249C1.61844 56.5348 1.61844 55.2493 2.40841 54.4594L31.5656 25.3022L34.4312 28.1677L5.27399 57.3249Z" fill="#11D170"/>
<path d="M62.9986 58.9569C62.9986 58.761 62.937 58.5663 62.8133 58.4048L59.1174 53.576V51.3683C59.1174 50.8666 58.7107 50.46 58.2091 50.46H32.7758C32.2741 50.46 31.8674 50.8666 31.8674 51.3683V53.576L28.1715 58.4048C28.0478 58.5663 27.9862 58.761 27.9862 58.9569L27.9844 62.8274C27.9844 63.3291 28.391 63.7357 28.8927 63.7357H62.0918C62.5935 63.7357 63.0002 63.3291 63.0002 62.8274L62.9986 58.9569ZM33.6841 52.2768H57.3007V52.9755H33.6841V52.2768ZM33.2243 54.7921H57.7603L60.2528 58.0486H30.732L33.2243 54.7921ZM29.8012 61.9191V59.8653H61.1836V61.9191H29.8012Z" fill="#11D170"/>
<path d="M44.7711 21.8856C44.9484 22.0629 45.181 22.1517 45.4134 22.1517C45.6458 22.1517 45.8783 22.0629 46.0556 21.8856C46.4104 21.5308 46.4104 20.9558 46.0556 20.6011L38.5838 13.1293C38.2292 12.7746 37.654 12.7746 37.2993 13.1293C36.9445 13.4841 36.9445 14.0591 37.2993 14.4138L44.7711 21.8856Z" fill="#11D170"/>
</svg>
