<svg width="63" height="63" viewBox="0 0 63 63" fill="none" xmlns="http://www.w3.org/2000/svg">
<path d="M61.1852 15.5302L62.9335 10.8675C63.0146 10.651 63.0221 10.4139 62.9546 10.1927C62.8872 9.97163 62.7487 9.77894 62.5606 9.64456C62.3725 9.51019 62.1454 9.44165 61.9143 9.44956C61.6833 9.45748 61.4613 9.54142 61.2829 9.68835L44.4569 23.5462C43.9974 23.9262 43.655 24.4286 43.4695 24.9953C43.284 25.5619 43.263 26.1696 43.4089 26.7477C43.5032 27.1174 43.6086 27.5261 43.7107 27.9169C43.7871 28.2115 43.7696 28.5226 43.6608 28.8069C43.552 29.0911 43.3572 29.3343 43.1036 29.5026L43.0622 29.5302C42.7933 29.7096 42.4716 29.793 42.1494 29.7668C41.8272 29.7406 41.5232 29.6063 41.2868 29.3858L38.7866 25.8276L38.186 22.8244C38.0829 22.3159 38.0816 21.7921 38.1823 21.2832C38.2829 20.7742 38.4835 20.2903 38.7725 19.8594C39.2607 19.1298 39.977 18.5826 40.8095 18.3036C41.1613 18.1852 41.533 18.1378 41.9033 18.1641C42.2735 18.1904 42.6349 18.29 42.9664 18.4569L45.7308 19.839C45.9104 19.9287 46.112 19.9651 46.3116 19.9438C46.5113 19.9225 46.7006 19.8444 46.8572 19.7188C47.0139 19.5931 47.1312 19.4252 47.1953 19.235C47.2594 19.0447 47.2676 18.84 47.2189 18.6452L46.5453 15.9504C46.3262 15.074 45.8437 14.2858 45.1628 13.6921L46.0014 9.51917C46.101 9.01624 46.0138 8.49429 45.7564 8.05095C45.4989 7.60761 45.0887 7.27327 44.6026 7.11047L43.1956 6.63797L43.1825 6.63364C43.139 6.61972 43.0946 6.60936 43.0512 6.59702V5.25C43.0512 4.97152 42.9406 4.70445 42.7437 4.50754C42.5468 4.31062 42.2797 4.2 42.0012 4.2C41.7227 4.2 41.4557 4.31062 41.2587 4.50754C41.0618 4.70445 40.9512 4.97152 40.9512 5.25V6.59649C40.9074 6.60883 40.8629 6.6192 40.82 6.63311L40.8068 6.63744L39.4025 7.10929C38.9157 7.27191 38.5049 7.60639 38.2471 8.05009C37.9892 8.49379 37.902 9.01628 38.0016 9.51969L38.6772 12.8811C38.152 13.0082 37.6382 13.178 37.1408 13.3888L35.8111 11.3938L37.1224 7.45946C37.3757 6.69727 37.3286 5.86713 36.9907 5.13849C36.6528 4.40985 36.0495 3.83763 35.304 3.53863L32.5525 2.4381V1.05C32.5525 0.771523 32.4419 0.504451 32.245 0.307538C32.0481 0.110625 31.781 0 31.5025 0C31.224 0 30.957 0.110625 30.7601 0.307538C30.5631 0.504451 30.4525 0.771523 30.4525 1.05V2.43849L27.6988 3.53902C26.9534 3.8381 26.3502 4.41032 26.0122 5.13893C25.6743 5.86755 25.6271 6.69764 25.8803 7.45986L27.1919 11.3942L25.862 13.3892C25.3646 13.1783 24.8508 13.0085 24.3256 12.8815L25.0014 9.51917C25.1011 9.01615 25.014 8.49407 24.7565 8.05062C24.499 7.60717 24.0887 7.27275 23.6024 7.10994L22.1954 6.63744L22.1823 6.63311C22.1389 6.61907 22.0944 6.60883 22.0511 6.59649V5.25C22.0511 4.97152 21.9404 4.70445 21.7435 4.50754C21.5466 4.31062 21.2796 4.2 21.0011 4.2C20.7226 4.2 20.4555 4.31062 20.2586 4.50754C20.0617 4.70445 19.9511 4.97152 19.9511 5.25V6.59649C19.9071 6.60883 19.8627 6.6192 19.8198 6.63311L19.8067 6.63744L18.4023 7.10929C17.9156 7.27186 17.5047 7.60633 17.2469 8.05005C16.989 8.49376 16.9018 9.01627 17.0015 9.51969L17.8398 13.6916C17.159 14.2853 16.6765 15.0735 16.4575 15.9499L15.7836 18.6447C15.7349 18.8395 15.7431 19.0442 15.8072 19.2345C15.8714 19.4248 15.9887 19.5927 16.1453 19.7184C16.302 19.844 16.4913 19.9221 16.691 19.9434C16.8907 19.9647 17.0923 19.9282 17.2719 19.8384L20.0363 18.4564C20.3678 18.2895 20.7291 18.19 21.0994 18.1637C21.4696 18.1373 21.8414 18.1847 22.1932 18.3031C23.0256 18.5821 23.742 19.1293 24.2301 19.859C24.519 20.2899 24.7197 20.7738 24.8203 21.2827C24.921 21.7916 24.9198 22.3154 24.8166 22.8238L24.2162 25.8266L21.7159 29.3848C21.4794 29.6055 21.1753 29.7398 20.8529 29.766C20.5306 29.7922 20.2088 29.7088 19.9398 29.5291L19.8991 29.5021C19.6455 29.3338 19.4507 29.0906 19.3419 28.8064C19.233 28.5222 19.2155 28.2111 19.2918 27.9165C19.3942 27.5257 19.4993 27.117 19.5937 26.7473C19.7396 26.1692 19.7185 25.5615 19.533 24.9948C19.3475 24.4282 19.0052 23.9257 18.5456 23.5457L1.71769 9.68887C1.53928 9.54187 1.31735 9.45786 1.08631 9.44987C0.855283 9.44187 0.628071 9.51034 0.439925 9.64466C0.251779 9.77897 0.113217 9.97162 0.0457347 10.1927C-0.021748 10.4138 -0.0143791 10.651 0.0666981 10.8675L1.81495 15.5296C2.79875 18.1493 4.44559 20.4687 6.59442 22.2612L7.07637 22.6627L2.23009 22.057C2.0305 22.032 1.82793 22.0649 1.64649 22.1517C1.46505 22.2386 1.31237 22.3757 1.20662 22.5468C1.10086 22.7179 1.04648 22.9158 1.04995 23.1169C1.05341 23.318 1.11458 23.5139 1.22616 23.6813C2.70983 25.9161 4.86243 27.6242 7.37588 28.5613L8.1198 28.8402L3.03387 29.4052C2.81552 29.4295 2.61028 29.5217 2.44706 29.6687C2.28384 29.8158 2.17086 30.0103 2.12402 30.225C2.07718 30.4396 2.09885 30.6635 2.18597 30.8652C2.27309 31.0669 2.42128 31.2362 2.60967 31.3492L4.45045 32.4542C6.65384 33.7787 9.07336 34.7048 11.5981 35.1898C9.99065 36.294 8.60868 37.6948 7.52629 39.317C7.4207 39.4751 7.36004 39.659 7.3508 39.849C7.34156 40.0389 7.38407 40.2278 7.47381 40.3955C7.56354 40.5631 7.69713 40.7033 7.86031 40.8009C8.02348 40.8986 8.21012 40.9501 8.40029 40.95H8.81438C10.8526 40.9519 12.8648 40.4925 14.7003 39.6064V42C14.7003 42.2076 14.7619 42.4106 14.8773 42.5832C14.9927 42.7559 15.1567 42.8904 15.3485 42.9699C15.5403 43.0493 15.7514 43.0701 15.9551 43.0296C16.1587 42.9891 16.3458 42.8891 16.4926 42.7423L18.9003 40.3348L20.2578 41.6923C20.3677 41.8022 20.5005 41.8863 20.6468 41.9386C20.7931 41.9909 20.9491 42.0101 21.1037 41.9948C21.2583 41.9795 21.4076 41.93 21.5407 41.8501C21.6739 41.7701 21.7877 41.6616 21.8739 41.5324L22.809 40.1297C23.1348 39.6403 23.603 39.2627 24.1503 39.0482V39.2069C24.1487 40.0422 23.8177 40.8432 23.2293 41.436L22.4838 42.1815C21.6779 42.9832 21.039 43.9367 20.6042 44.987C20.1693 46.0372 19.947 47.1633 19.9503 48.3C19.9504 48.5576 20.0452 48.8061 20.2167 48.9983C20.3881 49.1905 20.6242 49.313 20.8801 49.3425L20.2771 50.5484L18.9664 50.8766L16.2872 47.8803C16.6498 47.3044 16.8159 46.6266 16.7608 45.9484C16.7056 45.2702 16.4322 44.6282 15.9814 44.1185C15.5306 43.6088 14.9268 43.2589 14.2604 43.1214C13.594 42.9838 12.901 43.0659 12.2852 43.3553C11.6694 43.6448 11.164 44.1261 10.8448 44.727C10.5255 45.3279 10.4096 46.0161 10.5145 46.6884C10.6193 47.3607 10.9393 47.9809 11.4263 48.4561C11.9134 48.9313 12.5413 49.2358 13.216 49.324C13.3524 49.3419 13.4899 49.3509 13.6274 49.3509C13.9697 49.35 14.3095 49.2928 14.6332 49.1815L16.6637 51.4521L16.5455 51.4816C16.4118 51.5151 16.2859 51.5745 16.1751 51.6566C16.0643 51.7387 15.9707 51.8419 15.8998 51.9601C15.7565 52.1989 15.714 52.4848 15.7815 52.755C15.8491 53.0252 16.0212 53.2575 16.26 53.4007C16.4988 53.544 16.7847 53.5866 17.0549 53.519L18.2493 53.2206L19.1708 54.2429C19.2631 54.3453 19.3747 54.4285 19.4992 54.4878C19.6237 54.5471 19.7586 54.5813 19.8964 54.5885C20.0341 54.5956 20.1718 54.5756 20.3018 54.5294C20.4318 54.4833 20.5514 54.4121 20.6538 54.3198C20.7562 54.2275 20.8394 54.1159 20.8987 53.9914C20.958 53.8669 20.9922 53.7319 20.9994 53.5942C21.0065 53.4565 20.9865 53.3187 20.9404 53.1888C20.8943 53.0588 20.823 52.9392 20.7307 52.8368L20.5567 52.6437L21.2554 52.469C21.4024 52.4323 21.5396 52.3642 21.6578 52.2694C21.7759 52.1746 21.8722 52.0554 21.9399 51.9199L23.2242 49.35H24.1503C24.3453 49.35 24.5364 49.2957 24.7023 49.1931C24.8682 49.0906 25.0022 48.9439 25.0894 48.7695C25.5271 47.8886 26.1765 47.1301 26.9794 46.5619L27.278 47.0098L24.8013 51.3439C23.6874 53.2953 23.1011 55.5031 23.1003 57.75C23.1003 58.0285 23.2109 58.2955 23.4078 58.4925C23.6047 58.6894 23.8718 58.8 24.1503 58.8C24.4288 58.8 24.6958 58.6894 24.8927 58.4925C25.0897 58.2955 25.2003 58.0285 25.2003 57.75C25.2011 55.8686 25.692 54.0199 26.6247 52.3859L28.0589 49.8762L27.9332 50.1904C26.8001 53.0071 26.5895 56.1106 27.3317 59.0546C27.3646 59.1889 27.4237 59.3154 27.5057 59.4268C27.5876 59.5382 27.6908 59.6323 27.8092 59.7037C27.9276 59.7752 28.059 59.8225 28.1958 59.843C28.3325 59.8635 28.472 59.8568 28.6061 59.8232C28.7403 59.7897 28.8665 59.73 28.9775 59.6475C29.0886 59.5651 29.1822 59.4615 29.2531 59.3427C29.3239 59.224 29.3707 59.0924 29.3905 58.9555C29.4104 58.8187 29.4031 58.6792 29.3689 58.5452C28.7348 56.0294 28.9148 53.3773 29.883 50.9703L29.8961 50.9369L30.45 51.7678V61.95C30.45 62.2285 30.5606 62.4955 30.7576 62.6925C30.9545 62.8894 31.2215 63 31.5 63C31.7785 63 32.0456 62.8894 32.2425 62.6925C32.4394 62.4955 32.55 62.2285 32.55 61.95V51.7672L33.1039 50.9364L33.117 50.9698C34.0853 53.3768 34.2653 56.0289 33.6311 58.5447C33.597 58.6787 33.5896 58.8182 33.6095 58.955C33.6294 59.0919 33.6761 59.2234 33.747 59.3422C33.8179 59.4609 33.9115 59.5645 34.0225 59.647C34.1335 59.7294 34.2597 59.7892 34.3939 59.8227C34.5281 59.8563 34.6675 59.863 34.8043 59.8425C34.9411 59.822 35.0724 59.7746 35.1908 59.7032C35.3093 59.6318 35.4124 59.5377 35.4944 59.4263C35.5763 59.3149 35.6355 59.1884 35.6684 59.0541C36.4105 56.1101 36.1998 53.0066 35.0667 50.1899L34.941 49.8749L36.3753 52.385C37.3083 54.0192 37.7995 55.8682 37.8003 57.75C37.8003 58.0285 37.9109 58.2955 38.1078 58.4925C38.3047 58.6894 38.5718 58.8 38.8503 58.8C39.1288 58.8 39.3958 58.6894 39.5927 58.4925C39.7897 58.2955 39.9003 58.0285 39.9003 57.75C39.8993 55.5031 39.313 53.2953 38.1992 51.3439L35.7223 47.0098L36.0209 46.5619C36.8238 47.1301 37.4732 47.8886 37.9109 48.7695C37.9981 48.9439 38.1322 49.0907 38.2981 49.1932C38.464 49.2957 38.6552 49.35 38.8503 49.35H39.7764L41.0612 51.9195C41.1289 52.0548 41.225 52.174 41.343 52.2687C41.461 52.3634 41.5981 52.4315 41.7449 52.4684L44.461 53.1497C44.7489 53.8002 45.1973 54.3669 45.7642 54.7967C46.3311 55.2264 46.9978 55.5052 47.7019 55.6068C48.406 55.7083 49.1243 55.6294 49.7896 55.3774C50.4548 55.1253 51.0451 54.7085 51.5051 54.1659C51.9652 53.6233 52.2799 52.9727 52.4197 52.2752C52.5595 51.5777 52.5198 50.8561 52.3044 50.1781C52.0891 49.5002 51.705 48.888 51.1883 48.3991C50.6716 47.9101 50.0391 47.5604 49.3503 47.3828V46.2C49.3503 45.9215 49.2397 45.6544 49.0427 45.4575C48.8458 45.2606 48.5788 45.15 48.3003 45.15C48.0218 45.15 47.7547 45.2606 47.5578 45.4575C47.3609 45.6544 47.2503 45.9215 47.2503 46.2V47.3828C46.4402 47.5937 45.7113 48.0413 45.1568 48.6684C44.6023 49.2954 44.2472 50.0735 44.137 50.9033L42.7237 50.549L42.12 49.3426C42.376 49.3133 42.6122 49.1908 42.7838 48.9985C42.9553 48.8063 43.0502 48.5577 43.0503 48.3C43.0536 47.1633 42.8314 46.0373 42.3966 44.987C41.9618 43.9368 41.323 42.9832 40.5172 42.1815L39.7717 41.436C39.1833 40.8431 38.8524 40.0422 38.8507 39.2069V39.0482C39.398 39.2628 39.8662 39.6403 40.1919 40.1297L41.1271 41.5324C41.2133 41.6616 41.327 41.7701 41.4602 41.8501C41.5934 41.93 41.7427 41.9795 41.8973 41.9948C42.0518 42.0101 42.2079 41.9909 42.3542 41.9386C42.5005 41.8863 42.6333 41.8022 42.7432 41.6923L44.1007 40.3348L46.5082 42.7423C46.6551 42.8891 46.8421 42.9889 47.0457 43.0294C47.2493 43.0698 47.4603 43.049 47.6521 42.9696C47.8439 42.8901 48.0078 42.7556 48.1232 42.5831C48.2386 42.4105 48.3002 42.2076 48.3003 42V39.6059C50.1357 40.4922 52.1479 40.9517 54.1862 40.95H54.6003C54.7903 40.95 54.9768 40.8984 55.1399 40.8007C55.3029 40.7031 55.4364 40.563 55.526 40.3954C55.6157 40.2278 55.6582 40.0391 55.649 39.8493C55.6399 39.6594 55.5793 39.4756 55.4739 39.3175C54.3915 37.6953 53.0096 36.2946 51.4022 35.1904C53.9269 34.7053 56.3464 33.7793 58.5497 32.4547L60.3905 31.3502C60.5789 31.2372 60.7271 31.0679 60.8142 30.8663C60.9013 30.6646 60.923 30.4407 60.8762 30.226C60.8293 30.0114 60.7163 29.8168 60.5531 29.6698C60.3899 29.5227 60.1847 29.4306 59.9663 29.4063L54.8804 28.8413L55.6242 28.5624C58.1376 27.6253 60.2903 25.9171 61.774 23.6824C61.8858 23.515 61.9471 23.319 61.9506 23.1177C61.9542 22.9165 61.8998 22.7185 61.794 22.5473C61.6882 22.3761 61.5354 22.2389 61.3538 22.152C61.1722 22.0652 60.9695 22.0324 60.7698 22.0575L55.9235 22.6632L56.4055 22.2617C58.5544 20.4693 60.2014 18.1498 61.1852 15.5302ZM13.4892 47.2408C13.2254 47.2057 12.9847 47.0716 12.8159 46.8658C12.6471 46.66 12.5628 46.3977 12.58 46.132C12.5972 45.8664 12.7147 45.6172 12.9087 45.4349C13.1026 45.2526 13.3586 45.1508 13.6248 45.15C13.8418 45.1496 14.0535 45.2165 14.2308 45.3416C14.4081 45.4666 14.5423 45.6435 14.6148 45.848C14.6873 46.0525 14.6946 46.2744 14.6357 46.4832C14.5768 46.692 14.4545 46.8774 14.2858 47.0137C14.2653 47.0278 14.2454 47.043 14.2257 47.0586C14.0116 47.2092 13.7489 47.2742 13.4892 47.2408ZM48.3003 53.55C47.9321 53.5495 47.5706 53.4522 47.2519 53.268C46.9332 53.0837 46.6685 52.8188 46.4844 52.5H50.1161C49.9321 52.8188 49.6674 53.0837 49.3487 53.268C49.03 53.4522 48.6684 53.5495 48.3003 53.55ZM50.1161 50.4H49.3503V49.6342C49.6678 49.8185 49.9318 50.0825 50.1161 50.4ZM47.2503 49.6342V50.4H46.4844C46.6688 50.0823 46.9327 49.8182 47.2503 49.6336V49.6342ZM26.2503 27.3H36.7503V39.4364C36.7505 39.6569 36.6812 39.8717 36.5524 40.0506C36.4235 40.2294 36.2415 40.3631 36.0323 40.4326L31.5003 41.9433L26.9682 40.4326C26.759 40.3631 26.5771 40.2294 26.4482 40.0506C26.3193 39.8717 26.2501 39.6569 26.2503 39.4364V27.3ZM43.9056 16.5782C43.3277 16.2872 42.6978 16.1137 42.0523 16.0678C41.4069 16.0219 40.7588 16.1045 40.1455 16.3108C38.8704 16.7382 37.773 17.5763 37.0253 18.6941C36.5827 19.354 36.2754 20.0952 36.1211 20.8747C35.9669 21.6542 35.9688 22.4566 36.1267 23.2353L36.5195 25.2H32.7109L33.2454 21.4594C33.5134 19.5834 34.449 17.867 35.8806 16.6254C37.3122 15.3837 39.1436 14.7001 41.0386 14.7H42.254C42.772 14.6999 43.2752 14.8729 43.6835 15.1916C44.0919 15.5103 44.3821 15.9563 44.5079 16.4587L44.628 16.9387L43.9056 16.5782ZM40.0666 9.10074L41.4661 8.63074C41.8137 8.5218 42.1862 8.5218 42.5338 8.63074L43.9424 9.10626L43.2185 12.7079C42.902 12.6366 42.5785 12.6002 42.254 12.5996H41.0386C40.9465 12.5996 40.8546 12.6009 40.763 12.6035L40.0666 9.10074ZM28.4788 5.48887L31.5003 4.28019L34.5219 5.48887C34.7704 5.58855 34.9714 5.77927 35.0841 6.02213C35.1967 6.26499 35.2124 6.54168 35.128 6.79573L33.8935 10.5H29.1071L27.8725 6.79639C27.7879 6.54223 27.8036 6.26537 27.9163 6.02236C28.0289 5.77935 28.2301 5.58853 28.4788 5.48887ZM28.9119 12.5993H34.0881L35.2972 14.413C33.4833 15.6941 32.1474 17.5425 31.5 19.6668C30.8525 17.5426 29.5166 15.6942 27.7028 14.413L28.9119 12.5993ZM20.4661 8.63074C20.8136 8.52161 21.1863 8.52161 21.5338 8.63074L22.9424 9.10612L22.2395 12.6034C22.1473 12.6009 22.0548 12.5996 21.962 12.5995H20.7466C20.4226 12.6001 20.0996 12.6363 19.7835 12.7075L19.0664 9.10074L20.4661 8.63074ZM22.8548 16.3108C22.2416 16.1045 21.5934 16.0219 20.948 16.0678C20.3025 16.1137 19.6726 16.2872 19.0947 16.5782L18.3728 16.9393L18.4928 16.4591C18.6185 15.9566 18.9086 15.5105 19.317 15.1918C19.7254 14.8731 20.2285 14.7 20.7466 14.7H21.962C23.857 14.7 25.6885 15.3836 27.1201 16.6253C28.5516 17.8669 29.4873 19.5834 29.7552 21.4594L30.2896 25.2H26.4812L26.8739 23.2364C27.0318 22.4576 27.0337 21.6552 26.8794 20.8757C26.7252 20.0962 26.4179 19.3551 25.9753 18.6951C25.2277 17.577 24.1304 16.7384 22.8551 16.3108H22.8548ZM21.0614 38.9646L20.8367 39.3015L19.6424 38.1071C19.4455 37.9102 19.1784 37.7996 18.9 37.7996C18.6215 37.7996 18.3545 37.9102 18.1575 38.1071L16.8 39.4646V37.8C16.8 37.6099 16.7485 37.4234 16.6508 37.2604C16.5532 37.0973 16.4131 36.9638 16.2455 36.8741C16.0779 36.7845 15.8891 36.7419 15.6993 36.7511C15.5095 36.7603 15.3257 36.8208 15.1675 36.9263C13.8221 37.825 12.301 38.4274 10.705 38.6938C11.7571 37.5909 12.992 36.6781 14.3551 35.996L15.1688 35.5891C15.3672 35.49 15.529 35.3306 15.6312 35.1339C15.7334 34.9371 15.7707 34.713 15.7377 34.4938C15.7048 34.2746 15.6032 34.0714 15.4477 33.9134C15.2922 33.7553 15.0907 33.6506 14.872 33.6142L12.4937 33.2178C10.3624 32.8644 8.3034 32.1644 6.39833 31.1456L12.7162 30.4437C12.9508 30.4177 13.1697 30.3133 13.3378 30.1476C13.5058 29.9818 13.6131 29.7643 13.6423 29.5301C13.6715 29.2958 13.6209 29.0586 13.4988 28.8567C13.3766 28.6547 13.19 28.4998 12.969 28.4169L8.11364 26.5954C6.83398 26.1179 5.65824 25.3984 4.6506 24.4763L10.3698 25.1912C10.595 25.2194 10.8233 25.1738 11.0204 25.0614C11.2175 24.9489 11.3729 24.7756 11.4633 24.5674C11.5536 24.3593 11.5741 24.1274 11.5217 23.9066C11.4692 23.6858 11.3466 23.488 11.1723 23.3427L7.9392 20.6484C6.06996 19.0892 4.63743 17.0716 3.78173 14.7928L3.41069 13.8034L17.2087 25.1665C17.3612 25.2923 17.4748 25.4588 17.5364 25.6466C17.5981 25.8343 17.6052 26.0357 17.5571 26.2274C17.4635 26.5933 17.3594 26.9977 17.2582 27.3844C17.0713 28.102 17.1129 28.8601 17.3773 29.5529C17.6416 30.2458 18.1154 30.8389 18.7328 31.2497L18.7735 31.2767C19.4612 31.7355 20.288 31.9386 21.11 31.8508C21.932 31.763 22.6973 31.3898 23.2726 30.7962C23.311 30.7567 23.3461 30.7142 23.3776 30.6691L24.15 29.5698V32.025L23.3987 32.5885C22.6865 33.1214 21.8267 33.4208 20.9374 33.4455C20.0482 33.4701 19.1731 33.2189 18.4324 32.7263C18.3176 32.6498 18.189 32.5966 18.0537 32.5699C17.9184 32.5431 17.7792 32.5433 17.644 32.5703C17.5088 32.5974 17.3802 32.6508 17.2657 32.7275C17.1511 32.8042 17.0528 32.9028 16.9763 33.0175C16.8998 33.1322 16.8467 33.2609 16.8199 33.3962C16.7932 33.5314 16.7933 33.6707 16.8203 33.8059C16.8474 33.9411 16.9008 34.0696 16.9775 34.1842C17.0543 34.2988 17.1528 34.3971 17.2675 34.4736C18.2828 35.149 19.4696 35.5207 20.6887 35.5451C21.9078 35.5696 23.1085 35.2458 24.15 34.6117V36.8637C22.8862 37.1348 21.7782 37.8885 21.0617 38.9643L21.0614 38.9646ZM39.0315 43.6661C40.0073 44.6364 40.65 45.8912 40.8672 47.25H39.4695C38.6809 45.9438 37.5363 44.8896 36.1699 44.2108C35.941 44.0963 35.6782 44.0694 35.4308 44.1351C35.1835 44.2008 34.9686 44.3546 34.8267 44.5675L31.5003 49.557L28.1739 44.567C28.0319 44.3541 27.8171 44.2003 27.5698 44.1346C27.3225 44.069 27.0597 44.0958 26.8308 44.2102C25.4642 44.8892 24.3195 45.9436 23.5309 47.25H22.1332C22.3507 45.8915 22.9933 44.637 23.9688 43.6669L24.7143 42.9214C24.9953 42.6393 25.2429 42.3258 25.4522 41.9871C25.7121 42.1757 25.9994 42.3235 26.3041 42.4251L31.1682 44.0466C31.3838 44.1185 31.6168 44.1185 31.8323 44.0466L36.6963 42.4251C37.0011 42.3235 37.2884 42.1758 37.5484 41.9871C37.7577 42.3258 38.0053 42.6393 38.2863 42.9214L39.0315 43.6661ZM55.0612 20.6484L51.8282 23.3427C51.6538 23.488 51.5313 23.6858 51.4788 23.9066C51.4263 24.1274 51.4468 24.3592 51.5372 24.5674C51.6275 24.7755 51.7829 24.9488 51.98 25.0613C52.1771 25.1737 52.4053 25.2193 52.6305 25.1912L58.35 24.4763C57.3423 25.3984 56.1665 26.1179 54.8868 26.5954L50.0316 28.4163C49.8106 28.4991 49.624 28.654 49.5018 28.856C49.3796 29.058 49.3291 29.2952 49.3583 29.5294C49.3875 29.7636 49.4948 29.9812 49.6628 30.1469C49.8308 30.3127 50.0498 30.417 50.2844 30.443L56.6022 31.145C54.6969 32.1638 52.6376 32.8639 50.5061 33.2173L48.1278 33.6136C47.9091 33.6501 47.7076 33.7548 47.5521 33.9128C47.3965 34.0708 47.295 34.274 47.2621 34.4933C47.2291 34.7125 47.2664 34.9366 47.3686 35.1333C47.4708 35.3301 47.6326 35.4894 47.8309 35.5886L48.6447 35.9954C50.0077 36.6777 51.2425 37.5904 52.2946 38.6933C50.6987 38.4269 49.1776 37.8244 47.8321 36.9257C47.674 36.8205 47.4902 36.7601 47.3004 36.751C47.1106 36.7419 46.9219 36.7845 46.7544 36.8743C46.5869 36.964 46.4469 37.0975 46.3494 37.2605C46.2518 37.4235 46.2002 37.61 46.2003 37.8V39.465L44.8428 38.1075C44.7453 38.01 44.6295 37.9327 44.5021 37.8799C44.3747 37.8271 44.2382 37.8 44.1003 37.8C43.9624 37.8 43.8258 37.8271 43.6985 37.8799C43.5711 37.9327 43.4553 38.01 43.3578 38.1075L42.1634 39.3019L41.9387 38.965C41.2223 37.889 40.1142 37.1351 38.8503 36.8638V34.6106C39.8918 35.2447 41.0925 35.5686 42.3116 35.5441C43.5307 35.5196 44.7176 35.1479 45.7328 34.4725C45.9645 34.3181 46.1253 34.0779 46.18 33.8048C46.2346 33.5318 46.1785 33.2482 46.024 33.0165C45.8695 32.7847 45.6294 32.6239 45.3563 32.5693C45.0832 32.5147 44.7996 32.5707 44.5679 32.7252C43.8272 33.2178 42.9522 33.4691 42.0629 33.4444C41.1737 33.4197 40.3139 33.1204 39.6017 32.5874L38.8503 32.025V29.5706L39.6227 30.6698C39.6543 30.7149 39.6894 30.7574 39.7277 30.797C40.3032 31.3906 41.0685 31.7636 41.8905 31.8513C42.7126 31.939 43.5394 31.7357 44.2271 31.2769L44.2684 31.2494C44.8856 30.8386 45.3593 30.2455 45.6235 29.5528C45.8877 28.86 45.9292 28.1021 45.7424 27.3847C45.6412 26.998 45.5369 26.5935 45.4435 26.2276C45.3953 26.0359 45.4025 25.8345 45.4642 25.6467C45.5258 25.4589 45.6394 25.2925 45.7918 25.1667L59.5899 13.8034L59.219 14.7928C58.3632 17.0716 56.9305 19.0892 55.0612 20.6484Z" fill="#11D170"/>
<path d="M28.6571 37.4919C28.7546 37.5894 28.8704 37.6667 28.9978 37.7195C29.1252 37.7723 29.2617 37.7994 29.3996 37.7994C29.5375 37.7994 29.674 37.7723 29.8014 37.7195C29.9288 37.6667 30.0446 37.5894 30.1421 37.4919C30.5085 37.1261 30.7777 36.6744 30.9252 36.1781C31.0726 35.6818 31.0937 35.1564 30.9864 34.6499H32.0699C32.3831 35.0815 32.5511 35.6015 32.5496 36.1347V36.7499C32.5496 37.0284 32.6602 37.2955 32.8571 37.4924C33.0541 37.6893 33.3211 37.7999 33.5996 37.7999C33.8781 37.7999 34.1452 37.6893 34.3421 37.4924C34.539 37.2955 34.6496 37.0284 34.6496 36.7499V36.1347C34.6522 35.0936 34.3015 34.0825 33.6547 33.2667C33.7247 33.0581 33.8584 32.8768 34.0368 32.7482C34.2153 32.6196 34.4296 32.5503 34.6496 32.5499C34.9281 32.5499 35.1952 32.4393 35.3921 32.2424C35.589 32.0455 35.6996 31.7784 35.6996 31.4999C35.6996 31.2214 35.589 30.9544 35.3921 30.7574C35.1952 30.5605 34.9281 30.4499 34.6496 30.4499C33.9985 30.4507 33.3635 30.653 32.8319 31.029C32.3002 31.405 31.8979 31.9362 31.6802 32.5499H30.4496V30.4499C30.4496 30.1714 30.339 29.9044 30.1421 29.7074C29.9452 29.5105 29.6781 29.3999 29.3996 29.3999C29.1211 29.3999 28.8541 29.5105 28.6571 29.7074C28.4602 29.9044 28.3496 30.1714 28.3496 30.4499V33.5999C28.3498 33.7612 28.3873 33.9204 28.4592 34.0648C28.4592 34.0662 28.4592 34.0681 28.4605 34.0695L28.8464 34.8413C28.9414 35.0309 28.9743 35.2456 28.9403 35.4549C28.9063 35.6643 28.8072 35.8576 28.6571 36.0074C28.4604 36.2043 28.3498 36.4713 28.3498 36.7496C28.3498 37.028 28.4604 37.295 28.6571 37.4919Z" fill="#11D170"/>
</svg>
