<svg width="64" height="68" viewBox="0 0 64 68" fill="none" xmlns="http://www.w3.org/2000/svg">
<path d="M28.4342 25.4712H13.4866C12.9482 25.4712 12.5117 25.9172 12.5117 26.4675C12.5117 27.0179 12.9482 27.4639 13.4866 27.4639H28.4342C28.9726 27.4639 29.4091 27.0179 29.4091 26.4675C29.4091 25.9172 28.9726 25.4712 28.4342 25.4712Z" fill="#11D170"/>
<path d="M28.4342 30.6714H13.4866C12.9482 30.6714 12.5117 31.1174 12.5117 31.6677C12.5117 32.2181 12.9482 32.6641 13.4866 32.6641H28.4342C28.9726 32.6641 29.4091 32.2181 29.4091 31.6677C29.4091 31.1174 28.9726 30.6714 28.4342 30.6714Z" fill="#11D170"/>
<path d="M28.4342 57.9292H13.4866C12.9482 57.9292 12.5117 58.3752 12.5117 58.9256C12.5117 59.4759 12.9482 59.9219 13.4866 59.9219H28.4342C28.9726 59.9219 29.4091 59.4759 29.4091 58.9256C29.4091 58.3753 28.9726 57.9292 28.4342 57.9292Z" fill="#11D170"/>
<path d="M53.7076 25.4712H38.7601C38.2217 25.4712 37.7852 25.9172 37.7852 26.4675C37.7852 27.0179 38.2217 27.4639 38.7601 27.4639H53.7076C54.246 27.4639 54.6825 27.0179 54.6825 26.4675C54.6825 25.9172 54.2461 25.4712 53.7076 25.4712Z" fill="#11D170"/>
<path d="M53.7045 30.6714H51.2327C50.6943 30.6714 50.2578 31.1174 50.2578 31.6677C50.2578 32.2181 50.6943 32.6641 51.2327 32.6641H53.7045C54.2429 32.6641 54.6794 32.2181 54.6794 31.6677C54.6794 31.1174 54.243 30.6714 53.7045 30.6714Z" fill="#11D170"/>
<path d="M14.5722 20.6904H52.6209C53.8411 20.6904 54.8338 19.6759 54.8338 18.4289V8.01641C54.8338 6.76944 53.8411 5.75488 52.6209 5.75488H14.5722C13.3519 5.75488 12.3594 6.76944 12.3594 8.01641V10.9338C12.3594 11.4841 12.7959 11.9301 13.3343 11.9301C13.8727 11.9301 14.3092 11.4841 14.3092 10.9338V8.01654C14.3092 7.86832 14.4272 7.74786 14.5722 7.74786H52.6209C52.7659 7.74786 52.8839 7.86846 52.8839 8.01654V18.429C52.8839 18.5772 52.7659 18.6977 52.6209 18.6977H14.5722C14.4272 18.6977 14.3092 18.5771 14.3092 18.429V15.5519C14.3092 15.0015 13.8727 14.5556 13.3343 14.5556C12.7959 14.5556 12.3594 15.0015 12.3594 15.5519V18.429C12.3594 19.6759 13.3521 20.6904 14.5722 20.6904Z" fill="#11D170"/>
<path d="M51.4168 47.3023C50.8939 47.1695 50.3654 47.4946 50.2353 48.0286C49.3044 51.8521 45.9222 54.7429 41.8195 54.7429C39.5027 54.7429 37.3247 53.8208 35.6866 52.1466C34.0484 50.4724 33.1461 48.2463 33.1461 45.8788C33.1461 43.511 34.0484 41.2849 35.6866 39.6108C39.0683 36.1545 44.5708 36.1545 47.9524 39.6108C49.0916 40.7749 49.889 42.2324 50.2583 43.8256C50.3824 44.3611 50.9077 44.6924 51.4318 44.5654C51.9557 44.4386 52.2797 43.9015 52.1556 43.3661C51.7028 41.4131 50.7261 39.6273 49.3311 38.2017C45.1891 33.9686 38.4496 33.9686 34.3076 38.2017C30.1657 42.435 30.1657 49.3227 34.3076 53.556C36.3787 55.6726 39.099 56.7309 41.8194 56.7309C46.7705 56.7309 50.969 53.2689 52.1274 48.5099C52.2576 47.9758 51.9394 47.4352 51.4168 47.3023Z" fill="#11D170"/>
<path d="M62.4952 62.2166L60.1175 59.7865V4.0011C60.1175 1.79483 58.3612 0 56.2025 0H11.2376C9.07894 0 7.32278 1.79483 7.32278 4.0011V20.2124H2.9668C1.33084 20.2124 0 21.5726 0 23.2445V63.2607C0 65.8734 2.07988 67.9991 4.63642 67.9991H54.4779C55.6645 67.9991 56.7928 67.626 57.7393 66.9366L57.8081 67.0069C59.1033 68.3307 61.1997 68.331 62.4952 67.007C63.7904 65.6831 63.7905 63.5407 62.4952 62.2166ZM4.96389 66.0064H4.63629C3.15497 66.0064 1.9498 64.7748 1.9498 63.2609V23.2445C1.9498 22.6715 2.40593 22.2052 2.9668 22.2052H7.32278V63.2828C7.32278 64.676 6.31097 65.8394 4.96389 66.0064ZM54.4778 66.0064H8.43438C8.96446 65.2338 9.2727 64.2931 9.2727 63.2829V4.0011C9.2727 2.89371 10.1542 1.99285 11.2376 1.99285H56.2025C57.2861 1.99285 58.1675 2.89371 58.1675 4.0011V57.7938L54.2375 53.7773C55.673 51.4304 56.4418 48.7152 56.4418 45.8788C56.4418 41.8878 54.9211 38.1357 52.1597 35.3136C46.4595 29.488 37.1846 29.488 31.4844 35.3136C30.3804 36.442 29.4751 37.7195 28.7857 39.1011H13.4857C12.9473 39.1011 12.5108 39.5471 12.5108 40.0975C12.5108 40.6479 12.9473 41.0938 13.4857 41.0938H27.9653C27.625 42.1265 27.3956 43.2004 27.2834 44.3005H13.4857C12.9473 44.3005 12.5108 44.7465 12.5108 45.2968C12.5108 45.8472 12.9473 46.2932 13.4857 46.2932H27.2084C27.2697 48.6112 27.8455 50.8395 28.8797 52.8414C28.7458 52.7707 28.5943 52.7302 28.4333 52.7302H13.4857C12.9473 52.7302 12.5108 53.1762 12.5108 53.7266C12.5108 54.2769 12.9473 54.7229 13.4857 54.7229H28.4333C28.9556 54.7229 29.3806 54.303 29.4059 53.7756C29.9905 54.7317 30.6851 55.627 31.4844 56.4439C34.3345 59.3567 38.0783 60.813 41.8221 60.813C44.5074 60.813 47.1927 60.0636 49.5482 58.565L56.3305 65.4965C55.7738 65.8287 55.1397 66.0064 54.4778 66.0064ZM41.8221 58.8215C38.5781 58.8212 35.3328 57.5591 32.8632 55.035C30.4703 52.5894 29.1523 49.3376 29.1523 45.8788C29.1523 42.42 30.4702 39.1683 32.8632 36.7227C35.3332 34.1984 38.5777 32.9363 41.8221 32.9363C45.0666 32.9363 48.3111 34.1984 50.7811 36.7227C53.174 39.1683 54.492 42.42 54.492 45.8788C54.492 48.5738 53.6916 51.1432 52.2061 53.3036C52.1912 53.3237 52.1765 53.3439 52.1632 53.365C49.7782 56.7907 45.9565 58.8219 41.8221 58.8215ZM61.1163 65.5978C60.5833 66.1426 59.7201 66.143 59.1867 65.5977C59.135 65.5449 51.1496 57.3837 51.1496 57.3837C51.8325 56.8045 52.4679 56.1645 53.0798 55.4123C54.6526 57.0198 59.7147 62.1932 61.1163 63.6256C61.6496 64.1709 61.6497 65.0527 61.1163 65.5978Z" fill="#11D170"/>
</svg>
