<svg width="67" height="66" viewBox="0 0 67 66" fill="none" xmlns="http://www.w3.org/2000/svg">
<path d="M40.7 38.4995H39.49C39.0348 38.5003 38.6277 38.2164 38.4714 37.7889C38.3372 37.4369 38.1931 37.0926 38.038 36.7516C37.8452 36.3369 37.9332 35.8459 38.258 35.524L39.1204 34.6605C40.4006 33.369 40.3983 31.2861 39.1149 29.9976L36.0063 26.889C34.7161 25.6064 32.6324 25.6064 31.3423 26.889L30.4799 27.7503C30.1573 28.0738 29.6671 28.1617 29.2523 27.9703C28.9113 27.8152 28.567 27.6711 28.2139 27.5303C27.7842 27.3751 27.4983 26.9664 27.5 26.5095V25.2995C27.5 23.4769 26.0225 21.9995 24.2 21.9995H19.8C17.9774 21.9995 16.5 23.4769 16.5 25.2995V26.5095C16.5008 26.9646 16.2169 27.3718 15.7894 27.5281C15.4374 27.6623 15.0931 27.8064 14.7521 27.9615C14.3372 28.1533 13.8469 28.0655 13.5245 27.7415L12.661 26.8791C11.371 25.5973 9.28812 25.5973 7.99809 26.8791L4.88949 29.9976C3.6069 31.2878 3.6069 33.3714 4.88949 34.6616L5.75079 35.524C6.07557 35.8459 6.16357 36.3369 5.97079 36.7516C5.81569 37.0926 5.67159 37.4369 5.53629 37.79C5.37886 38.22 4.96787 38.5042 4.50999 38.4995H3.3C1.47744 38.4995 0 39.9769 0 41.7995V46.1995C0 48.022 1.47744 49.4995 3.3 49.4995H4.50999C4.96512 49.4987 5.37226 49.7826 5.52859 50.2101C5.66279 50.5621 5.80689 50.9064 5.96199 51.2474C6.15477 51.6621 6.06677 52.1531 5.74199 52.475L4.87959 53.3385C3.59782 54.6285 3.59782 56.7113 4.87959 58.0014L7.98819 61.11C9.27835 62.3926 11.362 62.3926 12.6522 61.11L13.5146 60.2487C13.8372 59.9251 14.3273 59.8373 14.7422 60.0287C15.0832 60.1838 15.4275 60.3279 15.7806 60.4687C16.2125 60.6221 16.5008 61.0312 16.5 61.4895V62.6995C16.5 64.522 17.9774 65.9995 19.8 65.9995H24.2C26.0225 65.9995 27.5 64.522 27.5 62.6995V61.4895C27.4991 61.0343 27.7831 60.6272 28.2106 60.4709C28.5626 60.3367 28.9069 60.1926 29.2479 60.0375C29.6627 59.8457 30.153 59.9335 30.4755 60.2575L31.339 61.1199C32.6308 62.3996 34.7131 62.3971 36.0019 61.1144L39.1105 58.0058C40.3931 56.7156 40.3931 54.6319 39.1105 53.3418L38.2492 52.4794C37.9244 52.1575 37.8364 51.6665 38.0292 51.2518C38.1843 50.9108 38.3284 50.5665 38.4692 50.2134C38.6244 49.7837 39.033 49.4978 39.49 49.4995H40.7C42.5225 49.4995 44 48.022 44 46.1995V41.7995C44 39.9769 42.5225 38.4995 40.7 38.4995ZM41.8 46.1995C41.8 46.807 41.3074 47.2995 40.7 47.2995H39.49C38.1225 47.3046 36.8988 48.1498 36.41 49.4269C36.2934 49.7349 36.1673 50.0381 36.0316 50.3366C35.466 51.5851 35.7284 53.053 36.6916 54.0282L37.5518 54.8895C37.9816 55.3188 37.982 56.0153 37.5526 56.4452C37.5523 56.4454 37.552 56.4457 37.5518 56.446L34.4432 59.5546C34.0136 59.984 33.3173 59.984 32.8878 59.5546L32.0254 58.6933C31.0506 57.7293 29.5821 57.4668 28.3338 58.0333C28.0357 58.1686 27.7321 58.2951 27.4263 58.4117C26.1501 58.9003 25.3055 60.123 25.3 61.4895V62.6995C25.3 63.3069 24.8074 63.7995 24.2 63.7995H19.8C19.1925 63.7995 18.7 63.3069 18.7 62.6995V61.4895C18.6949 60.122 17.8497 58.8983 16.5726 58.4095C16.2646 58.2929 15.9614 58.1668 15.6629 58.0311C14.4144 57.4658 12.9466 57.7283 11.9713 58.6911L11.11 59.5513C10.6807 59.9811 9.98414 59.9815 9.55431 59.5521C9.55404 59.5518 9.55377 59.5515 9.55349 59.5513L6.44489 56.446C6.01548 56.0164 6.01548 55.3201 6.44489 54.8906L7.30619 54.0282C8.26938 53.053 8.53173 51.5851 7.96619 50.3366C7.83089 50.0385 7.70439 49.7349 7.58779 49.4291C7.10022 48.1516 5.87729 47.3055 4.50999 47.2995H3.3C2.69252 47.2995 2.2 46.807 2.2 46.1995V41.7995C2.2 41.192 2.69252 40.6995 3.3 40.6995H4.50999C5.87743 40.6944 7.10118 39.8492 7.58999 38.5721C7.70659 38.2641 7.83268 37.9609 7.96839 37.6624C8.53393 36.4139 8.27144 34.9459 7.30839 33.9708L6.44379 33.1095C6.01397 32.6802 6.01356 31.9837 6.44297 31.5538C6.44324 31.5536 6.44352 31.5533 6.44379 31.553L9.55239 28.4444C9.98194 28.015 10.6782 28.015 11.1078 28.4444L11.9702 29.3057C12.9449 30.2697 14.4134 30.5322 15.6618 29.9657C15.9599 29.8304 16.2635 29.7039 16.5693 29.5873C17.8472 29.1001 18.6938 27.8771 18.7 26.5095V25.2995C18.7 24.692 19.1925 24.1995 19.8 24.1995H24.2C24.8074 24.1995 25.3 24.692 25.3 25.2995V26.5095C25.3051 27.8769 26.1503 29.1007 27.4274 29.5895C27.7354 29.7061 28.0386 29.8322 28.3371 29.9679C29.5854 30.5344 31.0539 30.2719 32.0287 29.3079L32.89 28.4477C33.3212 28.0212 34.0153 28.0212 34.4465 28.4477L37.5551 31.5563C37.9845 31.9859 37.9845 32.6821 37.5551 33.1117L36.6938 33.9741C35.7307 34.9492 35.4682 36.4172 36.0338 37.6657C36.1691 37.9638 36.2956 38.2674 36.4122 38.5732C36.9008 39.8493 38.1235 40.694 39.49 40.6995H40.7C41.3074 40.6995 41.8 41.192 41.8 41.7995V46.1995Z" fill="#11D170"/>
<path d="M31.8794 43.5596C31.8684 43.2956 31.8497 43.0327 31.8178 42.7709C31.7826 42.4893 31.7408 42.2099 31.6825 41.936C31.644 41.7567 31.5934 41.5796 31.545 41.4014C31.4834 41.1748 31.4141 40.9515 31.3371 40.7315C31.2832 40.5786 31.2271 40.4268 31.1699 40.2761C31.0283 39.9238 30.8663 39.5799 30.6848 39.2465C30.6705 39.2212 30.6617 39.1937 30.6474 39.1684C30.3612 38.6591 30.0299 38.1763 29.6574 37.7263C29.6255 37.6867 29.5892 37.6493 29.5562 37.6108C29.4044 37.4315 29.2482 37.2577 29.0843 37.0916C28.9985 37.0025 28.9083 36.9189 28.8181 36.8331C28.7081 36.7308 28.5981 36.6296 28.4881 36.5328C28.3546 36.4169 28.2186 36.3047 28.08 36.1962L27.8996 36.062C26.1975 34.7871 24.128 34.0985 22.0014 34.0996C21.8914 34.0996 21.7814 34.1161 21.6714 34.1205C21.4371 34.1271 21.2017 34.1403 20.9652 34.1645C20.8409 34.1777 20.7155 34.192 20.5912 34.2096C20.2326 34.2568 19.8767 34.3233 19.5253 34.4087C14.2287 35.7774 11.0444 41.1809 12.4131 46.4775C13.3151 49.9678 16.042 52.6925 19.533 53.5916C19.5506 53.5916 19.5693 53.5971 19.588 53.6015C19.9679 53.6962 20.3528 53.7698 20.7408 53.8215C20.9971 53.8534 21.2534 53.86 21.5108 53.8721C21.6824 53.8809 21.8408 53.9062 22.0201 53.9062C22.3336 53.9062 22.6592 53.8853 22.9914 53.8523C23.0266 53.8523 23.0618 53.8424 23.1014 53.838C23.3687 53.8083 23.6393 53.7687 23.9154 53.7137C24.0254 53.6928 24.1277 53.6653 24.2333 53.6411C24.4269 53.596 24.6194 53.5487 24.8174 53.4904C24.9714 53.4442 25.121 53.3903 25.2717 53.3375C25.4224 53.2847 25.5786 53.2275 25.7348 53.1681C25.891 53.1087 26.0219 53.0405 26.1638 52.9745C26.3486 52.8898 26.5323 52.8062 26.7138 52.7072H26.7204C27.747 52.1576 28.6952 51.4729 29.5397 50.6711C29.7678 50.4582 29.9662 50.2154 30.1293 49.9495C30.9878 48.5731 31.5519 47.0338 31.7859 45.4285C31.8167 45.2162 31.8442 45.0039 31.8607 44.7872C31.8761 44.5881 31.8871 44.3901 31.8915 44.1921C31.8915 44.1294 31.9003 44.07 31.9003 44.0073C31.9014 43.8522 31.886 43.7092 31.8794 43.5596ZM29.6871 44.2801C29.6871 44.3714 29.6794 44.4627 29.6739 44.5529C29.6541 44.8191 29.62 45.0853 29.5749 45.3526C29.1638 47.6396 27.7438 49.6196 25.7095 50.7426C25.5731 50.8141 25.4389 50.8812 25.3047 50.9428L25.2134 50.9868C24.5743 51.2769 23.8997 51.4811 23.207 51.594C23.1586 51.6017 23.1091 51.6105 23.0596 51.6171C22.9221 51.6369 22.7868 51.6534 22.6526 51.6655C22.4755 51.6809 22.2973 51.6897 22.1158 51.693C22.0388 51.693 21.9629 51.693 21.8859 51.693C21.6256 51.69 21.3657 51.6739 21.1071 51.6446L20.9751 51.6292C20.6726 51.5896 20.3726 51.5331 20.0764 51.4598C15.9566 50.4053 13.4717 46.2107 14.5261 42.091C15.2228 39.3687 17.3472 37.2422 20.0687 36.5427V36.5416C20.7006 36.3822 21.3496 36.3008 22.0014 36.2996C22.3159 36.3014 22.63 36.3227 22.9419 36.3634C23.0255 36.3733 23.108 36.3887 23.1905 36.4008C23.4281 36.4382 23.6635 36.4855 23.8956 36.5449C23.9715 36.5647 24.0474 36.5823 24.1222 36.6032C24.7071 36.7721 25.2702 37.0091 25.7997 37.3094C25.8844 37.3589 25.9669 37.4106 26.0505 37.4623C26.2243 37.5723 26.3926 37.6823 26.5587 37.8077C26.6478 37.8726 26.738 37.9364 26.8238 38.0057C27.0397 38.1781 27.2463 38.3617 27.4431 38.5557C27.5212 38.6349 27.5927 38.7218 27.6686 38.8043C27.7951 38.9418 27.9183 39.0826 28.036 39.2311C28.1174 39.3334 28.1955 39.439 28.2725 39.5457C28.3825 39.7041 28.4925 39.8691 28.5915 40.0363C28.6465 40.1276 28.7015 40.2167 28.7576 40.3102C28.8995 40.5713 29.0259 40.8405 29.136 41.1165C29.18 41.2265 29.2174 41.3365 29.257 41.4465C29.3285 41.6489 29.3901 41.8535 29.444 42.0603C29.4715 42.1703 29.5023 42.2682 29.5254 42.3749C29.5896 42.6722 29.6362 42.973 29.6651 43.2758C29.6717 43.3561 29.6717 43.4375 29.6772 43.5178C29.6926 43.7708 29.697 44.0249 29.6871 44.2801Z" fill="#11D170"/>
<path d="M62.7015 23.1H59.242C58.7807 23.1046 58.3681 22.8141 58.2168 22.3784C57.8757 21.3566 57.4629 20.36 56.9815 19.3963C56.7772 18.9801 56.8623 18.4797 57.1927 18.1544L59.6457 15.6981C60.9333 14.4096 60.9333 12.3215 59.6457 11.033L54.9685 6.36349C53.68 5.07594 51.5919 5.07594 50.3034 6.36349L47.8515 8.81429C47.5266 9.14456 47.027 9.23009 46.6107 9.02659C45.6469 8.54273 44.65 8.12775 43.6275 7.78469C43.19 7.63495 42.8974 7.2219 42.9015 6.75949V3.3C42.9015 1.47744 41.4241 0 39.6015 0H33.0016C31.179 0 29.7016 1.47744 29.7016 3.3V6.75949C29.7062 7.2208 29.4158 7.63344 28.98 7.78469C27.9581 8.12762 26.9615 8.54231 25.9979 9.02549C25.5816 9.2305 25.081 9.14539 24.756 8.81429L22.2997 6.36129C21.0096 5.07746 18.9246 5.07746 17.6346 6.36129L12.9662 11.0297C11.6779 12.3183 11.6779 14.4072 12.9662 15.6959L16.5731 19.3094C17.0094 19.7321 17.7058 19.7211 18.1285 19.2846C18.5408 18.8589 18.5418 18.183 18.1307 17.7562L14.5216 14.1438C14.0922 13.7142 14.0922 13.0179 14.5216 12.5884L19.19 7.91999C19.6195 7.49058 20.3158 7.49058 20.7454 7.91999L23.2028 10.373C24.197 11.3732 25.7205 11.6231 26.9824 10.9934C27.8537 10.5571 28.7546 10.1826 29.6785 9.87249C31.0119 9.42108 31.9073 8.16735 31.9016 6.75949V3.3C31.9016 2.69252 32.3941 2.2 33.0016 2.2H39.6015C40.209 2.2 40.7015 2.69252 40.7015 3.3V6.75949C40.6959 8.16708 41.5913 9.42039 42.9246 9.87139C43.8489 10.1816 44.7502 10.5564 45.6218 10.9934C46.884 11.6198 48.4054 11.3696 49.4003 10.3719L51.8577 7.91999C52.2873 7.49058 52.9836 7.49058 53.4131 7.91999L58.0815 12.5895C58.5103 13.0189 58.5103 13.7144 58.0815 14.1438L55.6285 16.6012C54.6293 17.596 54.3795 19.1188 55.0081 20.3808C55.4444 21.2521 55.819 22.153 56.129 23.0769C56.5802 24.4106 57.834 25.306 59.242 25.3H62.7015C63.309 25.3 63.8015 25.7925 63.8015 26.4V33C63.8015 33.6074 63.309 34.1 62.7015 34.1H59.242C57.8344 34.0943 56.5811 34.9897 56.1301 36.3231C55.8201 37.2473 55.4451 38.1486 55.0081 39.0203C54.3806 40.2822 54.631 41.8042 55.6296 42.7988L58.0826 45.2561C58.512 45.6857 58.512 46.382 58.0826 46.8115L53.412 51.4799C52.9826 51.9087 52.2871 51.9087 51.8577 51.4799L48.2431 47.873C47.8205 47.4366 47.124 47.4256 46.6877 47.8483C46.2513 48.271 46.2403 48.9674 46.663 49.4037C46.6718 49.4128 46.6809 49.4218 46.6899 49.4306L50.3034 53.0375C51.5919 54.3251 53.68 54.3251 54.9685 53.0375L59.6369 48.3702C60.9252 47.0816 60.9252 44.9927 59.6369 43.704L57.1872 41.25C56.8572 40.9249 56.7718 40.4254 56.9749 40.0092C57.4588 39.0453 57.8738 38.0484 58.2168 37.026C58.3666 36.5884 58.7796 36.2958 59.242 36.3H62.7015C64.5241 36.3 66.0015 34.8225 66.0015 33V26.4C66.0015 24.5774 64.5241 23.1 62.7015 23.1Z" fill="#11D170"/>
<path d="M46.412 19.5893C40.8243 14.0132 31.7773 14.0132 26.1896 19.5893C25.7676 20.0262 25.7797 20.7227 26.2167 21.1446C26.6429 21.5563 27.3187 21.5563 27.745 21.1446C32.4385 16.3877 40.0996 16.3364 44.8566 21.03C49.6135 25.7235 49.6648 33.3846 44.9713 38.1416C44.9333 38.1801 44.8951 38.2183 44.8566 38.2562C44.4196 38.6784 44.4075 39.3747 44.8296 39.8116C45.2518 40.2486 45.948 40.2607 46.385 39.8386C46.3941 39.8298 46.4032 39.8207 46.412 39.8116C51.988 34.2239 51.988 25.177 46.412 19.5893Z" fill="#11D170"/>
</svg>
