<svg width="91" height="91" viewBox="0 0 91 91" fill="none" xmlns="http://www.w3.org/2000/svg">
<rect width="91" height="91" rx="20" fill="#F5F5F5"/>
<path d="M65.4574 52.3204C65.8943 52.3204 66.2484 51.9663 66.2484 51.5294V48.9948C66.2484 47.3247 65.3023 45.8719 63.9185 45.1423V23.8012C63.9185 23.3643 63.5644 23.0102 63.1275 23.0102H61.1429V21.1748C61.1429 20.7379 60.7889 20.3838 60.3519 20.3838H35.0114C34.5745 20.3838 34.2204 20.7379 34.2204 21.1748C34.2204 21.6117 34.5745 21.9658 35.0114 21.9658H59.5609V44.6418H46.0398C44.8926 44.6418 43.8803 43.9518 43.4607 42.8841L42.7589 41.0974C42.0999 39.42 40.5097 38.3361 38.7074 38.3361H30.2688V21.9658H32.3747C32.8116 21.9658 33.1657 21.6117 33.1657 21.1748C33.1657 20.7379 32.8115 20.3838 32.3746 20.3838H29.4777C29.0409 20.3838 28.6867 20.7379 28.6867 21.1748V38.4905C26.8412 38.995 25.4805 40.6857 25.4805 42.689V67.4784C25.4804 69.6962 27.2847 71.5004 29.5025 71.5004H62.2262C64.444 71.5004 66.2485 69.6962 66.2485 67.4783V54.1661C66.2485 53.7292 65.8944 53.3751 65.4575 53.3751C65.0205 53.3751 64.6665 53.7292 64.6665 54.1661V67.4783C64.6665 68.8238 63.5717 69.9183 62.2263 69.9183H29.5025C28.157 69.9183 27.0625 68.8237 27.0625 67.4783V42.689C27.0625 41.1612 28.3056 39.9181 29.8334 39.9181H38.7074C39.8546 39.9181 40.867 40.6081 41.2865 41.6759L41.9883 43.4626C42.6475 45.14 44.2377 46.2239 46.0398 46.2239H61.8954C63.4232 46.2239 64.6663 47.467 64.6663 48.9948V51.5294C64.6664 51.9662 65.0205 52.3204 65.4574 52.3204ZM62.3364 44.6641C62.1913 44.6494 62.0442 44.6418 61.8953 44.6418H61.143V24.5922H62.3364V44.6641Z" fill="#11D170"/>
<path d="M56.2538 25.6943H54.5742C54.1372 25.6943 53.7832 26.0485 53.7832 26.4853C53.7832 26.9222 54.1372 27.2764 54.5742 27.2764H56.2537C56.6907 27.2764 57.0447 26.9222 57.0447 26.4853C57.0448 26.0485 56.6907 25.6943 56.2538 25.6943Z" fill="#11D170"/>
<path d="M51.9379 25.6943H45.2734C44.8365 25.6943 44.4824 26.0485 44.4824 26.4853C44.4824 26.9222 44.8365 27.2764 45.2734 27.2764H51.9379C52.3748 27.2764 52.7289 26.9222 52.7289 26.4853C52.7289 26.0485 52.3747 25.6943 51.9379 25.6943Z" fill="#11D170"/>
<path d="M42.66 25.6943H40.9805C40.5435 25.6943 40.1895 26.0485 40.1895 26.4853C40.1895 26.9222 40.5435 27.2764 40.9805 27.2764H42.6599C43.0969 27.2764 43.4509 26.9222 43.4509 26.4853C43.451 26.0485 43.0969 25.6943 42.66 25.6943Z" fill="#11D170"/>
<path d="M38.3441 25.6943H31.6797C31.2428 25.6943 30.8887 26.0485 30.8887 26.4853C30.8887 26.9222 31.2428 27.2764 31.6797 27.2764H38.3441C38.7811 27.2764 39.1351 26.9222 39.1351 26.4853C39.1351 26.0485 38.781 25.6943 38.3441 25.6943Z" fill="#11D170"/>
<path d="M56.254 41.1855H45.2734C44.8365 41.1855 44.4824 41.5397 44.4824 41.9766C44.4824 42.4134 44.8365 42.7676 45.2734 42.7676H56.254C56.691 42.7676 57.045 42.4134 57.045 41.9766C57.045 41.5398 56.6909 41.1855 56.254 41.1855Z" fill="#11D170"/>
<path d="M56.2536 37.313H50.6191C50.1821 37.313 49.8281 37.6671 49.8281 38.104C49.8281 38.5409 50.1821 38.895 50.6191 38.895H56.2536C56.6906 38.895 57.0447 38.5409 57.0447 38.104C57.0447 37.6671 56.6904 37.313 56.2536 37.313Z" fill="#11D170"/>
<path d="M47.9827 37.313H45.2734C44.8365 37.313 44.4824 37.6671 44.4824 38.104C44.4824 38.5409 44.8365 38.895 45.2734 38.895H47.9827C48.4197 38.895 48.7737 38.5409 48.7737 38.104C48.7737 37.6671 48.4197 37.313 47.9827 37.313Z" fill="#11D170"/>
<path d="M56.254 29.5674H45.2734C44.8365 29.5674 44.4824 29.9215 44.4824 30.3584C44.4824 30.7953 44.8365 31.1494 45.2734 31.1494H56.254C56.691 31.1494 57.045 30.7953 57.045 30.3584C57.045 29.9215 56.6909 29.5674 56.254 29.5674Z" fill="#11D170"/>
<path d="M42.6603 29.5674H31.6797C31.2428 29.5674 30.8887 29.9215 30.8887 30.3584C30.8887 30.7953 31.2428 31.1494 31.6797 31.1494H42.6603C43.0973 31.1494 43.4513 30.7953 43.4513 30.3584C43.4513 29.9215 43.0972 29.5674 42.6603 29.5674Z" fill="#11D170"/>
<path d="M56.254 33.4399H45.2734C44.8365 33.4399 44.4824 33.7941 44.4824 34.231C44.4824 34.6678 44.8365 35.022 45.2734 35.022H56.254C56.691 35.022 57.045 34.6678 57.045 34.231C57.045 33.7942 56.6909 33.4399 56.254 33.4399Z" fill="#11D170"/>
<path d="M42.6603 33.4399H31.6797C31.2428 33.4399 30.8887 33.7941 30.8887 34.231C30.8887 34.6678 31.2428 35.022 31.6797 35.022H42.6603C43.0973 35.022 43.4513 34.6678 43.4513 34.231C43.4513 33.7942 43.0972 33.4399 42.6603 33.4399Z" fill="#11D170"/>
</svg>
