<svg width="53" height="45" viewBox="0 0 53 45" fill="none" xmlns="http://www.w3.org/2000/svg">
<path d="M40.12 25.4743C40.1753 25.5766 40.2572 25.6621 40.3571 25.7217C40.457 25.7813 40.5712 25.8128 40.6875 25.8128H45.6186C44.9387 30.7324 42.4787 35.2321 38.7044 38.4599C35.137 41.5188 30.6555 43.2731 26.4092 43.2731C23.6398 43.2731 20.7442 42.5266 18.0355 41.1143C15.2226 39.6454 12.7828 37.5527 10.9028 34.9962C10.8528 34.9278 10.7898 34.87 10.7174 34.826C10.645 34.782 10.5646 34.7527 10.4809 34.7398C10.3972 34.7269 10.3117 34.7305 10.2294 34.7506C10.1471 34.7707 10.0696 34.8068 10.0012 34.8569C9.93289 34.9069 9.87507 34.97 9.83108 35.0424C9.7871 35.1148 9.7578 35.1951 9.74487 35.2788C9.73193 35.3626 9.73562 35.448 9.75571 35.5303C9.7758 35.6126 9.8119 35.6901 9.86196 35.7585C11.859 38.4744 14.4508 40.6977 17.439 42.2581C20.331 43.7661 23.433 44.5632 26.4092 44.5632C30.959 44.5632 35.7464 42.6956 39.544 39.4393C43.6043 35.9666 46.2323 31.1113 46.9196 25.8128H52.2485C52.3649 25.8128 52.479 25.7814 52.5789 25.7218C52.6789 25.6622 52.7608 25.5767 52.8161 25.4743C52.8714 25.372 52.898 25.2565 52.893 25.1403C52.8881 25.0241 52.8518 24.9114 52.788 24.8141L47.0074 16.0003C46.9488 15.9108 46.8687 15.8373 46.7746 15.7865C46.6804 15.7356 46.5751 15.709 46.468 15.709C46.361 15.709 46.2557 15.7356 46.1615 15.7865C46.0673 15.8373 45.9873 15.9108 45.9286 16.0003L40.1481 24.8141C40.0843 24.9114 40.048 25.0241 40.0431 25.1403C40.0381 25.2565 40.0647 25.3719 40.12 25.4743ZM46.468 17.5295L51.0541 24.522H41.8819L46.468 17.5295Z" fill="#3C4047"/>
<path d="M5.88616 28.5629C5.94485 28.6524 6.02488 28.7259 6.11905 28.7767C6.21321 28.8276 6.31856 28.8542 6.42558 28.8542C6.5326 28.8542 6.63794 28.8276 6.73211 28.7767C6.82628 28.7259 6.90631 28.6524 6.96499 28.5629L12.7455 19.7491C12.8093 19.6518 12.8456 19.5391 12.8506 19.4229C12.8555 19.3067 12.8289 19.1912 12.7737 19.0889C12.7184 18.9865 12.6364 18.901 12.5365 18.8414C12.4366 18.7818 12.3224 18.7504 12.2061 18.7504H7.27504C7.95491 13.8308 10.4149 9.33113 14.1892 6.10328C17.7567 3.04438 22.2381 1.29008 26.4844 1.29008C29.2538 1.29008 32.1494 2.03661 34.8581 3.44893C37.671 4.91782 40.1108 7.01053 41.9908 9.56704C42.0919 9.70507 42.2436 9.79729 42.4127 9.82341C42.5818 9.84953 42.7543 9.80741 42.8924 9.70632C43.0304 9.60523 43.1226 9.45345 43.1487 9.28436C43.1749 9.11528 43.1327 8.94274 43.0316 8.80471C41.0346 6.08877 38.4428 3.86553 35.4546 2.30506C32.5626 0.797056 29.4606 0 26.4844 0C21.9346 0 17.1472 1.86761 13.3496 5.12389C9.28929 8.59664 6.66128 13.4519 5.974 18.7504H0.645089C0.528751 18.7504 0.414576 18.7818 0.314656 18.8414C0.214736 18.901 0.132792 18.9865 0.0775019 19.0889C0.0222118 19.1912 -0.00436565 19.3067 0.000584226 19.4229C0.0055341 19.5391 0.0418271 19.6518 0.105619 19.7491L5.88616 28.5629ZM11.0117 20.0405L6.42563 27.0333L1.83949 20.0405H11.0117Z" fill="#3C4047"/>
<path d="M26.0831 37.1739C26.1902 37.2469 26.3169 37.286 26.4466 37.286C26.5763 37.286 26.7029 37.2469 26.8101 37.1739L34.4323 31.9755C36.7274 30.4107 38.5252 27.0107 38.5252 24.235V13.538C38.5253 13.4175 38.4916 13.2993 38.4279 13.1969C38.3642 13.0945 38.273 13.012 38.1648 12.9588L26.731 7.34327C26.6426 7.2999 26.5454 7.27734 26.447 7.27734C26.3485 7.27734 26.2513 7.2999 26.1629 7.34327L14.7296 12.9424C14.6212 12.9955 14.5298 13.078 14.4659 13.1804C14.402 13.2828 14.3682 13.4011 14.3682 13.5218V24.235C14.3682 27.0107 16.166 30.4107 18.461 31.9755L26.0831 37.1739ZM15.6582 24.235V13.9241L26.4466 8.64067L37.2349 13.9396V24.235C37.2349 26.5885 35.6515 29.5827 33.7053 30.9097L26.4466 35.8597L19.1877 30.9091C17.2746 29.6052 15.6582 26.5485 15.6582 24.235Z" fill="#3C4047"/>
<path d="M24.612 25.7801C24.7325 25.8977 24.8942 25.9636 25.0625 25.9636C25.2309 25.9636 25.3926 25.8977 25.5131 25.7801L31.7352 19.706C31.797 19.6471 31.8465 19.5765 31.8809 19.4984C31.9153 19.4202 31.9338 19.336 31.9353 19.2506C31.9369 19.1652 31.9215 19.0804 31.89 19.001C31.8585 18.9216 31.8116 18.8493 31.752 18.7882C31.6923 18.7271 31.6211 18.6784 31.5425 18.6451C31.4639 18.6117 31.3795 18.5943 31.2941 18.5938C31.2087 18.5933 31.1241 18.6097 31.0451 18.6422C30.9661 18.6747 30.8944 18.7225 30.834 18.7829L25.0625 24.4176L22.0595 21.4858C21.9366 21.3688 21.7726 21.3049 21.603 21.308C21.4333 21.3111 21.2717 21.3809 21.1532 21.5023C21.0347 21.6237 20.9688 21.787 20.9697 21.9566C20.9707 22.1263 21.0385 22.2888 21.1584 22.4088L24.612 25.7801Z" fill="#3C4047"/>
</svg>
