<svg width="37" height="45" viewBox="0 0 37 45" fill="none" xmlns="http://www.w3.org/2000/svg">
<path d="M22.9218 29.6779H23.5744C23.7169 29.6779 23.8535 29.6213 23.9543 29.5205C24.055 29.4198 24.1116 29.2832 24.1116 29.1407C24.1116 28.9982 24.055 28.8616 23.9543 28.7609C23.8535 28.6601 23.7169 28.6035 23.5744 28.6035H23.459V26.7413H25.3343C25.3632 26.8704 25.4387 26.9843 25.5463 27.0611C25.654 27.138 25.7862 27.1724 25.9176 27.1579C26.0491 27.1433 26.1706 27.0807 26.2588 26.9822C26.347 26.8836 26.3957 26.756 26.3956 26.6237V26.2042C26.3956 26.0617 26.339 25.9251 26.2383 25.8243C26.1376 25.7236 26.0009 25.667 25.8585 25.667H22.9219C22.7795 25.667 22.6428 25.7236 22.5421 25.8243C22.4414 25.9251 22.3848 26.0617 22.3848 26.2042V29.1407C22.3848 29.2832 22.4413 29.4198 22.5421 29.5205C22.6428 29.6212 22.7794 29.6778 22.9218 29.6779Z" fill="#3C4047"/>
<path d="M22.9219 35.3878H25.8585C26.0009 35.3878 26.1376 35.3312 26.2383 35.2305C26.339 35.1298 26.3956 34.9931 26.3956 34.8507V31.9141C26.3956 31.7717 26.339 31.635 26.2383 31.5343C26.1376 31.4335 26.0009 31.377 25.8585 31.377H22.9219C22.7795 31.377 22.6428 31.4335 22.5421 31.5343C22.4414 31.635 22.3848 31.7717 22.3848 31.9141V34.8507C22.3848 34.9931 22.4414 35.1298 22.5421 35.2305C22.6428 35.3312 22.7795 35.3878 22.9219 35.3878ZM23.4591 32.4513H25.3213V34.3135H23.4591V32.4513Z" fill="#3C4047"/>
<path d="M23.5746 40.0234H23.4591V38.1613H25.3213V38.2248C25.3213 38.3673 25.3779 38.5039 25.4786 38.6047C25.5794 38.7054 25.716 38.762 25.8585 38.762C26.0009 38.762 26.1376 38.7054 26.2383 38.6047C26.339 38.5039 26.3956 38.3673 26.3956 38.2248V37.6241C26.3956 37.4816 26.339 37.345 26.2383 37.2442C26.1376 37.1435 26.0009 37.0869 25.8585 37.0869H22.9219C22.7795 37.0869 22.6428 37.1435 22.5421 37.2442C22.4414 37.345 22.3848 37.4816 22.3848 37.6241V40.5606C22.3848 40.7031 22.4414 40.8397 22.5421 40.9405C22.6428 41.0412 22.7795 41.0978 22.9219 41.0978H23.5746C23.7171 41.0978 23.8537 41.0412 23.9544 40.9405C24.0552 40.8397 24.1118 40.7031 24.1118 40.5606C24.1118 40.4182 24.0552 40.2815 23.9544 40.1808C23.8537 40.08 23.7171 40.0234 23.5746 40.0234Z" fill="#3C4047"/>
<path d="M27.3545 26.4033L25.4681 28.2904L24.8517 27.674C24.7509 27.5732 24.6143 27.5166 24.4718 27.5166C24.3293 27.5166 24.1927 27.5733 24.0919 27.674C23.9912 27.7748 23.9346 27.9114 23.9346 28.0539C23.9346 28.1964 23.9912 28.333 24.092 28.4338L25.0882 29.43C25.189 29.5307 25.3256 29.5873 25.468 29.5873C25.6105 29.5873 25.7471 29.5307 25.8479 29.43L28.1146 27.1632C28.1652 27.1135 28.2054 27.0542 28.2329 26.9889C28.2604 26.9235 28.2748 26.8534 28.275 26.7825C28.2753 26.7115 28.2616 26.6413 28.2345 26.5757C28.2075 26.5102 28.1678 26.4506 28.1177 26.4005C28.0675 26.3503 28.0079 26.3106 27.9424 26.2836C27.8768 26.2566 27.8065 26.2429 27.7356 26.2432C27.6647 26.2435 27.5946 26.2578 27.5292 26.2853C27.4639 26.3129 27.4046 26.3531 27.3549 26.4036L27.3545 26.4033Z" fill="#3C4047"/>
<path d="M27.355 37.9142L25.4682 39.801L24.8518 39.1847C24.802 39.1341 24.7428 39.0939 24.6775 39.0664C24.6121 39.0388 24.542 39.0245 24.4711 39.0242C24.4002 39.0239 24.3299 39.0377 24.2643 39.0647C24.1987 39.0917 24.1392 39.1314 24.089 39.1815C24.0389 39.2316 23.9991 39.2912 23.9721 39.3568C23.9451 39.4223 23.9314 39.4926 23.9316 39.5635C23.9319 39.6344 23.9462 39.7046 23.9738 39.7699C24.0013 39.8353 24.0415 39.8945 24.092 39.9443L25.0883 40.9405C25.189 41.0413 25.3257 41.0979 25.4681 41.0979C25.6106 41.0979 25.7472 41.0413 25.848 40.9405L28.1147 38.6738C28.2155 38.5731 28.2721 38.4365 28.272 38.294C28.272 38.1515 28.2154 38.0149 28.1147 37.9142C28.0139 37.8134 27.8773 37.7568 27.7348 37.7568C27.5924 37.7568 27.4557 37.8134 27.355 37.9142Z" fill="#3C4047"/>
<path d="M29.7745 27.1348C29.632 27.1348 29.4954 27.1914 29.3946 27.2921C29.2939 27.3928 29.2373 27.5295 29.2373 27.6719C29.2373 27.8144 29.2939 27.951 29.3946 28.0518C29.4954 28.1525 29.632 28.2091 29.7745 28.2091H33.69C33.8325 28.2091 33.9691 28.1525 34.0698 28.0518C34.1706 27.951 34.2272 27.8144 34.2272 27.6719C34.2272 27.5295 34.1706 27.3928 34.0698 27.2921C33.9691 27.1914 33.8325 27.1348 33.69 27.1348H29.7745Z" fill="#3C4047"/>
<path d="M33.69 32.8457H29.7745C29.632 32.8457 29.4954 32.9023 29.3946 33.003C29.2939 33.1038 29.2373 33.2404 29.2373 33.3829C29.2373 33.5253 29.2939 33.662 29.3946 33.7627C29.4954 33.8635 29.632 33.92 29.7745 33.92H33.69C33.8325 33.92 33.9691 33.8635 34.0698 33.7627C34.1706 33.662 34.2272 33.5253 34.2272 33.3829C34.2272 33.2404 34.1706 33.1038 34.0698 33.003C33.9691 32.9023 33.8325 32.8457 33.69 32.8457Z" fill="#3C4047"/>
<path d="M33.69 38.5557H29.7745C29.632 38.5557 29.4954 38.6123 29.3946 38.713C29.2939 38.8137 29.2373 38.9504 29.2373 39.0928C29.2373 39.2353 29.2939 39.3719 29.3946 39.4727C29.4954 39.5734 29.632 39.63 29.7745 39.63H33.69C33.8325 39.63 33.9691 39.5734 34.0698 39.4727C34.1706 39.3719 34.2272 39.2353 34.2272 39.0928C34.2272 38.9504 34.1706 38.8137 34.0698 38.713C33.9691 38.6123 33.8325 38.5557 33.69 38.5557Z" fill="#3C4047"/>
<path d="M33.0288 7.97513L16.9033 0.0549023C16.8296 0.0187807 16.7487 0 16.6667 0C16.5847 0 16.5037 0.0187807 16.4301 0.0549023L0.300905 7.95401C0.210632 7.99822 0.134574 8.06687 0.0813801 8.15216C0.0281864 8.23745 -8.76801e-06 8.33596 2.04531e-09 8.43648V22.6423C2.04531e-09 26.7173 2.54019 31.5221 5.90888 33.8188L16.362 40.9481C16.4512 41.0089 16.5567 41.0415 16.6647 41.0415C16.7727 41.0415 16.8781 41.0089 16.9674 40.9481L19.6113 39.1448V41.4546C19.6121 42.1421 19.8856 42.8012 20.3716 43.2873C20.8577 43.7735 21.5168 44.047 22.2042 44.0479H34.407C35.0944 44.047 35.7535 43.7735 36.2396 43.2874C36.7257 42.8013 36.9991 42.1423 37 41.4549V23.4563C36.9991 22.7689 36.7257 22.1098 36.2396 21.6238C35.7535 21.1377 35.0944 20.8642 34.407 20.8633H33.3292V8.45725C33.3291 8.35684 33.301 8.25846 33.2479 8.17324C33.1948 8.08803 33.1189 8.01939 33.0288 7.97513ZM16.6648 39.854L6.5141 32.9312C3.41292 30.8168 1.07434 26.3936 1.07434 22.6423V8.77149L16.6661 1.13533L32.2548 8.79154V20.8634H32.1188C32.0155 20.4037 31.7589 19.9928 31.3912 19.6981C31.0236 19.4035 30.5666 19.2426 30.0955 19.2419H29.3656V11.0783C29.3656 10.9779 29.3375 10.8795 29.2844 10.7943C29.2313 10.7091 29.1554 10.6404 29.0653 10.5962L16.9014 4.62175C16.8278 4.58565 16.7468 4.56687 16.6648 4.56687C16.5828 4.56687 16.5019 4.58565 16.4283 4.62175L4.26433 10.5789C4.17407 10.6231 4.09803 10.6917 4.04483 10.777C3.99164 10.8623 3.96344 10.9608 3.96343 11.0613V22.4591C3.96343 25.3196 5.88767 28.9588 8.25265 30.5712L16.3619 36.1017C16.4511 36.1625 16.5566 36.1951 16.6646 36.1951C16.7726 36.1951 16.8781 36.1625 16.9673 36.1017L19.6112 34.2982V37.844L16.6648 39.854ZM24.493 20.8634H22.2042C21.5168 20.8643 20.8578 21.1377 20.3717 21.6238C19.8856 22.1099 19.6121 22.7689 19.6112 23.4563V32.9981L16.6648 35.0077L8.85795 29.6836C6.78725 28.2717 5.03786 24.9634 5.03786 22.4591V11.3963L16.6643 5.70227L28.2914 11.413V19.2419H26.5161C26.045 19.2427 25.588 19.4035 25.2204 19.6982C24.8527 19.9928 24.5961 20.4037 24.4928 20.8634H24.493ZM25.5172 21.3154C25.5175 21.0505 25.6228 20.7965 25.8102 20.6092C25.9975 20.4219 26.2515 20.3165 26.5164 20.3162H30.0957C30.3607 20.3165 30.6146 20.4219 30.802 20.6092C30.9893 20.7965 31.0947 21.0505 31.095 21.3154V21.3988C31.0947 21.6637 30.9893 21.9177 30.802 22.105C30.6146 22.2923 30.3607 22.3977 30.0957 22.398H26.5164C26.2515 22.3977 25.9975 22.2923 25.8102 22.105C25.6228 21.9177 25.5175 21.6637 25.5172 21.3988V21.3154ZM35.926 23.4563V41.4549C35.9256 41.8575 35.7654 42.2435 35.4807 42.5283C35.196 42.813 34.81 42.9731 34.4073 42.9735H22.2046C21.802 42.9731 21.4159 42.8129 21.1312 42.5282C20.8465 42.2435 20.6864 41.8575 20.6859 41.4549V38.4121L20.7909 38.3404L20.6859 38.1866V23.4563C20.6864 23.0537 20.8465 22.6677 21.1312 22.383C21.4159 22.0982 21.802 21.9381 22.2046 21.9376H24.5144C24.6335 22.3777 24.894 22.7664 25.2558 23.0437C25.6177 23.321 26.0607 23.4716 26.5166 23.4723H30.0959C30.5518 23.4716 30.9948 23.321 31.3566 23.0437C31.7185 22.7664 31.979 22.3777 32.098 21.9376H34.4079C34.8104 21.9382 35.1963 22.0984 35.4809 22.3831C35.7655 22.6678 35.9256 23.0538 35.926 23.4563Z" fill="#3C4047"/>
</svg>
