<svg width="48" height="46" viewBox="0 0 48 46" fill="none" xmlns="http://www.w3.org/2000/svg">
<path d="M45.7277 28.7817V20.9662L46.5992 20.6033C47.4234 20.2602 47.5463 19.7418 47.5463 19.4634C47.5463 19.185 47.4234 18.6665 46.5992 18.3234L33.9777 13.0681C33.64 12.935 33.2852 12.8501 32.9239 12.8158V9.33873C32.9239 9.31836 32.9229 9.29801 32.9208 9.27775C32.9196 9.26576 32.9175 9.25408 32.9155 9.24229C32.9143 9.23457 32.9135 9.22674 32.912 9.21902C32.9091 9.20479 32.9054 9.19097 32.9018 9.17705C32.9004 9.17197 32.8994 9.16689 32.8979 9.16171C32.8936 9.14768 32.8885 9.13417 32.8833 9.12106C32.8815 9.11618 32.8799 9.1109 32.8779 9.10633C32.8727 9.09372 32.8668 9.08163 32.8607 9.06944C32.8579 9.06385 32.8555 9.05806 32.8525 9.05247C32.8467 9.04159 32.8401 9.03113 32.8337 9.02066C32.8298 9.01426 32.8262 9.00766 32.822 9.00146C32.8158 8.99201 32.8088 8.98306 32.8017 8.97402C32.7966 8.96721 32.7916 8.9603 32.7864 8.9537C32.7795 8.94526 32.7719 8.93734 32.7645 8.92921C32.7592 8.92331 32.7544 8.91711 32.7487 8.91142L25.0257 1.0574L25.0236 1.05547C25.0155 1.04724 25.0067 1.03972 24.9982 1.032C24.992 1.02651 24.9861 1.02052 24.9797 1.01523C24.9651 1.00317 24.9499 0.991792 24.9341 0.981089L24.9325 0.979768C24.849 0.923096 24.7527 0.888167 24.6523 0.87815C24.632 0.876118 24.6117 0.875 24.5913 0.875H6.80826C5.95452 0.876066 5.13133 1.19275 4.497 1.76414C3.86267 2.33554 3.462 3.12129 3.37206 3.97027C2.54937 4.08896 1.7969 4.49987 1.2523 5.12782C0.707704 5.75577 0.407375 6.5588 0.40625 7.39001V42.3972C0.407299 43.3132 0.771643 44.1914 1.41935 44.8391C2.06706 45.4869 2.94525 45.8512 3.86125 45.8522H26.6236C27.4439 45.8511 28.2371 45.5586 28.8618 45.0269C29.4864 44.4952 29.9019 43.7588 30.034 42.9492C30.8408 42.8145 31.5738 42.3982 32.1028 41.7743C32.6319 41.1504 32.9228 40.3592 32.9239 39.5412V34.4613C33.2804 34.2356 33.7227 33.8374 34.3914 33.224C35.9947 31.7539 38.4175 29.5324 40.7342 29.5324H41.4597C41.6214 29.5324 41.7765 29.4681 41.8909 29.3538C42.0052 29.2394 42.0694 29.0844 42.0694 28.9227V22.4898L44.5083 21.4744V28.7207C43.8782 28.8389 43.3134 29.1842 42.921 29.6911C42.5285 30.198 42.3357 30.8312 42.3791 31.4708C42.4225 32.1104 42.699 32.7118 43.1563 33.1611C43.6136 33.6103 44.2199 33.8761 44.8601 33.9082C45.5004 33.9402 46.1301 33.7361 46.6299 33.3347C47.1298 32.9334 47.465 32.3625 47.5719 31.7304C47.6789 31.0984 47.5502 30.449 47.2103 29.9055C46.8703 29.362 46.3428 28.9622 45.7277 28.7817ZM46.1305 19.4492C46.1421 19.4539 46.153 19.4587 46.1635 19.4634C46.1534 19.4681 46.1421 19.4727 46.1305 19.4776L33.5091 24.7328C32.8956 24.9881 31.8191 24.9881 31.2056 24.7328L18.5841 19.4776C18.5725 19.4727 18.5614 19.4681 18.5511 19.4634C18.5612 19.4587 18.5725 19.4539 18.5841 19.4492L31.2056 14.1938C31.8189 13.9384 32.8953 13.9383 33.509 14.1938L46.1305 19.4492ZM25.2009 2.97432L30.8596 8.72902H26.6236C26.2464 8.72862 25.8848 8.5786 25.6181 8.31189C25.3513 8.04518 25.2013 7.68356 25.2009 7.30637V2.97432ZM26.6236 44.6329H3.86125C3.26854 44.6323 2.7003 44.3965 2.28119 43.9774C1.86208 43.5583 1.62633 42.9901 1.62566 42.3974V7.39001C1.62639 6.88566 1.79737 6.39633 2.11091 6.00128C2.42444 5.60623 2.86215 5.3286 3.35316 5.21336V39.5412C3.35418 40.4572 3.71852 41.3354 4.36623 41.9831C5.01395 42.6308 5.89215 42.9952 6.80816 42.9962H28.777C28.6456 43.4665 28.3641 43.881 27.9754 44.1765C27.5866 44.472 27.1119 44.6323 26.6236 44.6329ZM29.4689 41.7769H6.80816C6.21545 41.7762 5.64721 41.5404 5.2281 41.1213C4.80899 40.7022 4.57324 40.134 4.57257 39.5413V4.33C4.57324 3.73729 4.80899 3.16905 5.2281 2.74994C5.64721 2.33083 6.21545 2.09508 6.80816 2.09441H23.9815V7.30637C23.9823 8.00685 24.2609 8.67842 24.7562 9.17373C25.2515 9.66904 25.9231 9.94765 26.6236 9.94843H31.7045V12.8248C31.3726 12.8629 31.0472 12.9447 30.7369 13.0681L18.1153 18.3234C17.2912 18.6665 17.1682 19.1849 17.1682 19.4634C17.1682 19.7419 17.2912 20.2602 18.1153 20.6033L22.3556 22.3688V28.9227C22.3556 29.0844 22.4199 29.2394 22.5342 29.3538C22.6486 29.4681 22.8036 29.5324 22.9653 29.5324H23.6539C26.0443 29.5324 28.4792 31.7544 30.0905 33.2248C30.8358 33.9051 31.313 34.3307 31.7045 34.5396V39.5412C31.7038 40.1339 31.468 40.7021 31.0489 41.1212C30.6298 41.5403 30.0616 41.7761 29.4689 41.7768V41.7769ZM40.85 28.3125H40.7342C37.9431 28.3125 35.3098 30.7271 33.5673 32.3249C33.0909 32.7619 32.5092 33.2952 32.2454 33.4488C31.9794 33.2974 31.3929 32.7621 30.9124 32.3237C29.1621 30.7264 26.517 28.3125 23.6539 28.3125H23.5751V22.876L30.737 25.8579C31.7841 26.2362 32.9306 26.2362 33.9777 25.8579L40.85 22.9965V28.3125ZM44.9902 32.7057C44.6266 32.7039 44.2779 32.5613 44.0172 32.3078C43.7566 32.0543 43.6043 31.7096 43.5925 31.3462C43.5807 30.9828 43.7101 30.6289 43.9537 30.359C44.1973 30.089 44.5361 29.924 44.8988 29.8986C45.0153 29.9444 45.1433 29.9524 45.2646 29.9215C45.6053 29.9913 45.908 30.1848 46.1144 30.4648C46.3207 30.7447 46.4161 31.0911 46.382 31.4372C46.3479 31.7833 46.1867 32.1045 45.9297 32.3388C45.6727 32.5731 45.338 32.7038 44.9902 32.7058V32.7057Z" fill="#3C4047"/>
<path d="M13.4642 14.0593H22.9654C23.1271 14.0593 23.2822 13.995 23.3966 13.8807C23.5109 13.7663 23.5751 13.6113 23.5751 13.4495C23.5751 13.2878 23.5109 13.1328 23.3966 13.0184C23.2822 12.9041 23.1271 12.8398 22.9654 12.8398H13.4642C13.3025 12.8398 13.1474 12.9041 13.0331 13.0184C12.9187 13.1328 12.8545 13.2878 12.8545 13.4495C12.8545 13.6113 12.9187 13.7663 13.0331 13.8807C13.1474 13.995 13.3025 14.0593 13.4642 14.0593Z" fill="#3C4047"/>
<path d="M8.81771 14.0593H11.0072C11.1689 14.0593 11.3239 13.995 11.4383 13.8807C11.5526 13.7663 11.6169 13.6113 11.6169 13.4495C11.6169 13.2878 11.5526 13.1328 11.4383 13.0184C11.3239 12.9041 11.1689 12.8398 11.0072 12.8398H8.81771C8.65601 12.8398 8.50093 12.9041 8.38659 13.0184C8.27224 13.1328 8.20801 13.2878 8.20801 13.4495C8.20801 13.6113 8.27224 13.7663 8.38659 13.8807C8.50093 13.995 8.65601 14.0593 8.81771 14.0593Z" fill="#3C4047"/>
<path d="M8.81771 20.6139H14.8358C14.9975 20.6139 15.1526 20.5497 15.2669 20.4354C15.3813 20.321 15.4455 20.1659 15.4455 20.0042C15.4455 19.8425 15.3813 19.6875 15.2669 19.5731C15.1526 19.4588 14.9975 19.3945 14.8358 19.3945H8.81771C8.65601 19.3945 8.50093 19.4588 8.38659 19.5731C8.27224 19.6875 8.20801 19.8425 8.20801 20.0042C8.20801 20.1659 8.27224 20.321 8.38659 20.4354C8.50093 20.5497 8.65601 20.6139 8.81771 20.6139Z" fill="#3C4047"/>
<path d="M20.5262 26.5599C20.5262 26.3982 20.4619 26.2431 20.3476 26.1288C20.2333 26.0144 20.0782 25.9502 19.9165 25.9502H13.2318C13.0701 25.9502 12.915 26.0144 12.8006 26.1288C12.6863 26.2431 12.6221 26.3982 12.6221 26.5599C12.6221 26.7216 12.6863 26.8767 12.8006 26.991C12.915 27.1054 13.0701 27.1696 13.2318 27.1696H19.9165C20.0782 27.1696 20.2333 27.1054 20.3476 26.991C20.4619 26.8767 20.5262 26.7216 20.5262 26.5599Z" fill="#3C4047"/>
<path d="M8.81771 27.1696H10.7902C10.9519 27.1696 11.107 27.1054 11.2213 26.991C11.3357 26.8767 11.3999 26.7216 11.3999 26.5599C11.3999 26.3982 11.3357 26.2431 11.2213 26.1288C11.107 26.0144 10.9519 25.9502 10.7902 25.9502H8.81771C8.65601 25.9502 8.50093 26.0144 8.38659 26.1288C8.27224 26.2431 8.20801 26.3982 8.20801 26.5599C8.20801 26.7216 8.27224 26.8767 8.38659 26.991C8.50093 27.1054 8.65601 27.1696 8.81771 27.1696Z" fill="#3C4047"/>
<path d="M22.9658 32.5039H20.7523C20.5906 32.5039 20.4355 32.5681 20.3212 32.6825C20.2068 32.7968 20.1426 32.9519 20.1426 33.1136C20.1426 33.2753 20.2068 33.4304 20.3212 33.5447C20.4355 33.6591 20.5906 33.7233 20.7523 33.7233H22.9658C23.1275 33.7233 23.2826 33.6591 23.3969 33.5447C23.5113 33.4304 23.5755 33.2753 23.5755 33.1136C23.5755 32.9519 23.5113 32.7968 23.3969 32.6825C23.2826 32.5681 23.1275 32.5039 22.9658 32.5039Z" fill="#3C4047"/>
<path d="M18.1597 32.5039H8.81771C8.65601 32.5039 8.50093 32.5681 8.38659 32.6825C8.27224 32.7968 8.20801 32.9519 8.20801 33.1136C8.20801 33.2753 8.27224 33.4304 8.38659 33.5447C8.50093 33.6591 8.65601 33.7233 8.81771 33.7233H18.1597C18.3214 33.7233 18.4765 33.6591 18.5908 33.5447C18.7052 33.4304 18.7694 33.2753 18.7694 33.1136C18.7694 32.9519 18.7052 32.7968 18.5908 32.6825C18.4765 32.5681 18.3214 32.5039 18.1597 32.5039Z" fill="#3C4047"/>
</svg>
