<svg width="42" height="45" viewBox="0 0 42 45" fill="none" xmlns="http://www.w3.org/2000/svg">
<path d="M3.64338 42.2527C3.9693 42.2597 4.28993 42.1695 4.56437 41.9936C4.8388 41.8176 5.05461 41.5639 5.18424 41.2648C5.31388 40.9657 5.35148 40.6348 5.29223 40.3142C5.23299 39.9936 5.07959 39.698 4.85161 39.465C4.62363 39.232 4.33141 39.0721 4.01221 39.0059C3.69302 38.9397 3.36133 38.97 3.05946 39.0931C2.75759 39.2162 2.49923 39.4264 2.31733 39.6969C2.13543 39.9674 2.03824 40.286 2.03816 40.612C2.03397 41.0423 2.20062 41.4567 2.50155 41.7642C2.80248 42.0718 3.21311 42.2475 3.64338 42.2527ZM3.64338 40.0355C3.75898 40.0282 3.87411 40.0557 3.97385 40.1146C4.07358 40.1735 4.15331 40.261 4.20269 40.3658C4.25206 40.4706 4.2688 40.5878 4.25073 40.7022C4.23266 40.8166 4.18061 40.9229 4.10135 41.0074C4.02209 41.0919 3.91927 41.1505 3.80624 41.1758C3.69321 41.2011 3.57518 41.1918 3.46748 41.1492C3.35979 41.1066 3.26739 41.0326 3.20229 40.9368C3.13719 40.841 3.10238 40.7278 3.1024 40.612C3.09797 40.4639 3.15242 40.32 3.25381 40.212C3.35521 40.1039 3.49529 40.0404 3.64338 40.0354V40.0355Z" fill="#3C4047"/>
<path d="M33.79 7.79703L26.1488 0.155822C26.0993 0.10638 26.0406 0.0671703 25.976 0.0404333C25.9114 0.0136964 25.8421 -4.32232e-05 25.7722 1.02145e-07H14.4204C13.7728 0.000727818 13.152 0.25829 12.6942 0.716177C12.2363 1.17406 11.9788 1.79488 11.978 2.44242V14.5132L3.38045 21.3716C3.36372 21.385 3.34779 21.3994 3.33274 21.4147C2.70773 22.048 2.35819 22.9026 2.36021 23.7924V37.0397H1.41898C1.04278 37.0402 0.682116 37.1898 0.416102 37.4558C0.150088 37.7218 0.000445943 38.0825 0 38.4587V42.6214C0.000445943 42.9976 0.150088 43.3582 0.416102 43.6242C0.682116 43.8902 1.04278 44.0399 1.41898 44.0403H15.0226C15.3988 44.0399 15.7595 43.8902 16.0255 43.6242C16.2915 43.3582 16.4412 42.9976 16.4416 42.6214V38.4587C16.4412 38.0825 16.2915 37.7218 16.0255 37.4558C15.7595 37.1898 15.3988 37.0402 15.0226 37.0397H14.582V35.9867C15.3791 35.8591 16.1048 35.4518 16.629 34.8378C17.1532 34.2238 17.4418 33.4432 17.4429 32.6359V29.6094H28.8088C29.3179 30.7771 30.1446 31.7784 31.1947 32.4994C32.2448 33.2205 33.4762 33.6323 34.7488 33.688C36.0214 33.7437 37.2841 33.441 38.3932 32.8145C39.5023 32.1879 40.4132 31.2626 41.0224 30.1439C41.6315 29.0252 41.9144 27.7579 41.8389 26.4863C41.7633 25.2147 41.3323 23.9899 40.595 22.9512C39.8577 21.9124 38.8435 21.1015 37.6681 20.6107C36.4926 20.1199 35.2029 19.969 33.9459 20.175V8.17332C33.9459 8.10343 33.9321 8.03423 33.9054 7.96967C33.8786 7.9051 33.8394 7.84644 33.79 7.79703ZM26.3043 1.81674L32.1287 7.6412H27.6829C27.3175 7.6408 26.9672 7.49548 26.7088 7.2371C26.4504 6.97873 26.3051 6.62842 26.3047 6.26302L26.3043 1.81674ZM15.3774 38.4587V42.6214C15.3774 42.7154 15.34 42.8057 15.2735 42.8722C15.207 42.9387 15.1167 42.9761 15.0226 42.9761H1.41898C1.3249 42.9761 1.23466 42.9387 1.16814 42.8722C1.10161 42.8057 1.06423 42.7154 1.06423 42.6214V38.4587C1.06423 38.3646 1.10161 38.2744 1.16814 38.2078C1.23466 38.1413 1.3249 38.1039 1.41898 38.1039H15.0226C15.1167 38.1039 15.207 38.1413 15.2735 38.2078C15.34 38.2744 15.3774 38.3646 15.3774 38.4587ZM16.3787 32.6355C16.378 33.2529 16.1324 33.8448 15.6958 34.2814C15.2592 34.7179 14.6673 34.9635 14.0498 34.9642C13.9087 34.9642 13.7734 35.0202 13.6736 35.12C13.5738 35.2198 13.5177 35.3552 13.5177 35.4963V37.0394H3.42444V23.7924C3.42307 23.1923 3.65477 22.6151 4.0707 22.1825L11.9777 15.8747V21.122L6.55471 25.4158C6.44465 25.5036 6.37387 25.6314 6.35788 25.7713C6.34188 25.9112 6.38197 26.0517 6.46937 26.1621C6.55676 26.2724 6.68434 26.3437 6.82416 26.3602C6.96397 26.3767 7.10463 26.3371 7.21533 26.2501L13.7148 21.1039L13.8854 21.2746C14.1875 21.5774 14.3572 21.9878 14.3572 22.4156C14.3572 22.8434 14.1875 23.2537 13.8854 23.5566L10.8511 26.591C10.7587 26.6833 10.7035 26.8064 10.696 26.9368L10.6577 27.5985C10.6571 27.6088 10.6568 27.619 10.6568 27.6293C10.6599 28.1292 10.7738 28.6222 10.9905 29.0727C11.2327 29.5928 11.3375 30.1664 11.2947 30.7386C11.2519 31.3108 11.0631 31.8624 10.7462 32.3408C10.6879 32.4282 10.6568 32.5309 10.6568 32.6359V34.0663C10.6568 34.2075 10.7129 34.3428 10.8127 34.4426C10.9124 34.5424 11.0478 34.5984 11.1889 34.5984C11.33 34.5984 11.4654 34.5424 11.5652 34.4426C11.665 34.3428 11.721 34.2075 11.721 34.0663V32.7908C12.1003 32.1685 12.32 31.4621 12.3606 30.7344C12.4012 30.0068 12.2614 29.2803 11.9537 28.6197C11.8061 28.3151 11.7267 27.9819 11.7211 27.6434L11.7468 27.2L11.9773 26.9694V27.1669C11.978 27.8144 12.2356 28.4352 12.6935 28.8931C13.1513 29.351 13.7721 29.6086 14.4197 29.6093H16.3784L16.3787 32.6355ZM14.4204 28.5452C14.055 28.5448 13.7047 28.3994 13.4463 28.1411C13.188 27.8827 13.0427 27.5324 13.0423 27.167V25.9052L14.6386 24.3089C15.14 23.8063 15.4216 23.1254 15.4216 22.4154C15.4216 21.7055 15.14 21.0246 14.6386 20.522L14.1331 20.0165C14.0408 19.9242 13.9179 19.869 13.7876 19.8615C13.6573 19.854 13.5288 19.8946 13.4265 19.9756L13.0426 20.2795V2.44242C13.043 2.07709 13.1883 1.72683 13.4466 1.46847C13.7048 1.2101 14.0551 1.06473 14.4204 1.06423H25.2401V6.26302C25.2408 6.91057 25.4984 7.53138 25.9563 7.98927C26.4142 8.44715 27.035 8.70471 27.6825 8.70544H32.8813V20.4399C31.258 20.9854 29.9 22.1226 29.0778 23.6248C28.2557 25.127 28.0299 26.8839 28.4454 28.5452H14.4204ZM40.7957 26.8942C40.7967 28.0319 40.4602 29.1443 39.8288 30.0906C39.1974 31.037 38.2995 31.7748 37.2486 32.2107C36.1977 32.6465 35.0412 32.7609 33.9253 32.5392C32.8095 32.3175 31.7845 31.7697 30.98 30.9653C30.1755 30.1608 29.6278 29.1358 29.4061 28.0199C29.1844 26.9041 29.2987 25.7475 29.7346 24.6967C30.1705 23.6458 30.9083 22.7478 31.8546 22.1164C32.801 21.485 33.9134 21.1486 35.0511 21.1496C36.5741 21.1513 38.0343 21.7571 39.1112 22.8341C40.1882 23.911 40.7939 25.3712 40.7957 26.8942Z" fill="#3C4047"/>
<path d="M27.8188 21.8135H18.0028C17.8617 21.8135 17.7263 21.8695 17.6266 21.9693C17.5268 22.0691 17.4707 22.2045 17.4707 22.3456C17.4707 22.4867 17.5268 22.6221 17.6266 22.7219C17.7263 22.8216 17.8617 22.8777 18.0028 22.8777H27.8188C27.9599 22.8777 28.0953 22.8216 28.1951 22.7219C28.2948 22.6221 28.3509 22.4867 28.3509 22.3456C28.3509 22.2045 28.2948 22.0691 28.1951 21.9693C28.0953 21.8695 27.9599 21.8135 27.8188 21.8135Z" fill="#3C4047"/>
<path d="M23.5861 24.9639H18.0028C17.8617 24.9639 17.7263 25.0199 17.6266 25.1197C17.5268 25.2195 17.4707 25.3549 17.4707 25.496C17.4707 25.6371 17.5268 25.7725 17.6266 25.8722C17.7263 25.972 17.8617 26.0281 18.0028 26.0281H23.5863C23.7275 26.0281 23.8628 25.972 23.9626 25.8722C24.0624 25.7725 24.1184 25.6371 24.1184 25.496C24.1184 25.3549 24.0624 25.2195 23.9626 25.1197C23.8628 25.0199 23.7275 24.9639 23.5863 24.9639H23.5861Z" fill="#3C4047"/>
<path d="M32.9873 25.328C32.9879 25.875 33.2055 26.3994 33.5923 26.7862C33.979 27.1729 34.5034 27.3905 35.0504 27.3911C35.1816 27.3904 35.3115 27.4155 35.433 27.4651C35.5544 27.5147 35.6648 27.5877 35.758 27.6799C35.8512 27.7722 35.9254 27.8819 35.9762 28.0028C36.027 28.1237 36.0535 28.2534 36.0542 28.3845C36.0548 28.5157 36.0297 28.6456 35.9801 28.7671C35.9306 28.8885 35.8576 28.9989 35.7653 29.0921C35.6731 29.1854 35.5634 29.2595 35.4425 29.3103C35.3216 29.3611 35.1918 29.3876 35.0607 29.3883C35.0572 29.3883 35.0539 29.3877 35.0504 29.3877C35.047 29.3877 35.0435 29.3882 35.04 29.3883C34.7771 29.3853 34.5259 29.2789 34.3408 29.092C34.1558 28.9052 34.0519 28.6529 34.0515 28.3899C34.0515 28.2488 33.9955 28.1135 33.8957 28.0137C33.7959 27.9139 33.6605 27.8578 33.5194 27.8578C33.3783 27.8578 33.2429 27.9139 33.1432 28.0137C33.0434 28.1135 32.9873 28.2488 32.9873 28.3899C32.9879 28.8443 33.1382 29.2857 33.4149 29.6461C33.6917 30.0064 34.0795 30.2654 34.5183 30.3831V30.8318C34.5183 30.9729 34.5744 31.1083 34.6741 31.2081C34.7739 31.3079 34.9093 31.3639 35.0504 31.3639C35.1915 31.3639 35.3269 31.3079 35.4267 31.2081C35.5265 31.1083 35.5825 30.9729 35.5825 30.8318V30.3831C36.0663 30.254 36.4865 29.9534 36.765 29.5373C37.0434 29.1212 37.1611 28.618 37.0959 28.1216C37.0308 27.6252 36.7874 27.1694 36.411 26.8392C36.0347 26.509 35.5511 26.3269 35.0504 26.3269C34.8529 26.3269 34.6597 26.2684 34.4954 26.1586C34.3312 26.0489 34.2031 25.8929 34.1275 25.7103C34.0519 25.5278 34.0321 25.327 34.0706 25.1332C34.1092 24.9394 34.2043 24.7615 34.344 24.6218C34.4837 24.4821 34.6617 24.3869 34.8554 24.3484C35.0492 24.3098 35.25 24.3296 35.4326 24.4052C35.6151 24.4808 35.7711 24.6088 35.8808 24.7731C35.9906 24.9373 36.0492 25.1305 36.0492 25.328C36.0492 25.4692 36.1053 25.6045 36.205 25.7043C36.3048 25.8041 36.4402 25.8602 36.5813 25.8602C36.7224 25.8602 36.8578 25.8041 36.9576 25.7043C37.0574 25.6045 37.1134 25.4692 37.1134 25.328C37.1128 24.8737 36.9626 24.4323 36.6858 24.072C36.4091 23.7117 36.0213 23.4526 35.5825 23.3349V22.9559C35.5825 22.8148 35.5265 22.6795 35.4267 22.5797C35.3269 22.4799 35.1915 22.4238 35.0504 22.4238C34.9093 22.4238 34.7739 22.4799 34.6741 22.5797C34.5744 22.6795 34.5183 22.8148 34.5183 22.9559V23.3349C34.0795 23.4526 33.6917 23.7117 33.415 24.072C33.1382 24.4323 32.9879 24.8737 32.9873 25.328Z" fill="#3C4047"/>
<path d="M18.4254 15.0252C18.4254 15.1664 18.4815 15.3017 18.5812 15.4015C18.681 15.5013 18.8164 15.5574 18.9575 15.5574C19.0986 15.5574 19.234 15.5013 19.3338 15.4015C19.4336 15.3017 19.4896 15.1664 19.4896 15.0252C19.487 14.8904 19.5116 14.7563 19.5621 14.6312C19.6125 14.5061 19.6878 14.3925 19.7833 14.2972C19.8788 14.2019 19.9926 14.127 20.1178 14.0768C20.243 14.0266 20.3771 14.0023 20.512 14.0053H20.5171C20.7841 14.0047 21.0409 14.1082 21.2328 14.2939C21.4213 14.491 21.5273 14.7526 21.5294 15.0252V18.8026C21.5294 19.019 21.4435 19.2265 21.2904 19.3795C21.1374 19.5325 20.9299 19.6185 20.7135 19.6185C20.4971 19.6185 20.2896 19.5325 20.1366 19.3795C19.9835 19.2265 19.8976 19.019 19.8976 18.8026C19.8976 18.6614 19.8415 18.5261 19.7417 18.4263C19.6419 18.3265 19.5066 18.2704 19.3655 18.2704C19.2243 18.2704 19.089 18.3265 18.9892 18.4263C18.8894 18.5261 18.8334 18.6614 18.8334 18.8026C18.8334 19.3012 19.0314 19.7794 19.384 20.132C19.7366 20.4846 20.2149 20.6827 20.7135 20.6827C21.2121 20.6827 21.6904 20.4846 22.043 20.132C22.3956 19.7794 22.5936 19.3012 22.5936 18.8026V15.0252C22.591 14.8904 22.6156 14.7563 22.6661 14.6312C22.7165 14.5061 22.7918 14.3925 22.8873 14.2972C22.9828 14.2019 23.0966 14.127 23.2218 14.0768C23.3471 14.0266 23.4811 14.0023 23.616 14.0053H23.6211C23.8882 14.0047 24.1449 14.1083 24.3369 14.294C24.5253 14.4911 24.6314 14.7527 24.6334 15.0253C24.6334 15.1665 24.6895 15.3018 24.7893 15.4016C24.8891 15.5014 25.0244 15.5574 25.1655 15.5574C25.3067 15.5574 25.442 15.5014 25.5418 15.4016C25.6416 15.3018 25.6977 15.1665 25.6977 15.0253C25.695 14.8904 25.7196 14.7564 25.7701 14.6313C25.8205 14.5062 25.8958 14.3926 25.9913 14.2973C26.0868 14.202 26.2006 14.1271 26.3258 14.0769C26.4511 14.0267 26.5852 14.0024 26.72 14.0054H26.7251C26.9916 14.0048 27.248 14.1079 27.4397 14.293C27.5618 14.4299 27.6994 14.797 27.7549 15.0055C27.7881 15.1302 27.8656 15.2385 27.973 15.31C28.0804 15.3815 28.2101 15.4113 28.3379 15.3938C28.4666 15.3763 28.5845 15.3127 28.6698 15.2149C28.755 15.117 28.8019 14.9915 28.8017 14.8617C28.8006 13.0759 28.0904 11.3636 26.8272 10.1013C25.564 8.83896 23.8513 8.12986 22.0655 8.12988H22.053C20.2671 8.13308 18.5554 8.84455 17.2934 10.1082C16.0314 11.3719 15.3221 13.0846 15.3213 14.8705C15.3214 14.9997 15.3685 15.1244 15.4538 15.2215C15.5391 15.3185 15.6568 15.3812 15.7849 15.3978C15.913 15.4144 16.0428 15.3839 16.1501 15.3119C16.2573 15.2398 16.3347 15.1312 16.3678 15.0063C16.4231 14.7988 16.5589 14.4361 16.6801 14.2969C16.8771 14.1113 17.1372 14.0073 17.4079 14.0058H17.413C17.68 14.0051 17.9368 14.1087 18.1287 14.2944C18.3171 14.4913 18.4232 14.7527 18.4254 15.0252ZM16.6769 13.0701C17.0549 11.9428 17.777 10.9624 18.7415 10.2671C19.7061 9.57185 20.8644 9.19671 22.0535 9.19456H22.0615C22.0629 9.19438 22.0642 9.19438 22.0655 9.19456C23.2554 9.19526 24.415 9.5696 25.3806 10.2648C26.3463 10.9599 27.0693 11.9408 27.4475 13.0689C27.0742 12.9336 26.6704 12.9055 26.2819 12.9878C25.8933 13.0701 25.5356 13.2595 25.2492 13.5346C25.2414 13.542 25.2337 13.5496 25.2264 13.5574C25.2056 13.5796 25.1854 13.602 25.1655 13.6246C25.1457 13.602 25.1254 13.5796 25.1046 13.5574C25.0999 13.5524 25.0951 13.5474 25.09 13.5425C24.6995 13.1567 24.1725 12.9408 23.6236 12.9416H23.6135C23.0663 12.9443 22.5408 13.1565 22.1452 13.5347C22.1374 13.542 22.1298 13.5496 22.1225 13.5573C22.1017 13.5794 22.0814 13.6019 22.0616 13.6246C22.0419 13.6019 22.0215 13.5795 22.0006 13.5573C21.9959 13.5523 21.9911 13.5473 21.986 13.5424C21.5955 13.1566 21.0685 12.9406 20.5196 12.9415H20.5095C19.9617 12.9412 19.4352 13.1539 19.0411 13.5344C19.0333 13.5418 19.0257 13.5494 19.0184 13.5572C18.9976 13.5793 18.9773 13.6017 18.9575 13.6244C18.9378 13.6017 18.9175 13.5793 18.8966 13.5572C18.8919 13.5522 18.887 13.5472 18.882 13.5423C18.4915 13.1565 17.9645 12.9406 17.4156 12.9414C17.1637 12.9401 16.9136 12.9837 16.6769 13.0701Z" fill="#3C4047"/>
</svg>
