<svg width="46" height="44" viewBox="0 0 46 44" fill="none" xmlns="http://www.w3.org/2000/svg">
<path d="M45.8112 34.8329C45.8062 34.8018 45.7985 34.7712 45.7882 34.7414C45.7868 34.7371 45.7852 34.7329 45.7836 34.7287C45.7725 34.6987 45.7587 34.6696 45.7425 34.6419C45.7403 34.638 45.7379 34.6342 45.7355 34.6304C45.7181 34.6021 45.6982 34.5755 45.676 34.5508C45.6745 34.5491 45.6735 34.547 45.6719 34.5454L42.1903 30.7518C42.0111 30.557 41.7935 30.4016 41.5513 30.2951C41.3091 30.1886 41.0474 30.1335 40.7828 30.1332H37.0185V28.4404C37.0179 27.9339 36.8165 27.4484 36.4583 27.0902C36.1002 26.7321 35.6146 26.5306 35.1081 26.53H34.49C34.7207 25.5955 34.8403 24.637 34.8464 23.6744V8.84085C34.8464 8.73641 34.8172 8.63406 34.7619 8.54542C34.7067 8.45678 34.6277 8.38539 34.534 8.33935L17.6716 0.057087C17.5951 0.0195278 17.5109 0 17.4256 0C17.3403 0 17.2561 0.0195278 17.1795 0.057087L0.313004 8.31756C0.219143 8.36353 0.140056 8.4349 0.0847262 8.52356C0.0293967 8.61223 4.3142e-05 8.71464 0 8.81915V23.6744C0 27.9347 2.65583 32.9582 6.17757 35.3593L17.1085 42.8144C17.2013 42.8777 17.311 42.9116 17.4234 42.9116C17.5357 42.9116 17.6454 42.8777 17.7382 42.8144L21.1049 40.5182C21.2568 40.8513 21.5012 41.1337 21.809 41.332C22.1168 41.5302 22.475 41.6359 22.8411 41.6364H24.0261C24.1561 42.3021 24.5135 42.9019 25.0371 43.333C25.5606 43.7642 26.2178 44 26.896 44C27.5743 44 28.2315 43.7642 28.755 43.333C29.2786 42.9019 29.636 42.3021 29.766 41.6364H37.6089C37.7389 42.3021 38.0963 42.9019 38.6199 43.333C39.1435 43.7642 39.8006 44 40.4789 44C41.1571 44 41.8143 43.7642 42.3379 43.333C42.8614 42.9019 43.2188 42.3021 43.3489 41.6364H43.9086C44.4152 41.6358 44.9008 41.4344 45.2589 41.0762C45.6171 40.7181 45.8185 40.2325 45.8191 39.726V34.9232C45.8189 34.8977 45.817 34.8723 45.8133 34.8471C45.8127 34.8423 45.8119 34.8377 45.8112 34.8329ZM40.7828 31.2508C40.8926 31.2509 41.0012 31.2738 41.1018 31.318C41.2023 31.3621 41.2926 31.4267 41.367 31.5075L43.989 34.3644H37.0185V31.2508H40.7828ZM17.4234 41.6764L6.80767 34.4359C3.56355 32.2245 1.11754 27.5978 1.11754 23.6744V9.16773L17.4249 1.18087L33.7292 9.18896V23.6744C33.7207 24.6391 33.5889 25.5987 33.3369 26.53H30.1353C30.4925 25.5529 30.684 24.523 30.702 23.4827V11.5817C30.702 11.4773 30.6728 11.3749 30.6175 11.2863C30.5623 11.1976 30.4833 11.1262 30.3896 11.0802L17.6697 4.8327C17.5931 4.79514 17.5089 4.77562 17.4236 4.77562C17.3383 4.77562 17.2542 4.79514 17.1776 4.8327L4.45768 11.063C4.36377 11.109 4.28466 11.1804 4.22932 11.2691C4.17399 11.3578 4.14466 11.4603 4.14467 11.5648V23.4827C4.14467 26.4732 6.15624 30.2775 8.62852 31.9631L17.1085 37.7464C17.2013 37.8097 17.311 37.8435 17.4234 37.8435C17.5357 37.8435 17.6454 37.8097 17.7382 37.7464L20.9307 35.5691V39.2841L17.4234 41.6764ZM20.9307 28.4404V34.2165L17.4234 36.6085L9.25816 31.0394C7.09209 29.5628 5.26221 26.1023 5.26221 23.4827V11.9125L17.423 5.95657L29.5845 11.9298V23.4827C29.5845 24.4104 29.3626 25.4618 28.9432 26.53H22.8411C22.3346 26.5306 21.849 26.7321 21.4909 27.0902C21.1327 27.4483 20.9313 27.9339 20.9307 28.4404ZM22.0482 39.726V28.4404C22.0484 28.2302 22.1321 28.0287 22.2807 27.88C22.4293 27.7314 22.6309 27.6478 22.8411 27.6475H35.1084C35.3186 27.6478 35.5201 27.7314 35.6687 27.8801C35.8174 28.0287 35.901 28.2302 35.9012 28.4404V40.5192H29.766C29.636 39.8535 29.2786 39.2537 28.755 38.8225C28.2315 38.3913 27.5743 38.1556 26.896 38.1556C26.2178 38.1556 25.5606 38.3913 25.0371 38.8225C24.5135 39.2537 24.1561 39.8535 24.0261 40.5192H22.8411C22.6308 40.5189 22.4293 40.4353 22.2806 40.2866C22.132 40.1378 22.0484 39.9362 22.0482 39.726ZM26.8961 42.8842C26.5388 42.8842 26.1894 42.7783 25.8923 42.5798C25.5952 42.3812 25.3637 42.0991 25.2269 41.7689C25.0902 41.4388 25.0544 41.0756 25.1241 40.7251C25.1938 40.3746 25.3659 40.0527 25.6186 39.8C25.8712 39.5474 26.1932 39.3753 26.5436 39.3056C26.8941 39.2359 27.2573 39.2716 27.5875 39.4084C27.9176 39.5451 28.1998 39.7767 28.3983 40.0738C28.5968 40.3709 28.7028 40.7202 28.7028 41.0776C28.7023 41.5566 28.5117 42.0158 28.173 42.3545C27.8343 42.6932 27.3751 42.8837 26.8961 42.8842ZM40.4788 42.8842C40.1215 42.8842 39.7722 42.7783 39.4751 42.5798C39.178 42.3812 38.9464 42.0991 38.8097 41.7689C38.6729 41.4388 38.6371 41.0756 38.7069 40.7251C38.7766 40.3746 38.9486 40.0527 39.2013 39.8C39.454 39.5474 39.7759 39.3753 40.1264 39.3056C40.4768 39.2359 40.8401 39.2716 41.1702 39.4084C41.5004 39.5451 41.7825 39.7767 41.981 40.0738C42.1796 40.3709 42.2855 40.7202 42.2855 41.0776C42.285 41.5566 42.0945 42.0158 41.7558 42.3545C41.4171 42.6932 40.9578 42.8837 40.4788 42.8842ZM44.7015 39.726C44.7013 39.9362 44.6177 40.1377 44.469 40.2864C44.3204 40.435 44.1189 40.5186 43.9086 40.5189H43.3489C43.2188 39.8532 42.8614 39.2534 42.3379 38.8223C41.8143 38.3911 41.1571 38.1553 40.4789 38.1553C39.8006 38.1553 39.1435 38.3911 38.6199 38.8223C38.0963 39.2534 37.7389 39.8532 37.6089 40.5189H37.0185V35.4819H44.7015V39.726Z" fill="#3C4047"/>
<path d="M21.3618 18.3112L16.1235 23.1092L13.5179 20.2838C13.4683 20.2291 13.4084 20.1847 13.3416 20.1533C13.2749 20.1219 13.2025 20.104 13.1288 20.1007C13.0551 20.0974 12.9814 20.1087 12.9121 20.134C12.8428 20.1593 12.7791 20.1981 12.7249 20.2481C12.6706 20.2982 12.6268 20.3584 12.596 20.4255C12.5652 20.4926 12.5479 20.5651 12.5453 20.6388C12.5426 20.7126 12.5546 20.7861 12.5806 20.8552C12.6065 20.9243 12.6458 20.9876 12.6964 21.0414L15.6795 24.2762C15.7798 24.3849 15.919 24.4494 16.0667 24.4557C16.2145 24.4619 16.3587 24.4093 16.4677 24.3094L22.1167 19.1352C22.1713 19.0858 22.2156 19.0261 22.2471 18.9595C22.2785 18.8928 22.2965 18.8207 22.2999 18.7471C22.3034 18.6735 22.2923 18.5999 22.2672 18.5306C22.2421 18.4614 22.2036 18.3977 22.1538 18.3434C22.104 18.2891 22.044 18.2452 21.9772 18.2141C21.9104 18.1831 21.8381 18.1656 21.7645 18.1626C21.6909 18.1596 21.6174 18.1712 21.5483 18.1967C21.4792 18.2222 21.4158 18.2611 21.3618 18.3112Z" fill="#3C4047"/>
</svg>
