<svg width="44" height="46" viewBox="0 0 44 46" fill="none" xmlns="http://www.w3.org/2000/svg">
<path d="M5.13867 29.6671L9.99954 33.0162C10.01 33.0234 10.0207 33.0303 10.0316 33.0368C10.3703 33.2387 10.6199 33.5615 10.7302 33.9402L11.5442 37.5521C11.5651 37.6435 11.6076 37.7286 11.6681 37.8003L10.7255 38.522C10.6531 38.5773 10.5945 38.6486 10.5541 38.7303C10.5137 38.812 10.4928 38.9019 10.4928 38.993V44.6843C10.4927 44.7915 10.5218 44.8966 10.5767 44.9886C10.6317 45.0806 10.7106 45.156 10.8049 45.2067C10.8993 45.2575 11.0057 45.2817 11.1127 45.2769C11.2198 45.272 11.3235 45.2383 11.4129 45.1792L20.413 39.2327C20.4948 39.1786 20.562 39.1051 20.6084 39.0187C20.6548 38.9324 20.6791 38.8358 20.6791 38.7378V32.1054C20.6791 31.9948 20.6482 31.8864 20.5898 31.7924C20.5314 31.6984 20.4479 31.6227 20.3487 31.5737C20.2495 31.5247 20.1386 31.5044 20.0285 31.5151C19.9183 31.5258 19.8134 31.5672 19.7256 31.6344L18.7574 32.3752C18.7253 32.2217 18.7045 32.066 18.6952 31.9094L18.6206 30.6243C18.6197 30.608 18.6181 30.5918 18.6159 30.5757C18.4385 29.2973 17.9108 28.0928 17.0911 27.0958C16.2715 26.0987 15.1919 25.348 13.9719 24.9266L13.5539 24.781C12.9848 24.5821 12.4676 24.2578 12.0408 23.832L10.0217 21.8129L9.33175 19.4782C9.16347 18.8552 8.81237 18.2968 8.32375 17.8752C7.83513 17.4535 7.23139 17.1879 6.5904 17.1127L6.48917 16.7756C6.48769 16.771 6.48621 16.7658 6.48463 16.7615C6.15661 15.759 5.08083 15.1083 3.97154 15.1582L3.95226 15.0938C3.73815 14.3738 3.25452 13.7643 2.60213 13.3921C1.94974 13.0199 1.1789 12.9137 0.450197 13.0957C0.303469 13.1322 0.176193 13.2233 0.0943733 13.3504C0.0125536 13.4775 -0.0176335 13.6311 0.00997937 13.7797L2.23598 25.7575C2.24105 25.7852 2.24812 25.8124 2.25713 25.839C2.78465 27.3898 3.79436 28.7312 5.13867 29.6671ZM19.4929 38.4188L11.6793 43.5816V39.2857L19.493 33.3062L19.4929 38.4188ZM8.18747 19.7917C8.18885 19.7969 8.19033 19.8016 8.19182 19.8072L8.37797 20.4373C8.09955 20.3016 7.80415 20.204 7.49971 20.1471L6.98485 18.4291C7.27699 18.5478 7.53763 18.7326 7.7463 18.9691C7.95496 19.2055 8.10597 19.4871 8.18747 19.7917ZM5.35546 17.1244L6.25923 20.1396C6.00785 20.1832 5.76207 20.2545 5.52639 20.3522L5.50662 20.2889L4.33198 16.3618C4.80175 16.438 5.2223 16.7271 5.35546 17.1244ZM1.29514 14.2009C1.64339 14.229 1.97498 14.3618 2.24639 14.5818C2.5178 14.8018 2.71636 15.0988 2.81598 15.4336L4.37192 20.6346L4.49164 21.0216C4.46386 21.0476 4.43588 21.0732 4.40879 21.1007C4.35215 21.1574 4.30759 21.225 4.27779 21.2994C4.248 21.3738 4.23359 21.4535 4.23544 21.5336C4.23729 21.6137 4.25535 21.6926 4.28855 21.7656C4.32174 21.8385 4.36937 21.904 4.42856 21.958L6.86385 24.1823C7.56979 24.8274 8.2154 25.5355 8.79268 26.2979C8.88805 26.4221 9.02868 26.5036 9.18388 26.5245C9.33908 26.5454 9.49626 26.5041 9.62113 26.4096C9.746 26.3151 9.82843 26.1751 9.85043 26.02C9.87242 25.8649 9.83221 25.7075 9.73856 25.582C9.11767 24.7619 8.42324 24.0003 7.66391 23.3064L5.7508 21.5591C6.18397 21.3188 6.68354 21.226 7.17412 21.2945C7.66471 21.3631 8.11968 21.5893 8.4704 21.9391L11.2019 24.6706C11.7553 25.2227 12.4259 25.6433 13.1639 25.9012L13.5818 26.0468C14.5917 26.3957 15.4859 27.0163 16.1661 27.8403C16.8463 28.6644 17.2861 29.66 17.4373 30.7178L17.5104 31.9783C17.5335 32.3781 17.6117 32.7729 17.7428 33.1513L12.6467 37.0511L11.8831 33.6627C11.8808 33.6523 11.8782 33.642 11.8753 33.6317C11.6872 32.9625 11.2519 32.3897 10.6574 32.0293L5.81318 28.6913C4.69007 27.9089 3.84339 26.7911 3.3944 25.4981L1.29514 14.2009Z" fill="#3C4047"/>
<path d="M43.5502 13.0957C42.8216 12.9137 42.0507 13.0198 41.3984 13.392C40.746 13.7642 40.2623 14.3737 40.0482 15.0936L40.0284 15.1583C38.9196 15.1089 37.8436 15.7592 37.5154 16.7615C37.5138 16.7662 37.5123 16.7714 37.5109 16.7757L37.4099 17.1127C36.769 17.1879 36.1653 17.4535 35.6767 17.8751C35.1881 18.2967 34.837 18.855 34.6687 19.4781L33.9787 21.8127L31.9597 23.8318C31.5328 24.2576 31.0156 24.5819 30.4464 24.7808L30.0285 24.9263C28.8086 25.3476 27.729 26.0984 26.9093 27.0955C26.0897 28.0925 25.5619 29.297 25.3846 30.5754C25.3823 30.5915 25.3807 30.6078 25.3798 30.624L25.3052 31.9091C25.296 32.0657 25.2752 32.2214 25.243 32.375L24.2749 31.6341C24.187 31.5669 24.0821 31.5256 23.972 31.5148C23.8619 31.5041 23.7509 31.5244 23.6517 31.5734C23.5525 31.6224 23.469 31.6981 23.4106 31.7921C23.3522 31.8861 23.3213 31.9945 23.3213 32.1052V38.7375C23.3213 38.8356 23.3456 38.9321 23.392 39.0184C23.4385 39.1048 23.5056 39.1783 23.5874 39.2324L32.5875 45.1789C32.6769 45.238 32.7806 45.2718 32.8876 45.2767C32.9947 45.2815 33.101 45.2573 33.1954 45.2066C33.2898 45.1559 33.3687 45.0805 33.4237 44.9886C33.4787 44.8966 33.5077 44.7915 33.5078 44.6843V38.9927C33.5078 38.9016 33.4868 38.8117 33.4464 38.73C33.4061 38.6483 33.3474 38.577 33.2751 38.5217L32.3324 37.8C32.3929 37.7283 32.4354 37.6432 32.4563 37.5518L33.2705 33.9402C33.3808 33.5616 33.6304 33.2388 33.9691 33.0368C33.9799 33.0303 33.9906 33.0235 34.0011 33.0162L38.8633 29.6661C40.207 28.7303 41.2162 27.3893 41.7435 25.839C41.7525 25.8124 41.7596 25.7852 41.7646 25.7576L43.9904 13.7797C44.018 13.6311 43.9878 13.4776 43.906 13.3504C43.8242 13.2233 43.6969 13.1322 43.5502 13.0957ZM38.6453 17.1244C38.7784 16.7275 39.1989 16.4382 39.6687 16.3619L38.4956 20.2839L38.4743 20.3526C38.2386 20.2549 37.9929 20.1836 37.7415 20.1399L38.6453 17.1244ZM35.8133 19.7917C35.8948 19.4871 36.0458 19.2055 36.2544 18.9691C36.4631 18.7326 36.7237 18.5478 37.0159 18.4291L36.5009 20.1471C36.1965 20.2041 35.9011 20.3017 35.6227 20.4373L35.8089 19.8073C35.8104 19.8016 35.8119 19.7966 35.8133 19.7917ZM32.3215 43.5816L24.5077 38.4188V33.3062L32.3215 39.2858V43.5816ZM40.6058 25.4985C40.157 26.7909 39.3109 27.9081 38.1884 28.6903L33.3423 32.0292C32.748 32.3898 32.3128 32.9627 32.1249 33.6319C32.1221 33.6418 32.1194 33.6525 32.1171 33.6629L31.3536 37.0513L26.2574 33.1515C26.3885 32.7731 26.4667 32.3784 26.4898 31.9785L26.563 30.718C26.7141 29.6602 27.1539 28.6646 27.8341 27.8405C28.5143 27.0164 29.4085 26.3958 30.4184 26.0469L30.8367 25.9012C31.5747 25.6433 32.2453 25.2227 32.7989 24.6706L35.5303 21.9391C35.8811 21.5894 36.3361 21.3632 36.8266 21.2947C37.3172 21.2261 37.8167 21.319 38.2499 21.5591L36.3372 23.3063C35.5779 24.0001 34.8835 24.7618 34.2626 25.5819C34.2149 25.6439 34.18 25.7148 34.1599 25.7904C34.1397 25.866 34.1348 25.9448 34.1452 26.0224C34.1557 26.0999 34.1814 26.1746 34.2208 26.2422C34.2603 26.3097 34.3127 26.3688 34.3751 26.4161C34.4374 26.4633 34.5086 26.4977 34.5843 26.5173C34.66 26.5369 34.7389 26.5414 34.8164 26.5304C34.8938 26.5194 34.9683 26.4932 35.0356 26.4533C35.1029 26.4134 35.1617 26.3605 35.2084 26.2978C35.7857 25.5354 36.4313 24.8273 37.1373 24.1822L39.5726 21.9579C39.6318 21.9039 39.6794 21.8384 39.7126 21.7655C39.7458 21.6925 39.7638 21.6136 39.7657 21.5335C39.7675 21.4534 39.7531 21.3737 39.7233 21.2993C39.6935 21.2249 39.649 21.1573 39.5923 21.1006C39.5652 21.0734 39.5373 21.0478 39.5095 21.0215L39.6309 20.6291L41.1851 15.4334C41.2848 15.0985 41.4833 14.8016 41.7547 14.5816C42.0262 14.3617 42.3578 14.2289 42.706 14.2008L40.6058 25.4985Z" fill="#3C4047"/>
<path d="M27.0029 10.4472H24.0231V7.46718C24.0231 7.30986 23.9606 7.15899 23.8494 7.04775C23.7382 6.93652 23.5873 6.87402 23.43 6.87402H20.5714C20.4141 6.87402 20.2632 6.93652 20.152 7.04775C20.0407 7.15899 19.9782 7.30986 19.9782 7.46718V10.4472H16.9984C16.8411 10.4472 16.6902 10.5097 16.579 10.6209C16.4678 10.7321 16.4053 10.883 16.4053 11.0403V13.8987C16.4053 14.056 16.4678 14.2069 16.579 14.3181C16.6902 14.4294 16.8411 14.4919 16.9984 14.4919H19.9783V17.4718C19.9783 17.6291 20.0408 17.78 20.1521 17.8912C20.2633 18.0024 20.4142 18.0649 20.5715 18.0649H23.4301C23.5874 18.0649 23.7383 18.0024 23.8495 17.8912C23.9607 17.78 24.0232 17.6291 24.0232 17.4718V14.4919H27.0029C27.1602 14.4919 27.3111 14.4294 27.4223 14.3181C27.5336 14.2069 27.5961 14.056 27.5961 13.8987V11.0403C27.5961 10.883 27.5336 10.7321 27.4223 10.6209C27.3111 10.5097 27.1602 10.4472 27.0029 10.4472ZM26.4098 13.3056H23.43C23.2727 13.3056 23.1218 13.3681 23.0105 13.4793C22.8993 13.5905 22.8368 13.7414 22.8368 13.8987V16.8786H21.1645V13.8987C21.1645 13.7414 21.102 13.5905 20.9908 13.4793C20.8796 13.3681 20.7287 13.3056 20.5714 13.3056H17.5916V11.6335H20.5715C20.7288 11.6335 20.8797 11.571 20.9909 11.4597C21.1021 11.3485 21.1646 11.1976 21.1646 11.0403V8.06033H22.8369V11.0403C22.8369 11.1976 22.8994 11.3485 23.0106 11.4597C23.1219 11.571 23.2728 11.6335 23.4301 11.6335H26.4098V13.3056Z" fill="#3C4047"/>
<path d="M32.8783 12.5056V6.53851C32.8783 6.42261 32.8444 6.30924 32.7807 6.21242C32.717 6.1156 32.6263 6.03956 32.5198 5.9937L32.4519 5.96404C28.8671 4.42176 25.478 2.45958 22.3556 0.11863C22.2529 0.0416262 22.128 0 21.9997 0C21.8714 0 21.7465 0.0416262 21.6438 0.11863C18.5213 2.45981 15.1321 4.4222 11.5472 5.96463L11.4796 5.9937C11.3731 6.03956 11.2824 6.1156 11.2187 6.21242C11.155 6.30924 11.1211 6.42261 11.1211 6.53851V12.5056C11.1211 16.335 12.9525 19.6998 16.4174 22.2358C18.011 23.3994 19.7787 24.3036 21.6549 24.9148C21.7618 24.9461 21.8754 24.9466 21.9826 24.9163C23.9141 24.3093 25.7401 23.407 27.3957 22.2415C30.9824 19.7054 32.8783 16.3388 32.8783 12.5056ZM21.8241 23.7237C20.1436 23.1448 18.5579 22.3207 17.1185 21.2781C13.9263 18.9417 12.3077 15.9901 12.3077 12.5053V6.92801C15.7356 5.42735 18.9862 3.55055 21.9997 1.33212C25.0133 3.55054 28.264 5.42734 31.692 6.92801V12.5056C31.692 15.9762 30.0253 18.9194 26.7382 21.2534C25.2284 22.3104 23.5731 23.1425 21.8241 23.7237Z" fill="#3C4047"/>
</svg>
