<svg width="35" height="46" viewBox="0 0 35 46" fill="none" xmlns="http://www.w3.org/2000/svg">
<path d="M2.69687 40.4321C2.6987 40.8732 2.87518 41.2956 3.18768 41.6068C3.50019 41.918 3.92328 42.0928 4.36433 42.0928C5.10634 42.095 5.8414 41.9499 6.52692 41.6659C7.21244 41.382 7.83478 40.9648 8.35788 40.4385L8.36889 40.4276C8.73913 40.0581 9.20364 39.7971 9.71186 39.6731C10.4318 41.0476 11.5233 42.2838 12.9675 43.3408C14.2505 44.2775 15.6737 45.0052 17.1842 45.497C17.2955 45.5295 17.4136 45.5301 17.5251 45.4987C19.0796 45.0104 20.549 44.2845 21.8814 43.3467C23.3624 42.2997 24.4855 41.0761 25.2306 39.7162C25.6468 39.8484 26.0252 40.0783 26.3342 40.3867L26.3847 40.4373C26.9071 40.9631 27.5286 41.3801 28.2131 41.6643C28.8977 41.9485 29.6318 42.0943 30.373 42.0931H30.3751C30.8154 42.0945 31.2384 41.9216 31.5517 41.6122C31.865 41.3028 32.0432 40.8819 32.0472 40.4416C32.0502 39.4856 31.8105 38.5445 31.3508 37.7064C31.3486 37.7004 31.3481 37.694 31.3493 37.6878C31.3505 37.6816 31.3534 37.6758 31.3576 37.6711L31.3614 37.6664C34.6833 33.4881 35.7998 28.1574 34.4246 23.0407C33.1518 18.306 29.9218 14.3524 25.6522 12.2159C26.3032 11.8375 26.6248 11.3923 26.6248 10.8701V9.45175C26.6248 9.44393 26.6239 9.43632 26.6236 9.4285C26.6236 9.4176 26.6248 9.4068 26.6248 9.3958C26.6248 8.80196 26.1587 8.2111 23.1302 7.83849C23.6592 7.33797 24.0987 6.75064 24.4296 6.10192L26.3014 2.43984C26.3615 2.32242 26.3824 2.18883 26.361 2.05866C26.3396 1.9285 26.2771 1.80861 26.1826 1.71659C26.0881 1.62456 25.9665 1.56525 25.8359 1.54733C25.7052 1.52942 25.5722 1.55386 25.4564 1.61707C24.4741 2.153 23.2166 1.58539 22.3347 1.0148C21.501 0.466984 20.547 0.129222 19.5544 0.0303919C18.5617 -0.0684381 17.5599 0.0746038 16.6346 0.447287C15.1536 1.05707 14.4228 2.02599 14.157 2.45681C11.3789 3.70301 9.8108 1.85814 9.73912 1.77082C9.64584 1.65544 9.51411 1.57752 9.36806 1.55135C9.22202 1.52517 9.07143 1.5525 8.94389 1.62832C8.81635 1.70414 8.7204 1.82337 8.67361 1.96418C8.62683 2.10499 8.63234 2.25793 8.68915 2.395L10.0341 5.64147C10.3849 6.49014 10.9153 7.25282 11.5887 7.87716C8.81565 8.25399 8.38596 8.82428 8.38596 9.39539C8.38596 9.40639 8.38678 9.41719 8.38709 9.42809C8.38709 9.43591 8.38596 9.44352 8.38596 9.45134V10.8696C8.38596 11.413 8.75682 11.8551 9.36486 12.2124C5.11121 14.3383 1.88191 18.2684 0.594168 22.9723C-0.79221 28.0363 0.274108 33.3305 3.51502 37.4953C2.97774 38.3806 2.69468 39.3966 2.69687 40.4321ZM21.1975 42.3191C20.0181 43.1454 18.7262 43.7982 17.3613 44.2573C16.2364 43.875 9.92342 41.4599 9.92342 35.4729V31.1244C12.5997 29.9453 15.14 28.4791 17.4997 26.7515C19.8596 28.479 22.4 29.9452 25.0763 31.1244V35.4729C25.0835 36.584 24.8446 37.6829 24.3769 38.6907C24.3555 38.7265 24.3377 38.7645 24.3239 38.8039C23.6856 40.1169 22.6413 41.2925 21.1975 42.3191ZM9.62002 10.8549V10.5143C10.2043 10.6832 10.8007 10.8072 11.4039 10.8852C13.0386 11.1242 15.2054 11.2555 17.5055 11.2555C19.8056 11.2555 21.9724 11.1238 23.6069 10.8852C24.2102 10.8072 24.8066 10.6832 25.391 10.5143V10.8537C25.3641 10.9014 25.1375 11.2342 23.9125 11.6024C23.9063 11.6042 23.9001 11.6057 23.8942 11.6076C22.3263 12.076 19.9994 12.3445 17.5055 12.3445C15.4134 12.3445 13.4194 12.1543 11.8906 11.8087C10.2114 11.429 9.68245 10.9903 9.62002 10.8549ZM21.6642 2.05119C22.7153 2.73111 23.7046 3.07184 24.5946 3.06711L23.3312 5.54027C22.8601 6.46631 22.118 7.22686 21.2039 7.72063C21.1657 7.73595 21.1292 7.75511 21.095 7.77781C20.6017 8.02853 20.0709 8.19738 19.5234 8.27775L20.5375 2.95027C20.5585 2.83996 20.549 2.726 20.51 2.62068C20.4711 2.51537 20.4041 2.42269 20.3163 2.35263C20.2511 2.30059 19.1216 1.42855 17.1439 1.57459C17.8806 1.28671 18.6755 1.17975 19.4621 1.26269C20.2486 1.34564 21.0038 1.61607 21.6642 2.05129V2.05119ZM11.1738 5.1692L10.6135 3.81573C11.5621 4.17899 13.0037 4.37285 14.8035 3.51871C14.8396 3.50567 14.8743 3.48931 14.9074 3.46986C17.1564 2.39223 18.6425 2.84516 19.2445 3.13951L18.256 8.33329H15.9094C15.1109 8.33397 14.3232 8.14808 13.6091 7.79046C13.5806 7.77287 13.5507 7.75767 13.5197 7.745C12.4607 7.18731 11.6308 6.27583 11.1747 5.1693L11.1738 5.1692ZM13.161 8.94625C14.0192 9.35599 14.9582 9.56815 15.9091 9.56714H18.7663C19.7363 9.56836 20.6937 9.34779 21.5654 8.92229C23.2042 9.05476 24.2234 9.2405 24.8125 9.39724C23.6856 9.69138 21.2301 10.0216 17.5052 10.0216C13.7803 10.0216 11.3264 9.69159 10.1989 9.39755C10.753 9.25037 11.6872 9.07697 13.1613 8.94636L13.161 8.94625ZM1.78472 23.2983C3.08276 18.5571 6.50386 14.6653 10.9564 12.8467C12.9124 13.395 15.5857 13.5785 17.5058 13.5785C18.9653 13.5835 20.4234 13.4863 21.8694 13.2877C21.1391 14.4159 20.6231 15.6691 20.3473 16.9844C20.3301 17.0638 20.3288 17.1459 20.3434 17.2258C20.358 17.3058 20.3883 17.3821 20.4325 17.4503C20.4767 17.5186 20.534 17.5774 20.601 17.6234C20.6679 17.6694 20.7434 17.7018 20.8229 17.7186C20.9025 17.7354 20.9845 17.7363 21.0644 17.7213C21.1443 17.7062 21.2205 17.6756 21.2885 17.6311C21.3565 17.5865 21.415 17.529 21.4607 17.4618C21.5064 17.3945 21.5384 17.3189 21.5548 17.2393C21.8405 15.8768 22.4157 14.5915 23.2415 13.4707L23.4902 13.8313L23.5037 13.8542C24.5524 15.6493 25.3162 17.5963 25.7678 19.6256C25.7988 19.7619 25.8752 19.8836 25.9844 19.9709C26.0936 20.0581 26.2292 20.1057 26.369 20.1059C26.4152 20.1058 26.4613 20.1007 26.5064 20.0904C26.5854 20.0725 26.6601 20.0391 26.7262 19.9923C26.7924 19.9454 26.8486 19.886 26.8918 19.8174C26.935 19.7488 26.9642 19.6724 26.9778 19.5925C26.9915 19.5126 26.9892 19.4308 26.9712 19.3518C26.4914 17.1984 25.6804 15.1326 24.5671 13.2279L24.541 13.1837C24.5339 13.1717 24.5263 13.1599 24.5183 13.1484L24.4155 12.9988C28.7105 14.8847 31.985 18.7165 33.2337 23.3608C34.5059 28.0935 33.4727 33.026 30.3986 36.8954L30.3936 36.9016C30.2369 37.0966 30.1416 37.3337 30.1196 37.5828C30.0976 37.832 30.15 38.0821 30.2702 38.3015C30.6291 38.9562 30.8162 39.6913 30.8137 40.438C30.8111 40.5518 30.7636 40.6599 30.6815 40.7388C30.5995 40.8176 30.4896 40.8608 30.3758 40.859C29.7967 40.8599 29.2231 40.7461 28.6882 40.5241C28.1533 40.3021 27.6677 39.9763 27.2595 39.5656L27.2092 39.5152C26.7968 39.1034 26.2988 38.7874 25.7506 38.5895C26.1249 37.5933 26.3148 36.5374 26.3113 35.4733V30.7197C26.3113 30.599 26.2759 30.4809 26.2094 30.3801C26.143 30.2793 26.0485 30.2002 25.9375 30.1526L25.8841 30.1296C23.0386 28.9055 20.3484 27.348 17.87 25.4898C17.7632 25.4097 17.6333 25.3664 17.4997 25.3664C17.3662 25.3664 17.2363 25.4097 17.1295 25.4898C14.6514 27.3478 11.9617 28.9053 9.11658 30.1294L9.06279 30.1526C8.95185 30.2002 8.85732 30.2793 8.79088 30.3801C8.72445 30.4809 8.68904 30.599 8.68905 30.7197V35.4729C8.68529 36.5143 8.86148 37.5485 9.20986 38.53C8.56308 38.7249 7.97458 39.0768 7.49685 39.5543L7.48656 39.5646C7.07769 39.9761 6.5912 40.3024 6.0553 40.5245C5.51939 40.7465 4.94474 40.86 4.36464 40.8583C4.30793 40.8592 4.25162 40.8488 4.19899 40.8277C4.14636 40.8065 4.09847 40.7751 4.05814 40.7352C4.0178 40.6954 3.98582 40.6478 3.96406 40.5955C3.94231 40.5431 3.93122 40.4869 3.93145 40.4302C3.92962 39.6132 4.15506 38.8118 4.58257 38.1155C4.70945 37.9083 4.77006 37.6673 4.75632 37.4247C4.74257 37.1821 4.65512 36.9495 4.50564 36.7579C1.49182 32.8958 0.500062 27.9898 1.78472 23.2983Z" fill="#3C4047"/>
<path d="M20.0116 32.9597L16.3511 36.6202L14.9869 35.2563C14.8707 35.1432 14.7146 35.0803 14.5524 35.0814C14.3902 35.0825 14.2349 35.1474 14.1202 35.2621C14.0055 35.3768 13.9406 35.5321 13.9395 35.6943C13.9384 35.8565 14.0012 36.0126 14.1143 36.1289L15.9148 37.9294C16.0306 38.0451 16.1875 38.1101 16.3512 38.1101C16.5148 38.1101 16.6718 38.0451 16.7875 37.9294L20.8843 33.8326C20.9974 33.7163 21.0602 33.5602 21.0591 33.398C21.058 33.2358 20.9931 33.0806 20.8784 32.9659C20.7637 32.8512 20.6084 32.7863 20.4462 32.7852C20.284 32.7841 20.1279 32.8469 20.0116 32.96V32.9597Z" fill="#3C4047"/>
</svg>
