<svg width="27" height="27" viewBox="0 0 27 27" fill="none" xmlns="http://www.w3.org/2000/svg">
<path d="M13.77 26.69C20.8947 26.69 26.69 20.8947 26.69 13.77C26.69 6.64535 20.8947 0.849988 13.77 0.849988C6.64535 0.849987 0.849991 6.64535 0.84999 13.77C0.849989 20.8947 6.64535 26.69 13.77 26.69ZM13.77 2.21414C20.1418 2.21414 25.3259 7.39821 25.3259 13.77C25.3259 20.1418 20.1418 25.3259 13.77 25.3259C7.39821 25.3259 2.21414 20.1418 2.21414 13.77C2.21414 7.3982 7.39821 2.21414 13.77 2.21414Z" fill="#3C4047" stroke="#3C4047" stroke-width="0.3"/>
<path d="M11.1591 7.43508L11.1591 7.4351C10.8926 7.70153 10.8926 8.13322 11.1591 8.39962C11.1591 8.39962 11.1591 8.39963 11.1591 8.39963L16.5297 13.7702L11.1591 19.1409C10.8927 19.4073 10.8927 19.839 11.1591 20.1054C11.4255 20.3719 11.8572 20.3719 12.1236 20.1054C12.1236 20.1054 12.1236 20.1054 12.1236 20.1054L17.9765 14.2525C18.243 13.9861 18.243 13.5544 17.9765 13.288C17.9765 13.288 17.9765 13.288 17.9765 13.288L12.1236 7.4351C11.9905 7.30196 11.8157 7.23528 11.6413 7.23528C11.467 7.23528 11.2923 7.30197 11.1591 7.43508Z" fill="#3C4047" stroke="#3C4047" stroke-width="0.3"/>
</svg>
