<svg width="20" height="19" viewBox="0 0 20 19" fill="none" xmlns="http://www.w3.org/2000/svg">
<path d="M10.3004 18.722C15.3932 18.722 19.5357 14.5795 19.5357 9.48668C19.5357 4.39388 15.3932 0.251341 10.3004 0.25134C5.2076 0.25134 1.06506 4.39387 1.06506 9.48668C1.06506 14.5795 5.2076 18.722 10.3004 18.722ZM10.3004 1.30844C14.8098 1.30844 18.4786 4.97731 18.4786 9.48668C18.4786 13.9961 14.8098 17.6649 10.3004 17.6649C5.79103 17.6649 2.12216 13.9961 2.12216 9.48668C2.12216 4.97731 5.79103 1.30844 10.3004 1.30844Z" fill="white" stroke="white" stroke-width="0.3"/>
<path d="M8.41175 14.0244C8.61821 14.2309 8.95274 14.2309 9.15917 14.0244L9.15917 14.0244L9.15919 14.0244L13.3233 9.86035C13.5297 9.65389 13.5298 9.31936 13.3233 9.11292L13.3233 9.11292L13.3233 9.11291L9.15918 4.94882C9.05601 4.84566 8.92048 4.79398 8.78545 4.79398C8.65039 4.79398 8.51492 4.84567 8.41174 4.9488L8.41172 4.94882C8.20527 5.15527 8.20524 5.4898 8.41172 5.69624C8.41172 5.69625 8.41173 5.69625 8.41173 5.69626L12.2021 9.48662L8.41172 13.277C8.20528 13.4835 8.2053 13.818 8.41175 14.0244Z" fill="white" stroke="white" stroke-width="0.3"/>
</svg>
