<svg width="230" height="71" viewBox="0 0 230 71" fill="none" xmlns="http://www.w3.org/2000/svg">
<path d="M63.595 29.7037L67.375 30.0829C68.8713 30.2317 70 31.48 70 32.9821V37.6342C70 39.1392 68.8713 40.3875 67.375 40.5421L63.595 40.9212C63.3413 42.2308 63 43.5171 62.5742 44.7596L65.6542 46.9733C66.8733 47.8512 67.2292 49.4962 66.4767 50.8L64.1521 54.8279C63.4025 56.1317 61.7983 56.645 60.4275 56.0296L56.9771 54.4721C56.105 55.4725 55.16 56.4175 54.1596 57.2896L55.7171 60.7371C56.3354 62.1079 55.8162 63.7092 54.5154 64.4617L50.4875 66.7862C49.1779 67.5358 47.5388 67.1829 46.6608 65.9637L44.4471 62.8837C43.2046 63.3067 41.9183 63.6508 40.6088 63.9046L40.2296 67.6846C40.0808 69.1808 38.8325 70.3096 37.3275 70.3096H32.6754C31.1704 70.3096 29.9221 69.1808 29.7675 67.6846L29.3883 63.9046C28.0788 63.6508 26.7925 63.3096 25.55 62.8837L23.3363 65.9637C22.4613 67.1858 20.8162 67.5417 19.5096 66.7862L15.4817 64.4617C14.1808 63.7092 13.6646 62.1079 14.28 60.7371L15.8375 57.2867C14.8371 56.4146 13.8921 55.4696 13.02 54.4692L9.5725 56.0267C8.20458 56.6479 6.60042 56.1287 5.84792 54.825L3.52333 50.7971C2.77083 49.4933 3.12667 47.8483 4.34583 46.9704L7.42583 44.7567C7.00292 43.5142 6.65875 42.2279 6.405 40.9183L2.625 40.5392C1.12875 40.3904 0 39.1421 0 37.6371V32.985C0 31.48 1.12875 30.2317 2.62792 30.08L6.40792 29.7008C6.66167 28.3912 7.00292 27.105 7.42875 25.8625L4.34875 23.6487C3.12958 22.7737 2.77375 21.1287 3.52625 19.8221L5.85083 15.7971C6.60333 14.4933 8.20458 13.9771 9.57542 14.5925L13.0258 16.1529C13.8979 15.1496 14.84 14.2075 15.8433 13.3354L14.2858 9.8879C13.6675 8.51415 14.1838 6.9129 15.4875 6.1604L19.5125 3.83582C20.8192 3.08332 22.4642 3.43915 23.3392 4.65832L25.5529 7.7354C26.7954 7.31249 28.0817 6.96832 29.3913 6.71457L29.7704 2.93457C29.9192 1.43832 31.1675 0.30957 32.6725 0.30957H37.3246C38.8296 0.30957 40.0779 1.43832 40.2296 2.93749L40.6088 6.71749C41.9183 6.97124 43.2046 7.31249 44.4471 7.73832L46.6608 4.65832C47.5388 3.43915 49.1808 3.08332 50.4875 3.83582L54.5154 6.1604C55.8162 6.9129 56.3325 8.51415 55.7171 9.88499L54.1596 13.3354C55.16 14.2075 56.105 15.1525 56.9771 16.1529L60.4246 14.5954C61.7983 13.98 63.3996 14.4962 64.1492 15.7971L66.4767 19.825C67.2292 21.1287 66.8733 22.7737 65.6542 23.6517L62.5742 25.8654C62.9971 27.1079 63.3413 28.3942 63.595 29.7037Z" fill="white"/>
<path d="M63.595 29.7037L67.375 30.0829C68.8713 30.2317 70 31.48 70 32.9821V37.6342C70 39.1392 68.8713 40.3875 67.375 40.5421L63.595 40.9212C63.3413 42.2308 63 43.5171 62.5742 44.7596L65.6542 46.9733C66.8733 47.8512 67.2292 49.4962 66.4767 50.8L64.1521 54.8279C63.4025 56.1317 61.7983 56.645 60.4275 56.0296L56.9771 54.4721C56.105 55.4725 55.16 56.4175 54.1596 57.2896L55.7171 60.7371C56.3354 62.1079 55.8162 63.7092 54.5154 64.4617L50.4875 66.7862C49.1779 67.5358 47.5388 67.1829 46.6608 65.9637L44.4471 62.8837C43.2046 63.3067 41.9183 63.6508 40.6088 63.9046L40.2296 67.6846C40.0808 69.1808 38.8325 70.3096 37.3275 70.3096H32.6754C31.1704 70.3096 29.9221 69.1808 29.7675 67.6846L29.3883 63.9046C28.0788 63.6508 26.7925 63.3096 25.55 62.8837L23.3363 65.9637C22.4613 67.1858 20.8162 67.5417 19.5096 66.7862L15.4817 64.4617C14.1808 63.7092 13.6646 62.1079 14.28 60.7371L15.8375 57.2867C14.8371 56.4146 13.8921 55.4696 13.02 54.4692L9.5725 56.0267C8.20458 56.6479 6.60042 56.1287 5.84792 54.825L3.52333 50.7971C2.77083 49.4933 3.12667 47.8483 4.34583 46.9704L7.42583 44.7567C7.00292 43.5142 6.65875 42.2279 6.405 40.9183L2.625 40.5392C1.12875 40.3904 0 39.1421 0 37.6371V32.985C0 31.48 1.12875 30.2317 2.62792 30.08L6.40792 29.7008C6.66167 28.3912 7.00292 27.105 7.42875 25.8625L4.34875 23.6487C3.12958 22.7737 2.77375 21.1287 3.52625 19.8221L5.85083 15.7971C6.60333 14.4933 8.20458 13.9771 9.57542 14.5925L13.0258 16.1529C13.8979 15.1496 14.84 14.2075 15.8433 13.3354L14.2858 9.8879C13.6675 8.51415 14.1838 6.9129 15.4875 6.1604L19.5125 3.83582C20.8192 3.08332 22.4642 3.43915 23.3392 4.65832L25.5529 7.7354C26.7954 7.31249 28.0817 6.96832 29.3913 6.71457L29.7704 2.93457C29.9192 1.43832 31.1675 0.30957 32.6725 0.30957H37.3246C38.8296 0.30957 40.0779 1.43832 40.2296 2.93749L40.6088 6.71749C41.9183 6.97124 43.2046 7.31249 44.4471 7.73832L46.6608 4.65832C47.5388 3.43915 49.1808 3.08332 50.4875 3.83582L54.5154 6.1604C55.8162 6.9129 56.3325 8.51415 55.7171 9.88499L54.1596 13.3354C55.16 14.2075 56.105 15.1525 56.9771 16.1529L60.4246 14.5954C61.7983 13.98 63.3996 14.4962 64.1492 15.7971L66.4767 19.825C67.2292 21.1287 66.8733 22.7737 65.6542 23.6517L62.5742 25.8654C62.9971 27.1079 63.3413 28.3942 63.595 29.7037Z" fill="white"/>
<circle cx="35.001" cy="35.3086" r="25.8398" fill="white"/>
<path d="M31.3076 32.6191C31.8599 32.6191 32.3076 32.1714 32.3076 31.6191L32.3076 22.6191C32.3076 22.0669 31.8599 21.6191 31.3076 21.6191C30.7553 21.6191 30.3076 22.0669 30.3076 22.6191L30.3076 30.6191L22.3076 30.6191C21.7553 30.6191 21.3076 31.0669 21.3076 31.6191C21.3076 32.1714 21.7553 32.6191 22.3076 32.6191L31.3076 32.6191ZM16.3818 18.1075L30.6005 32.3262L32.0147 30.912L17.796 16.6933L16.3818 18.1075Z" fill="#11D170"/>
<path d="M38.5547 32.6191C38.0024 32.6191 37.5547 32.1714 37.5547 31.6191L37.5547 22.6191C37.5547 22.0669 38.0024 21.6191 38.5547 21.6191C39.107 21.6191 39.5547 22.0669 39.5547 22.6191L39.5547 30.6191L47.5547 30.6191C48.107 30.6191 48.5547 31.0669 48.5547 31.6191C48.5547 32.1714 48.107 32.6191 47.5547 32.6191L38.5547 32.6191ZM53.4805 18.1075L39.2618 32.3262L37.8476 30.912L52.0663 16.6933L53.4805 18.1075Z" fill="#11D170"/>
<path d="M31.3076 37.7266C31.8599 37.7266 32.3076 38.1743 32.3076 38.7266L32.3076 47.7266C32.3076 48.2788 31.8599 48.7266 31.3076 48.7266C30.7553 48.7266 30.3076 48.2788 30.3076 47.7266L30.3076 39.7266L22.3076 39.7266C21.7553 39.7266 21.3076 39.2788 21.3076 38.7266C21.3076 38.1743 21.7553 37.7266 22.3076 37.7266L31.3076 37.7266ZM16.3818 52.2382L30.6005 38.0195L32.0147 39.4337L17.796 53.6524L16.3818 52.2382Z" fill="#11D170"/>
<path d="M38.5547 37.7266C38.0024 37.7266 37.5547 38.1743 37.5547 38.7266L37.5547 47.7266C37.5547 48.2788 38.0024 48.7266 38.5547 48.7266C39.107 48.7266 39.5547 48.2788 39.5547 47.7266L39.5547 39.7266L47.5547 39.7266C48.107 39.7266 48.5547 39.2788 48.5547 38.7266C48.5547 38.1743 48.107 37.7266 47.5547 37.7266L38.5547 37.7266ZM53.4805 52.2382L39.2618 38.0195L37.8476 39.4337L52.0663 53.6524L53.4805 52.2382Z" fill="#11D170"/>
<circle cx="35.001" cy="35.3086" r="25.0898" stroke="#11D170" stroke-width="1.5"/>
<path d="M84.9811 15.357C84.9811 13.837 85.4771 12.637 86.4691 11.757C87.4771 10.877 88.9331 10.437 90.8371 10.437C91.6851 10.437 92.5011 10.493 93.2851 10.605C94.0691 10.717 94.6371 10.829 94.9891 10.941L95.5411 11.109C95.5411 11.925 95.3171 12.565 94.8691 13.029C93.7811 12.677 92.5491 12.501 91.1731 12.501C88.6611 12.501 87.4051 13.413 87.4051 15.237C87.4051 15.445 87.4211 15.637 87.4531 15.813C87.5011 15.973 87.5811 16.133 87.6931 16.293C87.8051 16.437 87.9091 16.565 88.0051 16.677C88.1171 16.789 88.2691 16.901 88.4611 17.013C88.6691 17.125 88.8371 17.221 88.9651 17.301C89.1091 17.365 89.3171 17.453 89.5891 17.565C89.8771 17.661 90.0931 17.733 90.2371 17.781C90.3971 17.829 90.6451 17.909 90.9811 18.021C91.3171 18.117 91.5571 18.189 91.7011 18.237C92.3731 18.461 92.9251 18.685 93.3571 18.909C93.8051 19.133 94.2691 19.437 94.7491 19.821C95.2291 20.189 95.5891 20.653 95.8291 21.213C96.0691 21.773 96.1891 22.429 96.1891 23.181C96.1891 24.797 95.6691 26.037 94.6291 26.901C93.6051 27.765 92.1171 28.197 90.1651 28.197C89.2211 28.197 88.3171 28.117 87.4531 27.957C86.5891 27.781 85.9651 27.605 85.5811 27.429L84.9811 27.189C84.9491 26.517 85.1411 25.869 85.5571 25.245C87.0611 25.741 88.5571 25.989 90.0451 25.989C92.4771 25.989 93.6931 25.077 93.6931 23.253C93.6931 22.485 93.4371 21.901 92.9251 21.501C92.4131 21.101 91.6611 20.741 90.6691 20.421C90.5251 20.373 90.2131 20.277 89.7331 20.133C89.2531 19.973 88.9091 19.861 88.7011 19.797C88.5091 19.717 88.2051 19.589 87.7891 19.413C87.3731 19.237 87.0691 19.077 86.8771 18.933C86.6851 18.789 86.4371 18.589 86.1331 18.333C85.8451 18.077 85.6291 17.821 85.4851 17.565C85.3571 17.293 85.2371 16.973 85.1251 16.605C85.0291 16.221 84.9811 15.805 84.9811 15.357ZM103.593 10.845C103.993 10.733 104.473 10.677 105.033 10.677C105.305 10.677 105.561 10.693 105.801 10.725C106.041 10.757 106.209 10.789 106.305 10.821L106.473 10.845L112.497 27.789C112.209 27.901 111.769 27.957 111.177 27.957C110.937 27.957 110.713 27.941 110.505 27.909C110.313 27.877 110.177 27.845 110.097 27.813L109.977 27.789L108.489 23.565H101.385L99.8726 27.789C99.6006 27.901 99.2086 27.957 98.6966 27.957C98.4726 27.957 98.2646 27.941 98.0726 27.909C97.8966 27.877 97.7686 27.845 97.6886 27.813L97.5686 27.789L103.593 10.845ZM104.985 13.341H104.913C104.769 13.981 104.561 14.701 104.289 15.501L102.081 21.573H107.793L105.609 15.501L104.985 13.341ZM117.472 20.517V27.789C117.2 27.901 116.784 27.957 116.224 27.957C115.984 27.957 115.76 27.941 115.552 27.909C115.36 27.877 115.224 27.845 115.144 27.813L115.024 27.789V10.677H124.576C124.704 10.965 124.768 11.293 124.768 11.661C124.768 12.029 124.704 12.365 124.576 12.669H117.472V18.525H123.76C123.888 18.781 123.952 19.101 123.952 19.485C123.952 19.869 123.888 20.213 123.76 20.517H117.472ZM127.797 10.677H137.541C137.669 11.061 137.733 11.373 137.733 11.613C137.733 11.981 137.669 12.333 137.541 12.669H130.245V18.237H136.341C136.469 18.621 136.533 18.941 136.533 19.197C136.533 19.533 136.469 19.869 136.341 20.205H130.245V25.965H137.781C137.909 26.381 137.973 26.701 137.973 26.925C137.973 27.261 137.909 27.605 137.781 27.957H127.797V10.677ZM139.813 10.677H151.309C151.437 10.965 151.501 11.309 151.501 11.709C151.501 11.901 151.485 12.085 151.453 12.261C151.421 12.437 151.389 12.565 151.357 12.645L151.309 12.789H146.845V27.789C146.557 27.901 146.149 27.957 145.621 27.957C145.365 27.957 145.133 27.941 144.925 27.909C144.717 27.877 144.581 27.845 144.517 27.813L144.397 27.789V12.789H139.813C139.685 12.517 139.621 12.165 139.621 11.733C139.621 11.557 139.637 11.381 139.669 11.205C139.701 11.029 139.733 10.901 139.765 10.821L139.813 10.677ZM164.362 10.845C164.65 10.733 165.074 10.677 165.634 10.677C165.874 10.677 166.106 10.693 166.33 10.725C166.57 10.757 166.746 10.789 166.858 10.821L167.002 10.845L160.93 20.733V27.789C160.658 27.901 160.258 27.957 159.73 27.957C159.474 27.957 159.242 27.941 159.034 27.909C158.826 27.877 158.682 27.845 158.602 27.813L158.482 27.789V20.781L152.578 10.845C152.93 10.733 153.426 10.677 154.066 10.677C154.322 10.677 154.562 10.693 154.786 10.725C155.026 10.757 155.194 10.789 155.29 10.821L155.458 10.845L159.85 18.261L164.362 10.845ZM85.0531 48.317C85.0531 45.405 85.6371 43.197 86.8051 41.693C87.9891 40.189 89.7331 39.437 92.0371 39.437C92.8211 39.437 93.5571 39.509 94.2451 39.653C94.9331 39.781 95.4211 39.917 95.7091 40.061L96.1411 40.253C96.1731 40.893 95.9331 41.501 95.4211 42.077C94.4931 41.709 93.4611 41.525 92.3251 41.525C90.8051 41.525 89.6371 42.037 88.8211 43.061C88.0051 44.069 87.5971 45.829 87.5971 48.341C87.5971 49.637 87.7091 50.741 87.9331 51.653C88.1571 52.549 88.4851 53.237 88.9171 53.717C89.3651 54.197 89.8611 54.541 90.4051 54.749C90.9491 54.957 91.5891 55.061 92.3251 55.061C92.8851 55.061 93.4451 55.021 94.0051 54.941C94.5651 54.845 94.9811 54.749 95.2531 54.653L95.6611 54.509C96.1251 54.957 96.3731 55.581 96.4051 56.381C95.3651 56.925 93.9091 57.197 92.0371 57.197C89.7491 57.197 88.0131 56.453 86.8291 54.965C85.6451 53.461 85.0531 51.245 85.0531 48.317ZM98.1078 48.317C98.1078 45.325 98.6998 43.101 99.8838 41.645C101.068 40.173 102.732 39.437 104.876 39.437C107.02 39.437 108.684 40.165 109.868 41.621C111.052 43.077 111.644 45.309 111.644 48.317C111.644 54.237 109.388 57.197 104.876 57.197C100.364 57.197 98.1078 54.237 98.1078 48.317ZM107.996 53.621C108.716 52.597 109.076 50.829 109.076 48.317C109.076 45.805 108.716 44.037 107.996 43.013C107.292 41.989 106.252 41.477 104.876 41.477C103.5 41.477 102.452 41.989 101.732 43.013C101.028 44.037 100.676 45.805 100.676 48.317C100.676 50.829 101.028 52.597 101.732 53.621C102.452 54.645 103.5 55.157 104.876 55.157C106.252 55.157 107.292 54.645 107.996 53.621ZM124.812 56.789L118.764 45.869C118.508 45.405 118.26 44.917 118.02 44.405C117.78 43.893 117.604 43.493 117.492 43.205L117.348 42.773H117.252C117.364 43.845 117.42 45.189 117.42 46.805V56.789C117.18 56.901 116.796 56.957 116.268 56.957C116.044 56.957 115.836 56.941 115.644 56.909C115.468 56.877 115.348 56.845 115.284 56.813L115.164 56.789V39.845C115.5 39.733 115.988 39.677 116.628 39.677C116.916 39.677 117.18 39.693 117.42 39.725C117.66 39.757 117.828 39.789 117.924 39.821L118.068 39.845L124.044 50.669C124.3 51.133 124.548 51.629 124.788 52.157C125.044 52.685 125.236 53.101 125.364 53.405L125.532 53.861H125.604C125.492 52.677 125.436 51.341 125.436 49.853V39.845C125.676 39.733 126.06 39.677 126.588 39.677C126.828 39.677 127.036 39.693 127.212 39.725C127.404 39.757 127.532 39.789 127.596 39.821L127.692 39.845V56.789C127.388 56.901 126.916 56.957 126.276 56.957C125.988 56.957 125.724 56.941 125.484 56.909C125.244 56.877 125.076 56.845 124.98 56.813L124.812 56.789ZM131.153 44.357C131.153 42.837 131.649 41.637 132.641 40.757C133.649 39.877 135.105 39.437 137.009 39.437C137.857 39.437 138.673 39.493 139.457 39.605C140.241 39.717 140.809 39.829 141.161 39.941L141.713 40.109C141.713 40.925 141.489 41.565 141.041 42.029C139.953 41.677 138.721 41.501 137.345 41.501C134.833 41.501 133.577 42.413 133.577 44.237C133.577 44.445 133.593 44.637 133.625 44.813C133.673 44.973 133.753 45.133 133.865 45.293C133.977 45.437 134.081 45.565 134.177 45.677C134.289 45.789 134.441 45.901 134.633 46.013C134.841 46.125 135.009 46.221 135.137 46.301C135.281 46.365 135.489 46.453 135.761 46.565C136.049 46.661 136.265 46.733 136.409 46.781C136.569 46.829 136.817 46.909 137.153 47.021C137.489 47.117 137.729 47.189 137.873 47.237C138.545 47.461 139.097 47.685 139.529 47.909C139.977 48.133 140.441 48.437 140.921 48.821C141.401 49.189 141.761 49.653 142.001 50.213C142.241 50.773 142.361 51.429 142.361 52.181C142.361 53.797 141.841 55.037 140.801 55.901C139.777 56.765 138.289 57.197 136.337 57.197C135.393 57.197 134.489 57.117 133.625 56.957C132.761 56.781 132.137 56.605 131.753 56.429L131.153 56.189C131.121 55.517 131.313 54.869 131.729 54.245C133.233 54.741 134.729 54.989 136.217 54.989C138.649 54.989 139.865 54.077 139.865 52.253C139.865 51.485 139.609 50.901 139.097 50.501C138.585 50.101 137.833 49.741 136.841 49.421C136.697 49.373 136.385 49.277 135.905 49.133C135.425 48.973 135.081 48.861 134.873 48.797C134.681 48.717 134.377 48.589 133.961 48.413C133.545 48.237 133.241 48.077 133.049 47.933C132.857 47.789 132.609 47.589 132.305 47.333C132.017 47.077 131.801 46.821 131.657 46.565C131.529 46.293 131.409 45.973 131.297 45.605C131.201 45.221 131.153 44.805 131.153 44.357ZM157.586 39.845V51.101C157.586 53.037 157.034 54.541 155.93 55.613C154.842 56.669 153.37 57.197 151.514 57.197C149.674 57.197 148.21 56.661 147.122 55.589C146.034 54.501 145.49 53.005 145.49 51.101V39.845C145.762 39.733 146.162 39.677 146.69 39.677C146.93 39.677 147.154 39.693 147.362 39.725C147.57 39.757 147.714 39.789 147.794 39.821L147.914 39.845V51.485C147.914 52.637 148.234 53.533 148.874 54.173C149.514 54.813 150.41 55.133 151.562 55.133C152.714 55.133 153.602 54.813 154.226 54.173C154.866 53.533 155.186 52.637 155.186 51.485V39.845C155.442 39.733 155.834 39.677 156.362 39.677C156.602 39.677 156.818 39.693 157.01 39.725C157.218 39.757 157.362 39.789 157.442 39.821L157.586 39.845ZM161.735 56.957V39.845C162.007 39.733 162.407 39.677 162.935 39.677C163.191 39.677 163.423 39.693 163.631 39.725C163.839 39.757 163.983 39.789 164.063 39.821L164.183 39.845V54.845H171.359C171.487 55.149 171.551 55.501 171.551 55.901C171.551 56.269 171.487 56.621 171.359 56.957H161.735ZM170.563 39.677H182.059C182.187 39.965 182.251 40.309 182.251 40.709C182.251 40.901 182.235 41.085 182.203 41.261C182.171 41.437 182.139 41.565 182.107 41.645L182.059 41.789H177.595V56.789C177.307 56.901 176.899 56.957 176.371 56.957C176.115 56.957 175.883 56.941 175.675 56.909C175.467 56.877 175.331 56.845 175.267 56.813L175.147 56.789V41.789H170.563C170.435 41.517 170.371 41.165 170.371 40.733C170.371 40.557 170.387 40.381 170.419 40.205C170.451 40.029 170.483 39.901 170.515 39.821L170.563 39.677ZM185.008 56.789V39.845C185.28 39.733 185.68 39.677 186.208 39.677C186.464 39.677 186.696 39.693 186.904 39.725C187.112 39.757 187.256 39.789 187.336 39.821L187.456 39.845V56.789C187.168 56.901 186.76 56.957 186.232 56.957C185.976 56.957 185.744 56.941 185.536 56.909C185.328 56.877 185.192 56.845 185.128 56.813L185.008 56.789ZM201.383 56.789L195.335 45.869C195.079 45.405 194.831 44.917 194.591 44.405C194.351 43.893 194.175 43.493 194.063 43.205L193.919 42.773H193.823C193.935 43.845 193.991 45.189 193.991 46.805V56.789C193.751 56.901 193.367 56.957 192.839 56.957C192.615 56.957 192.407 56.941 192.215 56.909C192.039 56.877 191.919 56.845 191.855 56.813L191.735 56.789V39.845C192.071 39.733 192.559 39.677 193.199 39.677C193.487 39.677 193.751 39.693 193.991 39.725C194.231 39.757 194.399 39.789 194.495 39.821L194.639 39.845L200.615 50.669C200.871 51.133 201.119 51.629 201.359 52.157C201.615 52.685 201.807 53.101 201.935 53.405L202.103 53.861H202.175C202.063 52.677 202.007 51.341 202.007 49.853V39.845C202.247 39.733 202.631 39.677 203.159 39.677C203.399 39.677 203.607 39.693 203.783 39.725C203.975 39.757 204.103 39.789 204.167 39.821L204.263 39.845V56.789C203.959 56.901 203.487 56.957 202.847 56.957C202.559 56.957 202.295 56.941 202.055 56.909C201.815 56.877 201.647 56.845 201.551 56.813L201.383 56.789ZM207.795 48.317C207.795 45.421 208.419 43.221 209.667 41.717C210.931 40.197 212.763 39.437 215.163 39.437C216.011 39.437 216.803 39.509 217.539 39.653C218.291 39.781 218.835 39.917 219.171 40.061L219.651 40.253C219.651 41.005 219.411 41.605 218.931 42.053C217.859 41.685 216.691 41.501 215.427 41.501C213.811 41.501 212.555 42.013 211.659 43.037C210.779 44.061 210.339 45.829 210.339 48.341C210.339 49.637 210.459 50.741 210.699 51.653C210.955 52.549 211.315 53.245 211.779 53.741C212.259 54.221 212.787 54.565 213.363 54.773C213.955 54.981 214.643 55.085 215.427 55.085C216.307 55.085 217.035 55.021 217.611 54.893V49.349H214.131C214.003 49.109 213.939 48.781 213.939 48.365C213.939 48.173 213.955 47.997 213.987 47.837C214.019 47.661 214.051 47.533 214.083 47.453L214.131 47.357H219.915V56.381C218.731 56.925 217.147 57.197 215.163 57.197C212.763 57.197 210.931 56.445 209.667 54.941C208.419 53.437 207.795 51.229 207.795 48.317Z" fill="white"/>
</svg>
