<svg width="47" height="40" viewBox="0 0 47 40" fill="none" xmlns="http://www.w3.org/2000/svg">
<path d="M37.4061 18.2951L36.2175 18.29H36.2154C36.0625 18.2897 35.9158 18.3502 35.8074 18.4581C35.6991 18.566 35.638 18.7125 35.6377 18.8654C35.6374 19.0183 35.6978 19.1651 35.8057 19.2734C35.9136 19.3818 36.0601 19.4428 36.213 19.4431L37.4016 19.4482H37.4041C37.557 19.4486 37.7038 19.3881 37.8121 19.2802C37.9205 19.1723 37.9815 19.0258 37.9819 18.8729C37.9822 18.72 37.9217 18.5732 37.8138 18.4649C37.7059 18.3565 37.5594 18.2955 37.4065 18.2951H37.4061Z" fill="#3C4047"/>
<path d="M24.2399 19.4099L34.1605 19.4344H34.1619C34.3148 19.4346 34.4616 19.374 34.5698 19.2661C34.6781 19.1581 34.739 19.0115 34.7392 18.8586C34.7393 18.7057 34.6788 18.5589 34.5708 18.4507C34.4628 18.3424 34.3162 18.2815 34.1633 18.2813L24.2427 18.2568H24.2413C24.0884 18.2567 23.9417 18.3172 23.8334 18.4252C23.7252 18.5332 23.6642 18.6798 23.6641 18.8327C23.6639 18.9856 23.7245 19.1323 23.8325 19.2406C23.9405 19.3488 24.087 19.4098 24.2399 19.4099Z" fill="#3C4047"/>
<path d="M37.4183 15.2707L36.2297 15.2656H36.2272C36.0743 15.2653 35.9275 15.3257 35.8191 15.4336C35.7108 15.5415 35.6497 15.6881 35.6494 15.841C35.6491 15.9939 35.7095 16.1407 35.8174 16.249C35.9253 16.3574 36.0719 16.4184 36.2248 16.4187L37.4134 16.4238H37.4159C37.5688 16.4241 37.7156 16.3637 37.824 16.2558C37.9323 16.1479 37.9934 16.0014 37.9937 15.8485C37.994 15.6956 37.9336 15.5488 37.8257 15.4404C37.7178 15.3321 37.5712 15.271 37.4183 15.2707Z" fill="#3C4047"/>
<path d="M24.2517 16.3855L34.1722 16.4099H34.1737C34.3266 16.4101 34.4733 16.3495 34.5815 16.2415C34.6898 16.1335 34.7507 15.987 34.7509 15.8341C34.7511 15.6811 34.6905 15.5344 34.5825 15.4262C34.4745 15.3179 34.3279 15.257 34.175 15.2568L24.2545 15.2324H24.253C24.1001 15.2322 23.9534 15.2928 23.8451 15.4008C23.7369 15.5088 23.676 15.6554 23.6758 15.8083C23.6756 15.9612 23.7362 16.1079 23.8442 16.2162C23.9522 16.3244 24.0987 16.3853 24.2517 16.3855Z" fill="#3C4047"/>
<path d="M37.3929 21.3195L36.2043 21.3145H36.2018C36.0489 21.3141 35.9021 21.3746 35.7937 21.4825C35.6854 21.5904 35.6243 21.7369 35.624 21.8898C35.6237 22.0427 35.6841 22.1895 35.792 22.2978C35.8999 22.4062 36.0465 22.4672 36.1994 22.4676L37.388 22.4726H37.3905C37.5434 22.4729 37.6902 22.4124 37.7986 22.3045C37.9069 22.1966 37.968 22.0501 37.9683 21.8972C37.9686 21.7443 37.9082 21.5975 37.8003 21.4892C37.6924 21.3808 37.5458 21.3198 37.3929 21.3195Z" fill="#3C4047"/>
<path d="M24.2272 22.4334L34.1477 22.4579H34.1492C34.3022 22.4581 34.4489 22.3975 34.5571 22.2895C34.6654 22.1815 34.7263 22.0349 34.7265 21.882C34.7266 21.7291 34.6661 21.5824 34.5581 21.4741C34.4501 21.3659 34.3035 21.305 34.1506 21.3048L24.23 21.2803H24.2286C24.0757 21.2801 23.929 21.3407 23.8207 21.4487C23.7125 21.5567 23.6515 21.7032 23.6514 21.8562C23.6512 22.0091 23.7118 22.1558 23.8198 22.264C23.9278 22.3723 24.0743 22.4332 24.2272 22.4334Z" fill="#3C4047"/>
<path d="M35.3003 30.7182L29.1881 30.71H29.1873C29.0344 30.7098 28.8877 30.7705 28.7795 30.8785C28.6713 30.9866 28.6105 31.1332 28.6104 31.2861C28.6102 31.439 28.6709 31.5857 28.7789 31.6939C28.887 31.8021 29.0336 31.863 29.1865 31.8631L35.2987 31.8713H35.2996C35.4525 31.8714 35.5992 31.8108 35.7074 31.7027C35.8156 31.5947 35.8764 31.4481 35.8765 31.2952C35.8766 31.1423 35.816 30.9956 35.7079 30.8874C35.5999 30.7792 35.4532 30.7183 35.3003 30.7182Z" fill="#3C4047"/>
<path d="M37.2139 30.7266L36.9774 30.7256H36.9752C36.8223 30.7253 36.6755 30.7857 36.5672 30.8936C36.4588 31.0015 36.3978 31.148 36.3975 31.3009C36.3971 31.4538 36.4576 31.6006 36.5655 31.709C36.6734 31.8173 36.8199 31.8784 36.9728 31.8787L37.2092 31.8797H37.2118C37.2875 31.8799 37.3625 31.8652 37.4325 31.8363C37.5025 31.8075 37.5662 31.7652 37.6198 31.7118C37.6735 31.6583 37.7161 31.5949 37.7452 31.525C37.7744 31.4551 37.7894 31.3802 37.7896 31.3044C37.7898 31.2287 37.775 31.1537 37.7462 31.0837C37.7174 31.0137 37.675 30.9501 37.6216 30.8964C37.5682 30.8427 37.5047 30.8001 37.4348 30.771C37.3649 30.7419 37.29 30.7268 37.2143 30.7266H37.2139Z" fill="#3C4047"/>
<path d="M29.2047 27.5773C29.0524 27.5734 28.9047 27.6299 28.7939 27.7346C28.6832 27.8392 28.6183 27.9834 28.6136 28.1357C28.6088 28.288 28.6645 28.436 28.7686 28.5474C28.8726 28.6587 29.0165 28.7243 29.1688 28.7299L29.4333 28.7381H29.4517C29.5274 28.7393 29.6026 28.7255 29.673 28.6976C29.7434 28.6697 29.8076 28.6282 29.8619 28.5755C29.9163 28.5228 29.9597 28.4599 29.9898 28.3903C30.0198 28.3208 30.0359 28.2461 30.037 28.1704C30.0382 28.0947 30.0244 28.0195 29.9965 27.9491C29.9686 27.8787 29.9271 27.8145 29.8744 27.7601C29.8217 27.7058 29.7588 27.6623 29.6892 27.6323C29.6197 27.6022 29.545 27.5862 29.4693 27.585L29.2047 27.5773Z" fill="#3C4047"/>
<path d="M37.2104 27.5937L31.1264 27.5928C30.9734 27.5928 30.8268 27.6535 30.7187 27.7616C30.6105 27.8698 30.5498 28.0164 30.5498 28.1693C30.5498 28.3222 30.6105 28.4689 30.7187 28.577C30.8268 28.6851 30.9734 28.7459 31.1264 28.7459L37.2104 28.7468C37.3633 28.7468 37.51 28.6861 37.6181 28.578C37.7262 28.4698 37.787 28.3232 37.787 28.1703C37.787 28.0174 37.7262 27.8707 37.6181 27.7626C37.51 27.6545 37.3633 27.5937 37.2104 27.5937Z" fill="#3C4047"/>
<path d="M42.5869 12.4745H42.5732L27.3624 12.4247V5.52328C27.3613 4.4948 26.9522 3.50878 26.2249 2.78154C25.4977 2.05429 24.5117 1.64521 23.4832 1.64404H19.6012V0.576553C19.6012 0.423641 19.5404 0.276993 19.4323 0.168868C19.3242 0.0607437 19.1775 0 19.0246 0H8.33791C8.185 0 8.03835 0.0607437 7.93023 0.168868C7.8221 0.276993 7.76136 0.423641 7.76136 0.576553V1.64404H3.87924C2.85076 1.64521 1.86474 2.05429 1.13749 2.78154C0.41025 3.50878 0.00116991 4.4948 0 5.52328V31.8161C0.00116991 32.8446 0.41025 33.8306 1.13749 34.5578C1.86474 35.2851 2.85076 35.6942 3.87924 35.6953H17.4698V35.8808C17.471 36.8642 17.8621 37.807 18.5575 38.5023C19.2528 39.1977 20.1956 39.5888 21.179 39.59H36.2751C37.3153 39.5881 38.3126 39.1749 39.0494 38.4406C39.7862 37.7062 40.2026 36.7102 40.2078 35.67L40.2528 21.9599L45.4129 22.0642C45.4894 22.0657 45.5654 22.052 45.6366 22.0239C45.7077 21.9958 45.7725 21.9538 45.8272 21.9004C45.882 21.847 45.9255 21.7832 45.9554 21.7128C45.9853 21.6424 46.0008 21.5667 46.0011 21.4902L46.0248 15.9419C46.0276 15.0265 45.6672 14.1474 45.0227 13.4974C44.3783 12.8473 43.5022 12.4795 42.5869 12.4745ZM8.91447 1.15311H18.4481V4.10938H8.91447V1.15311ZM18.0464 33.2917C17.8935 33.2917 17.7468 33.3524 17.6387 33.4606C17.5306 33.5687 17.4698 33.7153 17.4698 33.8682V34.5426H3.87924C3.15646 34.5419 2.4635 34.2544 1.95241 33.7433C1.44133 33.2322 1.15387 32.5393 1.15311 31.8165V5.52328C1.15387 4.8005 1.44133 4.10754 1.95241 3.59645C2.4635 3.08537 3.15646 2.79791 3.87924 2.79715H7.76136V4.68593C7.76136 4.83884 7.8221 4.98549 7.93023 5.09362C8.03835 5.20174 8.185 5.26249 8.33791 5.26249H19.0246C19.1775 5.26249 19.3242 5.20174 19.4323 5.09362C19.5404 4.98549 19.6012 4.83884 19.6012 4.68593V2.79715H23.4833C24.2061 2.79791 24.899 3.08537 25.4101 3.59645C25.9212 4.10754 26.2087 4.8005 26.2094 5.52328V12.4213L25.0365 12.4176H25.0214C24.1118 12.4177 23.2392 12.7781 22.5947 13.4201C21.9502 14.062 21.5862 14.9331 21.5824 15.8427L21.5182 33.2917H18.0464ZM21.1791 38.4368C20.5014 38.4361 19.8517 38.1665 19.3726 37.6873C18.8934 37.2081 18.6238 36.5585 18.623 35.8808V34.4448H32.3422V35.6571C32.3419 36.1735 32.4436 36.685 32.6415 37.162C32.8394 37.639 33.1295 38.0723 33.4953 38.4368H21.1791ZM39.1019 21.2909C39.0987 21.3138 39.0969 21.3368 39.0964 21.3599C39.0959 21.3896 39.0975 21.4193 39.1014 21.4487L39.0548 35.6662C39.0536 36.4035 38.7596 37.11 38.2374 37.6305C37.7153 38.1509 37.0077 38.4426 36.2705 38.4414C35.5333 38.4402 34.8267 38.1462 34.3063 37.624C33.7858 37.1019 33.4941 36.3943 33.4953 35.6571V33.8682C33.4953 33.7153 33.4346 33.5687 33.3264 33.4606C33.2183 33.3524 33.0717 33.2917 32.9188 33.2917H22.6712L22.7354 15.8473C22.738 15.2425 22.9801 14.6634 23.4087 14.2367C23.8373 13.81 24.4176 13.5705 25.0224 13.5707H25.032L40.007 13.6193C39.4385 14.2484 39.1225 15.0653 39.1195 15.9131L39.1019 21.2909ZM44.8506 20.8995L40.2566 20.8066L40.2727 15.9174C40.276 15.3094 40.5196 14.7275 40.9504 14.2985C41.3811 13.8695 41.9641 13.6283 42.5721 13.6276H42.5817C43.1914 13.6309 43.7749 13.8759 44.2041 14.3088C44.6334 14.7418 44.8734 15.3274 44.8715 15.9371L44.8506 20.8995Z" fill="#3C4047"/>
<path d="M19.7004 12.925L13.9349 10.0959C13.8559 10.0572 13.7692 10.0371 13.6812 10.0371C13.5933 10.0371 13.5065 10.0572 13.4276 10.0959L7.66202 12.9169C7.5651 12.9643 7.48342 13.038 7.4263 13.1295C7.36917 13.2211 7.33888 13.3268 7.33887 13.4347V18.8318C7.35626 19.5298 7.52363 20.2158 7.82961 20.8433C8.23954 21.7257 8.85318 22.4895 9.51305 22.9389L13.3567 25.5577C13.4524 25.6229 13.5656 25.6578 13.6814 25.6578C13.7972 25.6578 13.9103 25.6229 14.006 25.5577L17.8497 22.939C19.0687 22.1088 20.0236 20.3046 20.0236 18.8316V13.4429C20.0236 13.335 19.9933 13.2292 19.9362 13.1377C19.8791 13.0461 19.7974 12.9724 19.7004 12.925ZM18.8699 18.8316C18.8699 19.9248 18.1052 21.3694 17.1999 21.986L13.6809 24.3837L10.1619 21.986C9.67602 21.655 9.19489 21.0463 8.8748 20.3574C8.64134 19.8814 8.51089 19.3614 8.49197 18.8316V13.7943L13.6809 11.2557L18.8699 13.8021V18.8316Z" fill="#3C4047"/>
<path d="M11.6435 17.2667C11.5894 17.2133 11.5253 17.1712 11.4548 17.1427C11.3844 17.1142 11.309 17.0999 11.2331 17.1007C11.1571 17.1014 11.082 17.1171 11.0121 17.147C10.9423 17.1768 10.879 17.2202 10.8259 17.2746C10.7729 17.329 10.7311 17.3933 10.703 17.4639C10.6749 17.5345 10.661 17.6099 10.6622 17.6859C10.6633 17.7619 10.6795 17.8369 10.7097 17.9066C10.7399 17.9763 10.7837 18.0393 10.8383 18.0921L12.5799 19.7907C12.6876 19.8957 12.8321 19.9545 12.9825 19.9545C13.1329 19.9545 13.2774 19.8957 13.3851 19.7907L16.5227 16.7305C16.5779 16.6778 16.6222 16.6148 16.6529 16.5449C16.6836 16.4751 16.7002 16.3998 16.7016 16.3235C16.703 16.2472 16.6892 16.1714 16.6611 16.1005C16.633 16.0295 16.5911 15.9649 16.5378 15.9103C16.4845 15.8557 16.4209 15.8122 16.3507 15.7823C16.2805 15.7524 16.205 15.7368 16.1287 15.7363C16.0524 15.7359 15.9768 15.7505 15.9062 15.7795C15.8356 15.8085 15.7715 15.8512 15.7175 15.9051L12.9824 18.5726L11.6435 17.2667Z" fill="#3C4047"/>
</svg>
