<svg width="29" height="46" viewBox="0 0 29 46" fill="none" xmlns="http://www.w3.org/2000/svg">
<path d="M14.2091 5.87447V4.35797C14.2091 3.20217 13.75 2.0937 12.9327 1.27642C12.1154 0.459142 11.0069 0 9.85114 0C8.69533 0 7.58686 0.459142 6.76959 1.27642C5.95231 2.0937 5.49316 3.20217 5.49316 4.35797V5.87447C5.49316 7.03028 5.95231 8.13875 6.76959 8.95603C7.58686 9.77331 8.69533 10.2324 9.85114 10.2324C11.0069 10.2324 12.1154 9.77331 12.9327 8.95603C13.75 8.13875 14.2091 7.03028 14.2091 5.87447ZM6.62756 5.87447V4.35797C6.62854 3.50333 6.96848 2.68397 7.5728 2.07964C8.17713 1.47531 8.99649 1.13537 9.85114 1.1344C10.7058 1.1354 11.5251 1.47534 12.1294 2.07967C12.7338 2.68399 13.0737 3.50334 13.0747 4.35797V5.87447C13.0747 6.72942 12.7351 7.54935 12.1306 8.15389C11.526 8.75843 10.7061 9.09805 9.85114 9.09805C8.99619 9.09805 8.17626 8.75843 7.57172 8.15389C6.96719 7.54935 6.62756 6.72942 6.62756 5.87447Z" fill="#3C4047"/>
<path d="M28.0664 26.7039L19.946 22.7193V15.8437C20.0569 14.6595 19.6955 13.4794 18.9405 12.5603C18.1855 11.6412 17.0981 11.0574 15.9148 10.9362C15.8088 10.9255 14.6411 10.9177 12.4444 10.9132H12.443C12.3433 10.9132 12.2453 10.9396 12.159 10.9897C12.0727 11.0397 12.0011 11.1116 11.9514 11.1981L9.99602 14.6067L8.14431 11.2089C8.09554 11.1194 8.02355 11.0447 7.93591 10.9926C7.84828 10.9406 7.74824 10.9131 7.64631 10.9131H4.50611C3.31152 10.9145 2.16624 11.3896 1.32149 12.2342C0.476747 13.0789 0.00150114 14.2241 0 15.4187C0 15.5505 0.0189064 24.7256 0.0200408 25.1151C0.0202163 25.8199 0.300286 26.4957 0.798669 26.9941C1.29705 27.4924 1.97295 27.7725 2.67774 27.7726H2.70828C3.26788 27.7657 3.81035 27.5786 4.25522 27.239L4.74263 43.388C4.75278 43.8817 4.95668 44.3515 5.31031 44.696C5.66394 45.0406 6.13891 45.2322 6.63263 45.2295H13.4176C13.9189 45.229 14.3995 45.0296 14.7539 44.6752C15.1084 44.3207 15.3078 43.8401 15.3083 43.3389V42.4426L18.9545 44.9268C19.0487 44.991 19.16 45.0253 19.2739 45.0253C19.3878 45.0253 19.4991 44.991 19.5932 44.9268L25.2884 41.0466C27.0241 39.8644 28.3837 37.2953 28.3837 35.1979V27.213C28.3837 27.107 28.354 27.0031 28.2979 26.9131C28.2418 26.8231 28.1616 26.7506 28.0664 26.7039ZM14.1739 43.3388C14.1737 43.5393 14.0939 43.7315 13.9522 43.8733C13.8104 44.0151 13.6182 44.0948 13.4176 44.095H6.63291C6.43502 44.0961 6.24469 44.0191 6.10314 43.8808C5.9616 43.7424 5.88023 43.5539 5.87665 43.3561L5.34878 25.8635L5.33639 25.0474C5.33413 24.8985 5.27338 24.7564 5.16725 24.6519C5.06113 24.5474 4.91815 24.4888 4.76919 24.4888H4.76475C4.61507 24.4899 4.47192 24.5502 4.36649 24.6564C4.26106 24.7627 4.2019 24.9063 4.2019 25.056C4.2019 25.9189 3.52618 26.6287 2.69514 26.6381H2.67812C2.47795 26.6381 2.27974 26.5987 2.09481 26.522C1.90988 26.4454 1.74186 26.3331 1.60035 26.1915C1.45883 26.05 1.3466 25.8819 1.27006 25.6969C1.19351 25.512 1.15416 25.3137 1.15425 25.1136C1.15425 25.018 1.13421 15.5493 1.13421 15.4187C1.13533 14.5248 1.49099 13.6678 2.12316 13.0358C2.75533 12.4038 3.61238 12.0483 4.5063 12.0474H7.30882L9.48469 16.04C9.53297 16.1286 9.604 16.2027 9.69046 16.2547C9.77692 16.3066 9.87568 16.3346 9.97655 16.3357C10.0774 16.3368 10.1768 16.311 10.2643 16.2609C10.3519 16.2108 10.4245 16.1383 10.4747 16.0508L12.7709 12.0482C13.9715 12.0512 15.6224 12.0577 15.8102 12.0657C16.6974 12.1592 17.5115 12.6002 18.0745 13.2922C18.6375 13.9843 18.9036 14.8711 18.8145 15.7588C18.8127 15.7777 18.8117 15.7968 18.8117 15.816V22.6162L10.4822 26.6917C10.3868 26.7384 10.3065 26.8109 10.2503 26.9009C10.1941 26.991 10.1643 27.0951 10.1643 27.2012V35.1978C10.1643 36.0838 10.4062 37.0728 10.8638 38.0578C11.4499 39.3195 12.3233 40.4088 13.2596 41.0465L14.1741 41.6696L14.1739 43.3388ZM27.2493 35.1978C27.2493 36.9001 26.0588 39.1493 24.6497 40.109L19.2739 43.7717L15.2433 41.0256C15.2 40.9431 15.1372 40.8725 15.0602 40.8201C14.9833 40.7676 14.8946 40.735 14.802 40.7249L13.8981 40.109C13.126 39.5832 12.395 38.6613 11.8924 37.5798C11.5093 36.7555 11.2984 35.9095 11.2984 35.1976V27.5552L19.0288 23.7728C19.1139 23.8399 19.2165 23.8811 19.3243 23.8915C19.4321 23.9019 19.5407 23.881 19.637 23.8314L27.2493 27.5666V35.1978Z" fill="#3C4047"/>
<path d="M18.2401 35.2152L16.0558 33.0848C15.9479 32.9807 15.8032 32.9235 15.6533 32.9258C15.5035 32.9281 15.3606 32.9896 15.2559 33.0969C15.1512 33.2042 15.0933 33.3485 15.0948 33.4984C15.0962 33.6483 15.1569 33.7915 15.2637 33.8968L17.8444 36.4135C17.9504 36.5169 18.0925 36.5747 18.2405 36.5747C18.3885 36.5747 18.5306 36.5169 18.6365 36.4135L23.2852 31.8793C23.3919 31.774 23.4526 31.6308 23.4541 31.4809C23.4556 31.331 23.3976 31.1866 23.293 31.0793C23.1883 30.972 23.0454 30.9105 22.8955 30.9083C22.7456 30.906 22.601 30.9631 22.4931 31.0672L18.2401 35.2152Z" fill="#3C4047"/>
</svg>
