<svg width="35" height="42" viewBox="0 0 35 42" fill="none" xmlns="http://www.w3.org/2000/svg">
<path d="M21.6829 28.0734H22.3002C22.4349 28.0734 22.5642 28.0198 22.6595 27.9245C22.7548 27.8292 22.8083 27.7 22.8083 27.5652C22.8083 27.4305 22.7548 27.3012 22.6595 27.2059C22.5642 27.1106 22.4349 27.0571 22.3002 27.0571H22.191V25.2956H23.9649C23.9922 25.4177 24.0637 25.5254 24.1655 25.5981C24.2673 25.6708 24.3924 25.7034 24.5167 25.6896C24.6411 25.6758 24.756 25.6166 24.8394 25.5234C24.9228 25.4301 24.9689 25.3094 24.9689 25.1843V24.7874C24.9689 24.6527 24.9153 24.5234 24.82 24.4281C24.7248 24.3328 24.5955 24.2793 24.4607 24.2793H21.6829C21.5482 24.2793 21.4189 24.3328 21.3236 24.4281C21.2283 24.5234 21.1748 24.6527 21.1748 24.7874V27.5652C21.1748 27.7 21.2283 27.8292 21.3236 27.9245C21.4189 28.0198 21.5481 28.0733 21.6829 28.0734Z" fill="#3C4047"/>
<path d="M21.6829 33.4747H24.4607C24.5955 33.4747 24.7248 33.4212 24.82 33.3259C24.9153 33.2306 24.9689 33.1014 24.9689 32.9666V30.1888C24.9689 30.054 24.9153 29.9248 24.82 29.8295C24.7248 29.7342 24.5955 29.6807 24.4607 29.6807H21.6829C21.5482 29.6807 21.4189 29.7342 21.3236 29.8295C21.2283 29.9248 21.1748 30.054 21.1748 30.1888V32.9666C21.1748 33.1014 21.2283 33.2306 21.3236 33.3259C21.4189 33.4212 21.5482 33.4747 21.6829 33.4747ZM22.1911 30.6969H23.9526V32.4585H22.1911V30.6969Z" fill="#3C4047"/>
<path d="M22.3003 37.8608H22.1911V36.0993H23.9526V36.1594C23.9526 36.2942 24.0061 36.4234 24.1014 36.5187C24.1967 36.614 24.326 36.6675 24.4607 36.6675C24.5955 36.6675 24.7248 36.614 24.82 36.5187C24.9153 36.4234 24.9689 36.2942 24.9689 36.1594V35.5911C24.9689 35.4564 24.9153 35.3271 24.82 35.2318C24.7248 35.1365 24.5955 35.083 24.4607 35.083H21.6829C21.5482 35.083 21.4189 35.1365 21.3236 35.2318C21.2283 35.3271 21.1748 35.4564 21.1748 35.5911V38.3689C21.1748 38.5037 21.2283 38.633 21.3236 38.7283C21.4189 38.8235 21.5482 38.8771 21.6829 38.8771H22.3003C22.4351 38.8771 22.5643 38.8235 22.6596 38.7283C22.7549 38.633 22.8085 38.5037 22.8085 38.3689C22.8085 38.2342 22.7549 38.1049 22.6596 38.0096C22.5643 37.9143 22.4351 37.8608 22.3003 37.8608Z" fill="#3C4047"/>
<path d="M25.8757 24.9767L24.0913 26.7617L23.5082 26.1787C23.4129 26.0834 23.2836 26.0298 23.1488 26.0298C23.014 26.0298 22.8848 26.0834 22.7895 26.1787C22.6942 26.274 22.6406 26.4033 22.6406 26.5381C22.6406 26.6729 22.6942 26.8021 22.7895 26.8974L23.7319 27.8398C23.8272 27.935 23.9565 27.9886 24.0912 27.9886C24.226 27.9886 24.3552 27.935 24.4505 27.8398L26.5948 25.6955C26.6426 25.6485 26.6806 25.5924 26.7066 25.5306C26.7327 25.4688 26.7462 25.4024 26.7465 25.3353C26.7467 25.2683 26.7337 25.2018 26.7082 25.1398C26.6826 25.0778 26.645 25.0214 26.5976 24.974C26.5502 24.9266 26.4938 24.889 26.4318 24.8635C26.3698 24.8379 26.3033 24.8249 26.2362 24.8252C26.1691 24.8255 26.1028 24.839 26.041 24.8651C25.9792 24.8911 25.9231 24.9292 25.8761 24.977L25.8757 24.9767Z" fill="#3C4047"/>
<path d="M25.876 35.8647L24.0912 37.6495L23.5081 37.0665C23.4611 37.0187 23.405 36.9806 23.3432 36.9546C23.2814 36.9285 23.215 36.915 23.148 36.9147C23.0809 36.9144 23.0144 36.9274 22.9524 36.953C22.8904 36.9785 22.834 37.0161 22.7866 37.0635C22.7391 37.1109 22.7016 37.1672 22.676 37.2293C22.6505 37.2913 22.6374 37.3578 22.6377 37.4248C22.638 37.4919 22.6515 37.5583 22.6775 37.6201C22.7036 37.6819 22.7416 37.738 22.7894 37.785L23.7318 38.7274C23.8271 38.8227 23.9564 38.8762 24.0911 38.8762C24.2259 38.8762 24.3551 38.8227 24.4504 38.7274L26.5947 36.5833C26.69 36.488 26.7435 36.3587 26.7435 36.2239C26.7435 36.0892 26.6899 35.9599 26.5946 35.8646C26.4993 35.7693 26.3701 35.7158 26.2353 35.7158C26.1005 35.7158 25.9713 35.7694 25.876 35.8647Z" fill="#3C4047"/>
<path d="M28.1654 25.668C28.0306 25.668 27.9013 25.7215 27.8061 25.8168C27.7108 25.9121 27.6572 26.0413 27.6572 26.1761C27.6572 26.3109 27.7108 26.4401 27.8061 26.5354C27.9013 26.6307 28.0306 26.6842 28.1654 26.6842H31.8692C32.004 26.6842 32.1333 26.6307 32.2285 26.5354C32.3238 26.4401 32.3774 26.3109 32.3774 26.1761C32.3774 26.0413 32.3238 25.9121 32.2285 25.8168C32.1333 25.7215 32.004 25.668 31.8692 25.668H28.1654Z" fill="#3C4047"/>
<path d="M31.8692 31.0703H28.1654C28.0306 31.0703 27.9013 31.1238 27.8061 31.2191C27.7108 31.3144 27.6572 31.4437 27.6572 31.5784C27.6572 31.7132 27.7108 31.8425 27.8061 31.9378C27.9013 32.033 28.0306 32.0866 28.1654 32.0866H31.8692C32.004 32.0866 32.1333 32.033 32.2285 31.9378C32.3238 31.8425 32.3774 31.7132 32.3774 31.5784C32.3774 31.4437 32.3238 31.3144 32.2285 31.2191C32.1333 31.1238 32.004 31.0703 31.8692 31.0703Z" fill="#3C4047"/>
<path d="M31.8692 36.4717H28.1654C28.0306 36.4717 27.9013 36.5252 27.8061 36.6205C27.7108 36.7158 27.6572 36.845 27.6572 36.9798C27.6572 37.1146 27.7108 37.2438 27.8061 37.3391C27.9013 37.4344 28.0306 37.4879 28.1654 37.4879H31.8692C32.004 37.4879 32.1333 37.4344 32.2285 37.3391C32.3238 37.2438 32.3774 37.1146 32.3774 36.9798C32.3774 36.845 32.3238 36.7158 32.2285 36.6205C32.1333 36.5252 32.004 36.4717 31.8692 36.4717Z" fill="#3C4047"/>
<path d="M31.2434 7.54405L15.9896 0.0519346C15.9199 0.0177655 15.8434 0 15.7658 0C15.6882 0 15.6116 0.0177655 15.542 0.0519346L0.28464 7.52406C0.199246 7.56588 0.1273 7.63082 0.0769812 7.7115C0.0266628 7.79218 -8.29407e-06 7.88536 1.93475e-09 7.98045V21.4184C1.93475e-09 25.2731 2.40289 29.8182 5.58948 31.9908L15.4775 38.7346C15.5619 38.7922 15.6617 38.823 15.7639 38.823C15.866 38.823 15.9658 38.7922 16.0502 38.7346L18.5512 37.0288V39.2138C18.552 39.8641 18.8107 40.4876 19.2705 40.9475C19.7303 41.4073 20.3537 41.6661 21.004 41.6669H32.5471C33.1974 41.6661 33.8208 41.4074 34.2807 40.9476C34.7405 40.4878 34.9992 39.8643 35 39.2141V22.1884C34.9992 21.5381 34.7405 20.9147 34.2807 20.4549C33.8208 19.9951 33.1974 19.7364 32.5471 19.7356H31.5276V8.0001C31.5276 7.90512 31.5009 7.81205 31.4507 7.73144C31.4005 7.65083 31.3287 7.58591 31.2434 7.54405ZM15.764 37.6997L6.16198 31.1511C3.22844 29.151 1.01627 24.9669 1.01627 21.4184V8.29736L15.7652 1.07396L30.5113 8.31633V19.7356H30.3827C30.2849 19.3008 30.0422 18.9121 29.6944 18.6334C29.3466 18.3546 28.9144 18.2024 28.4687 18.2018H27.7783V10.4795C27.7783 10.3845 27.7517 10.2914 27.7014 10.2108C27.6512 10.1302 27.5794 10.0653 27.4942 10.0234L15.9878 4.37193C15.9181 4.33777 15.8416 4.32001 15.764 4.32001C15.6865 4.32001 15.6099 4.33777 15.5403 4.37193L4.03383 10.0071C3.94845 10.0489 3.87651 10.1138 3.82619 10.1945C3.77588 10.2751 3.7492 10.3683 3.74919 10.4634V21.2451C3.74919 23.951 5.56941 27.3935 7.80656 28.9187L15.4775 34.1502C15.5618 34.2078 15.6616 34.2386 15.7638 34.2386C15.8659 34.2386 15.9657 34.2078 16.0501 34.1502L18.5512 32.4443V35.7984L15.764 37.6997ZM23.1691 19.7356H21.004C20.3537 19.7365 19.7303 19.9952 19.2705 20.455C18.8107 20.9148 18.552 21.5381 18.5512 22.1884V31.2144L15.764 33.1153L8.37915 28.0791C6.42037 26.7435 4.76554 23.614 4.76554 21.2451V10.7803L15.7635 5.39404L26.7621 10.7961V18.2018H25.0828C24.6371 18.2025 24.2049 18.3547 23.8571 18.6334C23.5093 18.9121 23.2666 19.3008 23.1688 19.7356H23.1691ZM24.1379 20.1632C24.1381 19.9126 24.2378 19.6724 24.415 19.4952C24.5922 19.318 24.8325 19.2183 25.0831 19.218H28.4689C28.7195 19.2183 28.9598 19.318 29.137 19.4952C29.3142 19.6724 29.4139 19.9126 29.4142 20.1632V20.2421C29.4139 20.4927 29.3142 20.7329 29.137 20.9101C28.9598 21.0873 28.7195 21.187 28.4689 21.1873H25.0831C24.8325 21.187 24.5922 21.0873 24.415 20.9101C24.2378 20.7329 24.1381 20.4927 24.1379 20.2421V20.1632ZM33.9841 22.1884V39.2141C33.9837 39.5949 33.8322 39.9601 33.5629 40.2294C33.2935 40.4988 32.9284 40.6502 32.5475 40.6507H21.0044C20.6235 40.6502 20.2583 40.4987 19.989 40.2294C19.7197 39.9601 19.5682 39.5949 19.5678 39.2141V36.3357L19.667 36.268L19.5678 36.1225V22.1884C19.5682 21.8075 19.7197 21.4424 19.989 21.1731C20.2583 20.9037 20.6235 20.7523 21.0044 20.7518H23.1893C23.302 21.1681 23.5484 21.5358 23.8907 21.7981C24.2329 22.0604 24.652 22.2029 25.0832 22.2035H28.4691C28.9003 22.2029 29.3194 22.0604 29.6617 21.7981C30.0039 21.5358 30.2504 21.1681 30.363 20.7518H32.548C32.9288 20.7524 33.2938 20.9039 33.563 21.1732C33.8323 21.4425 33.9837 21.8076 33.9841 22.1884Z" fill="#3C4047"/>
</svg>
