<svg width="38" height="45" viewBox="0 0 38 45" fill="none" xmlns="http://www.w3.org/2000/svg">
<path d="M23.3271 30.8529H23.9695C24.1151 30.8529 24.2547 30.7951 24.3576 30.6922C24.4605 30.5892 24.5183 30.4497 24.5183 30.3041C24.5183 30.1586 24.4605 30.019 24.3576 29.9161C24.2547 29.8131 24.1151 29.7553 23.9695 29.7553H23.8759V27.9618H25.6863C25.7193 28.0915 25.7985 28.2047 25.909 28.28C26.0196 28.3554 26.1539 28.3878 26.2866 28.3711C26.4194 28.3544 26.5414 28.2898 26.6299 28.1894C26.7184 28.089 26.7671 27.9598 26.7669 27.826V27.413C26.7669 27.2675 26.7091 27.1279 26.6062 27.025C26.5033 26.9221 26.3637 26.8643 26.2182 26.8643H23.3271C23.1816 26.8643 23.042 26.9221 22.9391 27.025C22.8361 27.1279 22.7783 27.2675 22.7783 27.413V30.3041C22.7783 30.4497 22.8361 30.5892 22.9391 30.6922C23.042 30.7951 23.1816 30.8529 23.3271 30.8529Z" fill="#3C4047"/>
<path d="M23.3271 36.474H26.2182C26.3637 36.474 26.5033 36.4162 26.6062 36.3132C26.7091 36.2103 26.7669 36.0707 26.7669 35.9252V33.0341C26.7669 32.8886 26.7091 32.749 26.6062 32.6461C26.5033 32.5432 26.3637 32.4854 26.2182 32.4854H23.3271C23.1816 32.4854 23.042 32.5432 22.9391 32.6461C22.8361 32.749 22.7783 32.8886 22.7783 33.0341V35.9252C22.7783 36.0707 22.8361 36.2103 22.9391 36.3132C23.042 36.4162 23.1816 36.474 23.3271 36.474ZM23.8759 33.5829H25.6694V35.3764H23.8759V33.5829Z" fill="#3C4047"/>
<path d="M23.9696 40.9985H23.8759V39.205H25.6694V39.2476C25.6694 39.3931 25.7272 39.5327 25.8301 39.6356C25.933 39.7386 26.0726 39.7964 26.2182 39.7964C26.3637 39.7964 26.5033 39.7386 26.6062 39.6356C26.7091 39.5327 26.7669 39.3931 26.7669 39.2476V38.6562C26.7669 38.5107 26.7091 38.3711 26.6062 38.2682C26.5033 38.1652 26.3637 38.1074 26.2182 38.1074H23.3271C23.1816 38.1074 23.042 38.1652 22.9391 38.2682C22.8361 38.3711 22.7783 38.5107 22.7783 38.6562V41.5473C22.7783 41.6928 22.8361 41.8324 22.9391 41.9353C23.042 42.0382 23.1816 42.096 23.3271 42.096H23.9696C24.1152 42.096 24.2548 42.0382 24.3577 41.9353C24.4606 41.8324 24.5184 41.6928 24.5184 41.5473C24.5184 41.4017 24.4606 41.2621 24.3577 41.1592C24.2548 41.0563 24.1152 40.9985 23.9696 40.9985Z" fill="#3C4047"/>
<path d="M27.6775 27.5965L25.834 29.4399L25.2412 28.8473C25.138 28.7457 24.9989 28.6891 24.8541 28.6897C24.7093 28.6903 24.5707 28.7481 24.4683 28.8505C24.3659 28.9529 24.3082 29.0916 24.3076 29.2363C24.307 29.3811 24.3637 29.5202 24.4653 29.6234L25.446 30.6045C25.5489 30.7073 25.6885 30.7651 25.834 30.7651C25.9795 30.7651 26.1191 30.7073 26.222 30.6045L28.4537 28.3727C28.5058 28.322 28.5473 28.2615 28.5758 28.1946C28.6043 28.1278 28.6192 28.0559 28.6197 27.9832C28.6202 27.9105 28.6063 27.8384 28.5787 27.7712C28.5511 27.7039 28.5104 27.6428 28.459 27.5914C28.4076 27.54 28.3465 27.4993 28.2793 27.4717C28.212 27.4441 28.14 27.4302 28.0673 27.4307C27.9946 27.4312 27.9227 27.4461 27.8558 27.4746C27.789 27.5031 27.7284 27.5446 27.6777 27.5967L27.6775 27.5965Z" fill="#3C4047"/>
<path d="M27.6774 38.9267L25.8338 40.7703L25.2411 40.1776C25.1377 40.077 24.9988 40.0211 24.8546 40.0221C24.7103 40.0231 24.5723 40.0809 24.4703 40.1829C24.3683 40.2849 24.3106 40.4229 24.3096 40.5672C24.3086 40.7115 24.3645 40.8503 24.4651 40.9537L25.4459 41.9344C25.5488 42.0373 25.6883 42.0951 25.8338 42.0951C25.9794 42.0951 26.1189 42.0373 26.2218 41.9344L28.4535 39.7027C28.5052 39.6519 28.5463 39.5914 28.5744 39.5246C28.6025 39.4579 28.6172 39.3862 28.6175 39.3138C28.6178 39.2413 28.6038 39.1695 28.5762 39.1026C28.5486 39.0356 28.508 38.9747 28.4568 38.9235C28.4056 38.8722 28.3447 38.8317 28.2777 38.8041C28.2108 38.7765 28.139 38.7624 28.0665 38.7627C27.9941 38.763 27.9224 38.7776 27.8557 38.8057C27.7889 38.8339 27.7284 38.8749 27.6776 38.9266L27.6774 38.9267Z" fill="#3C4047"/>
<path d="M30.0732 28.3105C29.9276 28.3105 29.7881 28.3684 29.6851 28.4713C29.5822 28.5742 29.5244 28.7138 29.5244 28.8593C29.5244 29.0049 29.5822 29.1445 29.6851 29.2474C29.7881 29.3503 29.9276 29.4081 30.0732 29.4081H33.9279C34.0735 29.4081 34.213 29.3503 34.316 29.2474C34.4189 29.1445 34.4767 29.0049 34.4767 28.8593C34.4767 28.7138 34.4189 28.5742 34.316 28.4713C34.213 28.3684 34.0735 28.3105 33.9279 28.3105H30.0732Z" fill="#3C4047"/>
<path d="M33.9277 33.9316H30.0732C29.9276 33.9316 29.7881 33.9895 29.6851 34.0924C29.5822 34.1953 29.5244 34.3349 29.5244 34.4804C29.5244 34.626 29.5822 34.7656 29.6851 34.8685C29.7881 34.9714 29.9276 35.0292 30.0732 35.0292H33.9279C34.0735 35.0292 34.213 34.9714 34.316 34.8685C34.4189 34.7656 34.4767 34.626 34.4767 34.4804C34.4767 34.3349 34.4189 34.1953 34.316 34.0924C34.213 33.9895 34.0735 33.9316 33.9279 33.9316H33.9277Z" fill="#3C4047"/>
<path d="M33.9277 39.5537H30.0732C29.9276 39.5537 29.7881 39.6115 29.6851 39.7144C29.5822 39.8174 29.5244 39.9569 29.5244 40.1025C29.5244 40.248 29.5822 40.3876 29.6851 40.4905C29.7881 40.5935 29.9276 40.6513 30.0732 40.6513H33.9279C34.0735 40.6513 34.213 40.5935 34.316 40.4905C34.4189 40.3876 34.4767 40.248 34.4767 40.1025C34.4767 39.9569 34.4189 39.8174 34.316 39.7144C34.213 39.6115 34.0735 39.5537 33.9279 39.5537H33.9277Z" fill="#3C4047"/>
<path d="M17.4347 34.8687C18.3094 34.8683 19.1829 34.8029 20.0479 34.6728V42.4273C20.0486 43.1094 20.32 43.7634 20.8023 44.2457C21.2846 44.728 21.9385 44.9993 22.6206 45H34.6344C35.3165 44.9993 35.9705 44.7281 36.4529 44.2458C36.9352 43.7634 37.2066 43.1095 37.2073 42.4273V24.7082C37.2066 24.0261 36.9353 23.3722 36.453 22.8899C35.9707 22.4076 35.3168 22.1363 34.6347 22.1355H34.2275C34.6545 20.605 34.8704 19.0233 34.8693 17.4343C34.869 7.82104 27.0479 0 17.4347 0C7.8214 0 0 7.82104 0 17.4343C0 27.0476 7.82131 34.8687 17.4347 34.8687ZM36.1098 24.7082V42.4273C36.1093 42.8185 35.9537 43.1934 35.6771 43.47C35.4005 43.7466 35.0255 43.9021 34.6344 43.9024H22.6206C22.2295 43.902 21.8546 43.7465 21.578 43.4699C21.3014 43.1934 21.1459 42.8184 21.1454 42.4273V24.7082C21.1459 24.3171 21.3014 23.9421 21.578 23.6656C21.8546 23.389 22.2295 23.2335 22.6206 23.2331H24.8896C25.0179 23.6687 25.2836 24.0512 25.6471 24.3235C26.0106 24.5957 26.4524 24.7432 26.9065 24.7438H30.3483C30.8025 24.7432 31.2443 24.5957 31.6078 24.3235C31.9713 24.0512 32.2371 23.6687 32.3654 23.2331H33.4756H33.4902H34.6347C35.0258 23.2335 35.4007 23.3891 35.6773 23.6656C35.9538 23.9422 36.1093 24.3171 36.1098 24.7082ZM25.9024 22.6411C25.9028 22.3748 26.0088 22.1194 26.1971 21.9311C26.3855 21.7427 26.6408 21.6368 26.9072 21.6364H30.3489C30.4817 21.6351 30.6134 21.6602 30.7364 21.7101C30.8594 21.76 30.9713 21.8339 31.0656 21.9273C31.16 22.0207 31.2348 22.1319 31.2859 22.2544C31.337 22.377 31.3633 22.5084 31.3633 22.6412C31.3633 22.7739 31.337 22.9054 31.2859 23.0279C31.2348 23.1504 31.16 23.2616 31.0656 23.3551C30.9713 23.4485 30.8594 23.5223 30.7364 23.5722C30.6134 23.6222 30.4817 23.6472 30.3489 23.6459H26.9072C26.6407 23.6458 26.3852 23.5399 26.1968 23.3516C26.0083 23.1632 25.9022 22.9078 25.9018 22.6414L25.9024 22.6411ZM17.4347 1.09756C26.4427 1.09756 33.7714 8.42616 33.7714 17.4343C33.7727 19.0265 33.5413 20.6103 33.0844 22.1355H32.3888C32.2752 21.6801 32.0128 21.2756 31.6431 20.9864C31.2734 20.6972 30.8177 20.5397 30.3483 20.5391H26.9065C26.4372 20.5398 25.9815 20.6972 25.6118 20.9864C25.2421 21.2757 24.9797 21.6801 24.8662 22.1355H22.6206C21.9385 22.1363 21.2846 22.4076 20.8023 22.8899C20.32 23.3722 20.0486 24.0261 20.0479 24.7082V33.563C19.1837 33.7015 18.3099 33.7711 17.4347 33.7711C8.42652 33.7711 1.09756 26.4421 1.09756 17.4343C1.09756 8.42653 8.42652 1.09756 17.4347 1.09756Z" fill="#3C4047"/>
<path d="M6.39675 17.6957C6.50705 17.2793 6.79159 16.5043 7.09086 16.1754C7.54009 15.7442 8.13822 15.5027 8.76089 15.5012H8.77232C9.3891 15.4997 9.98178 15.7406 10.4226 16.172C10.8561 16.6211 11.0994 17.2204 11.1015 17.8446C11.1015 17.9901 11.1593 18.1297 11.2623 18.2326C11.3652 18.3355 11.5048 18.3934 11.6503 18.3934C11.7959 18.3934 11.9354 18.3355 12.0384 18.2326C12.1413 18.1297 12.1991 17.9901 12.1991 17.8446C12.194 17.5342 12.2516 17.2261 12.3684 16.9385C12.4852 16.651 12.6589 16.39 12.879 16.1712C13.0992 15.9524 13.3612 15.7802 13.6494 15.6651C13.9377 15.55 14.2462 15.4942 14.5565 15.5012C15.1734 15.4996 15.7662 15.7405 16.2071 16.172C16.6406 16.6211 16.8839 17.2204 16.886 17.8446V26.3707C16.886 26.8913 16.6792 27.3905 16.3112 27.7586C15.9431 28.1267 15.4438 28.3335 14.9232 28.3335C14.4027 28.3335 13.9034 28.1267 13.5353 27.7586C13.1672 27.3905 12.9604 26.8913 12.9604 26.3707V25.3337C12.9604 25.1881 12.9026 25.0486 12.7997 24.9456C12.6968 24.8427 12.5572 24.7849 12.4117 24.7849C12.2661 24.7849 12.1265 24.8427 12.0236 24.9456C11.9207 25.0486 11.8629 25.1881 11.8629 25.3337V26.3707C11.8629 27.1824 12.1853 27.9608 12.7592 28.5347C13.3332 29.1086 14.1116 29.4311 14.9232 29.4311C15.7349 29.4311 16.5133 29.1086 17.0872 28.5347C17.6612 27.9608 17.9836 27.1824 17.9836 26.3707V17.8448C17.9785 17.5345 18.0361 17.2264 18.153 16.9389C18.2698 16.6514 18.4435 16.3904 18.6636 16.1717C18.8837 15.9529 19.1457 15.7808 19.4339 15.6657C19.7221 15.5505 20.0306 15.4948 20.3409 15.5017C20.9577 15.5002 21.5504 15.7411 21.9913 16.1724C22.4248 16.6216 22.668 17.2209 22.6702 17.8451C22.6702 17.9907 22.728 18.1303 22.8309 18.2332C22.9338 18.3361 23.0734 18.3939 23.219 18.3939C23.3645 18.3939 23.5041 18.3361 23.607 18.2332C23.7099 18.1303 23.7678 17.9907 23.7678 17.8451C23.7626 17.5348 23.8202 17.2266 23.9371 16.9391C24.0539 16.6516 24.2276 16.3906 24.4477 16.1718C24.6678 15.9529 24.9298 15.7808 25.218 15.6657C25.5062 15.5506 25.8147 15.4948 26.125 15.5017C26.7416 15.5002 27.334 15.7409 27.7749 16.1719C28.0755 16.4985 28.3619 17.278 28.4724 17.6956C28.5065 17.8243 28.5862 17.9363 28.6968 18.0106C28.8074 18.0849 28.9412 18.1164 29.0733 18.0993C29.2054 18.0822 29.3267 18.0177 29.4148 17.9177C29.5028 17.8177 29.5514 17.6891 29.5516 17.5559V17.5405C29.5473 10.8657 24.116 5.43848 17.4419 5.43848H17.4192C14.2075 5.44059 11.1282 6.71842 8.85872 8.99087C6.5892 11.2633 5.31535 14.3443 5.31739 17.5559C5.31757 17.6891 5.3662 17.8177 5.4542 17.9177C5.54221 18.0177 5.66358 18.0823 5.79569 18.0994C5.9278 18.1165 6.06162 18.085 6.17219 18.0107C6.28277 17.9364 6.36255 17.8244 6.39665 17.6957H6.39675ZM9.63519 9.76625C10.6547 8.73985 11.8676 7.92584 13.2038 7.37133C14.54 6.81682 15.9729 6.53282 17.4195 6.53576H17.4345H17.4419C19.9318 6.53901 22.3475 7.38451 24.296 8.93478C26.2444 10.485 27.6112 12.6489 28.1739 15.0744C27.5812 14.6374 26.8638 14.4023 26.1274 14.4039H26.1107C25.2027 14.4042 24.3303 14.7573 23.6778 15.3886C23.6698 15.3962 23.6619 15.4041 23.6543 15.4121C23.492 15.5839 23.346 15.7704 23.2184 15.9694C23.0908 15.7704 22.9449 15.5839 22.7825 15.4121C22.7777 15.4069 22.7726 15.4018 22.7675 15.3966C22.1218 14.759 21.2505 14.4022 20.343 14.4039H20.3263C19.4184 14.4042 18.546 14.7573 17.8934 15.3886C17.8854 15.3961 17.8776 15.404 17.87 15.412C17.7077 15.5838 17.5618 15.7703 17.4341 15.9691C17.3064 15.7702 17.1605 15.5836 16.9982 15.4118C16.9932 15.4066 16.9883 15.4015 16.9832 15.3965C16.3375 14.7588 15.4661 14.4019 14.5587 14.4036H14.5425C13.6345 14.4039 12.7621 14.757 12.1095 15.3883C12.1015 15.3959 12.0936 15.4038 12.086 15.4118C11.9238 15.5836 11.7779 15.7702 11.6502 15.969C11.5225 15.7702 11.3765 15.5837 11.2143 15.4118C11.2094 15.4066 11.2043 15.4015 11.1993 15.3966C10.5537 14.7588 9.68229 14.4019 8.77479 14.4036H8.75815C8.0133 14.4019 7.28781 14.6408 6.6897 15.0848C7.14936 13.0693 8.17063 11.2252 9.63519 9.76625Z" fill="#3C4047"/>
</svg>
