<svg width="32" height="42" viewBox="0 0 32 42" fill="none" xmlns="http://www.w3.org/2000/svg">
<path d="M2.46571 36.9665C2.46738 37.3698 2.62873 37.7559 2.91445 38.0405C3.20018 38.3251 3.587 38.4848 3.99025 38.4849C4.66865 38.4869 5.34071 38.3542 5.96747 38.0946C6.59423 37.8349 7.16323 37.4535 7.64149 36.9724L7.65155 36.9624C7.99007 36.6245 8.41475 36.3859 8.87942 36.2726C9.53764 37.5292 10.5356 38.6595 11.856 39.6258C13.029 40.4823 14.3302 41.1476 15.7113 41.5973C15.813 41.627 15.921 41.6275 16.023 41.5988C17.4442 41.1523 18.7877 40.4886 20.0059 39.6313C21.3599 38.674 22.3868 37.5553 23.068 36.312C23.4485 36.4328 23.7944 36.643 24.077 36.925L24.1232 36.9712C24.6008 37.452 25.169 37.8333 25.7949 38.0931C26.4207 38.353 27.0919 38.4862 27.7696 38.4851H27.7715C28.1741 38.4864 28.5608 38.3284 28.8473 38.0454C29.1337 37.7625 29.2966 37.3778 29.3003 36.9752C29.303 36.1012 29.0839 35.2407 28.6636 34.4744C28.6616 34.469 28.6611 34.4631 28.6622 34.4574C28.6633 34.4518 28.6659 34.4465 28.6698 34.4422L28.6732 34.4378C31.7105 30.6177 32.7313 25.7439 31.4739 21.0658C30.3102 16.737 27.3571 13.1222 23.4535 11.1688C24.0487 10.8228 24.3427 10.4158 24.3427 9.93839V8.6416C24.3427 8.63445 24.3419 8.62749 24.3416 8.62035C24.3416 8.61038 24.3427 8.60051 24.3427 8.59044C24.3427 8.04751 23.9166 7.5073 21.1476 7.16662C21.6313 6.709 22.0331 6.17201 22.3356 5.5789L24.047 2.23072C24.1019 2.12336 24.121 2.00121 24.1015 1.88221C24.0819 1.7632 24.0248 1.65359 23.9383 1.56945C23.8519 1.48531 23.7408 1.43108 23.6214 1.41471C23.5019 1.39833 23.3803 1.42068 23.2744 1.47846C22.3763 1.96846 21.2266 1.4495 20.4203 0.927814C19.6581 0.426957 18.7859 0.118146 17.8783 0.0277869C16.9707 -0.062572 16.0548 0.0682092 15.2088 0.408948C13.8547 0.966461 13.1865 1.85233 12.9436 2.24623C10.4036 3.38561 8.96988 1.69887 8.90434 1.61904C8.81906 1.51354 8.69862 1.4423 8.56509 1.41837C8.43156 1.39444 8.29388 1.41943 8.17727 1.48875C8.06066 1.55807 7.97294 1.66708 7.93016 1.79582C7.88739 1.92456 7.89243 2.0644 7.94437 2.18972L9.17402 5.15792C9.49479 5.93384 9.97968 6.63115 10.5954 7.20197C8.06003 7.54651 7.66716 8.06791 7.66716 8.59007C7.66716 8.60013 7.66791 8.61 7.6682 8.61997C7.6682 8.62712 7.66716 8.63408 7.66716 8.64122V9.93792C7.66716 10.4348 8.00624 10.8389 8.56215 11.1656C4.6731 13.1093 1.72061 16.7025 0.543239 21.0033C-0.724306 25.6332 0.250613 30.4736 3.21373 34.2815C2.72251 35.0908 2.4637 36.0198 2.46571 36.9665ZM19.3806 38.6917C18.3023 39.4473 17.1211 40.0441 15.8732 40.4638C14.8447 40.1143 9.07284 37.9062 9.07284 32.4323V28.4566C11.5197 27.3785 13.8423 26.038 15.9998 24.4585C18.1573 26.038 20.48 27.3785 22.9269 28.4566V32.4323C22.9335 33.4482 22.7151 34.4529 22.2875 35.3744C22.2679 35.4071 22.2516 35.4418 22.239 35.4778C21.6554 36.6783 20.7006 37.7531 19.3806 38.6917ZM8.79545 9.92447V9.61304C9.32966 9.76751 9.87491 9.8809 10.4264 9.95221C11.921 10.1707 13.9021 10.2907 16.005 10.2907C18.108 10.2907 20.089 10.1704 21.5835 9.95221C22.135 9.88091 22.6803 9.76752 23.2146 9.61304V9.92334C23.1901 9.96697 22.9828 10.2713 21.8628 10.6079C21.8572 10.6096 21.8515 10.6109 21.8461 10.6127C20.4126 11.0409 18.2852 11.2864 16.005 11.2864C14.0922 11.2864 12.2692 11.1125 10.8714 10.7965C9.33613 10.4494 8.85252 10.0483 8.79545 9.92447ZM19.8073 1.87537C20.7683 2.49701 21.6728 2.80854 22.4865 2.80421L21.3314 5.06539C20.9006 5.91206 20.2222 6.60742 19.3864 7.05886C19.3515 7.07287 19.3182 7.09038 19.2868 7.11114C18.8358 7.34037 18.3505 7.49475 17.8499 7.56823L18.7772 2.69739C18.7964 2.59653 18.7877 2.49234 18.752 2.39605C18.7164 2.29977 18.6552 2.21503 18.5749 2.15098C18.5153 2.1034 17.4826 1.3061 15.6744 1.43963C16.3479 1.17642 17.0748 1.07863 17.7939 1.15446C18.513 1.2303 19.2035 1.47755 19.8073 1.87546V1.87537ZM10.2161 4.72612L9.70379 3.48867C10.571 3.82079 11.8891 3.99804 13.5346 3.21711C13.5676 3.20518 13.5994 3.19023 13.6296 3.17244C15.6859 2.18718 17.0445 2.60129 17.595 2.87041L16.6912 7.619H14.5458C13.8156 7.61963 13.0955 7.44968 12.4426 7.12271C12.4166 7.10663 12.3892 7.09272 12.3608 7.08114C11.3926 6.57125 10.6339 5.7379 10.2168 4.72622L10.2161 4.72612ZM12.033 8.17943C12.8175 8.55404 13.6761 8.74802 14.5455 8.7471H17.1578C18.0446 8.74822 18.92 8.54655 19.7169 8.15752C21.2152 8.27864 22.1471 8.44846 22.6857 8.59176C21.6554 8.86069 19.4104 9.16263 16.0048 9.16263C12.5991 9.16263 10.3555 8.86088 9.32475 8.59204C9.8313 8.45748 10.6855 8.29895 12.0332 8.17953L12.033 8.17943ZM1.63175 21.3013C2.81852 16.9665 5.94639 13.4082 10.0173 11.7456C11.8056 12.2469 14.2497 12.4146 16.0053 12.4146C17.3397 12.4192 18.6729 12.3304 19.9949 12.1488C19.3272 13.1802 18.8554 14.326 18.6032 15.5286C18.5875 15.6012 18.5863 15.6762 18.5997 15.7493C18.6131 15.8225 18.6407 15.8922 18.6811 15.9546C18.7216 16.017 18.7739 16.0707 18.8352 16.1128C18.8964 16.1549 18.9654 16.1845 19.0381 16.1998C19.1108 16.2152 19.1859 16.216 19.2589 16.2023C19.3319 16.1886 19.4016 16.1605 19.4637 16.1198C19.5259 16.0791 19.5794 16.0265 19.6212 15.965C19.663 15.9036 19.6922 15.8345 19.7072 15.7617C19.9685 14.5159 20.4944 13.3408 21.2494 12.3161L21.4767 12.6457L21.4891 12.6667C22.4479 14.308 23.1462 16.088 23.5591 17.9434C23.5875 18.068 23.6573 18.1793 23.7571 18.2591C23.857 18.3389 23.981 18.3824 24.1088 18.3825C24.151 18.3825 24.1932 18.3777 24.2344 18.3684C24.3066 18.352 24.375 18.3215 24.4354 18.2786C24.4959 18.2358 24.5473 18.1815 24.5868 18.1188C24.6263 18.0561 24.653 17.9862 24.6654 17.9131C24.6779 17.8401 24.6759 17.7653 24.6594 17.6931C24.2207 15.7243 23.4792 13.8355 22.4613 12.0941L22.4374 12.0536C22.431 12.0427 22.424 12.0319 22.4168 12.0214L22.3227 11.8847C26.2496 13.6089 29.2435 17.1122 30.3851 21.3584C31.5483 25.6855 30.6036 30.1952 27.793 33.733L27.7884 33.7386C27.6452 33.9169 27.558 34.1336 27.5379 34.3614C27.5178 34.5892 27.5657 34.8179 27.6756 35.0185C28.0038 35.6171 28.1748 36.2892 28.1725 36.9719C28.1701 37.0759 28.1267 37.1748 28.0517 37.2469C27.9767 37.319 27.8762 37.3585 27.7721 37.3568C27.2427 37.3576 26.7183 37.2536 26.2292 37.0506C25.7402 36.8476 25.2962 36.5498 24.923 36.1742L24.877 36.1281C24.4999 35.7517 24.0446 35.4628 23.5434 35.2819C23.8856 34.3711 24.0593 33.4056 24.056 32.4327V28.0866C24.056 27.9762 24.0236 27.8682 23.9629 27.7761C23.9022 27.6839 23.8157 27.6116 23.7143 27.5681L23.6655 27.5471C21.0639 26.4279 18.6043 25.0039 16.3383 23.305C16.2406 23.2317 16.1218 23.1921 15.9998 23.1921C15.8777 23.1921 15.7589 23.2317 15.6613 23.305C13.3956 25.0037 10.9364 26.4277 8.33516 27.5469L8.28598 27.5681C8.18455 27.6116 8.09812 27.6839 8.03738 27.7761C7.97664 27.8682 7.94427 27.9762 7.94427 28.0866V32.4323C7.94083 33.3845 8.10193 34.3301 8.42045 35.2274C7.8291 35.4056 7.29105 35.7273 6.85426 36.164L6.84486 36.1734C6.47103 36.5496 6.02624 36.8479 5.53627 37.0509C5.0463 37.254 4.5209 37.3577 3.99053 37.3562C3.93868 37.357 3.88719 37.3475 3.83907 37.3281C3.79096 37.3088 3.74718 37.2801 3.7103 37.2436C3.67342 37.2072 3.64418 37.1637 3.62429 37.1159C3.6044 37.068 3.59426 37.0166 3.59447 36.9647C3.5928 36.2178 3.79892 35.485 4.18978 34.8485C4.30578 34.659 4.3612 34.4387 4.34863 34.2169C4.33606 33.9951 4.25611 33.7824 4.11945 33.6073C1.36395 30.0762 0.4572 25.5907 1.63175 21.3013Z" fill="#3C4047"/>
<path d="M18.2968 30.1342L14.9501 33.4809L13.7028 32.2339C13.5965 32.1305 13.4538 32.0731 13.3055 32.0741C13.1572 32.0751 13.0153 32.1344 12.9104 32.2393C12.8055 32.3441 12.7461 32.4861 12.7451 32.6344C12.7441 32.7827 12.8015 32.9254 12.905 33.0317L14.5512 34.6779C14.657 34.7837 14.8005 34.8432 14.9501 34.8432C15.0997 34.8432 15.2432 34.7837 15.349 34.6779L19.0947 30.9323C19.1981 30.826 19.2555 30.6832 19.2545 30.5349C19.2535 30.3866 19.1941 30.2447 19.0893 30.1398C18.9844 30.035 18.8424 29.9756 18.6941 29.9746C18.5458 29.9736 18.4031 30.0311 18.2968 30.1345V30.1342Z" fill="#3C4047"/>
</svg>
