<svg width="32" height="45" viewBox="0 0 32 45" fill="none" xmlns="http://www.w3.org/2000/svg">
<path d="M25.7277 36.6035C25.8721 36.6035 26.0105 36.5462 26.1125 36.4441C26.2146 36.3421 26.2719 36.2037 26.2719 36.0594V35.5139C26.2719 35.3696 26.2146 35.2311 26.1125 35.1291C26.0105 35.0271 25.8721 34.9697 25.7277 34.9697C25.5834 34.9697 25.445 35.0271 25.343 35.1291C25.2409 35.2311 25.1836 35.3696 25.1836 35.5139V36.0594C25.1836 36.2037 25.2409 36.3421 25.343 36.4441C25.445 36.5462 25.5834 36.6035 25.7277 36.6035Z" fill="#3C4047"/>
<path d="M12.2906 4.63655C11.0846 6.28586 10.3936 8.25507 10.3044 10.2963H9.63269C9.48837 10.2963 9.34997 10.3536 9.24792 10.4556C9.14588 10.5577 9.08855 10.6961 9.08855 10.8404V13.1518C9.08855 13.2962 9.14588 13.4346 9.24792 13.5366C9.34997 13.6387 9.48837 13.696 9.63269 13.696H10.7358L10.8003 14.632C10.4747 14.7452 10.1828 14.9386 9.9515 15.1944C9.72024 15.4501 9.55708 15.7599 9.47707 16.0953C9.32633 16.7114 9.40782 17.3615 9.70598 17.9214C10.0041 18.4813 10.4981 18.9117 11.0934 19.1305C11.164 20.5856 11.6056 21.9984 12.3763 23.2346C13.1469 24.4708 14.2209 25.4894 15.4962 26.1935V28.1578L14.7499 28.4768C12.5747 27.4337 10.5071 26.1797 8.57678 24.7328C8.48259 24.6622 8.36803 24.624 8.2503 24.624C8.13256 24.624 8.018 24.6622 7.92381 24.7328C5.59075 26.4821 3.05838 27.9484 0.379811 29.1009L0.329116 29.1227C0.231402 29.1647 0.148152 29.2345 0.0896582 29.3233C0.0311647 29.4122 -6.08616e-06 29.5162 8.91342e-10 29.6226V35.2053C8.91342e-10 38.1074 1.38629 40.6558 4.00897 42.5759C5.21237 43.4544 6.54717 44.137 7.96389 44.5983C8.06199 44.627 8.16618 44.6275 8.26453 44.5997C9.72256 44.1417 11.1009 43.4608 12.3507 42.5812C12.8876 42.2036 13.3922 41.7819 13.8591 41.3206H30.5462C30.6905 41.3206 30.8289 41.2633 30.931 41.1612C31.033 41.0592 31.0903 40.9208 31.0903 40.7764V34.0975C31.0903 34.0825 31.0897 34.0673 31.0885 34.0522C31.0174 33.2314 30.7375 32.4425 30.2756 31.7603C29.8137 31.0781 29.1851 30.5253 28.4494 30.1545C28.4396 30.1495 28.4297 30.1454 28.4197 30.1407L23.7732 28.1576V26.1708C25.038 25.4635 26.1019 24.446 26.8649 23.2141C27.628 21.9822 28.065 20.5765 28.1349 19.1291C28.7291 18.9094 29.2216 18.4788 29.5188 17.9193C29.816 17.3599 29.8971 16.7107 29.7466 16.0954C29.6667 15.761 29.5042 15.4521 29.274 15.1968C29.0438 14.9415 28.7532 14.7481 28.4288 14.6342L28.4935 13.696H29.6367C29.7811 13.696 29.9195 13.6387 30.0215 13.5366C30.1236 13.4346 30.1809 13.2962 30.1809 13.1518V10.8404C30.1809 10.6961 30.1236 10.5577 30.0215 10.4556C29.9195 10.3536 29.7811 10.2963 29.6367 10.2963H28.9656C28.8795 8.25167 28.1878 6.27877 26.9782 4.62812C25.8287 3.05931 24.2201 1.88648 22.3749 1.27184L22.4446 0.600099C22.4525 0.524372 22.4443 0.447846 22.4207 0.375466C22.3971 0.303085 22.3586 0.236463 22.3076 0.179904C22.2567 0.123345 22.1944 0.0781095 22.1249 0.0471204C22.0553 0.0161312 21.9801 7.85572e-05 21.9039 0H17.3657C17.2895 -1.96822e-07 17.2141 0.0160009 17.1445 0.0469674C17.0749 0.077934 17.0126 0.123176 16.9616 0.179763C16.9105 0.23635 16.872 0.303022 16.8484 0.375462C16.8247 0.447901 16.8166 0.524494 16.8244 0.60028L16.8942 1.27212C15.0476 1.88855 13.4387 3.0644 12.2906 4.63655ZM25.3619 33.5146V30.019L26.0921 30.3306V33.5146H25.3619ZM27.0015 34.6029V40.2319H14.8095C15.9118 38.7884 16.5063 37.0211 16.5006 35.2049V34.6029H27.0015ZM11.7473 41.6743C10.6321 42.4555 9.41016 43.0721 8.11916 43.505C6.88127 43.075 5.71305 42.4659 4.6517 41.6972C2.28712 39.9665 1.08819 37.7821 1.08819 35.2049V29.9791C3.61899 28.8661 6.02058 27.4798 8.2502 25.8451C10.4799 27.4798 12.8815 28.866 15.4122 29.9791V35.2049C15.4123 37.7692 14.1792 39.9459 11.7474 41.6743H11.7473ZM30.002 34.1208V40.2319H28.0897V34.0587C28.0897 33.9144 28.0324 33.776 27.9304 33.674C27.8283 33.5719 27.6899 33.5146 27.5456 33.5146H27.1808V30.7951L27.9774 31.1351C28.5394 31.4215 29.0197 31.8455 29.3738 32.3676C29.7278 32.8896 29.9439 33.4928 30.002 34.1208H30.002ZM24.2735 29.5546V33.5146H16.5006V29.6221C16.5003 29.4969 16.4567 29.3756 16.3772 29.2788C17.4749 29.7208 18.6511 29.9348 19.8341 29.9077C21.0172 29.8806 22.1823 29.6131 23.2587 29.1214L24.2735 29.5546ZM22.6851 28.1857C21.7229 28.6052 20.6845 28.8217 19.6348 28.8217C18.5851 28.8217 17.5467 28.6052 16.5845 28.1857V26.6993C18.5505 27.446 20.723 27.4404 22.6851 26.6836V28.1857ZM28.6897 16.3542C28.738 16.5519 28.7454 16.7575 28.7113 16.9582C28.6772 17.1588 28.6024 17.3504 28.4915 17.5211C28.3805 17.6917 28.2358 17.8379 28.0663 17.9505C27.8967 18.0631 27.7059 18.1398 27.5055 18.1758C27.3796 18.1981 27.2656 18.264 27.1834 18.362C27.1013 18.46 27.0562 18.5838 27.0562 18.7116V18.7244C27.0562 19.7017 26.8637 20.6695 26.4897 21.5724C26.1157 22.4753 25.5676 23.2957 24.8765 23.9867C24.1854 24.6778 23.365 25.226 22.4621 25.6C21.5592 25.974 20.5915 26.1665 19.6142 26.1665C18.6369 26.1665 17.6691 25.974 16.7662 25.6C15.8633 25.226 15.0429 24.6778 14.3518 23.9867C13.6608 23.2957 13.1126 22.4753 12.7386 21.5724C12.3646 20.6695 12.1721 19.7017 12.1721 18.7244V18.7124C12.1721 18.5843 12.127 18.4604 12.0446 18.3623C11.9622 18.2643 11.848 18.1985 11.7218 18.1764C11.5211 18.1408 11.3298 18.0644 11.1597 17.952C10.9896 17.8395 10.8444 17.6934 10.7331 17.5226C10.6217 17.3518 10.5466 17.16 10.5123 16.959C10.478 16.758 10.4853 16.5522 10.5338 16.3541C10.5678 16.2039 10.6376 16.0641 10.7374 15.9468C10.8372 15.8295 10.9639 15.7381 11.1067 15.6804C11.2089 15.8022 11.3343 15.9025 11.4757 15.9754L12.4327 16.4668C12.5363 16.5199 12.6515 16.5467 12.768 16.5446C12.8845 16.5426 12.9987 16.5119 13.1004 16.4552C13.2022 16.3984 13.2884 16.3175 13.3514 16.2195C13.4144 16.1215 13.4522 16.0095 13.4616 15.8933L13.6372 13.696H25.345C25.4334 14.078 25.5388 14.4571 25.6624 14.8275L26.1445 16.2737C26.1817 16.3864 26.2468 16.4878 26.3337 16.5687C26.4206 16.6495 26.5264 16.7072 26.6415 16.7362C26.699 16.7508 26.7581 16.7582 26.8174 16.7582C26.9963 16.7582 27.1686 16.6901 27.2992 16.5678L27.9718 15.94C28.0466 15.8695 28.1133 15.7907 28.1706 15.7052C28.3006 15.7671 28.4148 15.8576 28.5047 15.97C28.5947 16.0824 28.6579 16.2138 28.6897 16.3542ZM11.8269 13.696H12.5461L12.4228 15.2377L11.9736 15.0071C11.9558 14.9979 11.9408 14.9844 11.9298 14.9677C11.9187 14.951 11.9122 14.9318 11.9107 14.9119L11.8269 13.696ZM27.3155 14.9621C27.3108 15.0316 27.2799 15.0966 27.2289 15.144L26.9894 15.3676L26.6947 14.4835C26.6085 14.2247 26.532 13.9614 26.4643 13.696H27.4029L27.3155 14.9621ZM29.0931 12.6077H26.0232C25.9457 12.5672 25.8597 12.5461 25.7723 12.5461C25.6849 12.5461 25.5988 12.5672 25.5214 12.6077H13.1284C13.1256 12.6077 13.1228 12.6077 13.12 12.6077H10.1768V11.3846H29.0928L29.0931 12.6077ZM17.622 2.19163C17.7473 2.15833 17.8565 2.08141 17.9301 1.9747C18.0038 1.86799 18.0368 1.73851 18.0235 1.60957L17.969 1.08829H21.3001L21.2457 1.60957C21.2323 1.73851 21.2654 1.86799 21.339 1.9747C21.4126 2.08141 21.5219 2.15833 21.6472 2.19163C22.063 2.30287 22.4688 2.44888 22.8602 2.62812V3.47862C22.86 4.46604 22.5608 5.43026 22.0021 6.24438C21.4433 7.0585 20.6511 7.68434 19.7298 8.03953C18.7608 7.71348 17.9187 7.09106 17.3228 6.26027C16.7269 5.42949 16.4072 4.43238 16.4089 3.40996V2.62912C16.8002 2.44936 17.206 2.30301 17.622 2.19163ZM15.3206 3.23357V3.40996C15.3184 4.67216 15.7168 5.90249 16.4585 6.92376C17.2003 7.94504 18.247 8.70454 19.4479 9.0929L19.5716 9.13308C19.684 9.16962 19.8052 9.1686 19.9169 9.13017C21.0936 8.72512 22.1145 7.96293 22.8373 6.94991C23.5601 5.93688 23.9488 4.72352 23.949 3.47907V3.23157C24.7815 3.78171 25.511 4.47372 26.1042 5.2761C27.1753 6.739 27.7917 8.48511 27.8762 10.2963H11.3944C11.4819 8.488 12.0978 6.74509 13.1659 5.28336C13.7586 4.47925 14.4879 3.78545 15.3206 3.23357Z" fill="#3C4047"/>
<path d="M18.6682 5.8627H20.8115C20.9558 5.8627 21.0942 5.80537 21.1962 5.70332C21.2983 5.60128 21.3556 5.46287 21.3556 5.31856C21.3556 5.17424 21.2983 5.03584 21.1962 4.93379C21.0942 4.83174 20.9558 4.77441 20.8115 4.77441H18.6682C18.5239 4.77441 18.3854 4.83174 18.2834 4.93379C18.1814 5.03584 18.124 5.17424 18.124 5.31856C18.124 5.46287 18.1814 5.60128 18.2834 5.70332C18.3854 5.80537 18.5239 5.8627 18.6682 5.8627Z" fill="#3C4047"/>
<path d="M18.6682 3.88711H20.8115C20.9558 3.88711 21.0942 3.82978 21.1962 3.72774C21.2983 3.62569 21.3556 3.48729 21.3556 3.34297C21.3556 3.19866 21.2983 3.06025 21.1962 2.9582C21.0942 2.85616 20.9558 2.79883 20.8115 2.79883H18.6682C18.5239 2.79883 18.3854 2.85616 18.2834 2.9582C18.1814 3.06025 18.124 3.19866 18.124 3.34297C18.124 3.48729 18.1814 3.62569 18.2834 3.72774C18.3854 3.82978 18.5239 3.88711 18.6682 3.88711Z" fill="#3C4047"/>
<path d="M11.2191 32.22L7.25193 35.8539L5.31333 33.7518C5.26489 33.6993 5.20657 33.6568 5.14172 33.6268C5.07686 33.5968 5.00672 33.5799 4.93532 33.577C4.86392 33.5741 4.79265 33.5853 4.72558 33.6099C4.65851 33.6346 4.59694 33.6722 4.54441 33.7207C4.49188 33.7691 4.4494 33.8274 4.4194 33.8923C4.38941 33.9571 4.37248 34.0273 4.36959 34.0987C4.36669 34.1701 4.37789 34.2413 4.40255 34.3084C4.4272 34.3755 4.46482 34.437 4.51326 34.4896L6.81952 36.9904C6.91714 37.0962 7.05273 37.159 7.19659 37.1651C7.34045 37.1712 7.48085 37.12 7.58703 37.0227L11.9542 33.0227C12.0069 32.9744 12.0496 32.9162 12.0798 32.8514C12.11 32.7867 12.1272 32.7166 12.1303 32.6452C12.1335 32.5738 12.1225 32.5025 12.0981 32.4353C12.0737 32.3682 12.0362 32.3065 11.988 32.2538C11.9397 32.2011 11.8815 32.1584 11.8168 32.1282C11.752 32.098 11.6819 32.0808 11.6105 32.0777C11.5391 32.0745 11.4678 32.0855 11.4006 32.1099C11.3335 32.1344 11.2718 32.1718 11.2191 32.22Z" fill="#3C4047"/>
</svg>
