<svg width="27" height="27" viewBox="0 0 27 27" fill="none" xmlns="http://www.w3.org/2000/svg">
<path d="M26.129 24.5705L18.6067 17.0483C20.0638 15.2484 20.9411 12.9614 20.9411 10.4706C20.9411 4.69743 16.2436 0 10.4705 0C4.69738 0 0 4.69738 0 10.4705C0 16.2436 4.69743 20.9411 10.4706 20.9411C12.9614 20.9411 15.2484 20.0638 17.0483 18.6067L24.5705 26.129C24.7854 26.3439 25.0676 26.4519 25.3498 26.4519C25.6319 26.4519 25.9141 26.3439 26.129 26.129C26.5599 25.698 26.5599 25.0014 26.129 24.5705ZM10.4706 18.7367C5.912 18.7367 2.20434 15.0291 2.20434 10.4705C2.20434 5.91195 5.912 2.20429 10.4706 2.20429C15.0291 2.20429 18.7368 5.91195 18.7368 10.4705C18.7368 15.0291 15.0291 18.7367 10.4706 18.7367Z" fill="#2F2F43"/>
</svg>
