<svg width="20" height="20" viewBox="0 0 20 20" fill="none" xmlns="http://www.w3.org/2000/svg">
<path d="M18.8045 17.799L13.4527 12.4472C14.4894 11.1667 15.1135 9.53964 15.1135 7.76748C15.1135 3.66014 11.7715 0.318115 7.66418 0.318115C3.55684 0.318115 0.214844 3.66011 0.214844 7.76745C0.214844 11.8748 3.55687 15.2168 7.66421 15.2168C9.43636 15.2168 11.0635 14.5927 12.344 13.556L17.6957 18.9078C17.8486 19.0607 18.0494 19.1375 18.2501 19.1375C18.4509 19.1375 18.6516 19.0607 18.8045 18.9078C19.1111 18.6012 19.1111 18.1056 18.8045 17.799ZM7.66421 13.6485C4.42099 13.6485 1.78314 11.0107 1.78314 7.76745C1.78314 4.52422 4.42099 1.88638 7.66421 1.88638C10.9074 1.88638 13.5453 4.52422 13.5453 7.76745C13.5453 11.0107 10.9074 13.6485 7.66421 13.6485Z" fill="white"/>
</svg>
