<svg width="35" height="35" viewBox="0 0 35 35" fill="none" xmlns="http://www.w3.org/2000/svg">
<path d="M34.3263 32.2789L24.4441 22.3967C26.3583 20.0323 27.5108 17.0278 27.5108 13.7554C27.5108 6.17114 21.3397 0 13.7554 0C6.17107 0 0 6.17107 0 13.7554C0 21.3397 6.17114 27.5108 13.7554 27.5108C17.0278 27.5108 20.0323 26.3583 22.3967 24.4441L32.2789 34.3263C32.5613 34.6086 32.9319 34.7505 33.3026 34.7505C33.6733 34.7505 34.044 34.6086 34.3263 34.3263C34.8925 33.7602 34.8925 32.845 34.3263 32.2789ZM13.7554 24.6149C7.76675 24.6149 2.8959 19.7441 2.8959 13.7554C2.8959 7.76668 7.76675 2.89583 13.7554 2.89583C19.7441 2.89583 24.615 7.76668 24.615 13.7554C24.615 19.7441 19.7441 24.6149 13.7554 24.6149Z" fill="#2F2F43"/>
</svg>
