<svg width="52" height="64" viewBox="0 0 52 64" fill="none" xmlns="http://www.w3.org/2000/svg">
<path d="M30.7461 28.9854C30.0604 28.9854 29.5039 29.5418 29.5039 30.2275C29.5039 30.9132 30.0604 31.4697 30.7461 31.4697C31.4318 31.4697 31.9883 30.9132 31.9883 30.2275C31.9883 29.5418 31.4318 28.9854 30.7461 28.9854Z" fill="#11D170"/>
<path d="M25.7773 21.5332C25.0917 21.5332 24.5352 22.0897 24.5352 22.7754C24.5352 23.4611 25.0917 24.0176 25.7773 24.0176C26.463 24.0176 27.0195 23.4611 27.0195 22.7754C27.0195 22.0897 26.463 21.5332 25.7773 21.5332Z" fill="#11D170"/>
<path d="M10.8711 53.8291C10.1854 53.8291 9.62891 54.3856 9.62891 55.0713C9.62891 55.757 10.1854 56.3134 10.8711 56.3134C11.5568 56.3134 12.1133 55.757 12.1133 55.0713C12.1133 54.3856 11.5568 53.8291 10.8711 53.8291Z" fill="#11D170"/>
<path d="M50.423 50.8087L34.4715 22.4502V7.4081C35.9175 6.89546 36.9558 5.51404 36.9558 3.89449C36.9558 1.83969 35.2841 0.167969 33.2293 0.167969H18.3232C16.2684 0.167969 14.5967 1.83969 14.5967 3.89449C14.5967 5.51404 15.635 6.89546 17.081 7.4081V22.4502L1.12954 50.8087C-0.401807 53.531 -0.374603 56.766 1.20209 59.462C2.77865 62.1578 5.58448 63.7673 8.70755 63.7673H42.845C45.968 63.7673 48.7737 62.1578 50.3504 59.462C51.9271 56.766 51.9543 53.531 50.423 50.8087ZM19.4059 23.3844C19.5105 23.1986 19.5654 22.9888 19.5654 22.7755V7.62101H20.8076C21.4935 7.62101 22.0497 7.06477 22.0497 6.37884C22.0497 5.69291 21.4935 5.13666 20.8076 5.13666H18.3232C17.6383 5.13666 17.081 4.57943 17.081 3.89449C17.081 3.20956 17.6383 2.65232 18.3232 2.65232H33.2293C33.9142 2.65232 34.4715 3.20956 34.4715 3.89449C34.4715 4.57943 33.9142 5.13666 33.2293 5.13666H30.745C30.059 5.13666 29.5028 5.69291 29.5028 6.37884C29.5028 7.06477 30.059 7.62101 30.745 7.62101H31.9871V22.7755C31.9871 22.9889 32.042 23.1985 32.1466 23.3844L39.4681 36.4008C34.9969 36.0387 30.5412 36.943 26.4475 39.0628C21.1849 41.7861 15.3265 42.2656 9.8024 40.4574L19.4059 23.3844ZM48.2058 58.2078C47.0798 60.1333 45.0757 61.2829 42.845 61.2829H8.70755C6.47685 61.2829 4.47273 60.1333 3.3467 58.2078C2.22042 56.2821 2.20092 53.9712 3.2949 52.0265L8.56271 42.6615C11.1186 43.554 13.76 44.0045 16.4427 44.0045C16.8398 44.0045 17.2379 43.9947 17.6368 43.975C21.1031 43.8033 24.4516 42.8929 27.5896 41.269C31.7871 39.0957 36.4039 38.3454 40.9781 39.0852L48.2577 52.0265C49.3516 53.9712 49.3322 56.2821 48.2058 58.2078Z" fill="#11D170"/>
<path d="M20.8086 28.9854C18.7537 28.9854 17.082 30.6571 17.082 32.7119C17.082 34.7667 18.7537 36.4384 20.8086 36.4384C22.8634 36.4384 24.5351 34.7667 24.5351 32.7119C24.5351 30.6571 22.8634 28.9854 20.8086 28.9854ZM20.8086 33.954C20.1236 33.954 19.5664 33.3968 19.5664 32.7119C19.5664 32.0269 20.1236 31.4697 20.8086 31.4697C21.4935 31.4697 22.0507 32.0269 22.0507 32.7119C22.0507 33.3968 21.4935 33.954 20.8086 33.954Z" fill="#11D170"/>
<path d="M40.6833 53.8291H15.8398C15.1539 53.8291 14.5977 54.3853 14.5977 55.0713C14.5977 55.7572 15.1539 56.3134 15.8398 56.3134H40.6833C41.3692 56.3134 41.9255 55.7572 41.9255 55.0713C41.9255 54.3853 41.3692 53.8291 40.6833 53.8291Z" fill="#11D170"/>
</svg>
