<svg width="70" height="71" viewBox="0 0 70 71" fill="none" xmlns="http://www.w3.org/2000/svg">
<path d="M45.5015 28.4617C45.5269 28.4617 45.5523 28.4617 45.5777 28.4587C45.8507 28.4391 46.1048 28.3118 46.284 28.1049C46.4633 27.898 46.553 27.6284 46.5335 27.3553L46.2336 23.2156C46.2139 22.9423 46.0864 22.6881 45.8792 22.5087C45.672 22.3294 45.402 22.2398 45.1287 22.2595C44.8554 22.2792 44.6011 22.4067 44.4218 22.6139C44.2425 22.8212 44.1529 23.0911 44.1726 23.3644L44.4725 27.5041C44.4914 27.7641 44.6081 28.0074 44.7989 28.185C44.9898 28.3626 45.2408 28.4615 45.5015 28.4617Z" fill="#11D170"/>
<path d="M44.5314 3.71094C43.3184 3.71234 42.1555 4.19484 41.2977 5.05259C40.44 5.91034 39.9575 7.07329 39.9561 8.28633C39.9561 8.56034 40.0649 8.82313 40.2587 9.01688C40.4524 9.21063 40.7152 9.31948 40.9892 9.31948C41.2632 9.31948 41.526 9.21063 41.7198 9.01688C41.9135 8.82313 42.0224 8.56034 42.0224 8.28633C42.0231 7.62112 42.2877 6.98338 42.7581 6.513C43.2285 6.04263 43.8662 5.77803 44.5314 5.77724H51.2564C51.5304 5.77724 51.7932 5.66839 51.9869 5.47464C52.1807 5.28089 52.2895 5.0181 52.2895 4.74409C52.2895 4.47008 52.1807 4.20729 51.9869 4.01354C51.7932 3.81979 51.5304 3.71094 51.2564 3.71094H44.5314Z" fill="#11D170"/>
<path d="M57.4463 3.71094H55.6162C55.3422 3.71094 55.0794 3.81979 54.8856 4.01354C54.6919 4.20729 54.583 4.47008 54.583 4.74409C54.583 5.0181 54.6919 5.28089 54.8856 5.47464C55.0794 5.66839 55.3422 5.77724 55.6162 5.77724H57.4463C57.7203 5.77724 57.9831 5.66839 58.1769 5.47464C58.3706 5.28089 58.4795 5.0181 58.4795 4.74409C58.4795 4.47008 58.3706 4.20729 58.1769 4.01354C57.9831 3.81979 57.7203 3.71094 57.4463 3.71094Z" fill="#11D170"/>
<path d="M51.7734 2.23428H57.4463C57.7203 2.23428 57.9831 2.12543 58.1768 1.93167C58.3706 1.73792 58.4794 1.47513 58.4794 1.20112C58.4794 0.927113 58.3706 0.664326 58.1768 0.470572C57.9831 0.276819 57.7203 0.167969 57.4463 0.167969H51.7734C51.4994 0.167969 51.2366 0.276819 51.0428 0.470572C50.8491 0.664326 50.7402 0.927113 50.7402 1.20112C50.7402 1.47513 50.8491 1.73792 51.0428 1.93167C51.2366 2.12543 51.4994 2.23428 51.7734 2.23428Z" fill="#11D170"/>
<path d="M37.4482 9.31875C37.7222 9.31875 37.985 9.2099 38.1787 9.01615C38.3725 8.8224 38.4813 8.55961 38.4813 8.2856C38.4831 6.68122 39.1212 5.14304 40.2556 4.00857C41.3901 2.87409 42.9283 2.23599 44.5327 2.23428H47.2602C47.5342 2.23428 47.797 2.12543 47.9907 1.93167C48.1845 1.73792 48.2934 1.47513 48.2934 1.20112C48.2934 0.927113 48.1845 0.664326 47.9907 0.470572C47.797 0.276819 47.5342 0.167969 47.2602 0.167969H44.5327C42.3805 0.170469 40.3172 1.02652 38.7954 2.54833C37.2736 4.07014 36.4175 6.13344 36.415 8.2856C36.415 8.55961 36.5239 8.8224 36.7176 9.01615C36.9114 9.2099 37.1742 9.31875 37.4482 9.31875Z" fill="#11D170"/>
<path d="M68.9261 64.5183H59.5143V60.2381C59.5143 59.9641 59.4055 59.7013 59.2117 59.5076C59.018 59.3138 58.7552 59.205 58.4812 59.205H55.1562C52.6359 49.7016 51.0073 39.9839 50.2915 30.1781L49.5294 19.7049C50.2085 19.5633 50.811 19.175 51.2205 18.6151C51.63 18.0552 51.8174 17.3633 51.7466 16.6733C51.6758 15.9832 51.3516 15.3439 50.8369 14.8788C50.3222 14.4138 49.6533 14.156 48.9597 14.1554H29.4773C28.7836 14.156 28.1148 14.4138 27.6001 14.8788C27.0853 15.3439 26.7612 15.9832 26.6904 16.6733C26.6196 17.3633 26.807 18.0552 27.2165 18.6151C27.626 19.175 28.2285 19.5633 28.9076 19.7049L28.1455 30.1787C27.4325 39.9846 25.8038 49.7024 23.2808 59.205H23.0305L22.6999 49.6114H23.4006C23.6746 49.6114 23.9374 49.5026 24.1312 49.3088C24.3249 49.1151 24.4338 48.8523 24.4338 48.5783C24.4338 48.3042 24.3249 48.0415 24.1312 47.8477C23.9374 47.654 23.6746 47.5451 23.4006 47.5451H22.6266L22.2305 36.1196H22.9325C23.2065 36.1196 23.4693 36.0108 23.663 35.817C23.8568 35.6233 23.9656 35.3605 23.9656 35.0865C23.9656 34.8124 23.8568 34.5497 23.663 34.3559C23.4693 34.1622 23.2065 34.0533 22.9325 34.0533H22.1591L21.7629 22.6313H22.4637C22.7377 22.6313 23.0005 22.5225 23.1943 22.3287C23.388 22.135 23.4969 21.8722 23.4969 21.5982C23.4969 21.3242 23.388 21.0614 23.1943 20.8676C23.0005 20.6739 22.7377 20.565 22.4637 20.565H21.6915L21.2959 9.13955H21.9997C22.2737 9.13955 22.5365 9.0307 22.7302 8.83694C22.924 8.64319 23.0328 8.3804 23.0328 8.1064C23.0328 7.83239 22.924 7.5696 22.7302 7.37585C22.5365 7.18209 22.2737 7.07324 21.9997 7.07324H10.684C10.41 7.07324 10.1472 7.18209 9.95343 7.37585C9.75968 7.5696 9.65083 7.83239 9.65083 8.1064C9.65083 8.3804 9.75968 8.64319 9.95343 8.83694C10.1472 9.0307 10.41 9.13955 10.684 9.13955H11.3871L10.9916 20.565H10.2176C9.94358 20.565 9.68079 20.6739 9.48704 20.8676C9.29329 21.0614 9.18444 21.3242 9.18444 21.5982C9.18444 21.8722 9.29329 22.135 9.48704 22.3287C9.68079 22.5225 9.94358 22.6313 10.2176 22.6313H10.9201L10.5246 34.0563H9.75119C9.47719 34.0563 9.2144 34.1651 9.02065 34.3589C8.82689 34.5526 8.71804 34.8154 8.71804 35.0894C8.71804 35.3634 8.82689 35.6262 9.02065 35.82C9.2144 36.0137 9.47719 36.1226 9.75119 36.1226H10.4526L10.057 47.5451H9.2848C9.01079 47.5451 8.748 47.654 8.55425 47.8477C8.3605 48.0415 8.25165 48.3042 8.25165 48.5783C8.25165 48.8523 8.3605 49.1151 8.55425 49.3088C8.748 49.5026 9.01079 49.6114 9.2848 49.6114H9.98557L9.469 64.5183H1.03315C0.759144 64.5183 0.496357 64.6272 0.302604 64.8209C0.10885 65.0147 0 65.2775 0 65.5515V69.0937C0 69.3677 0.10885 69.6305 0.302604 69.8243C0.496357 70.018 0.759144 70.1269 1.03315 70.1269H68.9261C69.2001 70.1269 69.4629 70.018 69.6566 69.8243C69.8504 69.6305 69.9592 69.3677 69.9592 69.0937V65.5515C69.9592 65.2775 69.8504 65.0147 69.6566 64.8209C69.4629 64.6272 69.2001 64.5183 68.9261 64.5183ZM57.448 64.5183H20.9878V61.2713H57.4463L57.448 64.5183ZM29.4773 16.2211H48.9597C49.1554 16.2211 49.3431 16.2988 49.4815 16.4372C49.6199 16.5756 49.6976 16.7633 49.6976 16.959C49.6976 17.1548 49.6199 17.3425 49.4815 17.4809C49.3431 17.6193 49.1554 17.697 48.9597 17.697H29.4773C29.2816 17.697 29.0939 17.6193 28.9555 17.4809C28.8171 17.3425 28.7394 17.1548 28.7394 16.959C28.7394 16.7633 28.8171 16.5756 28.9555 16.4372C29.0939 16.2988 29.2816 16.2211 29.4773 16.2211ZM30.207 30.331L30.9745 19.7633H47.4619L48.2294 30.3275C48.9426 40.0794 50.5471 49.7456 53.0226 59.205H25.4156C27.8927 49.7462 29.4966 40.08 30.207 30.328V30.331ZM13.4546 9.1366H19.2279L19.624 20.565H13.0591L13.4546 9.1366ZM12.9876 22.6313H19.6954L20.0916 34.0563H12.5938L12.9876 22.6313ZM12.5206 36.1226H20.1612L20.5592 47.5451H12.1245L12.5206 36.1226ZM12.0531 49.6114H20.6335L20.9659 59.205H19.9564C19.8207 59.2049 19.6863 59.2316 19.5609 59.2835C19.4355 59.3354 19.3216 59.4115 19.2257 59.5074C19.1297 59.6034 19.0536 59.7173 19.0017 59.8427C18.9498 59.9681 18.9232 60.1024 18.9232 60.2381V64.5183H11.5371L12.0531 49.6114ZM67.8929 68.0606H2.06631V66.5846H67.8929V68.0606Z" fill="#11D170"/>
<path d="M46.2801 41.7948H43.7728C43.7091 41.1436 43.5066 40.5136 43.1787 39.9473C42.8509 39.3811 42.4054 38.8917 41.8724 38.5123L43.1275 36.3338C43.195 36.2138 43.2381 36.0815 43.2543 35.9447C43.2706 35.808 43.2596 35.6693 43.222 35.5368C43.1846 35.4026 43.1204 35.2773 43.0331 35.1687C42.9458 35.0601 42.8373 34.9704 42.7142 34.9051C42.5785 34.8343 42.4309 34.7693 42.3128 34.7221C40.3369 33.9202 38.1267 33.9181 36.1493 34.7162C36.004 34.7706 35.862 34.8337 35.7242 34.9051C35.6012 34.9704 35.4927 35.0601 35.4054 35.1687C35.3181 35.2773 35.2538 35.4026 35.2165 35.5368C35.1789 35.6693 35.1679 35.808 35.1841 35.9447C35.2003 36.0815 35.2434 36.2138 35.311 36.3338L36.5661 38.5123C36.0329 38.8918 35.5873 39.3813 35.2596 39.9478C34.9318 40.5143 34.7295 41.1445 34.6663 41.7959H32.1643C32.0214 41.7948 31.8799 41.8235 31.7488 41.8804C31.6177 41.9373 31.5 42.0209 31.4032 42.1261C31.3065 42.2312 31.2328 42.3554 31.1869 42.4907C31.1411 42.626 31.1241 42.7695 31.137 42.9117C31.2877 44.8244 32.1193 46.6195 33.4808 47.9712C33.8215 48.3096 34.1909 48.6177 34.5848 48.8922C34.7568 49.0107 34.9605 49.0745 35.1693 49.0752C35.2467 49.0762 35.3239 49.0682 35.3995 49.0516C35.5386 49.0188 35.6696 48.9579 35.7843 48.8726C35.899 48.7873 35.9951 48.6795 36.0666 48.5557L37.3194 46.3902C37.9149 46.6656 38.5631 46.8082 39.2192 46.8082C39.8753 46.8082 40.5236 46.6656 41.1191 46.3902L42.3718 48.5545C42.4438 48.6791 42.5408 48.7874 42.6566 48.8727C42.7724 48.9581 42.9046 49.0186 43.0449 49.0504C43.1184 49.0674 43.1937 49.0753 43.2692 49.0741C43.478 49.0733 43.6817 49.0095 43.8537 48.891C44.2272 48.6358 44.577 48.3473 44.8986 48.0291C46.2874 46.668 47.142 44.854 47.3073 42.9165C47.3198 42.774 47.3025 42.6305 47.2565 42.4951C47.2105 42.3596 47.1369 42.2352 47.0403 42.1298C46.9437 42.0243 46.8263 41.94 46.6954 41.8824C46.5645 41.8247 46.4231 41.7949 46.2801 41.7948ZM37.7197 36.3692C38.7036 36.1183 39.7348 36.1183 40.7188 36.3692L39.9395 37.7188C39.4625 37.6354 38.9747 37.6354 38.4978 37.7188L37.7197 36.3692ZM34.8918 46.4587C34.1806 45.7334 33.6647 44.8397 33.3922 43.8611H34.9491C35.1211 44.3131 35.3638 44.7349 35.6681 45.1109L34.8918 46.4587ZM36.7101 42.2316C36.7101 41.7354 36.8573 41.2503 37.133 40.8377C37.4087 40.425 37.8006 40.1034 38.259 39.9135C38.7175 39.7236 39.222 39.6739 39.7087 39.7708C40.1954 39.8676 40.6425 40.1065 40.9934 40.4574C41.3443 40.8083 41.5833 41.2554 41.6801 41.7421C41.7769 42.2289 41.7272 42.7333 41.5373 43.1918C41.3474 43.6503 41.0258 44.0422 40.6132 44.3179C40.2006 44.5936 39.7155 44.7407 39.2192 44.7407C38.554 44.7399 37.9163 44.4753 37.4459 44.005C36.9755 43.5346 36.7109 42.8968 36.7101 42.2316ZM43.5467 46.4587L42.7703 45.1115C43.0748 44.7355 43.3176 44.3134 43.4894 43.8611H45.0462C44.77 44.8381 44.2547 45.7309 43.5467 46.4587Z" fill="#11D170"/>
</svg>
