<svg width="67" height="67" viewBox="0 0 67 67" fill="none" xmlns="http://www.w3.org/2000/svg">
<path d="M46.4745 15.001C45.0918 16.3839 45.0918 18.6338 46.4745 20.0166C47.1445 20.6865 48.0352 21.0554 48.9824 21.0554C49.9297 21.0554 50.8204 20.6865 51.4902 20.0166C52.1602 19.3468 52.5291 18.4562 52.5291 17.5088C52.5291 16.5615 52.1601 15.6709 51.4902 15.0009C50.1076 13.6182 47.8573 13.6181 46.4745 15.001ZM50.1174 18.6437C49.4915 19.2694 48.4732 19.2695 47.8475 18.6437C47.2218 18.0179 47.2218 16.9996 47.8474 16.3738C48.1604 16.0609 48.5713 15.9045 48.9824 15.9045C49.3934 15.9045 49.8045 16.0609 50.1174 16.3738C50.4207 16.6769 50.5876 17.08 50.5876 17.5087C50.5876 17.9374 50.4205 18.3405 50.1174 18.6437Z" fill="#11D170"/>
<path d="M64.2059 26.1635C62.8593 22.8792 60.9401 19.9209 58.4966 17.3601C59.2524 15.6542 58.9222 13.5815 57.548 12.2072L54.3761 9.03535C53.0021 7.66159 50.9303 7.33113 49.2248 8.08603C46.6424 5.59972 43.6526 3.64891 40.3283 2.28602C36.8351 0.853886 33.1488 0.140923 29.3748 0.168753L24.8692 0.201243C24.0383 0.207327 23.3327 0.749815 23.1135 1.55145C22.8942 2.35282 23.2252 3.17904 23.9372 3.60723L29.1132 6.71978C33.1912 9.17217 36.9814 12.0947 40.3912 15.4132C39.6409 16.2182 39.1945 17.2746 39.1506 18.3833C39.108 19.4635 39.4506 20.5242 40.1012 21.3749L0.8115 60.6644C-0.2705 61.7466 -0.2705 63.5074 0.8115 64.5895L1.9023 65.6802C2.42654 66.2044 3.12358 66.4931 3.86476 66.4931C4.6062 66.4931 5.30311 66.2044 5.82735 65.6802L28.6546 42.8529C29.0337 42.4738 29.0337 41.8591 28.6546 41.4801C28.2753 41.1011 27.6607 41.1009 27.2816 41.4801L24.6294 44.1325L22.3596 41.8627L41.4448 22.7775L43.7146 25.0474L30.211 38.5506C29.8319 38.9297 29.8319 39.5444 30.211 39.9234C30.4006 40.1131 30.649 40.2078 30.8975 40.2078C31.1459 40.2078 31.3945 40.1131 31.5841 39.9234L45.1054 26.4022C45.9259 27.0674 46.9582 27.4362 48.0193 27.4362C48.0795 27.4362 48.1399 27.435 48.2001 27.4326C49.3081 27.3888 50.3641 26.9428 51.1688 26.1933C52.5392 27.6081 53.8562 29.1035 55.0913 30.6501C55.283 30.8902 55.5654 31.0151 55.8505 31.0151C56.0629 31.0151 56.2768 30.9456 56.4557 30.8029C56.8746 30.4682 56.9431 29.8574 56.6085 29.4384C55.3028 27.8034 53.9087 26.2235 52.4566 24.7318L53.8973 23.0431C57.2271 26.4601 60.159 30.2597 62.6183 34.3492L64.3804 37.2793L64.3518 41.2262L61.4361 36.3778C60.7198 35.1864 59.9442 33.9894 59.1306 32.8203C58.8248 32.3804 58.2196 32.2716 57.7794 32.5778C57.3393 32.884 57.2307 33.489 57.537 33.9291C58.3259 35.063 59.0778 36.2236 59.7721 37.3782L62.8848 42.5541C63.225 43.1197 63.816 43.4449 64.4465 43.4449C64.6098 43.4449 64.7757 43.4231 64.9405 43.3779C65.742 43.1587 66.2846 42.453 66.2907 41.6221L66.3233 37.1166C66.3504 33.3418 65.638 29.6567 64.2059 26.1635ZM25.2652 2.14014L29.2125 2.11167L32.1425 3.87362C34.1628 5.08869 36.1424 6.4407 38.026 7.89213C38.2026 8.02817 38.4111 8.09406 38.6179 8.09406C38.9087 8.09406 39.1964 7.96397 39.3875 7.7157C39.7147 7.291 39.6357 6.68146 39.2112 6.35411C37.3613 4.9287 35.421 3.59765 33.4404 2.39152C35.5437 2.70153 37.6003 3.26602 39.5916 4.08241C42.5698 5.30343 45.2593 7.03134 47.6005 9.22175L45.0232 11.4207C44.2035 10.6143 43.3538 9.82003 42.4885 9.05632C42.0863 8.70165 41.4728 8.73984 41.1182 9.14188C40.7634 9.5438 40.8017 10.1574 41.2037 10.5122C42.0002 11.2151 42.7831 11.9445 43.5406 12.6856L41.8518 14.1265C38.3074 10.6609 34.3624 7.61072 30.1139 5.05581L25.2652 2.14014ZM17.1453 51.6164L16.5719 47.6502L17.6039 46.618L19.8737 48.8877L17.1453 51.6164ZM14.8077 53.9538L11.6899 52.5322L14.858 49.3641L15.4314 53.3303L14.8077 53.9538ZM10.3155 58.4461L8.04572 56.1762L10.2242 53.9977L13.3422 55.4194L10.3155 58.4461ZM4.45437 64.3073C4.29684 64.4648 4.08753 64.5516 3.86476 64.5516C3.64199 64.5516 3.43269 64.4648 3.27516 64.3073L2.18448 63.2166C1.85933 62.8915 1.85933 62.3626 2.18448 62.0374L6.67273 57.5493L8.94248 59.8192L4.45437 64.3073ZM23.2562 45.5053L21.2467 47.5149L18.9769 45.2451L20.9864 43.2357L23.2562 45.5053ZM48.1233 25.4925C47.3693 25.5224 46.6575 25.2445 46.1231 24.7099L41.8735 20.4602C41.3389 19.9256 41.061 19.2153 41.0908 18.4598C41.1207 17.7046 41.4539 17.0183 42.029 16.5275L49.37 10.2644C50.4257 9.36362 52.0219 9.42666 53.0031 10.4081L56.175 13.5799C57.1565 14.5615 57.2196 16.1573 56.3187 17.2132L50.0556 24.5542C49.5651 25.1296 48.8788 25.4628 48.1233 25.4925ZM55.1621 21.5607L57.3583 18.9864C59.5069 21.3052 61.2048 23.9621 62.4094 26.9001C63.2253 28.8901 63.789 30.9473 64.0991 33.0494C61.5694 28.8951 58.5661 25.0343 55.1621 21.5607Z" fill="#11D170"/>
</svg>
