<svg width="69" height="69" viewBox="0 0 69 69" fill="none" xmlns="http://www.w3.org/2000/svg">
<path d="M61.6584 10.362C62.0777 10.0042 62.1277 9.37417 61.77 8.95479C61.4122 8.53568 60.7824 8.48537 60.3626 8.84326L58.2077 10.6817C57.7885 11.0394 57.7384 11.6695 58.0962 12.0889C58.2936 12.3203 58.574 12.4392 58.8561 12.4392C59.0852 12.4392 59.3155 12.3608 59.5035 12.2004L61.6584 10.362Z" fill="#11D170"/>
<path d="M57.3057 31.0002V32.2285C57.3057 32.7798 57.7525 33.2267 58.3039 33.2267C58.8553 33.2267 59.3021 32.7798 59.3021 32.2285V31.0002C59.3021 30.4489 58.8553 30.002 58.3039 30.002C57.7525 30.002 57.3057 30.4489 57.3057 31.0002Z" fill="#11D170"/>
<path d="M6.83827 51.6195C5.7987 52.6592 5.7987 54.3507 6.83827 55.3905C7.88023 56.4324 9.56715 56.4328 10.6094 55.3903C11.6489 54.3507 11.6489 52.6592 10.6094 51.6195C9.56728 50.5774 7.88036 50.5773 6.83827 51.6195ZM9.19756 53.9787C8.93657 54.2397 8.51307 54.2417 8.24995 53.9788C7.9887 53.7174 7.9887 53.2923 8.24995 53.0312C8.51094 52.7702 8.93457 52.7682 9.19756 53.0312C9.45881 53.2923 9.45881 53.7175 9.19756 53.9787Z" fill="#11D170"/>
<path d="M18.4333 47.5653C19.4756 46.5231 19.4757 44.8365 18.4335 43.7943C17.3914 42.7522 15.7047 42.7521 14.6625 43.7943C13.6203 44.8365 13.6204 46.5229 14.6625 47.5653C15.7044 48.6073 17.3911 48.6075 18.4333 47.5653ZM16.0742 45.206C16.3366 44.9436 16.7602 44.9445 17.0216 45.2059V45.206C17.2836 45.4679 17.2838 45.8914 17.0216 46.1536C16.7597 46.4155 16.3362 46.4154 16.074 46.1535C15.8126 45.8921 15.8117 45.4685 16.0742 45.206Z" fill="#11D170"/>
<path d="M11.5015 48.263C11.1115 48.6528 11.1115 49.2849 11.5013 49.6746L12.5528 50.7262C12.7478 50.9212 13.0032 51.0186 13.2587 51.0186C13.5141 51.0186 13.7697 50.9212 13.9645 50.7263C14.3545 50.3365 14.3545 49.7044 13.9647 49.3147L12.9132 48.2631C12.5231 47.8733 11.891 47.8732 11.5015 48.263Z" fill="#11D170"/>
<path d="M32.6144 15.6858H37.2622C37.8135 15.6858 38.2603 15.2389 38.2603 14.6876C38.2603 14.1364 37.8135 13.6895 37.2622 13.6895H32.6144C32.063 13.6895 31.6162 14.1364 31.6162 14.6876C31.6162 15.2389 32.063 15.6858 32.6144 15.6858Z" fill="#11D170"/>
<path d="M67.1439 66.3158H50.5509V62.3203C50.5509 61.2857 49.7091 60.4439 48.6744 60.4439H46.7737V56.1281C46.7737 55.2702 46.0756 54.5722 45.2177 54.5722H43.9647L39.3298 18.7606H41.0774C42.3356 18.7606 43.3591 17.7372 43.3591 16.4791V12.6075L54.0225 13.7525V43.3513C54.0225 43.7081 54.2129 44.0378 54.5219 44.216C54.8263 44.3915 55.2072 44.3967 55.5207 44.2152C58.4729 42.5067 60.8458 39.8126 62.574 36.2073C62.8124 35.7102 62.6026 35.1139 62.1054 34.8757C61.6087 34.6372 61.0122 34.847 60.7738 35.3443C59.5325 37.9337 57.9374 39.9898 56.0187 41.4786C56.0187 40.242 56.0187 10.9518 56.0187 9.41918L62.4495 3.93281C64.4161 15.3258 64.3234 24.6704 62.1729 31.7154C62.0119 32.2427 62.3088 32.8006 62.8361 32.9615C63.3631 33.1222 63.9212 32.8256 64.0821 32.2983C66.3614 24.8319 66.4399 14.9797 64.3155 3.01515C64.2113 2.42876 63.7981 1.93938 63.2372 1.73828C62.6764 1.53719 62.0467 1.65218 61.5935 2.03867L54.7389 7.88665L25.6684 2.21794C25.1266 2.1124 24.6032 2.46562 24.4976 3.00663C24.3921 3.54764 24.7452 4.07189 25.2863 4.17743L54.0223 9.78105V11.7448C52.4198 11.5726 8.52069 6.85866 7.03993 6.69975L7.2771 6.26814C8.94086 3.24154 12.3364 1.65231 15.7265 2.31323L21.2953 3.39925C21.8377 3.50519 22.3606 3.15157 22.4661 2.61056C22.5717 2.06955 22.2186 1.5453 21.6774 1.43976L16.1086 0.353749C11.8635 -0.474204 7.61115 1.51629 5.52776 5.30643L4.56858 7.05137C4.40768 7.3439 4.40382 7.69752 4.5582 7.99365C4.71259 8.28977 5.00472 8.48901 5.33678 8.52468L8.53254 8.86779V10.7341C8.53254 11.9551 9.52592 12.9485 10.747 12.9485H11.8032V42.5255L7.68582 46.6427C7.296 47.0327 7.296 47.6646 7.68582 48.0544C8.07564 48.444 8.70755 48.4442 9.0975 48.0544L14.36 42.7919C15.7628 41.3891 18.0337 41.389 19.4369 42.7919C20.8366 44.1917 20.8366 46.4692 19.4369 47.8688L11.1074 56.1981C9.70799 57.5978 7.43029 57.598 6.03058 56.1981C4.63074 54.7984 4.63074 52.5209 6.03058 51.1212L6.27546 50.8763C6.66528 50.4864 6.66528 49.8545 6.27546 49.4646C5.88551 49.075 5.2536 49.075 4.86378 49.4646L4.61889 49.7095C2.44087 51.8877 2.44087 55.4316 4.61889 57.6098C4.81254 57.8034 5.0175 57.9791 5.23084 58.1383L2.5709 66.3156H0.998176C0.446783 66.3156 0 66.7624 0 67.3138C0 67.8651 0.446783 68.3119 0.998176 68.3119H67.1439C67.6953 68.3119 68.1421 67.8651 68.1421 67.3138C68.1421 66.7624 67.6952 66.3158 67.1439 66.3158ZM44.7774 60.4439H25.098V56.5686H44.7774V60.4439ZM41.1923 48.7048L30.9622 44.736L40.1659 40.7741L41.1923 48.7048ZM39.7762 37.763L31.8554 33.9396L38.7866 30.1161L39.7762 37.763ZM37.3633 19.1198L38.3436 26.6945L32.7962 23.0971L37.3633 19.1198ZM34.6672 18.8205L32.2819 20.8977L32.5508 18.8205H34.6672ZM31.775 24.8142L37.516 28.5372L30.8146 32.2336L31.775 24.8142ZM30.398 35.4529L38.4497 39.3394L29.3903 43.2391L30.398 35.4529ZM29.0171 46.1227L39.8577 50.3284L32.0657 54.5603C32.0587 54.564 32.0526 54.5685 32.0458 54.5724H27.9235L29.0171 46.1227ZM36.2265 54.5722L41.5757 51.6672L41.9517 54.5722H36.2265ZM41.3627 16.4792C41.3627 16.6365 41.2346 16.7644 41.0773 16.7644H28.7978C28.6404 16.7644 28.5126 16.6365 28.5126 16.4792V11.0132L41.3625 12.3931V16.4792H41.3627ZM10.5288 10.7341V9.08219L15.0735 9.57024V10.7342C15.0735 10.8544 14.9758 10.9522 14.8555 10.9522H10.7469C10.6267 10.9521 10.5288 10.8543 10.5288 10.7341ZM20.8484 49.2806C23.0263 47.1026 23.0263 43.5586 20.8484 41.3805C18.9061 39.4383 15.9369 39.2497 13.7993 40.6807V12.9485H14.8556C16.0766 12.9485 17.07 11.9551 17.07 10.7341V9.78451L26.5165 10.7989V16.4792C26.5165 17.7373 27.5399 18.7608 28.798 18.7608H30.5458L25.9108 54.5724H24.6577C23.7998 54.5724 23.1019 55.2703 23.1019 56.1282V60.444H21.2011C20.1665 60.444 19.3247 61.2857 19.3247 62.3205V66.316H15.7927L12.8524 57.2768L20.8484 49.2806ZM4.67 66.3158L7.0398 59.0306C7.53902 59.1718 8.05381 59.2436 8.569 59.2434C9.46856 59.2433 10.368 59.0277 11.1828 58.597L13.6935 66.3158H4.67ZM21.3208 66.3158V62.4404H48.5546V66.3158H21.3208Z" fill="#11D170"/>
</svg>
