<svg width="72" height="62" viewBox="0 0 72 62" fill="none" xmlns="http://www.w3.org/2000/svg">
<path d="M69.7083 14.1568L57.2374 1.68592C55.4226 -0.129106 52.6057 -0.340838 50.5397 1.18247L43.8029 6.14969C43.5584 6.32998 43.4046 6.60807 43.3818 6.91106C43.359 7.21405 43.4696 7.51189 43.6844 7.72683L45.3079 9.35029L38.1756 16.4826H33.0502L25.9175 9.34988L27.5413 7.72599C27.7562 7.51106 27.8665 7.21322 27.8439 6.91022C27.821 6.60723 27.6672 6.32914 27.4226 6.14885L20.6861 1.18274C18.621 -0.340977 15.8042 -0.129245 13.9886 1.68648L12.0139 3.66135C11.6066 4.06867 11.6066 4.72919 12.0139 5.13652C12.4212 5.54384 13.0817 5.54384 13.4891 5.13652L15.4639 3.16165C16.5442 2.08142 18.2194 1.95525 19.448 2.86172L21.6894 4.51412L4.34549 21.8579L2.69309 19.6172C1.78731 18.387 1.91335 16.7107 2.99274 15.6313L10.5391 8.08505C10.9465 7.67772 10.9465 7.01734 10.5391 6.60988C10.132 6.20255 9.47144 6.20255 9.06397 6.60988L1.51757 14.1561C-0.296623 15.9703 -0.508773 18.7873 1.0137 20.8546L5.98161 27.5915C6.1619 27.8361 6.43999 27.9898 6.74298 28.0126C6.76914 28.0146 6.79515 28.0156 6.82117 28.0156C7.09661 28.0156 7.36232 27.9064 7.55875 27.7101L9.18236 26.0863L10.3936 27.2976C7.83448 29.5007 6.33719 32.7167 6.33719 36.1226C6.33719 41.7154 10.3288 46.4913 15.7441 47.5492C16.333 50.6698 18.5556 53.2195 21.4874 54.2712V58.018C21.4874 59.7314 22.8808 61.1254 24.5936 61.1254C25.9412 61.1254 27.0908 60.2628 27.5204 59.061H29.0138C29.4433 60.2628 30.5922 61.1254 31.9393 61.1254C33.2869 61.1254 34.4365 60.2628 34.8661 59.061H36.3599C36.7893 60.2626 37.9387 61.1249 39.286 61.1249C40.6333 61.1249 41.7826 60.2626 42.212 59.061H43.706C44.1354 60.2626 45.2848 61.1249 46.632 61.1249C48.345 61.1249 49.7387 59.7313 49.7387 58.0182V49.8177C51.3746 49.5918 52.8451 48.8431 53.9764 47.7453C56.0616 47.6146 58.0652 46.9273 59.7955 45.7457C60.2713 45.4207 60.3936 44.7718 60.0686 44.296C59.7439 43.8204 59.0947 43.6979 58.619 44.0229C57.7026 44.6488 56.6923 45.1042 55.6313 45.3783C55.9661 44.6265 56.182 43.8113 56.2555 42.9553C58.949 41.7715 60.713 39.112 60.713 36.1227C60.713 33.807 59.6495 31.6636 57.8689 30.261L59.3524 28.7775C61.5269 30.5876 62.8025 33.2744 62.8025 36.1224C62.8025 37.9869 62.2629 39.7944 61.242 41.3497C60.926 41.8313 61.0601 42.4779 61.5417 42.7941C61.7182 42.91 61.9167 42.9652 62.1132 42.9652C62.4528 42.9652 62.7858 42.7995 62.9861 42.4944C64.2308 40.5982 64.8886 38.3947 64.8886 36.1226C64.8886 32.716 63.3912 29.5003 60.8319 27.2983L62.0439 26.0863L63.6675 27.7099C63.8638 27.9062 64.1295 28.0154 64.4049 28.0154C64.431 28.0154 64.457 28.0144 64.4831 28.0125C64.7861 27.9897 65.0642 27.836 65.2445 27.5914L70.2117 20.8548C71.735 18.7885 71.5233 15.9717 69.7083 14.1568ZM52.8907 23.7911C52.8907 23.5293 52.9927 23.283 53.1779 23.0979L56.1168 20.1589L57.5031 21.5452L54.5641 24.4841C54.379 24.6693 54.1329 24.7713 53.8711 24.7713C53.6092 24.7713 53.363 24.6693 53.1779 24.4841C52.9927 24.2991 52.8907 24.0529 52.8907 23.7911ZM50.3085 14.3508L51.2353 15.2775L48.2963 18.2165C48.1112 18.4016 47.8651 18.5036 47.6031 18.5036C47.3413 18.5036 47.0952 18.4016 46.9099 18.2165C46.5278 17.8343 46.5278 17.2123 46.9099 16.8302L49.8488 13.8913L50.3085 14.3508ZM46.7832 10.8255L48.3738 12.4161L45.4349 15.355C44.2393 16.5506 44.2393 18.496 45.4349 19.6915C46.014 20.2706 46.7842 20.5896 47.6031 20.5896C48.4222 20.5896 49.1922 20.2706 49.7714 19.6915L52.7103 16.7526L54.6416 18.6839L51.7027 21.6228C51.1236 22.202 50.8046 22.9721 50.8046 23.7911C50.8046 24.61 51.1236 25.3802 51.7027 25.9593C52.2818 26.5384 53.0518 26.8574 53.8709 26.8574C54.69 26.8574 55.46 26.5384 56.0392 25.9593L58.9781 23.0204L60.5687 24.611L53.8686 31.3113L40.0829 17.5258L46.7832 10.8255ZM42.3926 49.8917H43.5253V56.9749H42.3926V49.8917ZM35.2325 47.8056L41.1123 42.0333C41.1093 42.1223 41.1055 42.2113 41.1055 42.3011C41.1055 44.4665 42.0185 46.4215 43.478 47.8056H35.2325ZM27.701 54.186C28.0926 54.0334 28.4707 53.8544 28.8332 53.65V56.9749H27.701V54.186ZM35.0468 49.8917H36.1793V56.9749H35.0468V49.8917ZM33.3353 46.7447C33.3618 46.4655 33.3767 46.1829 33.3767 45.8969C33.3767 40.9926 29.3866 37.0025 24.4823 37.0025C24.2902 37.0025 24.1 37.0107 23.9108 37.0228L29.7262 31.3362C29.9438 34.3948 32.5 36.8173 35.613 36.8173C38.8683 36.8173 41.5166 34.169 41.5166 30.9137C41.5166 30.7743 41.51 30.6366 41.5004 30.4997L47.4832 34.8091C45.8767 35.0681 44.437 35.832 43.3341 36.9338L43.3354 36.9274L33.3353 46.7447ZM14.846 31.7501L16.4426 33.3467L18.3983 39.4177C17.7866 39.9925 17.2559 40.6519 16.8256 41.3782C14.4083 40.8415 12.5983 38.6514 12.5983 36.1227C12.5985 34.371 13.4437 32.755 14.846 31.7501ZM35.613 27.0963C37.7179 27.0963 39.4304 28.8088 39.4304 30.9137C39.4304 33.0187 37.7179 34.7312 35.613 34.7312C33.508 34.7312 31.7955 33.0187 31.7955 30.9137C31.7955 28.8088 33.508 27.0963 35.613 27.0963ZM51.9132 35.429C51.9132 35.429 39.303 26.305 39.1561 26.1944C38.1685 25.4511 36.9412 25.0101 35.613 25.0101C34.0769 25.0101 32.6763 25.6004 31.625 26.5653L20.0841 37.8469L18.5462 33.0729L33.0504 18.5687H38.1758L52.6798 33.0728L51.9203 35.432C51.9179 35.4311 51.9155 35.4301 51.9132 35.429ZM15.1093 20.1591L18.0483 23.098C18.2334 23.2832 18.3354 23.5293 18.3354 23.7911C18.3354 24.0529 18.2334 24.2991 18.0483 24.4841C17.8631 24.6693 17.617 24.7713 17.3551 24.7713C17.0932 24.7713 16.8471 24.6693 16.662 24.4841L13.7231 21.5452L15.1093 20.1591ZM6.94094 25.3775L5.59766 23.556L23.3876 5.76601L25.2088 7.10846L6.94094 25.3775ZM12.248 23.0205L15.1868 25.9593C15.7659 26.5384 16.5359 26.8574 17.3551 26.8574C18.1742 26.8574 18.9442 26.5384 19.5233 25.9593C20.1024 25.3802 20.4214 24.61 20.4214 23.7911C20.4214 22.9721 20.1024 22.202 19.5233 21.6228L16.5844 18.6839L16.6086 18.6597L18.5157 16.7526L21.4546 19.6915C22.0337 20.2706 22.8037 20.5896 23.6229 20.5896C24.442 20.5896 25.212 20.2706 25.7911 19.6915C26.9866 18.496 26.9866 16.5506 25.7911 15.355L22.8522 12.4161L24.4428 10.8255L31.1431 17.5258L17.3574 31.3113L10.6574 24.6113L12.248 23.0205ZM21.3771 13.8913L24.3161 16.8302C24.6982 17.2123 24.6982 17.8343 24.3161 18.2165C24.1309 18.4016 23.8847 18.5036 23.6229 18.5036C23.361 18.5036 23.1148 18.4016 22.9296 18.2165L19.9909 15.2775L21.3771 13.8913ZM8.42335 36.1226C8.42335 33.2752 9.69875 30.5882 11.873 28.7769L13.3568 30.2607C11.576 31.6634 10.5122 33.8069 10.5122 36.1226C10.5122 37.9949 11.2109 39.7871 12.4798 41.1691C13.4319 42.2061 14.6409 42.9436 15.9709 43.3156C15.7704 43.9752 15.6448 44.6667 15.6037 45.3808C11.4366 44.3121 8.42335 40.5257 8.42335 36.1226ZM17.674 45.8969C17.674 42.1429 20.7283 39.0886 24.4823 39.0886C28.2363 39.0886 31.2906 42.1428 31.2906 45.8969C31.2906 49.6511 28.2363 52.7052 24.4823 52.7052C20.7283 52.7052 17.674 49.6511 17.674 45.8969ZM24.5936 59.0392C24.0313 59.0392 23.5736 58.5811 23.5736 58.018V54.7453C23.8724 54.7757 24.1754 54.7913 24.4822 54.7913C24.8661 54.7913 25.2435 54.7642 25.6148 54.7168V58.018C25.6148 58.5811 25.1567 59.0392 24.5936 59.0392ZM31.9393 59.0392C31.377 59.0392 30.9194 58.5811 30.9194 58.018V52.0398L32.9606 50.0358V58.0178C32.9606 58.5811 32.5025 59.0392 31.9393 59.0392ZM39.286 59.0388C38.7233 59.0388 38.2655 58.5809 38.2655 58.0182V49.8917H40.3064V58.0182C40.3064 58.5809 39.8487 59.0388 39.286 59.0388ZM46.632 59.0388C46.0692 59.0388 45.6116 58.5809 45.6116 58.0182V49.8917H47.6525V58.0182C47.6525 58.5809 47.1947 59.0388 46.632 59.0388ZM48.6956 47.805C45.6608 47.805 43.1917 45.336 43.1917 42.3011C43.1917 39.2663 45.6607 36.7972 48.6956 36.7972C51.7304 36.7972 54.1995 39.2662 54.1995 42.3011C54.1995 45.336 51.7304 47.805 48.6956 47.805ZM58.6268 36.1227C58.6268 38.0077 57.6534 39.7112 56.1093 40.6793C55.7604 39.0832 54.9083 37.6737 53.7275 36.6258L54.7831 33.347L56.3797 31.7504C57.7817 32.7549 58.6268 34.3709 58.6268 36.1227ZM64.285 25.3771L46.0171 7.10916L47.8385 5.76615L65.628 23.5557L64.285 25.3771ZM68.5326 19.6164L66.8801 21.8575L49.5365 4.51398L51.7777 2.86144C53.0069 1.95511 54.6825 2.08114 55.7622 3.16095L68.2331 15.6319C69.3129 16.7117 69.4388 18.3874 68.5326 19.6164Z" fill="#11D170"/>
<path d="M27.6305 45.8963C27.6305 44.1603 26.2183 42.748 24.4823 42.748C22.7463 42.748 21.334 44.1603 21.334 45.8963C21.334 47.6323 22.7463 49.0446 24.4823 49.0446C26.2183 49.0446 27.6305 47.6323 27.6305 45.8963ZM23.4201 45.8963C23.4201 45.3107 23.8966 44.8342 24.4823 44.8342C25.0679 44.8342 25.5444 45.3107 25.5444 45.8963C25.5444 46.482 25.0679 46.9585 24.4823 46.9585C23.8966 46.9585 23.4201 46.482 23.4201 45.8963Z" fill="#11D170"/>
<path d="M48.6961 39.1523C46.9601 39.1523 45.5479 40.5646 45.5479 42.3006C45.5479 44.0366 46.9601 45.4489 48.6961 45.4489C50.4321 45.4489 51.8444 44.0366 51.8444 42.3006C51.8444 40.5646 50.4321 39.1523 48.6961 39.1523ZM48.6961 43.3627C48.1105 43.3627 47.634 42.8863 47.634 42.3006C47.634 41.7149 48.1105 41.2385 48.6961 41.2385C49.2818 41.2385 49.7583 41.7149 49.7583 42.3006C49.7583 42.8863 49.2818 43.3627 48.6961 43.3627Z" fill="#11D170"/>
</svg>
