<svg width="70" height="71" viewBox="0 0 70 71" fill="none" xmlns="http://www.w3.org/2000/svg">
<path d="M58.8118 43.5185V30.5492L69.8104 12.1762C69.9042 12.0195 69.9549 11.8407 69.9571 11.658C69.9593 11.4753 69.913 11.2953 69.823 11.1364C69.733 10.9774 69.6025 10.8452 69.4447 10.7531C69.2869 10.661 69.1075 10.6125 68.9248 10.6123H33.3891C33.2107 10.6126 33.0353 10.659 32.8801 10.7472C32.7249 10.8353 32.5952 10.9621 32.5036 11.1153L12.1812 45.0617C12.0873 45.2184 12.0367 45.3972 12.0344 45.5798C12.0322 45.7625 12.0784 45.9425 12.1685 46.1014C12.2585 46.2603 12.3891 46.3925 12.5469 46.4845C12.7047 46.5765 12.8841 46.625 13.0667 46.625H48.6025C48.7809 46.6249 48.9563 46.5786 49.1115 46.4906C49.2667 46.4025 49.3964 46.2757 49.488 46.1226L50.4462 44.5192C50.4786 44.5268 50.5111 44.5316 50.5442 44.5363V57.3568H34.9784C34.7044 57.3568 34.4416 57.4657 34.2479 57.6594C34.0541 57.8532 33.9453 58.116 33.9453 58.39V64.5889H29.3935V63.7801C29.3935 63.5061 29.2846 63.2433 29.0909 63.0495C28.8971 62.8558 28.6344 62.7469 28.3603 62.7469H25.8501V54.9245C25.8501 54.6505 25.7412 54.3877 25.5475 54.1939C25.3537 54.0002 25.0909 53.8913 24.8169 53.8913H22.3267V51.3823C22.3267 51.1082 22.2179 50.8455 22.0241 50.6517C21.8304 50.458 21.5676 50.3491 21.2936 50.3491H17.7514C17.4773 50.3491 17.2146 50.458 17.0208 50.6517C16.827 50.8455 16.7182 51.1082 16.7182 51.3823V53.8913H9.41529V51.3823C9.41537 51.2466 9.3887 51.1122 9.3368 50.9868C9.28491 50.8614 9.20881 50.7475 9.11286 50.6515C9.01691 50.5556 8.90298 50.4795 8.7776 50.4276C8.65222 50.3757 8.51784 50.349 8.38214 50.3491H4.8399C4.56589 50.3491 4.30311 50.458 4.10935 50.6517C3.9156 50.8455 3.80675 51.1082 3.80675 51.3823V53.8913H1.31538C1.04137 53.8913 0.778583 54.0002 0.58483 54.1939C0.391076 54.3877 0.282227 54.6505 0.282227 54.9245V69.0934C0.282227 69.3674 0.391076 69.6302 0.58483 69.824C0.778583 70.0177 1.04137 70.1266 1.31538 70.1266H24.8169C25.0909 70.1266 25.3537 70.0177 25.5475 69.824C25.7412 69.6302 25.8501 69.3674 25.8501 69.0934V68.3555H28.3603C28.6344 68.3555 28.8971 68.2466 29.0909 68.0529C29.2846 67.8591 29.3935 67.5963 29.3935 67.3223V66.6552H34.9784C35.2524 66.6552 35.5152 66.5463 35.709 66.3526C35.9027 66.1588 36.0116 65.896 36.0116 65.622V59.4231H50.5465V60.9758H46.8721C46.7364 60.9757 46.602 61.0024 46.4766 61.0543C46.3512 61.1062 46.2373 61.1823 46.1413 61.2782C46.0454 61.3742 45.9693 61.4881 45.9174 61.6135C45.8655 61.7389 45.8388 61.8733 45.8389 62.009V64.518H42.4832C42.2092 64.518 41.9464 64.6269 41.7527 64.8206C41.5589 65.0144 41.4501 65.2772 41.4501 65.5512V69.0934C41.4501 69.3674 41.5589 69.6302 41.7527 69.824C41.9464 70.0177 42.2092 70.1266 42.4832 70.1266H65.9848C66.2588 70.1266 66.5216 70.0177 66.7153 69.824C66.9091 69.6302 67.0179 69.3674 67.0179 69.0934V65.5512C67.0179 65.2772 66.9091 65.0144 66.7153 64.8206C66.5216 64.6269 66.2588 64.518 65.9848 64.518H62.6285V62.009C62.6286 61.8733 62.6019 61.7389 62.55 61.6135C62.4981 61.4881 62.422 61.3742 62.3261 61.2782C62.2301 61.1823 62.1162 61.1062 61.9908 61.0543C61.8654 61.0024 61.7311 60.9757 61.5954 60.9758H57.9262V44.5339C58.1712 44.4993 58.3955 44.3776 58.5581 44.1912C58.7208 44.0047 58.8108 43.7659 58.8118 43.5185ZM18.7845 52.4154H20.2604V53.8913H18.7845V52.4154ZM5.87305 52.4154H7.34899V53.8913H5.87305V52.4154ZM23.7838 68.0603H2.34853V55.9576H23.7838V68.0603ZM27.326 66.2892H25.8501V64.8132H27.326V66.2892ZM56.7443 42.4853H51.7261V42.3832L56.7443 33.9999V42.4853ZM26.64 44.5587L29.4673 39.8357H38.8099L35.9826 44.5587H26.64ZM30.7041 37.7694L33.532 33.0465H42.8747L40.0468 37.7694H30.7041ZM21.7812 33.0465H31.1239L28.2966 37.7694H18.9533L21.7812 33.0465ZM25.8454 26.2572H35.1886L32.3607 30.9802H23.0181L25.8454 26.2572ZM29.9101 19.4679H39.2527L36.4254 24.1909H27.0828L29.9101 19.4679ZM55.0682 12.6786L52.2403 17.4016H42.8977L45.7256 12.6786H55.0682ZM51.0035 19.4679L48.1762 24.1909H38.8336L41.6608 19.4679H51.0035ZM60.2133 24.1909H50.5837L53.4116 19.4679H63.0376L60.2133 24.1909ZM56.1486 30.9802H46.5255L49.3528 26.2572H58.9788L56.1486 30.9802ZM44.1144 30.9802H34.7688L37.5961 26.2572H46.9388L44.1144 30.9802ZM45.2851 33.0465H54.9088L52.0809 37.7694H42.4578L45.2851 33.0465ZM64.2774 17.4016H54.6485L57.4757 12.6786H67.1024L64.2774 17.4016ZM33.9777 12.6786H43.3174L40.4901 17.4016H31.1469L33.9777 12.6786ZM17.7195 39.8357H27.0592L24.2319 44.5587H14.8892L17.7195 39.8357ZM48.0192 44.5587H38.3902L41.2181 39.8357H50.8411L48.0192 44.5587ZM64.9516 68.0603H43.5164V66.5843H64.9516V68.0603ZM60.5622 64.518H47.9076V63.0421H60.5646L60.5622 64.518ZM52.6129 60.9758V44.5516H55.8599V60.9758H52.6129Z" fill="#11D170"/>
<path d="M1.03315 11.9754H2.72988C2.91251 13.4039 3.47455 14.7573 4.35754 15.8949L3.15259 17.0999C2.96502 17.2953 2.86154 17.5566 2.86434 17.8275C2.86714 18.0984 2.976 18.3574 3.16758 18.549C3.35915 18.7406 3.61817 18.8494 3.88909 18.8522C4.16 18.855 4.42122 18.7515 4.61671 18.564L5.82166 17.359C6.95927 18.242 8.3127 18.8041 9.74115 18.9867V20.6834C9.74115 20.9574 9.85 21.2202 10.0437 21.414C10.2375 21.6077 10.5003 21.7166 10.7743 21.7166C11.0483 21.7166 11.3111 21.6077 11.5048 21.414C11.6986 21.2202 11.8075 20.9574 11.8075 20.6834V18.9867C13.2359 18.8041 14.5893 18.242 15.7269 17.359L16.9319 18.564C17.0273 18.6634 17.1416 18.7428 17.268 18.7975C17.3945 18.8522 17.5306 18.8811 17.6684 18.8825C17.8062 18.8839 17.9428 18.8579 18.0704 18.8058C18.198 18.7537 18.3139 18.6767 18.4113 18.5793C18.5087 18.4818 18.5857 18.3659 18.6378 18.2384C18.6899 18.1108 18.716 17.9741 18.7145 17.8363C18.7131 17.6986 18.6842 17.5625 18.6295 17.436C18.5748 17.3095 18.4954 17.1952 18.396 17.0999L17.1911 15.8949C18.074 14.7573 18.6361 13.4039 18.8187 11.9754H20.5154C20.7895 11.9754 21.0522 11.8666 21.246 11.6728C21.4397 11.4791 21.5486 11.2163 21.5486 10.9423C21.5486 10.6683 21.4397 10.4055 21.246 10.2117C21.0522 10.018 20.7895 9.90911 20.5154 9.90911H18.8187C18.6361 8.48066 18.074 7.12724 17.1911 5.98963L18.396 4.78468C18.4954 4.68929 18.5748 4.57501 18.6295 4.44854C18.6842 4.32208 18.7131 4.18597 18.7145 4.04818C18.716 3.9104 18.6899 3.77372 18.6378 3.64615C18.5857 3.51858 18.5087 3.40269 18.4113 3.30526C18.3139 3.20783 18.198 3.13082 18.0704 3.07875C17.9428 3.02668 17.8062 3.00059 17.6684 3.00202C17.5306 3.00344 17.3945 3.03235 17.268 3.08705C17.1416 3.14175 17.0273 3.22113 16.9319 3.32056L15.7269 4.52492C14.5891 3.64237 13.2358 3.08056 11.8075 2.89785V1.20112C11.8075 0.927112 11.6986 0.664326 11.5048 0.470572C11.3111 0.276818 11.0483 0.167969 10.7743 0.167969C10.5003 0.167969 10.2375 0.276818 10.0437 0.470572C9.85 0.664326 9.74115 0.927112 9.74115 1.20112V2.89785C8.31282 3.08056 6.95947 3.64237 5.82166 4.52492L4.61671 3.32056C4.42122 3.13299 4.16 3.0295 3.88909 3.03231C3.61817 3.03511 3.35915 3.14397 3.16758 3.33555C2.976 3.52712 2.86714 3.78614 2.86434 4.05705C2.86154 4.32797 2.96502 4.58919 3.15259 4.78468L4.35754 5.98963C3.47455 7.12724 2.91251 8.48066 2.72988 9.90911H1.03315C0.759143 9.90911 0.496357 10.018 0.302603 10.2117C0.10885 10.4055 0 10.6683 0 10.9423C0 11.2163 0.10885 11.4791 0.302603 11.6728C0.496357 11.8666 0.759143 11.9754 1.03315 11.9754ZM10.7743 4.89095C11.9711 4.89095 13.1411 5.24585 14.1362 5.91078C15.1314 6.57571 15.907 7.52079 16.365 8.62653C16.823 9.73226 16.9428 10.949 16.7093 12.1228C16.4759 13.2967 15.8995 14.3749 15.0532 15.2212C14.2069 16.0675 13.1287 16.6438 11.9549 16.8773C10.781 17.1108 9.56429 16.991 8.45856 16.533C7.35283 16.0749 6.40774 15.2993 5.74281 14.3042C5.07788 13.3091 4.72298 12.1391 4.72298 10.9423C4.7247 9.33788 5.3628 7.79971 6.49727 6.66524C7.63174 5.53077 9.16992 4.89267 10.7743 4.89095Z" fill="#11D170"/>
<path d="M4.85932 59.9424C4.58532 59.9424 4.32253 60.0512 4.12878 60.245C3.93502 60.4387 3.82617 60.7015 3.82617 60.9755V64.6654C3.82617 64.9394 3.93502 65.2022 4.12878 65.3959C4.32253 65.5897 4.58532 65.6985 4.85932 65.6985C5.13333 65.6985 5.39612 65.5897 5.58987 65.3959C5.78363 65.2022 5.89248 64.9394 5.89248 64.6654V60.9755C5.89255 60.8398 5.86588 60.7055 5.81399 60.5801C5.7621 60.4547 5.686 60.3408 5.59005 60.2448C5.49409 60.1489 5.38017 60.0728 5.25479 60.0209C5.1294 59.969 4.99502 59.9423 4.85932 59.9424Z" fill="#11D170"/>
<path d="M14.3207 60.9762H13.2651L14.0432 58.7328C14.131 58.4744 14.113 58.1917 13.9931 57.9465C13.8732 57.7013 13.6612 57.5135 13.4033 57.4241C13.1454 57.3348 12.8626 57.3511 12.6167 57.4695C12.3708 57.588 12.1817 57.7989 12.0908 58.0562L10.8375 61.6723C10.7834 61.8279 10.7673 61.9942 10.7907 62.1573C10.814 62.3204 10.876 62.4756 10.9715 62.6098C11.0671 62.744 11.1933 62.8535 11.3398 62.929C11.4862 63.0044 11.6486 63.0438 11.8134 63.0437H12.8689L12.0908 65.2871C12.0464 65.4153 12.0276 65.5509 12.0356 65.6863C12.0435 65.8218 12.0781 65.9543 12.1373 66.0763C12.1966 66.1984 12.2792 66.3075 12.3807 66.3976C12.4821 66.4877 12.6003 66.5569 12.7284 66.6013C12.837 66.6401 12.9514 66.66 13.0667 66.6603C13.2815 66.6603 13.4909 66.5934 13.6659 66.4688C13.8409 66.3443 13.9728 66.1684 14.0432 65.9655L15.2965 62.3494C15.3506 62.1938 15.3667 62.0275 15.3433 61.8644C15.32 61.7013 15.258 61.5461 15.1625 61.4119C15.067 61.2777 14.9407 61.1682 14.7943 61.0927C14.6478 61.0173 14.4854 60.9779 14.3207 60.978V60.9762Z" fill="#11D170"/>
</svg>
