<svg width="67" height="67" viewBox="0 0 67 67" fill="none" xmlns="http://www.w3.org/2000/svg">
<path d="M63.6924 34.4014H25.2776C24.6647 34.4014 24.123 34.7091 23.7965 35.1774H21.8584C20.8032 35.1774 19.9095 35.8794 19.6181 36.8406H10.6791C10.14 36.8406 9.70292 37.2776 9.70292 37.8168C9.70292 38.356 10.14 38.793 10.6791 38.793H19.5171V46.4013C13.3951 45.2697 7.65074 42.6595 2.77403 38.793H6.11398C6.65309 38.793 7.09015 38.356 7.09015 37.8168C7.09015 37.2776 6.65309 36.8406 6.11398 36.8406H1.49798C0.863463 36.8406 0.31225 37.2255 0.0937172 37.8211C-0.124946 38.4167 0.0464703 39.0667 0.530262 39.4771C5.98057 44.1017 12.5563 47.1765 19.5903 48.3979C19.8458 49.4138 20.7643 50.1691 21.8584 50.1691H23.9066C24.1344 50.3717 24.4335 50.496 24.7616 50.496H26.9057C29.2146 50.496 31.0935 52.3744 31.0943 54.6834V54.8171C31.0949 57.0606 29.2795 58.8767 27.0359 58.8767H26.9261C24.2617 58.8767 22.1172 61.0134 22.1176 63.6621L22.1178 64.7118C22.1179 65.8675 23.0585 66.8077 24.2146 66.8077H53.1017C54.2577 66.8077 55.1984 65.8671 55.1985 64.7111V63.529C55.1986 60.9579 53.1183 58.8769 50.547 58.8769C50.4437 58.8586 48.7832 59.059 47.4089 57.693C44.9239 55.2224 46.4974 50.0954 50.429 48.6276L63.9097 43.5946C65.4037 43.0367 66.4073 41.5906 66.4073 39.996V36.9349C66.4074 35.7834 65.3048 34.4014 63.6924 34.4014ZM64.4507 37.0356C64.452 37.0476 64.4534 37.0594 64.4551 37.0711V38.3443H25.4248V36.3536H63.6924C64.0843 36.3537 64.4103 36.6468 64.4507 37.0356ZM21.4695 47.8279V37.5185C21.4695 37.3041 21.6439 37.1297 21.8582 37.1297H23.4723V48.2167H21.8582C21.644 48.2167 21.4695 48.0423 21.4695 47.8279ZM63.2269 41.7652L49.7464 46.7983C44.4191 48.7871 42.5651 55.6299 46.0326 59.0771C47.9842 61.0175 50.4683 60.8144 50.5471 60.8289C52.0389 60.8289 53.2463 62.0362 53.2463 63.5286V64.7105C53.2463 64.7902 53.1815 64.855 53.1018 64.855H24.2146C24.1349 64.855 24.0701 64.7906 24.0701 64.7112L24.07 63.6616C24.0697 62.0945 25.3384 60.8287 26.926 60.8287H27.0357C30.3582 60.8287 33.0477 58.1395 33.0465 54.816V54.6824C33.0455 51.2973 30.2907 48.5434 26.9056 48.5434H25.4247V40.2965H64.4302C64.3225 40.9572 63.8661 41.5267 63.2269 41.7652Z" fill="#11D170"/>
<path d="M16.1989 24.3797C22.2322 26.7566 22.1365 26.8972 22.8503 26.8972C23.6835 26.8972 24.474 26.3989 24.8041 25.58L25.5487 23.7324C25.909 22.8389 25.6092 21.8683 24.9253 21.3134L25.6426 19.5337C26.4567 19.6577 27.2194 19.2881 27.6468 18.6658L56.3559 31.2187C57.8358 31.8658 59.5374 31.156 60.1339 29.6757L61.524 26.2271C62.1241 24.7384 61.3772 23.0519 59.8719 22.4955L51.0817 19.2463C50.576 19.0598 50.0146 19.3179 49.8276 19.8235C49.6407 20.3293 49.8991 20.8907 50.4049 21.0777L59.1952 24.327C59.6674 24.5014 59.9015 25.0305 59.7134 25.4973L58.3233 28.946C58.1351 29.413 57.5996 29.6316 57.1382 29.4299L28.424 16.8746L29.7996 13.4614L46.1241 19.4954C46.6327 19.6831 47.1922 19.4212 47.3782 18.9182C47.5651 18.4124 47.3067 17.851 46.8009 17.664L30.4824 11.6321C30.7565 10.4568 30.5069 9.19573 29.7774 8.22034C29.2526 7.51854 29.0574 6.85656 29.1802 6.19654C29.433 4.83796 30.9496 3.70677 31.831 3.15335C32.9278 2.46469 32.679 0.791525 31.4266 0.460927C27.0432 -0.696165 23.2163 1.61685 21.189 6.64701L18.1126 14.2798C17.7751 15.1168 18.0067 16.0476 18.6512 16.6339L17.9053 18.4846C17.0106 18.4104 16.1316 18.9192 15.7789 19.7945L15.0343 21.6421C14.5994 22.7206 15.1205 23.9452 16.1989 24.3797ZM19.751 19.1276L20.412 17.4876L23.8102 18.8573L23.1493 20.4972L19.751 19.1276ZM19.9234 15.0097L22.9997 7.37693C24.2714 4.22193 26.4868 1.80427 29.8543 2.15036C28.695 3.03946 27.5509 4.2805 27.2608 5.83939C27.0356 7.04854 27.3563 8.24299 28.2138 9.38967C28.6634 9.99099 28.767 10.8004 28.4841 11.5024L26.0522 17.5364C26.0293 17.5937 25.965 17.6212 25.9077 17.598C24.1338 16.883 21.7105 15.9063 20.0138 15.2225C19.93 15.1883 19.8895 15.0935 19.9234 15.0097ZM16.845 22.3721L17.5897 20.5246C17.6209 20.4471 17.7091 20.41 17.7866 20.4407C19.5454 21.1496 22.0001 22.139 23.6543 22.8057C23.7023 22.8251 23.7258 22.8605 23.7369 22.8868C23.7481 22.9131 23.7574 22.9546 23.7381 23.0026L22.9935 24.8501C22.9623 24.9276 22.8741 24.9647 22.7966 24.934L16.9288 22.5691C16.8506 22.5373 16.8139 22.4493 16.845 22.3721Z" fill="#11D170"/>
</svg>
