<svg width="88" height="89" viewBox="0 0 88 89" fill="none" xmlns="http://www.w3.org/2000/svg">
<rect x="22.2637" y="21.8262" width="43.3944" height="44.2558" rx="10" fill="#14C864"/>
<path d="M1 28.7683V11C1 5.47716 5.47715 1 11 1H76.9209C82.4437 1 86.9208 5.47715 86.9208 11V28.3345" stroke="#DFDFE0" stroke-width="2"/>
<path d="M11.8477 36.5777V25.7515C11.8477 20.2286 16.3248 15.7515 21.8477 15.7515H66.0713C71.5942 15.7515 76.0713 20.2286 76.0713 25.7515V36.2523" stroke="#686E79" stroke-width="2"/>
<path d="M86.9219 60.0075L86.9219 77.7759C86.9219 83.2987 82.4447 87.7759 76.9219 87.7759L11.001 87.7759C5.47818 87.7759 1.00103 83.2987 1.00103 77.7759L1.00103 60.4414" stroke="#DFDFE0" stroke-width="2"/>
<path d="M76.0723 52.1977L76.0723 63.0239C76.0723 68.5468 71.5951 73.0239 66.0723 73.0239L21.8486 73.0239C16.3258 73.0239 11.8486 68.5468 11.8486 63.0239L11.8486 52.5231" stroke="#686E79" stroke-width="2"/>
</svg>
