<svg width="71" height="71" viewBox="0 0 71 71" fill="none" xmlns="http://www.w3.org/2000/svg">
<path d="M15.9545 47.4573L13.0612 48.2065C11.9163 48.5041 10.7433 47.89 10.3344 46.7813L9.06795 43.3475C8.65823 42.2367 9.15152 41.008 10.2138 40.4866L12.9006 39.1776C12.7314 38.1419 12.6331 37.0997 12.6092 36.0666L9.73316 35.2711C8.59428 34.9551 7.8838 33.8377 8.0843 32.6706L8.70353 29.0647C8.90188 27.8983 9.94617 27.0827 11.1255 27.1638L14.0963 27.374C14.4676 26.3982 14.9079 25.4434 15.4089 24.5274L13.3207 22.4068C12.4912 21.5633 12.4384 20.2401 13.1937 19.3305L15.5339 16.5182C16.2965 15.6084 17.6024 15.4226 18.5823 16.0835L21.0548 17.7542C21.8568 17.1038 22.7124 16.4996 23.61 15.9558L22.8608 13.0625C22.5632 11.9176 23.1773 10.7447 24.2882 10.3349L27.7219 9.06847C28.8328 8.65875 30.0615 9.15204 30.5829 10.2143L31.8918 12.9012C32.9275 12.7319 33.9698 12.6336 35.0028 12.6097L35.7983 9.73367C36.1115 8.59344 37.2288 7.88296 38.3989 8.08482L42.0047 8.70405C43.1698 8.90533 43.9867 9.94668 43.9057 11.126L43.6954 14.0968C44.6712 14.4682 45.626 14.9084 46.5421 15.4094L48.6627 13.3213C49.5032 12.4903 50.8286 12.4368 51.7389 13.1942L54.5513 15.5344C55.4616 16.2919 55.6468 17.6029 54.9859 18.5828L53.3152 21.0553C53.9657 21.8573 54.5699 22.713 55.1137 23.6105L58.0069 22.8613C59.1518 22.5638 60.3248 23.1779 60.7345 24.2887L62.001 27.7224C62.4107 28.8333 61.9174 30.062 60.8522 30.5821L58.1654 31.891C58.3346 32.9267 58.4329 33.969 58.4568 35.002L61.3328 35.7975C62.4709 36.1114 63.1814 37.2287 62.9817 38.398L62.3617 42.0017C62.1612 43.1689 61.1198 43.9859 59.9405 43.9048L56.9689 43.6924C56.5983 44.6704 56.1595 45.6222 55.6563 46.5391L57.7445 48.6597C58.5748 49.5053 58.6297 50.8277 57.8723 51.7381L55.5342 54.5496C54.7746 55.4608 53.4636 55.646 52.4858 54.9843L50.0142 53.3158C49.2122 53.9662 48.3565 54.5704 47.459 55.1142L48.2082 58.0074C48.5057 59.1523 47.8916 60.3253 46.7807 60.735L43.347 62.0015C42.2362 62.4112 41.0075 61.9179 40.4874 60.8527L39.1785 58.1659C38.1428 58.3351 37.1005 58.4334 36.0675 58.4573L35.272 61.3334C34.9559 62.4722 33.8407 63.1819 32.6714 62.9822L29.0656 62.363C27.9005 62.1617 27.0836 61.1203 27.1646 59.941L27.3749 56.9702C26.3991 56.5989 25.4443 56.1586 24.5282 55.6576L22.4076 57.7458C21.5612 58.574 20.2388 58.6289 19.3314 57.8728L16.5169 55.5334C15.6065 54.7759 15.4213 53.4649 16.0822 52.485L17.7529 50.0125C17.1025 49.2106 16.4983 48.3549 15.9545 47.4573Z" fill="#11D170"/>
<path d="M15.9545 47.4573L13.0612 48.2065C11.9163 48.5041 10.7433 47.89 10.3344 46.7813L9.06795 43.3475C8.65823 42.2367 9.15152 41.008 10.2138 40.4866L12.9006 39.1776C12.7314 38.1419 12.6331 37.0997 12.6092 36.0666L9.73316 35.2711C8.59428 34.9551 7.8838 33.8377 8.0843 32.6706L8.70353 29.0647C8.90188 27.8983 9.94617 27.0827 11.1255 27.1638L14.0963 27.374C14.4676 26.3982 14.9079 25.4434 15.4089 24.5274L13.3207 22.4068C12.4912 21.5633 12.4384 20.2401 13.1937 19.3305L15.5339 16.5182C16.2965 15.6084 17.6024 15.4226 18.5823 16.0835L21.0548 17.7542C21.8568 17.1038 22.7124 16.4996 23.61 15.9558L22.8608 13.0625C22.5632 11.9176 23.1773 10.7447 24.2882 10.3349L27.7219 9.06847C28.8328 8.65875 30.0615 9.15204 30.5829 10.2143L31.8918 12.9012C32.9275 12.7319 33.9698 12.6336 35.0028 12.6097L35.7983 9.73367C36.1115 8.59344 37.2288 7.88296 38.3989 8.08482L42.0047 8.70405C43.1698 8.90533 43.9867 9.94668 43.9057 11.126L43.6954 14.0968C44.6712 14.4682 45.626 14.9084 46.5421 15.4094L48.6627 13.3213C49.5032 12.4903 50.8286 12.4368 51.7389 13.1942L54.5513 15.5344C55.4616 16.2919 55.6468 17.6029 54.9859 18.5828L53.3152 21.0553C53.9657 21.8573 54.5699 22.713 55.1137 23.6105L58.0069 22.8613C59.1518 22.5638 60.3248 23.1779 60.7345 24.2887L62.001 27.7224C62.4107 28.8333 61.9174 30.062 60.8522 30.5821L58.1654 31.891C58.3346 32.9267 58.4329 33.969 58.4568 35.002L61.3328 35.7975C62.4709 36.1114 63.1814 37.2287 62.9817 38.398L62.3617 42.0017C62.1612 43.1689 61.1198 43.9859 59.9405 43.9048L56.9689 43.6924C56.5983 44.6704 56.1595 45.6222 55.6563 46.5391L57.7445 48.6597C58.5748 49.5053 58.6297 50.8277 57.8723 51.7381L55.5342 54.5496C54.7746 55.4608 53.4636 55.646 52.4858 54.9843L50.0142 53.3158C49.2122 53.9662 48.3565 54.5704 47.459 55.1142L48.2082 58.0074C48.5057 59.1523 47.8916 60.3253 46.7807 60.735L43.347 62.0015C42.2362 62.4112 41.0075 61.9179 40.4874 60.8527L39.1785 58.1659C38.1428 58.3351 37.1005 58.4334 36.0675 58.4573L35.272 61.3334C34.9559 62.4722 33.8407 63.1819 32.6714 62.9822L29.0656 62.363C27.9005 62.1617 27.0836 61.1203 27.1646 59.941L27.3749 56.9702C26.3991 56.5989 25.4443 56.1586 24.5282 55.6576L22.4076 57.7458C21.5612 58.574 20.2388 58.6289 19.3314 57.8728L16.5169 55.5334C15.6065 54.7759 15.4213 53.4649 16.0822 52.485L17.7529 50.0125C17.1025 49.2106 16.4983 48.3549 15.9545 47.4573Z" fill="#11D170"/>
<circle cx="35.5335" cy="35.5353" r="20.3285" transform="rotate(159.754 35.5335 35.5353)" fill="#11D170"/>
<path d="M38.8315 36.0816C38.1838 36.3205 37.8524 37.0392 38.0913 37.6869L41.9843 48.2419C42.2232 48.8896 42.9419 49.221 43.5896 48.9821C44.2373 48.7432 44.5688 48.0245 44.3299 47.3768L40.8694 37.9946L50.2516 34.5341C50.8993 34.2952 51.2307 33.5765 50.9918 32.9288C50.7529 32.2811 50.0342 31.9497 49.3865 32.1886L38.8315 36.0816ZM54.1533 42.7433L39.7875 36.1192L38.7407 38.3895L53.1065 45.0136L54.1533 42.7433Z" fill="white"/>
<path d="M33.4825 38.0547C34.1302 37.8158 34.8489 38.1472 35.0878 38.7949L38.9809 49.3498C39.2197 49.9975 38.8883 50.7163 38.2406 50.9552C37.5929 51.1941 36.8742 50.8627 36.6353 50.2149L33.1748 40.8328L23.7927 44.2932C23.145 44.5321 22.4262 44.2007 22.1873 43.553C21.9484 42.9053 22.2799 42.1866 22.9276 41.9477L33.4825 38.0547ZM26.1559 53.0699L32.7799 38.704L35.0502 39.7509L28.4262 54.1167L26.1559 53.0699Z" fill="white"/>
<path d="M37.7616 33.1802C37.1139 33.4191 36.3952 33.0877 36.1563 32.44L32.2633 21.885C32.0244 21.2373 32.3558 20.5186 33.0035 20.2797C33.6512 20.0408 34.3699 20.3722 34.6088 21.0199L38.0693 30.4021L47.4515 26.9416C48.0992 26.7027 48.8179 27.0341 49.0568 27.6818C49.2957 28.3295 48.9643 29.0483 48.3166 29.2872L37.7616 33.1802ZM45.0883 18.165L38.4642 32.5308L36.1939 31.484L42.818 17.1182L45.0883 18.165Z" fill="white"/>
<path d="M32.4126 35.1528C33.0603 34.9139 33.3917 34.1951 33.1528 33.5474L29.2598 22.9925C29.0209 22.3448 28.3022 22.0134 27.6545 22.2523C27.0068 22.4912 26.6754 23.2099 26.9143 23.8576L30.3747 33.2398L20.9926 36.7003C20.3449 36.9391 20.0135 37.6579 20.2524 38.3056C20.4913 38.9533 21.21 39.2847 21.8577 39.0458L32.4126 35.1528ZM17.0908 28.4911L31.4567 35.1151L32.5035 32.8449L18.1377 26.2208L17.0908 28.4911Z" fill="white"/>
<circle cx="35.5335" cy="35.5353" r="19.0785" transform="rotate(159.754 35.5335 35.5353)" stroke="white" stroke-width="2.5"/>
</svg>
