<svg width="162" height="162" viewBox="0 0 162 162" fill="none" xmlns="http://www.w3.org/2000/svg">
<path d="M143.093 68.8283L151.301 69.6516C154.55 69.9746 157.001 72.6853 157.001 75.947V86.0486C157.001 89.3167 154.55 92.0273 151.301 92.363L143.093 93.1863C142.542 96.03 141.801 98.823 140.876 101.521L147.564 106.328C150.211 108.234 150.984 111.806 149.35 114.637L144.302 123.384C142.675 126.215 139.191 127.329 136.215 125.993L128.722 122.611C126.829 124.783 124.777 126.835 122.604 128.729L125.986 136.215C127.329 139.192 126.202 142.669 123.377 144.303L114.631 149.35C111.787 150.978 108.228 150.212 106.321 147.564L101.514 140.876C98.8164 141.795 96.0234 142.542 93.1798 143.093L92.3564 151.301C92.0334 154.55 89.3228 157.001 86.0548 157.001H75.9531C72.6851 157.001 69.9744 154.55 69.6388 151.301L68.8154 143.093C65.9718 142.542 63.1788 141.801 60.4808 140.876L55.6738 147.564C53.7738 150.218 50.2018 150.991 47.3644 149.35L38.6181 144.303C35.7934 142.669 34.6724 139.192 36.0088 136.215L39.3908 128.723C37.2184 126.829 35.1664 124.777 33.2728 122.605L25.7868 125.987C22.8164 127.336 19.3331 126.208 17.6991 123.377L12.6514 114.631C11.0174 111.8 11.7901 108.228 14.4374 106.322L21.1254 101.515C20.2071 98.8167 19.4598 96.0237 18.9088 93.18L10.7008 92.3566C7.45176 92.0336 5.00076 89.323 5.00076 86.055V75.9533C5.00076 72.6853 7.45176 69.9746 10.7071 69.6453L18.9151 68.822C19.4661 65.9783 20.2071 63.1853 21.1318 60.4873L14.4438 55.6803C11.7964 53.7803 11.0238 50.2083 12.6578 47.371L17.7054 38.631C19.3394 35.8 22.8164 34.679 25.7931 36.0153L33.2854 39.4036C35.1791 37.225 37.2248 35.1793 39.4034 33.2856L36.0214 25.7996C34.6788 22.8166 35.7998 19.3396 38.6308 17.7056L47.3708 12.658C50.2081 11.024 53.7801 11.7966 55.6801 14.444L60.4871 21.1256C63.1851 20.2073 65.9781 19.46 68.8218 18.909L69.6451 10.701C69.9681 7.45198 72.6788 5.00098 75.9468 5.00098H86.0484C89.3164 5.00098 92.0271 7.45198 92.3564 10.7073L93.1798 18.9153C96.0234 19.4663 98.8164 20.2073 101.514 21.132L106.321 14.444C108.228 11.7966 111.793 11.024 114.631 12.658L123.377 17.7056C126.202 19.3396 127.323 22.8166 125.986 25.7933L122.604 33.2856C124.777 35.1793 126.829 37.2313 128.722 39.4036L136.208 36.0216C139.191 34.6853 142.668 35.8063 144.296 38.631L149.35 47.3773C150.984 50.2083 150.211 53.7803 147.564 55.6866L140.876 60.4936C141.794 63.1916 142.542 65.9846 143.093 68.8283Z" fill="#11D170"/>
<path d="M75.4575 128.468L94.3586 135.254C94.7509 135.395 95.178 135.186 95.3126 134.789C95.3614 134.646 95.3664 134.49 95.3271 134.342L93.5454 127.693C104.562 124.239 107.656 111.384 105.613 103.182L105.603 103.145C105.494 102.738 105.081 102.495 104.681 102.602C104.286 102.708 104.05 103.117 104.151 103.522L104.163 103.564C104.612 105.566 99.2851 116.148 91.1731 118.84L89.4013 112.227C89.2918 111.82 88.8787 111.578 88.4787 111.685C88.3338 111.724 88.2042 111.807 88.1065 111.921L75.1311 127.25C74.8621 127.568 74.8999 128.049 75.2155 128.325C75.2869 128.387 75.3689 128.436 75.4575 128.468Z" fill="white"/>
<path d="M33.5504 75.414L26.7635 94.3152C26.6233 94.7075 26.8316 95.1346 27.2286 95.2692C27.3724 95.3179 27.5281 95.3229 27.6756 95.2836L34.3249 93.502C37.7793 104.519 50.6336 107.612 58.8359 105.57L58.8727 105.56C59.2798 105.451 59.523 105.038 59.4158 104.638C59.3098 104.242 58.9005 104.006 58.4963 104.108L58.4535 104.119C56.4517 104.569 45.8702 99.2417 43.1783 91.1297L49.7908 89.3579C50.1978 89.2483 50.4404 88.8353 50.3328 88.4353C50.2938 88.2904 50.2115 88.1607 50.0965 88.0631L34.7682 75.0877C34.4502 74.8187 33.9688 74.8564 33.6929 75.1721C33.6306 75.2435 33.5822 75.3255 33.5504 75.414Z" fill="white"/>
<path d="M85.6386 33.7658L66.7374 26.9789C66.3452 26.8388 65.918 27.047 65.7835 27.444C65.7347 27.5878 65.7297 27.7435 65.769 27.891L67.5507 34.5403C56.534 37.9947 53.4403 50.849 55.4828 59.0513L55.4927 59.0881C55.6018 59.4953 56.0146 59.7384 56.4147 59.6312C56.8104 59.5253 57.0463 59.1159 56.9448 58.7117L56.9334 58.6689C56.4839 56.6671 61.811 46.0856 69.923 43.3938L71.6947 50.0062C71.8043 50.4132 72.2174 50.6559 72.6174 50.5482C72.7623 50.5093 72.8919 50.4269 72.9896 50.3119L85.965 34.9837C86.234 34.6656 86.1962 34.1842 85.8805 33.9083C85.8092 33.8461 85.7271 33.7977 85.6386 33.7658Z" fill="white"/>
<path d="M128.512 86.5615L135.299 67.6604C135.439 67.2681 135.231 66.841 134.834 66.7064C134.69 66.6576 134.534 66.6526 134.387 66.692L127.737 68.4736C124.283 57.457 111.429 54.3632 103.226 56.4058L103.19 56.4156C102.783 56.5247 102.539 56.9376 102.647 57.3377C102.753 57.7333 103.162 57.9693 103.566 57.8678L103.609 57.8563C105.611 57.4069 116.192 62.7339 118.884 70.8459L112.272 72.6177C111.865 72.7273 111.622 73.1403 111.73 73.5403C111.769 73.6852 111.851 73.8148 111.966 73.9125L127.294 86.8879C127.612 87.1569 128.094 87.1191 128.369 86.8035C128.432 86.7321 128.48 86.6501 128.512 86.5615Z" fill="white"/>
<path d="M68.1506 74.081C67.3106 73.401 66.9506 72.501 67.0706 71.381C68.6906 70.661 70.5606 70.301 72.6806 70.301C74.7206 70.301 76.3706 70.761 77.6306 71.681C78.8906 72.601 79.5206 74.031 79.5206 75.971C79.5206 76.731 79.4206 77.421 79.2206 78.041C79.0406 78.661 78.8206 79.181 78.5606 79.601C78.3206 80.001 77.9006 80.451 77.3006 80.951C76.7206 81.431 76.2106 81.811 75.7706 82.091C75.3506 82.371 74.6906 82.781 73.7906 83.321C73.6906 83.381 73.3606 83.581 72.8006 83.921C72.2406 84.241 71.8606 84.471 71.6606 84.611C71.4806 84.751 71.2106 84.971 70.8506 85.271C70.5106 85.571 70.2706 85.871 70.1306 86.171C70.0106 86.471 69.9506 86.801 69.9506 87.161C69.9506 87.261 69.9706 87.411 70.0106 87.611H78.9206C79.1606 88.031 79.2806 88.591 79.2806 89.291C79.2806 89.911 79.1606 90.481 78.9206 91.001H66.4706C66.3506 90.361 66.2906 89.691 66.2906 88.991C66.2906 88.351 66.3606 87.731 66.5006 87.131C66.6406 86.531 66.7806 86.031 66.9206 85.631C67.0806 85.211 67.3506 84.761 67.7306 84.281C68.1306 83.801 68.4306 83.441 68.6306 83.201C68.8306 82.961 69.2106 82.631 69.7706 82.211C70.3306 81.791 70.6906 81.521 70.8506 81.401C71.0306 81.281 71.4406 81.011 72.0806 80.591C73.4806 79.631 74.4206 78.861 74.9006 78.281C75.3806 77.701 75.6206 76.961 75.6206 76.061C75.6206 74.301 74.4406 73.421 72.0806 73.421C71.4806 73.421 70.8506 73.481 70.1906 73.601C69.5306 73.701 69.0206 73.801 68.6606 73.901L68.1506 74.081ZM87.2353 73.901V78.701C87.4553 78.681 87.8253 78.671 88.3453 78.671C93.0053 78.671 95.3353 80.761 95.3353 84.941C95.3353 89.181 92.7153 91.301 87.4753 91.301C86.3753 91.301 85.3953 91.211 84.5353 91.031C83.6753 90.851 83.0853 90.671 82.7653 90.491L82.2853 90.221C82.2253 89.041 82.5353 88.111 83.2153 87.431C84.2553 87.851 85.5553 88.061 87.1153 88.061C89.9953 88.061 91.4353 87.021 91.4353 84.941C91.4353 83.661 91.0953 82.811 90.4153 82.391C89.7353 81.971 88.5653 81.761 86.9053 81.761C85.6653 81.761 84.5353 81.801 83.5153 81.881V70.601H94.4653C94.8853 71.761 94.8853 72.861 94.4653 73.901H87.2353Z" fill="white"/>
</svg>
